<svg width="700" height="427" viewBox="0 0 700 427" fill="none" xmlns="http://www.w3.org/2000/svg">
<path fill-rule="evenodd" clip-rule="evenodd" d="M0 426.743H700V0.741943H0V426.743Z" fill="#2927A4"/>
<mask id="mask0" mask-type="alpha" maskUnits="userSpaceOnUse" x="566" y="0" width="98" height="286">
<path d="M566.071 0.741943H663.896V285.254H566.071V0.741943Z" fill="white"/>
</mask>
<g mask="url(#mask0)">
<path d="M652.664 -92.3837L566.071 13.2713L661.716 -30.8337L604.506 93.2603L663.896 49.3493L622.372 285.254" stroke="white" stroke-width="2" stroke-linecap="round" stroke-linejoin="round"/>
</g>
<path d="M541.241 129.911L473.8 117.869L485.843 50.4292" stroke="#FFDB7A" stroke-width="2" stroke-linecap="round" stroke-linejoin="round"/>
<path d="M592.796 34.9318L473.801 117.87" stroke="#FFDB7A" stroke-width="2" stroke-linecap="round" stroke-linejoin="round"/>
<mask id="mask1" mask-type="alpha" maskUnits="userSpaceOnUse" x="287" y="0" width="348" height="427">
<path d="M287.021 0.741943H634.694V426.743H287.021V0.741943Z" fill="white"/>
</mask>
<g mask="url(#mask1)">
<path d="M287.021 1075.07C404.021 841.752 510.997 487.778 552.602 369.45C594.207 251.122 382.917 505.492 338.608 620.053C294.299 734.614 509.209 411.054 586.51 264.256C663.811 117.458 390.216 393.709 419.529 404.066C437.24 410.324 512.974 309.646 559.277 226.703C589.603 172.378 607.305 125.661 587.811 121.579C538.553 111.266 327.632 370.129 551.451 174.309C702.201 42.4184 616.046 49.4664 543.726 68.1264C529.915 71.6894 520.249 54.6334 530.467 44.6804C578.731 -2.32759 619.975 -75.8216 555.249 -138.54C490.958 -200.837 505.981 -9.30359 505.981 -9.30359" stroke="#00E4A3" stroke-width="2" stroke-linecap="round" stroke-linejoin="round"/>
</g>
</svg>
