<svg width="70" height="66" viewBox="0 0 70 66" fill="none" xmlns="http://www.w3.org/2000/svg">
<path fill-rule="evenodd" clip-rule="evenodd" d="M18.0588 51.842C16.3828 51.8226 15.0081 53.1598 14.9885 54.8289C14.9872 54.9437 14.9924 55.0587 15.0042 55.1731C15.1698 56.9437 16.6553 58.302 18.4412 58.315C20.1173 58.3346 21.4919 56.9974 21.5115 55.3283C21.5129 55.2134 21.5076 55.0985 21.4958 54.9841C21.3302 53.2133 19.8447 51.8552 18.0588 51.842ZM19.1151 55.8787C18.94 56.0626 18.6949 56.1637 18.4407 56.1574C17.7811 56.1365 17.2368 55.6371 17.1619 54.9841C17.1323 54.7284 17.213 54.4719 17.3839 54.2788C17.559 54.0949 17.804 53.9937 18.0583 54.0001C18.7177 54.0211 19.2621 54.5205 19.337 55.1735C19.3667 55.4291 19.2857 55.6854 19.1151 55.8787Z" fill="white"/>
<path d="M24.75 17.8586C24.75 16.9649 24.0224 16.2404 23.125 16.2404C22.2276 16.2404 21.5 16.9649 21.5 17.8586C21.5 18.7523 22.2276 19.4769 23.125 19.4769C24.0221 19.4759 24.749 18.752 24.75 17.8586Z" fill="white"/>
<path d="M32.875 19.4769C33.7724 19.4769 34.5 18.7523 34.5 17.8586C34.5 16.9649 33.7724 16.2404 32.875 16.2404C31.9776 16.2404 31.25 16.9649 31.25 17.8586C31.2509 18.752 31.9778 19.4759 32.875 19.4769Z" fill="white"/>
<path d="M31.25 22.7134C31.2478 24.5001 29.7941 25.9477 28 25.9499C26.2058 25.9477 24.7522 24.5001 24.75 22.7134H26.9167C26.9167 23.3092 27.4017 23.7922 28 23.7922C28.5983 23.7922 29.0833 23.3092 29.0833 22.7134H31.25Z" fill="white"/>
<path d="M44.25 42.1325H46.4167V39.9749H44.25V42.1325Z" fill="white"/>
<path d="M52.9167 42.1325H50.75V39.9749H52.9167V42.1325Z" fill="white"/>
<path fill-rule="evenodd" clip-rule="evenodd" d="M59.4167 50.7633C63.6048 50.7633 67 54.1444 67 58.3152C67.0119 61.9972 64.3457 65.1469 60.6996 65.7579L60.6904 65.7598C60.6865 65.7604 60.6827 65.7618 60.6787 65.7618C60.2617 65.8318 59.8396 65.867 59.4167 65.867H8.04688C7.04263 65.867 6.16987 65.1797 5.93858 64.2063L2.09004 48.0178C2.03018 47.7798 1.99998 47.5351 1.99998 47.2897C1.99998 45.633 3.34887 44.2901 5.01246 44.2903H9.81759L10.1385 41.4179C10.501 38.1383 13.2848 35.6566 16.5979 35.6596H22.5833V30.9782C19.8895 29.4426 17.9935 26.8228 17.3828 23.7923H17.2541C14.8713 23.7923 12.8685 21.9135 12.8333 19.541C12.8112 17.9773 13.6401 16.5241 15 15.7422V13.004C15 6.44988 20.3353 1.13674 26.9167 1.13674H29.0833C31.0655 1.13477 33.0165 1.62761 34.7577 2.57106C35.3321 2.10958 35.9812 1.74912 36.6769 1.50476C40.0622 0.316283 43.774 2.08558 44.9676 5.45681C46.161 8.82805 44.3843 12.5244 40.999 13.7129V15.7422C42.3589 16.5241 43.1878 17.9773 43.1657 19.541C43.1309 21.9135 41.1286 23.7923 38.7453 23.7923H38.6167C38.0061 26.8227 36.1102 29.4425 33.4166 30.9781V35.6596H38.8333C39.5713 35.6586 40.3041 35.7834 41 36.0281V33.5019C40.9967 32.913 41.4707 32.4315 42.0619 32.423C44.252 32.4129 46.2458 33.6784 47.1614 35.6596H50.0052C50.9207 33.6785 52.9144 32.4131 55.1042 32.423C55.6955 32.4313 56.1699 32.9127 56.1667 33.5019V37.5624L56.4879 38.2025C57.1121 39.443 57.361 40.8377 57.2043 42.2166C57.5781 42.1609 57.9554 42.1329 58.3333 42.1326H61.5833C63.3558 42.1346 64.8005 43.549 64.8329 45.3135C64.8635 47.1238 63.3276 48.6056 61.5094 48.6056H58.3333L58.3165 48.6057L58.3001 48.606C57.7036 48.6225 57.2335 49.1173 57.25 49.7114C57.2802 50.3071 57.7784 50.7719 58.3773 50.7633H59.4167ZM54 55.0786V63.7069L59.4167 63.7054V59.8094C59.419 58.7114 59.177 57.6265 58.7086 56.6326C58.5401 56.2743 58.3439 55.9296 58.1217 55.6016C57.2787 54.3599 56.0803 53.399 54.6821 52.844C54.3862 52.7261 54.1573 52.4844 54.0566 52.1833L52.6889 48.099C51.8436 48.4339 50.942 48.606 50.0323 48.6056H47.135C46.5272 48.606 45.922 48.5298 45.3333 48.3789V61.5517C45.3333 61.8378 45.2192 62.1121 45.016 62.3146C44.6365 62.6947 44.383 63.1815 44.2894 63.7094H46.4379C46.5243 62.7651 46.8944 61.8686 47.5 61.1369V55.0786H49.6667V61.5517C49.6667 61.8378 49.5524 62.1123 49.3492 62.3146C48.9682 62.6928 48.7147 63.18 48.6239 63.7083L51.8333 63.7075V55.0786H54ZM8.00626 62.6877C8.1563 63.2883 8.69823 63.7099 9.3198 63.7094H33.178C33.2398 63.7094 33.3014 63.7026 33.3618 63.6893C33.8178 63.5884 34.1054 63.1385 34.0041 62.6845L30.6165 47.504C30.4816 46.8853 29.9305 46.4448 29.2947 46.4479H5.01246C4.54555 46.4483 4.16719 46.8251 4.16665 47.2902C4.16665 47.3588 4.17505 47.4273 4.19184 47.4937L8.00626 62.6877ZM16.5979 37.8172C14.3893 37.8151 12.5334 39.4695 12.2917 41.6556L11.9977 44.2903H17.1667V37.8172H16.5979ZM21.4347 40.4369L20.6829 37.8172H19.3333V44.2903H24.3229C22.9213 43.3986 21.8945 42.0288 21.4347 40.4369ZM19.3333 16.8128V21.6347C19.3333 26.4012 23.2135 30.2654 28 30.2654C32.7864 30.2654 36.6667 26.4012 36.6667 21.6347V16.4952L33.0356 9.26322C30.6165 11.071 24.5314 15.3512 19.3333 16.8128ZM17.1667 17.3193C15.9707 17.3207 15.0013 18.2859 15 19.477C15.0013 20.668 15.9707 21.6332 17.1667 21.6347V17.3193ZM26.9167 3.29442C21.5344 3.30035 17.1726 7.64389 17.1667 13.004L17.1662 15.0796C17.4382 15.0411 17.72 14.989 18.0118 14.9235C24.1793 13.5457 32.6547 6.83476 32.7396 6.76733C32.7993 6.71973 32.8637 6.6786 32.9321 6.64448C33.4674 6.37814 34.1181 6.59418 34.3856 7.12712L38.4195 15.1616H38.8333V13.004C38.8272 7.64389 34.4656 3.30035 29.0833 3.29442H26.9167ZM43.1665 7.6099C43.1667 5.22662 41.2265 3.29439 38.8333 3.29439C38.0765 3.29199 37.3325 3.48874 36.6767 3.86485C38.9828 5.7628 40.4874 8.45517 40.8917 11.4071C42.2929 10.6537 43.1665 9.19566 43.1665 7.6099ZM38.8333 17.3193V21.6347C40.03 21.6347 41 20.6686 41 19.477C41 18.2853 40.03 17.3193 38.8333 17.3193ZM24.75 31.9291V35.6596C24.7481 36.7176 23.9765 37.6186 22.9274 37.7872L23.5177 39.8444C24.0951 41.8335 25.9208 43.205 28 43.2114C30.0811 43.211 31.9099 41.8373 32.4819 39.8448L33.0723 37.7872C32.0233 37.6185 31.2519 36.7176 31.25 35.6596V31.9291C29.1338 32.5876 26.8661 32.5876 24.75 31.9291ZM36.6667 48.6056V37.8172H35.3171L34.5653 40.4375C34.1617 41.8601 33.2997 43.111 32.1118 43.9976C31.7503 44.2695 31.3628 44.5051 30.9549 44.701C31.8626 45.1818 32.5123 46.0356 32.7316 47.0359L35.4893 59.394H36.6667C36.6668 59.1402 36.7566 58.8945 36.9204 58.7003C39.2218 55.9865 39.2224 52.0153 36.9216 49.3009C36.757 49.1062 36.6667 48.86 36.6667 48.6056ZM43.1667 47.4177C40.1198 45.4235 39.047 41.478 40.6675 38.2253C40.0938 37.9563 39.4677 37.8168 38.8333 37.8172V48.2247C41.368 51.4869 41.4807 56.0108 39.1115 59.394H43.1667V47.4177ZM36.1186 62.2161C36.2297 62.7098 36.2133 63.2236 36.0708 63.7094H42.1055C42.181 62.9397 42.4415 62.1995 42.8651 61.5517H35.9709L36.1186 62.2161ZM43.1667 34.755V37.8172C43.1669 37.9846 43.1279 38.1498 43.0529 38.2996L42.6173 39.1674C42.2667 39.8658 42.084 40.6361 42.084 41.4172C42.084 44.1955 44.3457 46.4479 47.1357 46.4479H50.0323C50.8169 46.4479 51.5907 46.266 52.2924 45.9165C54.7872 44.6735 55.798 41.652 54.55 39.1675L54.1144 38.2996C54.0391 38.1498 54 37.9846 54 37.8172V34.7551C52.9765 35.0944 52.1736 35.8943 51.8333 36.9136L51.7778 37.0792C51.6305 37.5199 51.2164 37.8172 50.75 37.8172H46.4167C45.9504 37.8172 45.5363 37.5202 45.3888 37.0796L45.3333 36.9136C44.9932 35.8942 44.1903 35.0941 43.1667 34.755ZM58.3333 44.2903C57.7072 44.2896 57.0856 44.3975 56.4967 44.6095C56.039 45.5245 55.3914 46.3325 54.5972 46.9802L55.2066 48.7994C55.6029 47.407 56.8802 46.4466 58.3333 46.4479H61.5833C62.1816 46.4479 62.6667 45.9649 62.6667 45.3691C62.6667 44.7733 62.1816 44.2903 61.5833 44.2903H58.3333ZM63.245 62.1336C65.3619 60.0266 65.3628 56.6095 63.247 54.5013C62.2337 53.4859 60.8542 52.9167 59.4167 52.9209H58.6846C59.3808 53.6005 59.9683 54.3823 60.4269 55.2391C60.911 55.3969 61.3511 55.6658 61.7117 56.024C62.9829 57.2872 62.9853 59.3371 61.717 60.6028C61.6734 60.6459 61.6284 60.6863 61.5833 60.7266V63.2619C62.203 62.9923 62.7666 62.6096 63.245 62.1336Z" fill="white"/>
</svg>
