<svg width="70" height="65" viewBox="0 0 70 65" fill="none" xmlns="http://www.w3.org/2000/svg">
<g clip-path="url(#clip0)">
<path d="M31.1017 19.2297C31.1017 18.1827 30.2539 17.3339 29.208 17.3339C28.1621 17.3339 27.3142 18.1827 27.3142 19.2297C27.3142 20.2767 28.1621 21.1255 29.208 21.1255C30.2535 21.1244 31.1007 20.2763 31.1017 19.2297Z" fill="white"/>
<path d="M42.4643 19.2297C42.4643 20.2767 41.6164 21.1255 40.5705 21.1255C39.525 21.1244 38.6778 20.2763 38.6768 19.2297C38.6768 18.1827 39.5246 17.3339 40.5705 17.3339C41.6164 17.3339 42.4643 18.1827 42.4643 19.2297Z" fill="white"/>
<path d="M38.3433 27.0637L37.928 24.9377C35.9193 25.3101 33.8593 25.3101 31.8504 24.9377L31.4352 27.0637C33.7179 27.4935 36.0606 27.4935 38.3433 27.0637Z" fill="white"/>
<path fill-rule="evenodd" clip-rule="evenodd" d="M44.2261 41.3179L53.4996 43.9703C57.2089 45.0442 59.7663 48.4384 59.7785 52.304V54.1672H57.6142V52.304C57.613 51.1475 57.3024 50.0125 56.7147 49.017L52.9687 52.7671L51.4383 51.2349L55.317 47.3521C54.6152 46.7517 53.7926 46.3091 52.9051 46.0547L44.4942 43.6489L43.541 53.1922C43.5128 53.4289 43.4083 53.6496 43.2431 53.8214C42.8247 54.2559 42.1336 54.2688 41.6996 53.8501L37.527 49.6727L35.9714 54.3433V65.0005H33.8071V54.3433L32.2515 49.6726L28.0795 53.8505C27.9089 54.0139 27.69 54.1178 27.4555 54.1464C26.856 54.2196 26.3107 53.7924 26.2375 53.1922L25.2843 43.6483L16.8734 46.0541C15.9859 46.3087 15.1633 46.751 14.4615 47.3516L18.3402 51.2345L16.8098 52.7666L13.0638 49.0165C12.4759 50.0121 12.1654 51.1474 12.1643 52.304V65.0005H10V52.304C10.0122 48.4385 12.5695 45.0442 16.2787 43.9703L25.5524 41.3183L27.3143 38.6726V34.1132C24.7144 31.7933 23.1756 28.1065 23.0019 23.8052C20.53 23.5373 18.6569 21.448 18.6571 18.9589C18.6659 16.8961 19.9637 15.0596 21.9035 14.3645V13.0005C21.8973 10.9456 22.3832 8.91908 23.3202 7.09082L25.2472 8.07679C24.4669 9.60023 24.0624 11.2885 24.0678 13.0005V15.1385C29.5605 14.8461 34.702 12.3435 38.324 8.19948L39.4855 6.8705C40.0042 6.27643 40.8908 6.4564 41.2679 7.09935C41.2883 7.13412 43.9855 11.7309 45.7107 13.6036V13.0005C45.7109 9.76584 44.2672 6.70015 41.7745 4.64208C37.1638 0.835386 30.3434 1.49121 26.5408 6.10702L24.8721 4.7274C27.3391 1.7336 31.0131 0 34.8898 0C42.0615 0 47.8752 5.82075 47.8749 13.0005V14.3634C49.6417 14.9894 50.8926 16.575 51.0919 18.4406C51.3777 21.1178 49.4416 23.52 46.7674 23.8063C46.5585 28.197 45.039 31.7969 42.4642 34.1063V38.6726L44.2261 41.3179ZM38.3702 47.4532L41.6147 50.7014L42.4311 42.5285L41.516 41.1547L38.3702 47.4532ZM27.3474 42.5285L28.1637 50.7014L31.4083 47.4532L28.2625 41.1547L27.3474 42.5285ZM25.15 17.2277V22.7505C25.0998 27.0106 26.567 30.7512 29.0746 32.7695C31.7922 34.9565 36.0727 35.3539 39.2524 33.7136C44.1046 31.2108 44.6285 25.2131 44.6285 22.7505V15.6049C42.8511 13.7726 41.3203 11.7156 40.0749 9.48648C40.0749 9.48648 33.3675 17.2277 25.15 17.2277ZM22.0118 16.7203C21.2704 17.2241 20.8249 18.0617 20.8214 18.9589C20.8217 20.2459 21.7262 21.3551 22.9857 21.6129V17.3339C22.5703 17.3337 22.1917 17.0951 22.0118 16.7203ZM46.7928 21.6129C48.0516 21.3539 48.9556 20.2455 48.9571 18.9589C48.9556 17.6723 48.0516 16.5638 46.7928 16.3047V21.6129ZM36.0268 47.3245C36.0431 47.2761 40.2999 38.7449 40.2999 38.7449V35.6086L40.2861 35.6161L40.2758 35.6218C40.2652 35.6276 40.2545 35.6336 40.2437 35.6391C38.5953 36.4757 36.7718 36.9074 34.9237 36.8985C33.0313 36.9042 31.1648 36.4585 29.4785 35.5986V38.7446C29.4785 38.7446 33.7354 47.2757 33.7516 47.3243L34.8892 50.7412L36.0268 47.3245Z" fill="white"/>
<path d="M59.7785 65.0005H57.6142V56.3339H59.7785V65.0005Z" fill="white"/>
<path d="M29.4785 58.5005H31.6428V56.3339H29.4785V58.5005Z" fill="white"/>
<path d="M31.6428 65.0005H29.4785V62.8339H31.6428V65.0005Z" fill="white"/>
<path d="M37.9825 4.34485L38.2888 6.48958C31.2553 7.49559 27.1168 12.5447 27.0758 12.5952L25.3871 11.2401C25.5748 11.0056 30.0737 5.47585 37.9825 4.34485Z" fill="white"/>
<path d="M18.6571 59.8161C17.3123 58.4517 16.6447 56.0952 16.4793 55.0778L14.3421 55.4217C14.379 55.6537 15.2362 60.7719 18.6571 62.4779V65.0006H20.8214V54.1672H18.6571V59.8161Z" fill="white"/>
<path d="M51.1214 54.1672V59.8161C52.4662 58.4517 53.1338 56.0952 53.2992 55.0778L55.4364 55.4217C55.3992 55.6537 54.5422 60.7716 51.1214 62.4779V65.0006H48.9571V54.1672H51.1214Z" fill="white"/>
</g>
<defs>
<clipPath id="clip0">
<rect width="70" height="65" fill="white"/>
</clipPath>
</defs>
</svg>
