<svg width="70" height="65" viewBox="0 0 70 65" fill="none" xmlns="http://www.w3.org/2000/svg">
<path fill-rule="evenodd" clip-rule="evenodd" d="M47.0225 52.9176C43.7887 52.9176 40.6012 52.1432 37.7542 50.6254C47.4711 42.4632 48.7401 27.9664 40.5856 18.2401C39.7193 17.2177 38.7754 16.2729 37.7542 15.4056C40.6167 13.8878 43.7887 13.0979 47.0225 13.1132C58.0084 13.1132 66.9209 22.0346 66.9209 33.0155C66.9209 43.9965 58.0084 52.9176 47.0225 52.9176ZM35 48.8442C26.2577 42.1999 24.5402 29.7165 31.1782 20.9658C32.2767 19.5254 33.561 18.2401 35 17.1403C43.7423 23.7846 45.4596 36.268 38.8218 45.0187C37.7231 46.4746 36.439 47.7601 35 48.8442ZM22.9775 52.9176C11.9916 52.9176 3.07913 43.9965 3.07913 33.0155C3.07913 22.0346 11.9916 13.0979 22.9775 13.0979C26.2113 13.0979 29.3988 13.8723 32.2458 15.3901C22.5287 23.5523 21.2599 38.0491 29.4142 47.7757C30.2807 48.7978 31.2246 49.7425 32.2458 50.61C29.3988 52.1277 26.2113 52.9176 22.9775 52.9176ZM47.0225 10.0001C42.7829 9.98481 38.6052 11.1774 35 13.4077C31.3948 11.1774 27.2171 9.98481 22.9775 10.0001C10.305 10.0001 0 20.3153 0 33C0 45.6848 10.305 55.9999 22.9775 55.9999C27.2171 56.0152 31.3948 54.8228 35 52.5923C38.6052 54.8228 42.7829 56.0152 47.0225 55.9999C59.6948 55.9999 70 45.6848 70 33C70 20.3153 59.6948 10.0001 47.0225 10.0001Z" fill="white"/>
</svg>
