<svg width="60" height="60" viewBox="0 0 60 60" fill="none" xmlns="http://www.w3.org/2000/svg">
<path fill-rule="evenodd" clip-rule="evenodd" d="M60.0001 29.9996C60.0001 46.5682 46.5685 59.9996 29.9999 59.9996C13.4314 59.9996 0 46.5682 0 29.9996C0 13.4311 13.4314 -0.000488281 29.9999 -0.000488281C46.5685 -0.000488281 60.0001 13.4311 60.0001 29.9996Z" fill="#FF4C62"/>
<path fill-rule="evenodd" clip-rule="evenodd" d="M48.4611 39.1886C48.3854 39.2014 48.308 39.2111 48.2316 39.2224C48.1251 39.2384 48.0193 39.2556 47.9117 39.269C47.8086 39.2819 47.7042 39.2914 47.6004 39.3022C47.519 39.3105 47.4381 39.3204 47.3561 39.3273C47.2315 39.3382 47.1059 39.346 46.9805 39.3539C46.9196 39.3577 46.8592 39.3626 46.7983 39.3658C46.6547 39.3734 46.5109 39.378 46.3668 39.3822C46.325 39.3834 46.2831 39.3854 46.2414 39.3863C46.0806 39.39 45.92 39.391 45.7597 39.3909C45.736 39.3909 45.7125 39.391 45.6889 39.391C45.5144 39.3903 45.3411 39.3871 45.1682 39.3824C45.1592 39.3822 45.1504 39.382 45.1416 39.3818C44.8989 39.3748 44.6575 39.3654 44.42 39.3517C42.6151 39.2468 40.9994 38.9654 40.1247 38.7876C36.0547 37.9599 25.3345 34.6557 22.1946 27.6013C22.1946 27.6013 21.3398 33.3599 15.6879 35.989C15.6391 36.0118 15.5927 36.036 15.543 36.0582C15.3511 36.1444 15.1543 36.227 14.9514 36.3058C13.7062 36.7883 12.8462 36.0459 12.3526 34.618C11.2619 34.5608 10.3543 34.8941 10.0144 35.5069C9.34152 36.7194 10.5645 38.6836 12.7457 39.8938C13.904 40.5366 15.2555 40.8132 16.2404 40.7698C16.8296 43.2321 17.9222 45.5177 19.468 47.4085C21.7455 50.1941 25.1909 53.4603 29.5224 54.6321C29.7699 54.699 30.025 54.7274 30.2795 54.7274C30.534 54.7274 30.7894 54.699 31.0366 54.6321C35.3681 53.4603 38.8138 50.1941 41.091 47.4085C42.6368 45.5177 43.7295 43.2321 44.3186 40.7701C45.3032 40.8123 46.6524 40.5356 47.809 39.8938C48.2475 39.6505 48.6466 39.3762 49 39.0841C48.823 39.1233 48.643 39.1577 48.4611 39.1886Z" fill="#E9F2F4"/>
<path fill-rule="evenodd" clip-rule="evenodd" d="M17.2265 16.4074C22.3352 16.4074 26.4766 12.2659 26.4766 7.15716C26.4766 4.61658 25.452 2.31599 23.7939 0.644287C17.7345 1.91899 12.3484 5.02117 8.23993 9.34913C9.22448 13.3995 12.8732 16.4074 17.2265 16.4074Z" fill="#13124D"/>
<path fill-rule="evenodd" clip-rule="evenodd" d="M20.4495 20.0662C18.8074 20.4706 17.1484 19.4671 16.744 17.8253L15.9746 14.7008C15.5702 13.0588 16.5734 11.4 18.2155 10.9956C19.8575 10.5912 21.5165 11.5943 21.9209 13.2363L22.6904 16.3607C23.0948 18.0026 22.0915 19.6617 20.4495 20.0662Z" fill="#B3CBFF"/>
<path fill-rule="evenodd" clip-rule="evenodd" d="M26.7345 35.5086C26.7345 35.9962 26.3393 36.3913 25.8519 36.3913C25.3643 36.3913 24.9691 35.9962 24.9691 35.5086C24.9691 35.021 25.3643 34.626 25.8519 34.626C26.3393 34.626 26.7345 35.021 26.7345 35.5086Z" fill="#13124D"/>
<path fill-rule="evenodd" clip-rule="evenodd" d="M29.3429 40.0757H31.2117C31.4676 40.0757 31.6586 39.8399 31.6057 39.5895L30.6713 35.1764C30.581 34.7508 29.9733 34.7508 29.8833 35.1764L28.9489 39.5895C28.8959 39.8399 29.087 40.0757 29.3429 40.0757Z" fill="#FD60A7"/>
<path fill-rule="evenodd" clip-rule="evenodd" d="M26.2246 38.6544C26.2246 38.1613 25.2372 37.7615 24.0194 37.7615C22.8015 37.7615 21.8141 38.1613 21.8141 38.6544C21.8141 39.1474 22.8015 39.5473 24.0194 39.5473C25.2372 39.5473 26.2246 39.1474 26.2246 38.6544Z" fill="#FECFE4"/>
<path fill-rule="evenodd" clip-rule="evenodd" d="M38.7404 38.6544C38.7404 38.1613 37.753 37.7615 36.5352 37.7615C35.3173 37.7615 34.33 38.1613 34.33 38.6544C34.33 39.1474 35.3173 39.5473 36.5352 39.5473C37.753 39.5473 38.7404 39.1474 38.7404 38.6544Z" fill="#FECFE4"/>
<path fill-rule="evenodd" clip-rule="evenodd" d="M34.881 42.3179C34.881 44.8604 32.8199 46.9217 30.2772 46.9217C27.7347 46.9217 25.6734 44.8604 25.6734 42.3179H34.881Z" fill="white"/>
<path fill-rule="evenodd" clip-rule="evenodd" d="M13.0814 36.8194C12.9401 37.0483 13.4327 37.6088 14.1816 38.0717C14.9306 38.5344 15.6524 38.7241 15.7937 38.4952C15.9351 38.2663 15.4426 37.7059 14.6934 37.2429C13.9445 36.7802 13.2227 36.5907 13.0814 36.8194Z" fill="#D3E5E8"/>
<path fill-rule="evenodd" clip-rule="evenodd" d="M53.0404 33.0642C50.9637 23.1367 24.1698 10.1196 15.6606 18.9834C12.2722 22.5129 11.0658 30.8969 12.3525 34.6181C12.8461 36.0459 13.7062 36.7883 14.9514 36.3057C15.1543 36.2271 15.3511 36.1443 15.5428 36.0583C15.5926 36.036 15.6389 36.0116 15.6878 35.989C21.3398 33.36 22.1944 27.6012 22.1944 27.6012C25.3345 34.6557 36.0545 37.9599 40.1247 38.7876C40.9994 38.9655 42.6151 39.2468 44.42 39.3517C44.6575 39.3655 44.8987 39.3746 45.1415 39.3817C45.1504 39.3819 45.1594 39.3821 45.168 39.3822C45.3409 39.3872 45.5144 39.3902 45.6888 39.3911C45.7123 39.3911 45.736 39.3907 45.7595 39.3907C45.92 39.3911 46.0804 39.3898 46.2412 39.3863C46.2831 39.3854 46.325 39.3835 46.3668 39.3821C46.5107 39.378 46.6545 39.3734 46.7982 39.3658C46.8592 39.3625 46.9196 39.3577 46.9805 39.3538C47.1059 39.3459 47.2313 39.3381 47.3561 39.3273C47.4379 39.3203 47.5188 39.3105 47.6004 39.3021C47.7042 39.2915 47.8086 39.2819 47.9115 39.269C48.0193 39.2556 48.125 39.2385 48.2315 39.2224C48.308 39.2111 48.3854 39.2014 48.4611 39.1887C48.643 39.1578 48.823 39.1233 48.9999 39.0841C51.7531 38.477 53.8307 36.8422 53.0404 33.0642Z" fill="#13124D"/>
</svg>
