<svg width="60" height="60" viewBox="0 0 60 60" fill="none" xmlns="http://www.w3.org/2000/svg">
<path fill-rule="evenodd" clip-rule="evenodd" d="M60.0004 29.9996C60.0004 46.5682 46.5689 59.9996 30.0003 59.9996C13.4318 59.9996 0.000366211 46.5682 0.000366211 29.9996C0.000366211 13.4311 13.4318 -0.000488281 30.0003 -0.000488281C46.5689 -0.000488281 60.0004 13.4311 60.0004 29.9996Z" fill="#FF4C62"/>
<path fill-rule="evenodd" clip-rule="evenodd" d="M52.903 32.6075C52.272 31.4704 49.759 31.272 47.7194 32.8864C47.7194 32.8865 47.7191 32.8867 47.7191 32.8867C44.9567 30.9049 44.2296 26.978 44.2296 26.978C42.0679 29.8004 39.3655 29.5002 39.3655 29.5002C40.696 27.7271 40.7467 26.0771 40.7467 26.0771C40.7467 26.0771 25.3559 35.2138 15.2393 32.8452L15.2451 32.8865C15.2195 32.8664 15.1936 32.8475 15.168 32.8281C14.1499 32.5835 13.186 32.2215 12.2975 31.7208C11.2575 31.6666 10.3955 32.0053 10.0614 32.6075C9.41059 33.7801 10.5933 35.6797 12.7028 36.8502C13.8228 37.4716 14.976 37.7584 15.9115 37.7192C16.3401 40.8272 17.6757 43.7507 19.7972 46.0622C22.2585 48.7443 25.9825 51.8892 30.6638 53.0173C30.9312 53.0819 31.2071 53.1093 31.4822 53.1093C31.7572 53.1093 32.0332 53.0819 32.3006 53.0173C36.9819 51.8892 40.7059 48.7443 43.1672 46.0622C45.2885 43.7507 46.6243 40.8272 47.053 37.7192C47.9884 37.7584 49.1416 37.4716 50.2614 36.8502C52.3711 35.6797 53.5538 33.7801 52.903 32.6075Z" fill="#E9F2F4"/>
<path fill-rule="evenodd" clip-rule="evenodd" d="M15.2394 32.8452C25.3558 35.2137 40.7466 26.0773 40.7466 26.0773C40.7466 26.0773 40.696 27.7273 39.3654 29.5003C39.3654 29.5003 42.0678 29.8006 44.2297 26.9779C44.2297 26.9779 44.9568 30.905 47.7192 32.8867C47.7192 32.8867 47.7196 32.8865 47.7196 32.8863C47.7314 32.8748 56.0709 24.6475 48.5517 21.7811C49.322 20.3775 50.21 18.2574 50.0903 16.0763C50.0903 16.0763 49.4942 18.6597 48.0261 20.9611C47.4209 13.9504 42.2735 10.5674 36.0026 11.8448C29.1236 13.2461 26.0338 10.5837 26.0338 10.5837C24.4725 14.1268 27.9383 16.3914 27.9383 16.3914C16.5814 17.2859 14.5424 9.99243 14.5424 9.99243C14.5424 9.99243 3.55302 15.789 7.88363 26.5096C8.88779 28.9951 10.4255 30.6654 12.2974 31.7207C13.1861 32.2216 14.1498 32.5836 15.1679 32.828C15.1917 32.8339 15.2156 32.8397 15.2394 32.8452Z" fill="#13124D"/>
<path fill-rule="evenodd" clip-rule="evenodd" d="M42.2433 37.668C42.2433 37.2074 40.9942 36.8337 39.4535 36.8337C37.9127 36.8337 36.6636 37.2074 36.6636 37.668C36.6636 38.1286 37.9127 38.5023 39.4535 38.5023C40.9942 38.5023 42.2433 38.1286 42.2433 37.668Z" fill="#FECFE4"/>
<path fill-rule="evenodd" clip-rule="evenodd" d="M26.3008 37.668C26.3008 37.2074 25.0517 36.8337 23.5111 36.8337C21.9702 36.8337 20.7211 37.2074 20.7211 37.668C20.7211 38.1286 21.9702 38.5023 23.5111 38.5023C25.0517 38.5023 26.3008 38.1286 26.3008 37.668Z" fill="#FECFE4"/>
<path fill-rule="evenodd" clip-rule="evenodd" d="M36.1401 34.5934C36.1401 35.065 35.758 35.4471 35.2864 35.4471C34.8149 35.4471 34.4327 35.065 34.4327 34.5934C34.4327 34.1219 34.8149 33.7397 35.2864 33.7397C35.758 33.7397 36.1401 34.1219 36.1401 34.5934Z" fill="#13124D"/>
<path fill-rule="evenodd" clip-rule="evenodd" d="M28.5121 34.5934C28.5121 35.065 28.1299 35.4471 27.6584 35.4471C27.1869 35.4471 26.8047 35.065 26.8047 34.5934C26.8047 34.1219 27.1869 33.7397 27.6584 33.7397C28.1299 33.7397 28.5121 34.1219 28.5121 34.5934Z" fill="#13124D"/>
<path fill-rule="evenodd" clip-rule="evenodd" d="M31.4822 39.3296C31.0806 39.3296 30.7551 39.0039 30.7551 38.6025V35.1311C30.7551 34.7293 31.0806 34.4038 31.4822 34.4038C31.8838 34.4038 32.2093 34.7293 32.2093 35.1311V38.6025C32.2093 39.0039 31.8838 39.3296 31.4822 39.3296Z" fill="#FD60A7"/>
<path fill-rule="evenodd" clip-rule="evenodd" d="M36.184 41.4849C36.184 44.0816 34.0789 46.1867 31.4822 46.1867C28.8854 46.1867 26.7803 44.0816 26.7803 41.4849H36.184Z" fill="white"/>
<path fill-rule="evenodd" clip-rule="evenodd" d="M12.882 33.4264C12.7453 33.6477 13.2216 34.1898 13.946 34.6373C14.6702 35.0848 15.3683 35.2683 15.505 35.0471C15.6417 34.8258 15.1654 34.2836 14.441 33.8359C13.7168 33.3884 13.0187 33.2051 12.882 33.4264Z" fill="#D3E5E8"/>
<path fill-rule="evenodd" clip-rule="evenodd" d="M50.0624 33.4264C50.1991 33.6477 49.7228 34.1898 48.9984 34.6373C48.2741 35.0848 47.576 35.2683 47.4393 35.0471C47.3027 34.8258 47.779 34.2836 48.5034 33.8359C49.2276 33.3884 49.9257 33.2051 50.0624 33.4264Z" fill="#D3E5E8"/>
</svg>
