<?xml version="1.0" encoding="UTF-8"?>
<svg width="500px" height="150px" viewBox="0 0 500 150" version="1.1" xmlns="http://www.w3.org/2000/svg" xmlns:xlink="http://www.w3.org/1999/xlink">
    <title>bristol-white</title>
    <defs>
        <polygon id="path-1" points="4.63273864e-14 144.830402 488.78859 144.830402 488.78859 6.94910796e-14 4.63273864e-14 6.94910796e-14"></polygon>
    </defs>
    <g id="bristol-white" stroke="none" stroke-width="1" fill="none" fill-rule="evenodd">
        <g id="Bristol-Light" transform="translate(6.000000, 2.000000)">
            <path d="M450.312563,78.8187113 C446.939198,84.1756511 440.970089,87.7273353 434.162694,87.7273353 L354.09354,87.7273353 L354.09354,108.061279 L422.706123,108.061279 C440.159379,108.061279 454.869822,96.3399857 459.403183,80.3427 C457.110766,79.3628617 454.588555,78.8187113 451.939499,78.8187113 L450.312563,78.8187113 Z" id="Fill-1" fill="#FFFFFF" fill-rule="evenodd"></path>
            <path d="M452.720061,43.8515346 C445.738023,34.9557789 434.893621,29.236685 422.707226,29.236685 L354.094643,29.236685 L354.094643,49.583497 L434.161959,49.583497 C438.824004,49.583497 443.092643,51.2655835 446.403504,54.0525158 C449.501117,51.4641248 451.762282,47.9124406 452.720061,43.8515346" id="Fill-3" fill="#FFFFFF" fill-rule="evenodd"></path>
            <path d="M454.825886,61.2628759 C458.636777,55.3268571 460.846468,48.2639323 460.846468,40.6844323 L460.846468,38.1438383 C460.846468,17.0800714 443.771912,2.08473239e-13 422.706307,2.08473239e-13 L354.093724,2.08473239e-13 L354.093724,20.3486504 L434.162878,20.3486504 C444.694762,20.3486504 453.233878,28.9245338 453.233878,39.4582556 C453.233878,40.9712143 453.05372,42.4400526 452.719141,43.8519023 C451.761363,47.9128083 449.502036,51.4644925 446.404423,54.0528835 C443.28475,56.6596579 439.3176,58.2902707 434.973589,58.4722669 L354.093724,58.4722669 L354.093724,58.4924887 L354.093724,78.8190789 L354.093724,78.824594 L422.706307,78.824594 C422.86992,78.824594 423.029856,78.8209173 423.19163,78.8190789 L450.312747,78.8190789 L451.939683,78.8190789 C454.588739,78.8190789 457.11095,79.3632293 459.403367,80.3412293 C466.227307,83.2568459 471.012521,90.0440188 471.012521,97.9286842 C471.012521,108.462406 462.473405,116.962917 451.939683,116.962917 L354.093724,116.962917 L354.093724,137.296861 L440.48495,137.296861 C461.548717,137.296861 478.625111,120.220466 478.625111,99.1566992 L478.625111,96.6161053 C478.625111,80.6243346 468.782608,66.9304962 454.825886,61.2628759" id="Fill-5" fill="#FFFFFF" fill-rule="evenodd"></path>
            <path d="M41.3291402,84.945918 C41.3291402,82.2490647 40.4412192,80.1349669 38.6672154,78.6073015 C36.889535,77.0814744 34.3691628,76.3167226 31.1042605,76.3167226 L18.2137793,76.3167226 L18.2137793,93.2552414 L31.2108846,93.2552414 C37.9557756,93.2552414 41.3291402,90.4848541 41.3291402,84.945918 L41.3291402,84.945918 Z M18.2137793,63.5365421 L30.144644,63.5365421 C36.4648771,63.5365421 39.6249936,60.8378504 39.6249936,55.4404669 C39.6249936,50.0449218 36.3931816,47.3443917 29.9313959,47.3443917 L18.2137793,47.3443917 L18.2137793,63.5365421 Z M55.9752417,75.8920647 C58.6390049,79.2305008 59.9699673,83.1002188 59.9699673,87.5012188 C59.9699673,93.9648429 57.820941,99.0055872 53.5247267,102.627129 C49.2285124,106.24867 43.0682154,108.059441 35.0456741,108.059441 L0.00128684211,108.059441 L0.00128684211,32.7516023 L34.1926816,32.7516023 C41.8622605,32.7516023 47.7909259,34.4226586 51.9805162,37.757418 C56.1701064,41.0958541 58.2658207,45.8534932 58.2658207,52.0321737 C58.2658207,56.5765647 57.0580274,60.3580421 54.6442793,63.376606 C52.2286929,66.3933316 49.0685763,68.3640383 45.1639297,69.286888 C49.7083207,70.3531286 53.3133169,72.5554669 55.9752417,75.8920647 L55.9752417,75.8920647 Z" id="Fill-7" fill="#FFFFFF" fill-rule="evenodd"></path>
            <path d="M96.5593004,51.1797327 C100.144075,49.0490898 104.030338,47.9846876 108.223605,47.9846876 L108.223605,67.4766688 L103.002703,67.4766688 C98.173368,67.4766688 94.4286575,68.5061425 91.7667327,70.5650898 C89.1029695,72.6258756 87.7701688,76.1040259 87.7701688,81.0032177 L87.7701688,108.059992 L69.555838,108.059992 L69.555838,48.6225936 L87.7701688,48.6225936 L87.7701688,59.8070898 C90.0442026,56.1855485 92.9726876,53.3103756 96.5593004,51.1797327" id="Fill-9" fill="#FFFFFF" fill-rule="evenodd"></path>
            <mask id="mask-2" fill="white">
                <use xlink:href="#path-1"></use>
            </mask>
            <g id="Clip-12"></g>
            <polygon id="Fill-11" fill="#FFFFFF" fill-rule="evenodd" mask="url(#mask-2)" points="115.891162 108.059808 134.105492 108.059808 134.105492 48.6224098 115.891162 48.6224098"></polygon>
            <path d="M186.352017,53.5225207 C190.86148,57.2856147 193.683341,62.2565019 194.821277,68.4351823 L177.777972,68.4351823 C177.27978,66.0232726 176.162066,64.1224229 174.421153,62.7363102 C172.680239,61.3520357 170.498123,60.6608177 167.871126,60.6608177 C165.812179,60.6608177 164.251423,61.103859 163.185183,61.9899417 C162.118942,62.8797011 161.58766,64.138968 161.58766,65.7714192 C161.58766,67.6189568 162.561983,69.0050695 164.516145,69.9260808 C166.468468,70.8507688 169.538506,71.7736184 173.729935,72.696468 C178.272487,73.7608703 182.002491,74.8454944 184.914431,75.9448252 C187.826371,77.0478327 190.346743,78.8383816 192.477386,81.3256635 C194.608029,83.8111071 195.672431,87.1477049 195.672431,91.3354568 C195.672431,94.7455883 194.749581,97.7641523 192.903882,100.391148 C191.056344,103.018145 188.392581,105.077092 184.914431,106.569829 C181.434442,108.060727 177.314709,108.805258 172.558908,108.805258 C164.53269,108.805258 158.105833,107.029415 153.278337,103.47957 C148.449002,99.9297237 145.502134,94.8503741 144.437732,88.2470357 L162.012318,88.2470357 C162.297262,90.8023365 163.380047,92.7583365 165.260675,94.1076823 C167.141303,95.4551898 169.577111,96.1298628 172.558908,96.1298628 C174.617856,96.1298628 176.178611,95.6518929 177.244852,94.6922763 C178.309254,93.7344981 178.842374,92.4733929 178.842374,90.9107989 C178.842374,88.8518515 177.866213,87.3793365 175.913889,86.4895771 C173.959728,85.601656 170.781228,84.6622613 166.380228,83.6658778 C161.975551,82.7448665 158.355848,81.7484831 155.515604,80.6840808 C152.673521,79.6196786 150.224844,77.8989868 148.165897,75.5183289 C146.105111,73.1413477 145.075638,69.8911523 145.075638,65.7714192 C145.075638,60.4475695 147.099656,56.1311335 151.147694,52.8294643 C155.195732,49.5277951 160.911149,47.8787989 168.297623,47.8787989 C175.823811,47.8787989 181.842555,49.7594267 186.352017,53.5225207" id="Fill-13" fill="#FFFFFF" fill-rule="evenodd" mask="url(#mask-2)"></path>
            <path d="M239.450432,92.4016974 L239.450432,108.060727 L231.249571,108.060727 C224.287755,108.060727 218.873826,106.338197 215.004108,102.893137 C211.13439,99.4499154 209.198612,93.7510432 209.198612,85.798359 L209.198612,63.9624868 L201.210999,63.9624868 L201.210999,48.6233289 L209.198612,48.6233289 L209.198612,34.0305395 L227.414781,34.0305395 L227.414781,48.6233289 L239.343808,48.6233289 L239.343808,63.9624868 L227.414781,63.9624868 L227.414781,86.1182312 C227.414781,88.4602838 227.892751,90.0945733 228.852368,91.0174229 C229.810146,91.9402726 231.424214,92.4016974 233.700086,92.4016974 L239.450432,92.4016974 Z" id="Fill-14" fill="#FFFFFF" fill-rule="evenodd" mask="url(#mask-2)"></path>
            <path d="M268.688036,67.4233568 C266.309216,69.9455673 265.119806,73.5836538 265.119806,78.3412929 C265.119806,83.1007703 266.309216,86.7223117 268.688036,89.2077553 C271.065017,91.6931989 273.99534,92.9340823 277.475329,92.9340823 C280.953479,92.9340823 283.867258,91.6931989 286.211148,89.2077553 C288.553201,86.7223117 289.726066,83.1007703 289.726066,78.3412929 C289.726066,73.5836538 288.553201,69.9455673 286.211148,67.4233568 C283.867258,64.9029846 280.953479,63.6418793 277.475329,63.6418793 C273.99534,63.6418793 271.065017,64.9029846 268.688036,67.4233568 M293.294295,51.5529169 C297.94531,54.003432 301.60178,57.5367327 304.265543,62.1509808 C306.929306,66.7670673 308.25843,72.1644508 308.25843,78.3412929 C308.25843,84.518135 306.929306,89.9173568 304.265543,94.5316049 C301.60178,99.1476914 297.94531,102.680992 293.294295,105.131507 C288.641442,107.582022 283.369066,108.806361 277.475329,108.806361 C271.581592,108.806361 266.292671,107.582022 261.604889,105.131507 C256.918945,102.680992 253.244092,99.1476914 250.580329,94.5316049 C247.916566,89.9173568 246.585603,84.518135 246.585603,78.3412929 C246.585603,72.1644508 247.916566,66.7670673 250.580329,62.1509808 C253.244092,57.5367327 256.918945,54.003432 261.604889,51.5529169 C266.292671,49.1042402 271.581592,47.8780635 277.475329,47.8780635 C283.369066,47.8780635 288.641442,49.1042402 293.294295,51.5529169" id="Fill-15" fill="#FFFFFF" fill-rule="evenodd" mask="url(#mask-2)"></path>
            <polygon id="Fill-16" fill="#FFFFFF" fill-rule="evenodd" mask="url(#mask-2)" points="317.737861 108.059808 335.952192 108.059808 335.952192 29.2370526 317.737861 29.2370526"></polygon>
            <polygon id="Fill-17" fill="#FFFFFF" fill-rule="evenodd" mask="url(#mask-2)" points="115.887485 38.5666579 134.101816 38.5666579 134.101816 20.3523271 115.887485 20.3523271"></polygon>
            <polygon id="Fill-18" fill="#FFFFFF" fill-rule="evenodd" mask="url(#mask-2)" points="87.7681466 137.296861 92.468797 137.296861 92.468797 117.86003 87.7681466 117.86003"></polygon>
            <path d="M109.692627,123.55302 C110.727616,124.725884 111.246029,126.338114 111.246029,128.389708 L111.246029,137.298332 L106.545379,137.298332 L106.545379,128.941211 C106.545379,127.915414 106.275142,127.112057 105.734668,126.534817 C105.194195,125.957576 104.473563,125.668956 103.57645,125.668956 C102.622349,125.668956 101.866789,125.970444 101.307932,126.577098 C100.749074,127.181914 100.467808,128.04226 100.467808,129.159974 L100.467808,137.298332 L95.7689955,137.298332 L95.7689955,121.959174 L100.467808,121.959174 L100.467808,124.762651 C100.909011,123.847155 101.563462,123.122847 102.434838,122.589726 C103.304375,122.060283 104.328334,121.791884 105.501198,121.791884 C107.258657,121.791884 108.657638,122.380155 109.692627,123.55302" id="Fill-19" fill="#FFFFFF" fill-rule="evenodd" mask="url(#mask-2)"></path>
            <path d="M119.314345,126.878587 C118.700338,127.538553 118.393334,128.45405 118.393334,129.628753 C118.393334,130.801617 118.700338,131.717114 119.314345,132.37708 C119.928353,133.037046 120.739064,133.367948 121.746477,133.367948 C122.737345,133.367948 123.548056,133.027854 124.180447,132.349505 C124.811,131.671155 125.129033,130.76485 125.129033,129.628753 C125.129033,128.472433 124.811,127.562452 124.180447,126.893294 C123.548056,126.224136 122.737345,125.887719 121.746477,125.887719 C120.739064,125.887719 119.928353,126.220459 119.314345,126.878587 M123.259436,122.562151 C124.101398,123.093433 124.724597,123.817741 125.129033,124.735076 L125.129033,121.959174 L129.802109,121.959174 L129.802109,137.215606 C129.802109,138.645839 129.528195,139.932681 128.976691,141.077971 C128.427026,142.22326 127.585064,143.13508 126.447127,143.813429 C125.31103,144.491779 123.901018,144.830035 122.215255,144.830035 C119.906293,144.830035 118.058755,144.285884 116.674481,143.193907 C115.290206,142.103768 114.461112,140.625738 114.187199,138.754302 L118.832699,138.754302 C118.979767,139.377501 119.314345,139.862824 119.836436,140.21211 C120.358526,140.559557 121.040552,140.7342 121.884353,140.7342 C122.855,140.7342 123.639973,140.454771 124.235597,139.895914 C124.831221,139.337057 125.129033,138.443621 125.129033,137.215606 L125.129033,134.520591 C124.724597,135.437926 124.101398,136.162234 123.259436,136.693516 C122.415635,137.224798 121.408221,137.48952 120.233518,137.48952 C118.970575,137.48952 117.838154,137.175162 116.839932,136.540933 C115.839872,135.91038 115.05306,134.998561 114.475819,133.807313 C113.898579,132.616065 113.609958,131.222598 113.609958,129.628753 C113.609958,128.016523 113.898579,126.617542 114.475819,125.435486 C115.05306,124.253429 115.839872,123.345286 116.839932,122.714734 C117.838154,122.080505 118.970575,121.766147 120.233518,121.766147 C121.408221,121.766147 122.415635,122.030869 123.259436,122.562151" id="Fill-20" fill="#FFFFFF" fill-rule="evenodd" mask="url(#mask-2)"></path>
            <polygon id="Fill-21" fill="#FFFFFF" fill-rule="evenodd" mask="url(#mask-2)" points="133.101756 137.296861 137.802406 137.296861 137.802406 116.953726 133.101756 116.953726"></polygon>
            <path d="M151.960243,118.026217 L145.334844,120.859108 L145.334844,117.669577 L151.960243,114.480047 L151.960243,118.026217 Z M150.103514,126.232592 C149.546495,125.728886 148.853438,125.477032 148.028021,125.477032 C147.167675,125.477032 146.45072,125.734401 145.88451,126.247299 C145.316461,126.758359 144.99475,127.512081 144.921217,128.501111 L150.916062,128.501111 C150.932608,127.493698 150.662371,126.736299 150.103514,126.232592 L150.103514,126.232592 Z M155.533987,130.48101 L144.893641,130.48101 C144.948792,131.633653 145.242927,132.464585 145.774209,132.968292 C146.305491,133.471998 146.983841,133.723852 147.809258,133.723852 C148.505991,133.723852 149.081393,133.551047 149.54098,133.201762 C149.998728,132.854314 150.302055,132.40392 150.447284,131.854254 L155.423686,131.854254 C155.221468,132.935202 154.782104,133.90401 154.105592,134.755164 C153.425405,135.608156 152.565059,136.277314 151.520878,136.760799 C150.474859,137.247961 149.311186,137.490623 148.028021,137.490623 C146.526092,137.490623 145.191453,137.176265 144.029619,136.542036 C142.864108,135.911483 141.954126,134.997826 141.29416,133.806577 C140.632356,132.615329 140.303292,131.221863 140.303292,129.628017 C140.303292,128.015788 140.628679,126.616807 141.279453,125.43475 C141.930228,124.252694 142.842047,123.346389 144.014912,122.713998 C145.187777,122.081608 146.526092,121.765412 148.028021,121.765412 C149.550171,121.765412 150.888487,122.077931 152.04113,122.699292 C153.19745,123.322491 154.090886,124.199382 154.721438,125.326288 C155.355668,126.451356 155.671863,127.749228 155.671863,129.216228 C155.671863,129.600442 155.625905,130.021423 155.533987,130.48101 L155.533987,130.48101 Z" id="Fill-22" fill="#FFFFFF" fill-rule="evenodd" mask="url(#mask-2)"></path>
            <path d="M168.412887,123.22175 C169.57656,124.194235 170.304545,125.4774 170.59868,127.071246 L166.199518,127.071246 C166.072673,126.448047 165.782214,125.957208 165.333658,125.600569 C164.885101,125.242092 164.320729,125.063772 163.644218,125.063772 C163.111097,125.063772 162.7085,125.179588 162.434586,125.407543 C162.158834,125.637336 162.020958,125.962723 162.020958,126.383705 C162.020958,126.859836 162.272812,127.218314 162.778357,127.45546 C163.282064,127.696283 164.074391,127.93343 165.155338,128.170577 C166.328203,128.446329 167.289658,128.725757 168.041541,129.008862 C168.793424,129.293806 169.444199,129.755231 169.993864,130.398652 C170.54353,131.038396 170.819282,131.90058 170.819282,132.983366 C170.819282,133.862095 170.580297,134.641554 170.104165,135.318065 C169.626195,135.996415 168.940492,136.527697 168.041541,136.911911 C167.144428,137.297964 166.080026,137.49099 164.852011,137.49099 C162.782033,137.49099 161.123845,137.033242 159.877447,136.115908 C158.631048,135.200411 157.869973,133.889671 157.59606,132.185524 L162.131259,132.185524 C162.204793,132.843652 162.484221,133.349197 162.969545,133.696644 C163.454868,134.04593 164.083582,134.218735 164.852011,134.218735 C165.385131,134.218735 165.787729,134.095565 166.063481,133.847389 C166.337394,133.599212 166.47527,133.275663 166.47527,132.873065 C166.47527,132.339945 166.223417,131.959408 165.71971,131.731453 C165.214165,131.501659 164.394263,131.260836 163.258165,131.003468 C162.122067,130.766321 161.186349,130.507114 160.454688,130.233201 C159.721188,129.957449 159.088797,129.512569 158.557515,128.898562 C158.026233,128.284554 157.759673,127.446268 157.759673,126.383705 C157.759673,125.008622 158.283601,123.896423 159.327782,123.04343 C160.371962,122.190438 161.846315,121.76578 163.75268,121.76578 C165.695812,121.76578 167.249214,122.252941 168.412887,123.22175" id="Fill-23" fill="#FFFFFF" fill-rule="evenodd" mask="url(#mask-2)"></path>
            <path d="M188.962285,124.211883 C188.962285,122.507736 188.017375,121.656582 186.131232,121.656582 L183.739544,121.656582 L183.739544,126.713871 L186.131232,126.713871 C188.017375,126.713871 188.962285,125.879262 188.962285,124.211883 L188.962285,124.211883 Z M183.739544,130.480642 L183.739544,137.297229 L179.038894,137.297229 L179.038894,117.860398 L186.653322,117.860398 C188.962285,117.860398 190.721582,118.4358 191.931213,119.579251 C193.140845,120.726379 193.745661,122.270589 193.745661,124.211883 C193.745661,125.423353 193.475424,126.498785 192.93495,127.441856 C192.394476,128.386766 191.591119,129.129458 190.528555,129.669932 C189.465991,130.210405 188.173634,130.480642 186.653322,130.480642 L183.739544,130.480642 Z" id="Fill-24" fill="#FFFFFF" fill-rule="evenodd" mask="url(#mask-2)"></path>
            <path d="M203.078391,122.617669 C204.004917,122.068004 205.008654,121.792252 206.089602,121.792252 L206.089602,126.825643 L204.742094,126.825643 C203.495695,126.825643 202.528726,127.088526 201.841184,127.621647 C201.153643,128.152929 200.811711,129.050041 200.811711,130.314823 L200.811711,137.296861 L196.109222,137.296861 L196.109222,121.959541 L200.811711,121.959541 L200.811711,124.843906 C201.396305,123.910026 202.153703,123.167335 203.078391,122.617669" id="Fill-25" fill="#FFFFFF" fill-rule="evenodd" mask="url(#mask-2)"></path>
            <path d="M213.031379,126.810385 C212.417372,127.461159 212.110368,128.400554 212.110368,129.628569 C212.110368,130.854745 212.417372,131.790464 213.031379,132.432046 C213.643548,133.073629 214.400947,133.395339 215.29806,133.395339 C216.197011,133.395339 216.948894,133.073629 217.55371,132.432046 C218.158526,131.790464 218.460015,130.854745 218.460015,129.628569 C218.460015,128.400554 218.158526,127.461159 217.55371,126.810385 C216.948894,126.15961 216.197011,125.834223 215.29806,125.834223 C214.400947,125.834223 213.643548,126.15961 213.031379,126.810385 M219.381026,122.71455 C220.581466,123.345103 221.526376,124.258761 222.213917,125.450009 C222.901458,126.641257 223.245229,128.034723 223.245229,129.628569 C223.245229,131.222415 222.901458,132.615881 222.213917,133.807129 C221.526376,134.998377 220.581466,135.910197 219.381026,136.540749 C218.180586,137.174979 216.82021,137.491174 215.29806,137.491174 C213.777748,137.491174 212.411857,137.174979 211.202225,136.540749 C209.992594,135.910197 209.044007,134.998377 208.356466,133.807129 C207.670763,132.615881 207.326992,131.222415 207.326992,129.628569 C207.326992,128.034723 207.670763,126.641257 208.356466,125.450009 C209.044007,124.258761 209.992594,123.345103 211.202225,122.71455 C212.411857,122.080321 213.777748,121.765964 215.29806,121.765964 C216.82021,121.765964 218.180586,122.080321 219.381026,122.71455" id="Fill-26" fill="#FFFFFF" fill-rule="evenodd" mask="url(#mask-2)"></path>
            <path d="M233.278369,119.869158 C232.508102,119.869158 231.947407,120.032771 231.601798,120.365512 C231.252512,120.692737 231.059486,121.224019 231.022719,121.959358 L233.800459,121.959358 L233.800459,125.917316 L231.022719,125.917316 L231.022719,137.296677 L226.322068,137.296677 L226.322068,125.917316 L224.480046,125.917316 L224.480046,121.959358 L226.322068,121.959358 L226.322068,121.792068 C226.322068,119.887542 226.877249,118.416865 227.985771,117.380038 C229.094294,116.345049 230.702847,115.828474 232.811429,115.828474 C233.250794,115.828474 233.581696,115.837666 233.800459,115.854211 L233.800459,119.896733 L233.278369,119.869158 Z" id="Fill-27" fill="#FFFFFF" fill-rule="evenodd" mask="url(#mask-2)"></path>
            <path d="M244.920614,126.232409 C244.361756,125.728702 243.6687,125.476848 242.845121,125.476848 C241.982937,125.476848 241.26782,125.734217 240.699771,126.247115 C240.133561,126.760014 239.81185,127.511897 239.738317,128.500927 L245.731324,128.500927 C245.749708,127.493514 245.479471,126.736115 244.920614,126.232409 M250.351087,130.480826 L239.710741,130.480826 C239.765892,131.633469 240.058189,132.464401 240.591309,132.968108 C241.122591,133.471815 241.799102,133.723668 242.62452,133.723668 C243.321253,133.723668 243.898493,133.550864 244.356241,133.201578 C244.813989,132.855969 245.117317,132.403736 245.264384,131.85407 L250.240786,131.85407 C250.038568,132.935018 249.597365,133.903826 248.920854,134.75498 C248.242505,135.607973 247.38032,136.27713 246.33614,136.762454 C245.291959,137.247777 244.128286,137.490439 242.845121,137.490439 C241.341354,137.490439 240.008553,137.176082 238.84488,136.541852 C237.681208,135.9113 236.769388,134.997642 236.109422,133.806394 C235.449456,132.615145 235.120392,131.221679 235.120392,129.627833 C235.120392,128.015604 235.445779,126.616623 236.094715,125.434567 C236.745489,124.25251 237.657309,123.346206 238.830174,122.713815 C240.004877,122.081424 241.341354,121.765228 242.845121,121.765228 C244.365433,121.765228 245.703749,122.077747 246.85823,122.700946 C248.01455,123.322307 248.906147,124.199198 249.538538,125.326104 C250.170929,126.45301 250.487125,127.749044 250.487125,129.216044 C250.487125,129.602097 250.441166,130.023078 250.351087,130.480826" id="Fill-28" fill="#FFFFFF" fill-rule="evenodd" mask="url(#mask-2)"></path>
            <path d="M263.228516,123.22175 C264.392189,124.194235 265.120174,125.4774 265.414309,127.071246 L261.015148,127.071246 C260.888302,126.448047 260.597843,125.957208 260.149287,125.600569 C259.70073,125.242092 259.136358,125.063772 258.458009,125.063772 C257.926727,125.063772 257.524129,125.179588 257.250215,125.407543 C256.974464,125.637336 256.836588,125.962723 256.836588,126.383705 C256.836588,126.859836 257.088441,127.218314 257.593986,127.45546 C258.095855,127.696283 258.888182,127.93343 259.970967,128.170577 C261.143832,128.446329 262.105287,128.725757 262.85717,129.008862 C263.609054,129.293806 264.259828,129.755231 264.809494,130.398652 C265.359159,131.038396 265.634911,131.90058 265.634911,132.983366 C265.634911,133.862095 265.395926,134.641554 264.917956,135.318065 C264.441824,135.996415 263.754283,136.527697 262.85717,136.911911 C261.958219,137.297964 260.895655,137.49099 259.66764,137.49099 C257.597663,137.49099 255.939475,137.033242 254.691238,136.115908 C253.446678,135.200411 252.685603,133.889671 252.409851,132.185524 L256.946888,132.185524 C257.020422,132.843652 257.298012,133.349197 257.785174,133.696644 C258.270497,134.04593 258.899212,134.218735 259.66764,134.218735 C260.200761,134.218735 260.603358,134.095565 260.87911,133.847389 C261.153024,133.599212 261.2909,133.275663 261.2909,132.873065 C261.2909,132.339945 261.039046,131.959408 260.535339,131.731453 C260.029794,131.501659 259.209892,131.260836 258.073794,131.003468 C256.937697,130.766321 256.001979,130.507114 255.270317,130.233201 C254.536817,129.957449 253.904426,129.512569 253.373144,128.898562 C252.840024,128.284554 252.575302,127.446268 252.575302,126.383705 C252.575302,125.008622 253.097392,123.896423 254.143411,123.04343 C255.187591,122.190438 256.661945,121.76578 258.568309,121.76578 C260.511441,121.76578 262.064843,122.252941 263.228516,123.22175" id="Fill-29" fill="#FFFFFF" fill-rule="evenodd" mask="url(#mask-2)"></path>
            <path d="M268.301064,137.296861 L273.001714,137.296861 L273.001714,121.957703 L268.301064,121.957703 L268.301064,137.296861 Z M268.630128,115.869102 C269.143026,115.402162 269.821376,115.166853 270.665177,115.166853 C271.508977,115.166853 272.185489,115.402162 272.700226,115.869102 C273.211286,116.334203 273.470492,116.927989 273.470492,117.641267 C273.470492,118.338 273.211286,118.920756 272.700226,119.387695 C272.185489,119.854635 271.508977,120.088105 270.665177,120.088105 C269.821376,120.088105 269.143026,119.854635 268.630128,119.387695 C268.117229,118.920756 267.861699,118.338 267.861699,117.641267 C267.861699,116.927989 268.117229,116.334203 268.630128,115.869102 L268.630128,115.869102 Z" id="Fill-30" fill="#FFFFFF" fill-rule="evenodd" mask="url(#mask-2)"></path>
            <path d="M281.20809,126.810385 C280.594083,127.461159 280.287079,128.400554 280.287079,129.628569 C280.287079,130.854745 280.594083,131.790464 281.20809,132.432046 C281.822098,133.073629 282.577658,133.395339 283.474771,133.395339 C284.373722,133.395339 285.125605,133.073629 285.730421,132.432046 C286.335237,131.790464 286.636726,130.854745 286.636726,129.628569 C286.636726,128.400554 286.335237,127.461159 285.730421,126.810385 C285.125605,126.15961 284.373722,125.834223 283.474771,125.834223 C282.577658,125.834223 281.822098,126.15961 281.20809,126.810385 M287.559575,122.71455 C288.758177,123.345103 289.703086,124.258761 290.390628,125.450009 C291.078169,126.641257 291.42194,128.034723 291.42194,129.628569 C291.42194,131.222415 291.078169,132.615881 290.390628,133.807129 C289.703086,134.998377 288.758177,135.910197 287.559575,136.540749 C286.357297,137.174979 284.996921,137.491174 283.474771,137.491174 C281.954459,137.491174 280.588568,137.174979 279.378936,136.540749 C278.169305,135.910197 277.222556,134.998377 276.535015,133.807129 C275.847474,132.615881 275.503703,131.222415 275.503703,129.628569 C275.503703,128.034723 275.847474,126.641257 276.535015,125.450009 C277.222556,124.258761 278.169305,123.345103 279.378936,122.71455 C280.588568,122.080321 281.954459,121.765964 283.474771,121.765964 C284.996921,121.765964 286.357297,122.080321 287.559575,122.71455" id="Fill-31" fill="#FFFFFF" fill-rule="evenodd" mask="url(#mask-2)"></path>
            <path d="M307.846273,123.55302 C308.881262,124.725884 309.399676,126.338114 309.399676,128.389708 L309.399676,137.298332 L304.699025,137.298332 L304.699025,128.941211 C304.699025,127.915414 304.428788,127.112057 303.888315,126.534817 C303.347841,125.957576 302.627209,125.668956 301.730097,125.668956 C300.777833,125.668956 300.020435,125.970444 299.461578,126.577098 C298.902721,127.181914 298.623292,128.04226 298.623292,129.159974 L298.623292,137.298332 L293.922642,137.298332 L293.922642,121.959174 L298.623292,121.959174 L298.623292,124.762651 C299.062657,123.847155 299.718946,123.122847 300.588484,122.589726 C301.458021,122.060283 302.48198,121.791884 303.654845,121.791884 C305.414142,121.791884 306.811285,122.380155 307.846273,123.55302" id="Fill-32" fill="#FFFFFF" fill-rule="evenodd" mask="url(#mask-2)"></path>
            <path d="M317.468727,126.878587 C316.85472,127.538553 316.547716,128.45405 316.547716,129.628753 C316.547716,130.801617 316.85472,131.717114 317.468727,132.37708 C318.080896,133.037046 318.891607,133.367948 319.900859,133.367948 C320.891727,133.367948 321.702438,133.027854 322.33299,132.349505 C322.965381,131.671155 323.283415,130.76485 323.283415,129.628753 C323.283415,128.472433 322.965381,127.562452 322.33299,126.893294 C321.702438,126.224136 320.891727,125.887719 319.900859,125.887719 C318.891607,125.887719 318.080896,126.220459 317.468727,126.878587 M321.413817,122.562151 C322.25578,123.093433 322.878979,123.817741 323.283415,124.735076 L323.283415,121.959174 L327.95649,121.959174 L327.95649,137.296493 L323.283415,137.296493 L323.283415,134.520591 C322.878979,135.437926 322.25578,136.162234 321.413817,136.693516 C320.570017,137.224798 319.562603,137.48952 318.3879,137.48952 C317.124956,137.48952 315.992535,137.175162 314.994314,136.540933 C313.994253,135.91038 313.207441,134.998561 312.630201,133.807313 C312.051122,132.616065 311.76434,131.222598 311.76434,129.628753 C311.76434,128.016523 312.051122,126.617542 312.630201,125.435486 C313.207441,124.253429 313.994253,123.345286 314.994314,122.714734 C315.992535,122.080505 317.124956,121.766147 318.3879,121.766147 C319.562603,121.766147 320.570017,122.030869 321.413817,122.562151" id="Fill-33" fill="#FFFFFF" fill-rule="evenodd" mask="url(#mask-2)"></path>
            <polygon id="Fill-34" fill="#FFFFFF" fill-rule="evenodd" mask="url(#mask-2)" points="331.255218 137.296861 335.955868 137.296861 335.955868 116.953726 331.255218 116.953726"></polygon>
            <path d="M484.16754,130.519431 C483.967161,130.442221 483.680379,130.401777 483.312709,130.401777 L482.954232,130.401777 L482.954232,132.036067 L483.525958,132.036067 C483.871567,132.036067 484.139965,131.968048 484.33483,131.830172 C484.526018,131.692296 484.62345,131.469856 484.62345,131.161014 C484.62345,130.852172 484.470867,130.638924 484.16754,130.519431 L484.16754,130.519431 Z M481.479879,135.041762 L481.479879,129.40907 C481.829164,129.40907 482.351255,129.410909 483.047988,129.412747 C483.744721,129.414585 484.130773,129.418262 484.207984,129.423777 C484.65654,129.455029 485.026048,129.552461 485.320183,129.712397 C485.820213,129.988149 486.070228,130.436706 486.070228,131.056228 C486.070228,131.530521 485.939706,131.872454 485.674984,132.083864 C485.410262,132.293435 485.084875,132.420281 484.698822,132.460724 C485.051785,132.534258 485.320183,132.642721 485.500341,132.786112 C485.829405,133.05451 485.994856,133.475491 485.994856,134.049055 L485.994856,134.552762 C485.994856,134.607912 485.998533,134.663063 486.005886,134.718213 C486.013239,134.773364 486.027946,134.828514 486.04633,134.883664 L486.099642,135.041762 L484.691469,135.041762 C484.647348,134.863442 484.614258,134.604236 484.597713,134.264142 C484.583006,133.924048 484.551755,133.694255 484.507634,133.574762 C484.4341,133.376221 484.294386,133.238345 484.092168,133.161134 C483.981867,133.115176 483.814578,133.085762 483.5903,133.071055 L483.264912,133.048995 L482.954232,133.048995 L482.954232,135.041762 L481.479879,135.041762 Z M480.720642,129.271194 C479.91177,130.09845 479.507333,131.080127 479.507333,132.216224 C479.507333,133.392766 479.917285,134.392826 480.742702,135.214567 C481.558927,136.038145 482.547958,136.449935 483.706115,136.449935 C484.860597,136.449935 485.84595,136.034469 486.664014,135.209052 C487.482078,134.376281 487.890191,133.378059 487.890191,132.216224 C487.890191,131.085642 487.485755,130.103965 486.671367,129.271194 C485.847788,128.425555 484.860597,128.002736 483.706115,128.002736 C482.538766,128.002736 481.542382,128.425555 480.720642,129.271194 L480.720642,129.271194 Z M487.265153,135.863503 C486.274285,136.819442 485.09039,137.297412 483.706115,137.297412 C482.277721,137.297412 481.071766,136.808412 480.093766,135.828574 C479.113927,134.848736 478.623089,133.644619 478.623089,132.216224 C478.623089,130.730841 479.152533,129.497311 480.21142,128.513796 C481.204127,127.592785 482.3678,127.133198 483.706115,127.133198 C485.108773,127.133198 486.305536,127.629552 487.298243,128.624097 C488.29095,129.616803 488.789142,130.813567 488.789142,132.216224 C488.789142,133.659326 488.27992,134.874473 487.265153,135.863503 L487.265153,135.863503 Z" id="Fill-35" fill="#FFFFFF" fill-rule="evenodd" mask="url(#mask-2)"></path>
        </g>
    </g>
</svg>