<?xml version="1.0" encoding="UTF-8"?>
<svg width="500px" height="150px" viewBox="0 0 500 150" version="1.1" xmlns="http://www.w3.org/2000/svg" xmlns:xlink="http://www.w3.org/1999/xlink">
    <title>bristol-logo</title>
    <defs>
        <polygon id="path-1" points="4.63273864e-14 144.760518 488.78859 144.760518 488.78859 6.94575483e-14 4.63273864e-14 6.94575483e-14"></polygon>
    </defs>
    <g id="bristol-logo" stroke="none" stroke-width="1" fill="none" fill-rule="evenodd">
        <g id="Group-36" transform="translate(6.000000, 2.000000)">
            <g id="Group" transform="translate(0.000000, -0.000338)">
                <g id="Bristol">
                    <path d="M450.312563,78.7806792 C446.939198,84.1350342 440.970089,87.6850046 434.162694,87.6850046 L354.09354,87.6850046 L354.09354,108.009137 L422.706123,108.009137 C440.159379,108.009137 454.869822,96.2934992 459.403183,80.3039326 C457.110766,79.324567 454.588555,78.7806792 451.939499,78.7806792 L450.312563,78.7806792 Z" id="Fill-1" fill="#ED2424" fill-rule="evenodd"></path>
                    <path d="M452.720061,43.8303751 C445.738023,34.9389119 434.893621,29.2225775 422.707226,29.2225775 L354.094643,29.2225775 L354.094643,49.5595717 L434.161959,49.5595717 C438.824004,49.5595717 443.092643,51.2408465 446.403504,54.0264341 C449.501117,51.4392921 451.762282,47.8893216 452.720061,43.8303751" id="Fill-3" fill="#ED2424" fill-rule="evenodd"></path>
                    <path d="M454.825886,61.233315 C458.636777,55.3001605 460.846468,48.2406437 460.846468,40.664801 L460.846468,38.125433 C460.846468,17.0718299 443.771912,2.08372645e-13 422.706307,2.08372645e-13 L354.093724,2.08372645e-13 L354.093724,20.3388316 L434.162878,20.3388316 C444.694762,20.3388316 453.233878,28.910577 453.233878,39.439216 C453.233878,40.9514446 453.05372,42.4195742 452.719141,43.8307426 C451.761363,47.8896891 449.502036,51.4396595 446.404423,54.0268016 C443.28475,56.6323182 439.3176,58.2621441 434.973589,58.4440525 L354.093724,58.4440525 L354.093724,58.4642646 L354.093724,78.7810467 L354.093724,78.7865591 L422.706307,78.7865591 C422.86992,78.7865591 423.029856,78.7828842 423.19163,78.7810467 L450.312747,78.7810467 L451.939683,78.7810467 C454.588739,78.7810467 457.11095,79.3249345 459.403367,80.3024626 C466.227307,83.2166723 471.012521,90.0005702 471.012521,97.8814311 C471.012521,108.41007 462.473405,116.90648 451.939683,116.90648 L354.093724,116.90648 L354.093724,137.230612 L440.48495,137.230612 C461.548717,137.230612 478.625111,120.162457 478.625111,99.1088536 L478.625111,96.5694855 C478.625111,80.5854313 468.782608,66.8982006 454.825886,61.233315" id="Fill-5" fill="#25358E" fill-rule="evenodd"></path>
                    <path d="M41.3291402,84.9049295 C41.3291402,82.2093774 40.4412192,80.0962997 38.6672154,78.5693715 C36.889535,77.0442806 34.3691628,76.2798978 31.1042605,76.2798978 L18.2137793,76.2798978 L18.2137793,93.2102433 L31.2108846,93.2102433 C37.9557756,93.2102433 41.3291402,90.4411929 41.3291402,84.9049295 L41.3291402,84.9049295 Z M18.2137793,63.5058841 L30.144644,63.5058841 C36.4648771,63.5058841 39.6249936,60.8084946 39.6249936,55.4137155 C39.6249936,50.0207738 36.3931816,47.3215468 29.9313959,47.3215468 L18.2137793,47.3215468 L18.2137793,63.5058841 Z M55.9752417,75.8554448 C58.6390049,79.19227 59.9699673,83.0601208 59.9699673,87.4589972 C59.9699673,93.9195024 57.820941,98.9578145 53.5247267,102.577608 C49.2285124,106.197402 43.0682154,108.007299 35.0456741,108.007299 L0.00128684211,108.007299 L0.00128684211,32.7357988 L34.1926816,32.7357988 C41.8622605,32.7357988 47.7909259,34.4060488 51.9805162,37.7391991 C56.1701064,41.0760243 58.2658207,45.8313677 58.2658207,52.0070668 C58.2658207,56.549265 57.0580274,60.3289178 54.6442793,63.3460252 C52.2286929,66.3612951 49.0685763,68.3310509 45.1639297,69.2534553 C49.7083207,70.3191814 53.3133169,72.520457 55.9752417,75.8554448 L55.9752417,75.8554448 Z" id="Fill-7" fill="#25358E" fill-rule="evenodd"></path>
                    <path d="M96.5593004,51.1550372 C100.144075,49.0254224 104.030338,47.9615338 108.223605,47.9615338 L108.223605,67.4441096 L103.002703,67.4441096 C98.173368,67.4441096 94.4286575,68.4730865 91.7667327,70.5310404 C89.1029695,72.5908317 87.7701688,76.0673038 87.7701688,80.9641315 L87.7701688,108.00785 L69.555838,108.00785 L69.555838,48.599132 L87.7701688,48.599132 L87.7701688,59.7782314 C90.0442026,56.1584375 92.9726876,53.2846519 96.5593004,51.1550372" id="Fill-9" fill="#25358E" fill-rule="evenodd"></path>
                    <mask id="mask-2" fill="white">
                        <use xlink:href="#path-1"></use>
                    </mask>
                    <g id="Clip-12"></g>
                    <polygon id="Fill-11" fill="#25358E" fill-rule="evenodd" mask="url(#mask-2)" points="115.891162 108.007667 134.105492 108.007667 134.105492 48.5989482 115.891162 48.5989482"></polygon>
                    <path d="M186.352017,53.4966947 C190.86148,57.2579729 193.683341,62.2264615 194.821277,68.4021606 L177.777972,68.4021606 C177.27978,65.9914146 176.162066,64.0914822 174.421153,62.7060383 C172.680239,61.3224318 170.498123,60.6315473 167.871126,60.6315473 C165.812179,60.6315473 164.251423,61.0743748 163.185183,61.96003 C162.118942,62.8493601 161.58766,64.1080193 161.58766,65.7396828 C161.58766,67.5863289 162.561983,68.9717728 164.516145,69.8923397 C166.468468,70.8165815 169.538506,71.7389858 173.729935,72.6613901 C178.272487,73.7252788 182.002491,74.8093795 184.914431,75.9081799 C187.826371,77.0106551 190.346743,78.80034 192.477386,81.2864218 C194.608029,83.7706661 195.672431,87.1056539 195.672431,91.2913851 C195.672431,94.6998712 194.749581,97.7169785 192.903882,100.342707 C191.056344,102.968436 188.392581,105.02639 184.914431,106.518406 C181.434442,108.008585 177.314709,108.752756 172.558908,108.752756 C164.53269,108.752756 158.105833,106.977771 153.278337,103.429638 C148.449002,99.881505 145.502134,94.8046063 144.437732,88.2044543 L162.012318,88.2044543 C162.297262,90.758522 163.380047,92.7135782 165.260675,94.062273 C167.141303,95.4091303 169.577111,96.0834777 172.558908,96.0834777 C174.617856,96.0834777 176.178611,95.6057384 177.244852,94.6465849 C178.309254,93.6892688 178.842374,92.4287721 178.842374,90.8669321 C178.842374,88.8089782 177.866213,87.3371737 175.913889,86.4478436 C173.959728,85.560351 170.781228,84.6214096 166.380228,83.6255069 C161.975551,82.70494 158.355848,81.7090373 155.515604,80.6451487 C152.673521,79.58126 150.224844,77.8613986 148.165897,75.4818894 C146.105111,73.1060552 145.075638,69.857428 145.075638,65.7396828 C145.075638,60.418402 147.099656,56.1040487 151.147694,52.8039727 C155.195732,49.5038967 160.911149,47.8556961 168.297623,47.8556961 C175.823811,47.8556961 181.842555,49.7354165 186.352017,53.4966947" id="Fill-13" fill="#25358E" fill-rule="evenodd" mask="url(#mask-2)"></path>
                    <path d="M239.450432,92.3571112 L239.450432,108.008585 L231.249571,108.008585 C224.287755,108.008585 218.873826,106.286886 215.004108,102.843489 C211.13439,99.4019283 209.198612,93.7058059 209.198612,85.7569591 L209.198612,63.9316233 L201.210999,63.9316233 L201.210999,48.5998669 L209.198612,48.5998669 L209.198612,34.0141189 L227.414781,34.0141189 L227.414781,48.5998669 L239.343808,48.5998669 L239.343808,63.9316233 L227.414781,63.9316233 L227.414781,86.0766769 C227.414781,88.4175995 227.892751,90.0511004 228.852368,90.9735047 C229.810146,91.895909 231.424214,92.3571112 233.700086,92.3571112 L239.450432,92.3571112 Z" id="Fill-14" fill="#25358E" fill-rule="evenodd" mask="url(#mask-2)"></path>
                    <path d="M268.688036,67.3908233 C266.309216,69.9118168 265.119806,73.5481478 265.119806,78.3034912 C265.119806,83.060672 266.309216,86.6804659 268.688036,89.1647102 C271.065017,91.6489545 273.99534,92.8892392 277.475329,92.8892392 C280.953479,92.8892392 283.867258,91.6489545 286.211148,89.1647102 C288.553201,86.6804659 289.726066,83.060672 289.726066,78.3034912 C289.726066,73.5481478 288.553201,69.9118168 286.211148,67.3908233 C283.867258,64.8716672 280.953479,63.6111705 277.475329,63.6111705 C273.99534,63.6111705 271.065017,64.8716672 268.688036,67.3908233 M293.294295,51.5280413 C297.94531,53.9773739 301.60178,57.5089698 304.265543,62.1209914 C306.929306,66.7348505 308.25843,72.1296296 308.25843,78.3034912 C308.25843,84.4773528 306.929306,89.8739693 304.265543,94.485991 C301.60178,99.09985 297.94531,102.631446 293.294295,105.080778 C288.641442,107.530111 283.369066,108.753859 277.475329,108.753859 C271.581592,108.753859 266.292671,107.530111 261.604889,105.080778 C256.918945,102.631446 253.244092,99.09985 250.580329,94.485991 C247.916566,89.8739693 246.585603,84.4773528 246.585603,78.3034912 C246.585603,72.1296296 247.916566,66.7348505 250.580329,62.1209914 C253.244092,57.5089698 256.918945,53.9773739 261.604889,51.5280413 C266.292671,49.0805462 271.581592,47.8549611 277.475329,47.8549611 C283.369066,47.8549611 288.641442,49.0805462 293.294295,51.5280413" id="Fill-15" fill="#25358E" fill-rule="evenodd" mask="url(#mask-2)"></path>
                    <polygon id="Fill-16" fill="#25358E" fill-rule="evenodd" mask="url(#mask-2)" points="317.737861 108.007667 335.952192 108.007667 335.952192 29.222945 317.737861 29.222945"></polygon>
                    <polygon id="Fill-17" fill="#25358E" fill-rule="evenodd" mask="url(#mask-2)" points="115.887485 38.5480485 134.101816 38.5480485 134.101816 20.3425065 115.887485 20.3425065"></polygon>
                    <polygon id="Fill-18" fill="#25358E" fill-rule="evenodd" mask="url(#mask-2)" points="87.7681466 137.230612 92.468797 137.230612 92.468797 117.80316 87.7681466 117.80316"></polygon>
                    <path d="M109.692627,123.493402 C110.727616,124.665701 111.246029,126.277152 111.246029,128.327756 L111.246029,137.232082 L106.545379,137.232082 L106.545379,128.878994 C106.545379,127.853692 106.275142,127.050722 105.734668,126.47376 C105.194195,125.896798 104.473563,125.608317 103.57645,125.608317 C102.622349,125.608317 101.866789,125.90966 101.307932,126.516022 C100.749074,127.120546 100.467808,127.980476 100.467808,129.097651 L100.467808,137.232082 L95.7689955,137.232082 L95.7689955,121.900325 L100.467808,121.900325 L100.467808,124.70245 C100.909011,123.787395 101.563462,123.063437 102.434838,122.530574 C103.304375,122.001385 104.328334,121.733116 105.501198,121.733116 C107.258657,121.733116 108.657638,122.321103 109.692627,123.493402" id="Fill-19" fill="#25358E" fill-rule="evenodd" mask="url(#mask-2)"></path>
                    <path d="M119.314345,126.817365 C118.700338,127.477013 118.393334,128.392067 118.393334,129.566203 C118.393334,130.738502 118.700338,131.653557 119.314345,132.313204 C119.928353,132.972852 120.739064,133.303595 121.746477,133.303595 C122.737345,133.303595 123.548056,132.963665 124.180447,132.285642 C124.811,131.60762 125.129033,130.701753 125.129033,129.566203 C125.129033,128.410442 124.811,127.5009 124.180447,126.832065 C123.548056,126.16323 122.737345,125.826975 121.746477,125.826975 C120.739064,125.826975 119.928353,126.159555 119.314345,126.817365 M123.259436,122.503012 C124.101398,123.034037 124.724597,123.757996 125.129033,124.674888 L125.129033,121.900325 L129.802109,121.900325 L129.802109,137.149396 C129.802109,138.578939 129.528195,139.86516 128.976691,141.009897 C128.427026,142.154634 127.585064,143.066013 126.447127,143.744036 C125.31103,144.422058 123.901018,144.76015 122.215255,144.76015 C119.906293,144.76015 118.058755,144.216263 116.674481,143.124812 C115.290206,142.035199 114.461112,140.557882 114.187199,138.687349 L118.832699,138.687349 C118.979767,139.310248 119.314345,139.795337 119.836436,140.144454 C120.358526,140.491734 121.040552,140.666292 121.884353,140.666292 C122.855,140.666292 123.639973,140.386998 124.235597,139.828411 C124.831221,139.269823 125.129033,138.376818 125.129033,137.149396 L125.129033,134.455681 C124.724597,135.372573 124.101398,136.096532 123.259436,136.627558 C122.415635,137.158583 121.408221,137.423177 120.233518,137.423177 C118.970575,137.423177 117.838154,137.108972 116.839932,136.475049 C115.839872,135.8448 115.05306,134.933421 114.475819,133.742747 C113.898579,132.552074 113.609958,131.15928 113.609958,129.566203 C113.609958,127.954752 113.898579,126.556446 114.475819,125.37496 C115.05306,124.193474 115.839872,123.285769 116.839932,122.655521 C117.838154,122.021598 118.970575,121.707392 120.233518,121.707392 C121.408221,121.707392 122.415635,121.971986 123.259436,122.503012" id="Fill-20" fill="#25358E" fill-rule="evenodd" mask="url(#mask-2)"></path>
                    <polygon id="Fill-21" fill="#25358E" fill-rule="evenodd" mask="url(#mask-2)" points="133.101756 137.230612 137.802406 137.230612 137.802406 116.897292 133.101756 116.897292"></polygon>
                    <path d="M151.960243,117.969266 L145.334844,120.80079 L145.334844,117.612799 L151.960243,114.424808 L151.960243,117.969266 Z M150.103514,126.171682 C149.546495,125.668218 148.853438,125.416486 148.028021,125.416486 C147.167675,125.416486 146.45072,125.673731 145.88451,126.186382 C145.316461,126.697195 144.99475,127.450553 144.921217,128.439106 L150.916062,128.439106 C150.932608,127.432179 150.662371,126.675146 150.103514,126.171682 L150.103514,126.171682 Z M155.533987,130.418049 L144.893641,130.418049 C144.948792,131.570136 145.242927,132.400667 145.774209,132.904131 C146.305491,133.407595 146.983841,133.659327 147.809258,133.659327 C148.505991,133.659327 149.081393,133.486606 149.54098,133.137488 C149.998728,132.790209 150.302055,132.340031 150.447284,131.790631 L155.423686,131.790631 C155.221468,132.871057 154.782104,133.839398 154.105592,134.690141 C153.425405,135.542722 152.565059,136.211557 151.520878,136.694809 C150.474859,137.181735 149.311186,137.42428 148.028021,137.42428 C146.526092,137.42428 145.191453,137.110074 144.029619,136.476151 C142.864108,135.845903 141.954126,134.932686 141.29416,133.742012 C140.632356,132.551339 140.303292,131.158545 140.303292,129.565468 C140.303292,127.954017 140.628679,126.555711 141.279453,125.374225 C141.930228,124.192739 142.842047,123.286872 144.014912,122.654786 C145.187777,122.0227 146.526092,121.706657 148.028021,121.706657 C149.550171,121.706657 150.888487,122.019025 152.04113,122.640086 C153.19745,123.262985 154.090886,124.139453 154.721438,125.265815 C155.355668,126.39034 155.671863,127.687586 155.671863,129.153878 C155.671863,129.537907 155.625905,129.958685 155.533987,130.418049 L155.533987,130.418049 Z" id="Fill-22" fill="#25358E" fill-rule="evenodd" mask="url(#mask-2)"></path>
                    <path d="M168.412887,123.162292 C169.57656,124.134308 170.304545,125.416854 170.59868,127.009931 L166.199518,127.009931 C166.072673,126.387032 165.782214,125.896431 165.333658,125.539964 C164.885101,125.181659 164.320729,125.003426 163.644218,125.003426 C163.111097,125.003426 162.7085,125.119186 162.434586,125.34703 C162.158834,125.576713 162.020958,125.901943 162.020958,126.322721 C162.020958,126.798623 162.272812,127.156927 162.778357,127.39396 C163.282064,127.634667 164.074391,127.871699 165.155338,128.108731 C166.328203,128.38435 167.289658,128.663644 168.041541,128.946612 C168.793424,129.231418 169.444199,129.692621 169.993864,130.335731 C170.54353,130.975167 170.819282,131.836935 170.819282,132.919198 C170.819282,133.797504 170.580297,134.576586 170.104165,135.252771 C169.626195,135.930793 168.940492,136.461819 168.041541,136.845848 C167.144428,137.231714 166.080026,137.424647 164.852011,137.424647 C162.782033,137.424647 161.123845,136.96712 159.877447,136.050228 C158.631048,135.135174 157.869973,133.825065 157.59606,132.121741 L162.131259,132.121741 C162.204793,132.779551 162.484221,133.284853 162.969545,133.632132 C163.454868,133.981249 164.083582,134.153971 164.852011,134.153971 C165.385131,134.153971 165.787729,134.030861 166.063481,133.782804 C166.337394,133.534747 166.47527,133.211354 166.47527,132.808951 C166.47527,132.276088 166.223417,131.895734 165.71971,131.667889 C165.214165,131.438206 164.394263,131.197499 163.258165,130.940255 C162.122067,130.703223 161.186349,130.444141 160.454688,130.17036 C159.721188,129.894741 159.088797,129.450076 158.557515,128.836365 C158.026233,128.222654 157.759673,127.384772 157.759673,126.322721 C157.759673,124.948302 158.283601,123.836639 159.327782,122.984058 C160.371962,122.131478 161.846315,121.707025 163.75268,121.707025 C165.695812,121.707025 167.249214,122.193951 168.412887,123.162292" id="Fill-23" fill="#25358E" fill-rule="evenodd" mask="url(#mask-2)"></path>
                    <path d="M188.962285,124.151947 C188.962285,122.448623 188.017375,121.59788 186.131232,121.59788 L183.739544,121.59788 L183.739544,126.652729 L186.131232,126.652729 C188.017375,126.652729 188.962285,125.818522 188.962285,124.151947 L188.962285,124.151947 Z M183.739544,130.417682 L183.739544,137.230979 L179.038894,137.230979 L179.038894,117.803527 L186.653322,117.803527 C188.962285,117.803527 190.721582,118.378652 191.931213,119.521551 C193.140845,120.668125 193.745661,122.211591 193.745661,124.151947 C193.745661,125.362833 193.475424,126.437746 192.93495,127.380362 C192.394476,128.324816 191.591119,129.06715 190.528555,129.607363 C189.465991,130.147575 188.173634,130.417682 186.653322,130.417682 L183.739544,130.417682 Z" id="Fill-24" fill="#25358E" fill-rule="evenodd" mask="url(#mask-2)"></path>
                    <path d="M203.078391,122.558503 C204.004917,122.009103 205.008654,121.733484 206.089602,121.733484 L206.089602,126.764446 L204.742094,126.764446 C203.495695,126.764446 202.528726,127.027203 201.841184,127.560066 C201.153643,128.091091 200.811711,128.987771 200.811711,130.251943 L200.811711,137.230612 L196.109222,137.230612 L196.109222,121.900693 L200.811711,121.900693 L200.811711,124.783666 C201.396305,123.850237 202.153703,123.107903 203.078391,122.558503" id="Fill-25" fill="#25358E" fill-rule="evenodd" mask="url(#mask-2)"></path>
                    <path d="M213.031379,126.749195 C212.417372,127.399656 212.110368,128.338597 212.110368,129.56602 C212.110368,130.791605 212.417372,131.726871 213.031379,132.368144 C213.643548,133.009418 214.400947,133.330973 215.29806,133.330973 C216.197011,133.330973 216.948894,133.009418 217.55371,132.368144 C218.158526,131.726871 218.460015,130.791605 218.460015,129.56602 C218.460015,128.338597 218.158526,127.399656 217.55371,126.749195 C216.948894,126.098735 216.197011,125.773505 215.29806,125.773505 C214.400947,125.773505 213.643548,126.098735 213.031379,126.749195 M219.381026,122.655337 C220.581466,123.285585 221.526376,124.198802 222.213917,125.389476 C222.901458,126.580149 223.245229,127.972943 223.245229,129.56602 C223.245229,131.159096 222.901458,132.55189 222.213917,133.742564 C221.526376,134.933237 220.581466,135.844616 219.381026,136.474865 C218.180586,137.108788 216.82021,137.424831 215.29806,137.424831 C213.777748,137.424831 212.411857,137.108788 211.202225,136.474865 C209.992594,135.844616 209.044007,134.933237 208.356466,133.742564 C207.670763,132.55189 207.326992,131.159096 207.326992,129.56602 C207.326992,127.972943 207.670763,126.580149 208.356466,125.389476 C209.044007,124.198802 209.992594,123.285585 211.202225,122.655337 C212.411857,122.021414 213.777748,121.707208 215.29806,121.707208 C216.82021,121.707208 218.180586,122.021414 219.381026,122.655337" id="Fill-26" fill="#25358E" fill-rule="evenodd" mask="url(#mask-2)"></path>
                    <path d="M233.278369,119.811318 C232.508102,119.811318 231.947407,119.974852 231.601798,120.307432 C231.252512,120.6345 231.059486,121.165525 231.022719,121.900509 L233.800459,121.900509 L233.800459,125.856558 L231.022719,125.856558 L231.022719,137.230428 L226.322068,137.230428 L226.322068,125.856558 L224.480046,125.856558 L224.480046,121.900509 L226.322068,121.900509 L226.322068,121.7333 C226.322068,119.829693 226.877249,118.359726 227.985771,117.323399 C229.094294,116.28891 230.702847,115.772584 232.811429,115.772584 C233.250794,115.772584 233.581696,115.781771 233.800459,115.798308 L233.800459,119.83888 L233.278369,119.811318 Z" id="Fill-27" fill="#25358E" fill-rule="evenodd" mask="url(#mask-2)"></path>
                    <path d="M244.920614,126.171498 C244.361756,125.668035 243.6687,125.416303 242.845121,125.416303 C241.982937,125.416303 241.26782,125.673547 240.699771,126.186198 C240.133561,126.698849 239.81185,127.45037 239.738317,128.438922 L245.731324,128.438922 C245.749708,127.431995 245.479471,126.674962 244.920614,126.171498 M250.351087,130.417866 L239.710741,130.417866 C239.765892,131.569952 240.058189,132.400484 240.591309,132.903947 C241.122591,133.407411 241.799102,133.659143 242.62452,133.659143 C243.321253,133.659143 243.898493,133.486422 244.356241,133.137305 C244.813989,132.791862 245.117317,132.339848 245.264384,131.790447 L250.240786,131.790447 C250.038568,132.870873 249.597365,133.839214 248.920854,134.689957 C248.242505,135.542538 247.38032,136.211373 246.33614,136.696462 C245.291959,137.181551 244.128286,137.424096 242.845121,137.424096 C241.341354,137.424096 240.008553,137.109891 238.84488,136.475967 C237.681208,135.845719 236.769388,134.932502 236.109422,133.741829 C235.449456,132.551155 235.120392,131.158361 235.120392,129.565285 C235.120392,127.953833 235.445779,126.555527 236.094715,125.374041 C236.745489,124.192555 237.657309,123.286688 238.830174,122.654602 C240.004877,122.022516 241.341354,121.706473 242.845121,121.706473 C244.365433,121.706473 245.703749,122.018841 246.85823,122.64174 C248.01455,123.262801 248.906147,124.139269 249.538538,125.265631 C250.170929,126.391993 250.487125,127.687402 250.487125,129.153694 C250.487125,129.53956 250.441166,129.960338 250.351087,130.417866" id="Fill-28" fill="#25358E" fill-rule="evenodd" mask="url(#mask-2)"></path>
                    <path d="M263.228516,123.162292 C264.392189,124.134308 265.120174,125.416854 265.414309,127.009931 L261.015148,127.009931 C260.888302,126.387032 260.597843,125.896431 260.149287,125.539964 C259.70073,125.181659 259.136358,125.003426 258.458009,125.003426 C257.926727,125.003426 257.524129,125.119186 257.250215,125.34703 C256.974464,125.576713 256.836588,125.901943 256.836588,126.322721 C256.836588,126.798623 257.088441,127.156927 257.593986,127.39396 C258.095855,127.634667 258.888182,127.871699 259.970967,128.108731 C261.143832,128.38435 262.105287,128.663644 262.85717,128.946612 C263.609054,129.231418 264.259828,129.692621 264.809494,130.335731 C265.359159,130.975167 265.634911,131.836935 265.634911,132.919198 C265.634911,133.797504 265.395926,134.576586 264.917956,135.252771 C264.441824,135.930793 263.754283,136.461819 262.85717,136.845848 C261.958219,137.231714 260.895655,137.424647 259.66764,137.424647 C257.597663,137.424647 255.939475,136.96712 254.691238,136.050228 C253.446678,135.135174 252.685603,133.825065 252.409851,132.121741 L256.946888,132.121741 C257.020422,132.779551 257.298012,133.284853 257.785174,133.632132 C258.270497,133.981249 258.899212,134.153971 259.66764,134.153971 C260.200761,134.153971 260.603358,134.030861 260.87911,133.782804 C261.153024,133.534747 261.2909,133.211354 261.2909,132.808951 C261.2909,132.276088 261.039046,131.895734 260.535339,131.667889 C260.029794,131.438206 259.209892,131.197499 258.073794,130.940255 C256.937697,130.703223 256.001979,130.444141 255.270317,130.17036 C254.536817,129.894741 253.904426,129.450076 253.373144,128.836365 C252.840024,128.222654 252.575302,127.384772 252.575302,126.322721 C252.575302,124.948302 253.097392,123.836639 254.143411,122.984058 C255.187591,122.131478 256.661945,121.707025 258.568309,121.707025 C260.511441,121.707025 262.064843,122.193951 263.228516,123.162292" id="Fill-29" fill="#25358E" fill-rule="evenodd" mask="url(#mask-2)"></path>
                    <path d="M268.301064,137.230612 L273.001714,137.230612 L273.001714,121.898855 L268.301064,121.898855 L268.301064,137.230612 Z M268.630128,115.813192 C269.143026,115.346477 269.821376,115.111282 270.665177,115.111282 C271.508977,115.111282 272.185489,115.346477 272.700226,115.813192 C273.211286,116.278069 273.470492,116.871568 273.470492,117.584502 C273.470492,118.280899 273.211286,118.863373 272.700226,119.330088 C272.185489,119.796802 271.508977,120.03016 270.665177,120.03016 C269.821376,120.03016 269.143026,119.796802 268.630128,119.330088 C268.117229,118.863373 267.861699,118.280899 267.861699,117.584502 C267.861699,116.871568 268.117229,116.278069 268.630128,115.813192 L268.630128,115.813192 Z" id="Fill-30" fill="#25358E" fill-rule="evenodd" mask="url(#mask-2)"></path>
                    <path d="M281.20809,126.749195 C280.594083,127.399656 280.287079,128.338597 280.287079,129.56602 C280.287079,130.791605 280.594083,131.726871 281.20809,132.368144 C281.822098,133.009418 282.577658,133.330973 283.474771,133.330973 C284.373722,133.330973 285.125605,133.009418 285.730421,132.368144 C286.335237,131.726871 286.636726,130.791605 286.636726,129.56602 C286.636726,128.338597 286.335237,127.399656 285.730421,126.749195 C285.125605,126.098735 284.373722,125.773505 283.474771,125.773505 C282.577658,125.773505 281.822098,126.098735 281.20809,126.749195 M287.559575,122.655337 C288.758177,123.285585 289.703086,124.198802 290.390628,125.389476 C291.078169,126.580149 291.42194,127.972943 291.42194,129.56602 C291.42194,131.159096 291.078169,132.55189 290.390628,133.742564 C289.703086,134.933237 288.758177,135.844616 287.559575,136.474865 C286.357297,137.108788 284.996921,137.424831 283.474771,137.424831 C281.954459,137.424831 280.588568,137.108788 279.378936,136.474865 C278.169305,135.844616 277.222556,134.933237 276.535015,133.742564 C275.847474,132.55189 275.503703,131.159096 275.503703,129.56602 C275.503703,127.972943 275.847474,126.580149 276.535015,125.389476 C277.222556,124.198802 278.169305,123.285585 279.378936,122.655337 C280.588568,122.021414 281.954459,121.707208 283.474771,121.707208 C284.996921,121.707208 286.357297,122.021414 287.559575,122.655337" id="Fill-31" fill="#25358E" fill-rule="evenodd" mask="url(#mask-2)"></path>
                    <path d="M307.846273,123.493402 C308.881262,124.665701 309.399676,126.277152 309.399676,128.327756 L309.399676,137.232082 L304.699025,137.232082 L304.699025,128.878994 C304.699025,127.853692 304.428788,127.050722 303.888315,126.47376 C303.347841,125.896798 302.627209,125.608317 301.730097,125.608317 C300.777833,125.608317 300.020435,125.90966 299.461578,126.516022 C298.902721,127.120546 298.623292,127.980476 298.623292,129.097651 L298.623292,137.232082 L293.922642,137.232082 L293.922642,121.900325 L298.623292,121.900325 L298.623292,124.70245 C299.062657,123.787395 299.718946,123.063437 300.588484,122.530574 C301.458021,122.001385 302.48198,121.733116 303.654845,121.733116 C305.414142,121.733116 306.811285,122.321103 307.846273,123.493402" id="Fill-32" fill="#25358E" fill-rule="evenodd" mask="url(#mask-2)"></path>
                    <path d="M317.468727,126.817365 C316.85472,127.477013 316.547716,128.392067 316.547716,129.566203 C316.547716,130.738502 316.85472,131.653557 317.468727,132.313204 C318.080896,132.972852 318.891607,133.303595 319.900859,133.303595 C320.891727,133.303595 321.702438,132.963665 322.33299,132.285642 C322.965381,131.60762 323.283415,130.701753 323.283415,129.566203 C323.283415,128.410442 322.965381,127.5009 322.33299,126.832065 C321.702438,126.16323 320.891727,125.826975 319.900859,125.826975 C318.891607,125.826975 318.080896,126.159555 317.468727,126.817365 M321.413817,122.503012 C322.25578,123.034037 322.878979,123.757996 323.283415,124.674888 L323.283415,121.900325 L327.95649,121.900325 L327.95649,137.230244 L323.283415,137.230244 L323.283415,134.455681 C322.878979,135.372573 322.25578,136.096532 321.413817,136.627558 C320.570017,137.158583 319.562603,137.423177 318.3879,137.423177 C317.124956,137.423177 315.992535,137.108972 314.994314,136.475049 C313.994253,135.8448 313.207441,134.933421 312.630201,133.742747 C312.051122,132.552074 311.76434,131.15928 311.76434,129.566203 C311.76434,127.954752 312.051122,126.556446 312.630201,125.37496 C313.207441,124.193474 313.994253,123.285769 314.994314,122.655521 C315.992535,122.021598 317.124956,121.707392 318.3879,121.707392 C319.562603,121.707392 320.570017,121.971986 321.413817,122.503012" id="Fill-33" fill="#25358E" fill-rule="evenodd" mask="url(#mask-2)"></path>
                    <polygon id="Fill-34" fill="#25358E" fill-rule="evenodd" mask="url(#mask-2)" points="331.255218 137.230612 335.955868 137.230612 335.955868 116.897292 331.255218 116.897292"></polygon>
                    <path d="M484.16754,130.456452 C483.967161,130.379279 483.680379,130.338855 483.312709,130.338855 L482.954232,130.338855 L482.954232,131.972356 L483.525958,131.972356 C483.871567,131.972356 484.139965,131.90437 484.33483,131.76656 C484.526018,131.628751 484.62345,131.406418 484.62345,131.097725 C484.62345,130.789032 484.470867,130.575887 484.16754,130.456452 L484.16754,130.456452 Z M481.479879,134.976601 L481.479879,129.346627 C481.829164,129.346627 482.351255,129.348465 483.047988,129.350302 C483.744721,129.352139 484.130773,129.355814 484.207984,129.361327 C484.65654,129.392564 485.026048,129.489949 485.320183,129.649808 C485.820213,129.925427 486.070228,130.373767 486.070228,130.99299 C486.070228,131.467055 485.939706,131.808822 485.674984,132.02013 C485.410262,132.2296 485.084875,132.356385 484.698822,132.396809 C485.051785,132.470307 485.320183,132.578717 485.500341,132.722039 C485.829405,132.990308 485.994856,133.411086 485.994856,133.984373 L485.994856,134.487837 C485.994856,134.542961 485.998533,134.598084 486.005886,134.653208 C486.013239,134.708332 486.027946,134.763456 486.04633,134.818579 L486.099642,134.976601 L484.691469,134.976601 C484.647348,134.798367 484.614258,134.539286 484.597713,134.199356 C484.583006,133.859426 484.551755,133.629744 484.507634,133.510309 C484.4341,133.311863 484.294386,133.174054 484.092168,133.096881 C483.981867,133.050944 483.814578,133.021545 483.5903,133.006845 L483.264912,132.984796 L482.954232,132.984796 L482.954232,134.976601 L481.479879,134.976601 Z M480.720642,129.208818 C479.91177,130.035674 479.507333,131.016877 479.507333,132.152427 C479.507333,133.3284 479.917285,134.327978 480.742702,135.149322 C481.558927,135.972504 482.547958,136.384094 483.706115,136.384094 C484.860597,136.384094 485.84595,135.968829 486.664014,135.14381 C487.482078,134.311441 487.890191,133.313701 487.890191,132.152427 C487.890191,131.02239 487.485755,130.041187 486.671367,129.208818 C485.847788,128.363587 484.860597,127.940971 483.706115,127.940971 C482.538766,127.940971 481.542382,128.363587 480.720642,129.208818 L480.720642,129.208818 Z M487.265153,135.797945 C486.274285,136.753424 485.09039,137.231163 483.706115,137.231163 C482.277721,137.231163 481.071766,136.742399 480.093766,135.763033 C479.113927,134.783668 478.623089,133.580132 478.623089,132.152427 C478.623089,130.66776 479.152533,129.434825 480.21142,128.451785 C481.204127,127.531218 482.3678,127.071853 483.706115,127.071853 C485.108773,127.071853 486.305536,127.567967 487.298243,128.562032 C488.29095,129.55426 488.789142,130.750446 488.789142,132.152427 C488.789142,133.594832 488.27992,134.809392 487.265153,135.797945 L487.265153,135.797945 Z" id="Fill-35" fill="#25358E" fill-rule="evenodd" mask="url(#mask-2)"></path>
                </g>
            </g>
        </g>
    </g>
</svg>