<?xml version="1.0" encoding="UTF-8"?>
<svg width="285px" height="150px" viewBox="0 0 285 150" version="1.1" xmlns="http://www.w3.org/2000/svg" xmlns:xlink="http://www.w3.org/1999/xlink">
    <title>muy-ingles-stacked-white</title>
    <g id="muy-ingles-stacked-white" stroke="none" stroke-width="1" fill="none" fill-rule="evenodd">
        <g id="muy-ingles-logo-white" transform="translate(3.000000, 3.000000)" fill="#FFFFFF">
            <g id="Group-39">
                <path d="M27.1738228,0.289687764 L27.1738228,27.2222616 L18.8718819,27.2222616 L18.8718819,22.3476624 C18.0998143,23.9242869 16.949097,25.1795612 15.4209114,26.1123038 C13.892135,27.0456371 12.1146667,27.5117131 10.0873249,27.5117131 C6.99846414,27.5117131 4.54403376,26.4826835 2.72698734,24.4228523 C0.908759494,22.3636118 0.00023628692,19.5317131 0.00023628692,15.9283376 L0.00023628692,0.289687764 L8.20529958,0.289687764 L8.20529958,14.9146667 C8.20529958,16.7482532 8.67964557,18.1718819 9.62892827,19.1861435 C10.5776203,20.1998143 11.8571139,20.7066498 13.4662278,20.7066498 C15.1385485,20.7066498 16.4588017,20.1755949 17.4240338,19.1134852 C18.3892658,18.0513755 18.8718819,16.53973 18.8718819,14.5767764 L18.8718819,0.289687764 L27.1738228,0.289687764 Z" id="Fill-1"></path>
                <path d="M57.798557,3.08927426 C59.6161941,5.14851477 60.5258987,7.9804135 60.5258987,11.5843797 L60.5258987,27.2224388 L52.2723966,27.2224388 L52.2723966,12.5496118 C52.2723966,10.7479241 51.7968692,9.33965401 50.8481772,8.32598312 C49.8988945,7.31231224 48.6353502,6.80606751 47.0593165,6.80606751 C45.3858143,6.80606751 44.0584726,7.33653165 43.0772911,8.39805063 C42.095519,9.46016034 41.6046329,10.9735781 41.6046329,12.9353502 L41.6046329,27.2224388 L33.3517215,27.2224388 L33.3517215,0.289864979 L41.6046329,0.289864979 L41.6046329,5.21290295 C42.3772911,3.60378903 43.5274177,2.33374684 45.0561941,1.39982278 C46.5843797,0.467080169 48.3783882,0.00041350211 50.4382194,0.00041350211 C53.5270802,0.00041350211 55.9803291,1.03003376 57.798557,3.08927426" id="Fill-3"></path>
                <path d="M6.90194093,42.8588439 C7.99535865,41.8776624 9.36345992,41.3861857 11.0044726,41.3861857 C12.2916456,41.3861857 13.3135865,41.7163966 14.0697046,42.3762278 C14.8252321,43.0354684 15.2038819,43.8961435 15.2038819,44.9582532 C15.2038819,46.3742025 14.664557,47.5721772 13.5870886,48.5539494 C12.5084388,49.5357215 11.1491983,50.0260169 9.50877637,50.0260169 C8.18852321,50.0260169 7.15063291,49.6963966 6.3956962,49.0365654 C5.63898734,48.3779156 5.26092827,47.5331899 5.26092827,46.5029789 C5.26092827,45.0545401 5.80793249,43.840616 6.90194093,42.8588439 L6.90194093,42.8588439 Z M13.0318143,53.3080422 L8.25409283,80.240616 L0,80.240616 L4.72987342,53.3080422 L13.0318143,53.3080422 Z" id="Fill-5"></path>
                <path d="M42.4499494,55.2633165 C43.9137468,56.7590127 44.6462363,58.874962 44.6462363,61.6099831 C44.6462363,62.5433165 44.5493586,63.541038 44.3567848,64.6031477 L41.5573755,80.240616 L33.3517215,80.240616 L35.9101181,65.567789 C36.0064051,65.0213755 36.0548439,64.5228101 36.0548439,64.0715021 C36.0548439,62.7199409 35.6685148,61.674962 34.8964473,60.9347932 C34.123789,60.1946245 33.04573,59.8248354 31.66227,59.8248354 C30.0212574,59.8248354 28.6135781,60.3552996 27.4392321,61.4168186 C26.2642954,62.4789283 25.5158565,63.9917553 25.1945063,65.9541181 L22.6851392,80.240616 L14.3831983,80.240616 L19.1130717,53.3080422 L27.4150127,53.3080422 L26.5460675,58.1347932 C27.6081772,56.5587595 28.9839578,55.3111646 30.6728186,54.3937806 C32.36227,53.4769873 34.2360253,53.0185907 36.2964473,53.0185907 C38.934,53.0185907 40.9855612,53.7664388 42.4499494,55.2633165" id="Fill-7"></path>
                <path d="M59.5121097,61.9475781 C58.2249367,63.1065654 57.4044304,64.71627 57.0505907,66.7743291 C56.9537131,67.3538228 56.9052743,67.9014177 56.9052743,68.4159325 C56.9052743,69.9600675 57.3477215,71.1663122 58.232616,72.0358481 C59.1181013,72.9047932 60.3001266,73.3389705 61.7804641,73.3389705 C63.5183544,73.3389705 65.0465401,72.7435274 66.3656118,71.5532321 C67.6846835,70.3629367 68.5211392,68.7703629 68.8761603,66.7743291 C68.9724473,66.2279156 69.0208861,65.7128101 69.0208861,65.2301941 C69.0208861,63.6541603 68.5695781,62.4231055 67.6693249,61.5376203 C66.7678903,60.6533165 65.5770042,60.2108692 64.0972574,60.2108692 C62.3274684,60.2108692 60.798692,60.7897722 59.5121097,61.9475781 M50.9207173,77.6831055 C49.182827,75.7520506 48.3138819,73.0979578 48.3138819,69.7184641 C48.3138819,68.49627 48.4261181,67.2740759 48.6523629,66.0501097 C49.1343882,63.3800675 50.0435021,61.0550042 51.3791139,59.0761013 C52.714135,57.0971983 54.3391983,55.584962 56.2537131,54.5388017 C58.1682278,53.4932321 60.2038397,52.9704473 62.3599578,52.9704473 C64.547384,52.9704473 66.3337131,53.4377046 67.7177637,54.3704473 C69.1006329,55.3037806 69.9861181,56.5744135 70.3718565,58.1829367 L71.2408017,53.3083376 L79.4464557,53.3083376 L74.7159916,80.0961857 C74.297173,82.6061435 73.4370886,84.8662278 72.1339662,86.8776203 C70.8308439,88.8884219 69.1006329,90.4892658 66.9451055,91.6801519 C64.7889873,92.8704473 62.2790295,93.4658903 59.4158228,93.4658903 C55.4255274,93.4658903 52.3514346,92.5083376 50.1964979,90.5944135 C48.0403797,88.679308 46.9144726,86.0813333 46.8181857,82.799308 L54.9748101,82.799308 C55.071097,83.8927257 55.5218143,84.7457215 56.3263713,85.3577046 C57.1303376,85.9679156 58.2727848,86.2744979 59.7531224,86.2744979 C61.4585232,86.2744979 62.9146414,85.7836118 64.1214768,84.8018397 C65.3283122,83.8200675 66.1245992,82.2517131 66.5109283,80.0961857 L67.3792827,75.3663122 C66.4140506,76.9754262 65.1026582,78.2460591 63.4456962,79.1793924 C61.7881435,80.1127257 59.9137975,80.5788017 57.8226582,80.5788017 C54.95827,80.5788017 52.6580169,79.6129789 50.9207173,77.6831055" id="Fill-9"></path>
                <polygon id="Fill-11" points="95.2770886 44.5237215 89.0024895 80.2408523 80.7011392 80.2408523 86.9751477 44.5237215"></polygon>
                <path d="M118.927401,46.4060422 L106.426051,51.377519 L107.391283,45.7787004 L120.037359,40.1798819 L118.927401,46.4060422 Z M114.77643,63.3478143 C114.77643,62.0612321 114.373561,61.096 113.570186,60.4515274 C112.765038,59.8082363 111.751958,59.4868861 110.529173,59.4868861 C109.016346,59.4868861 107.680734,59.9370127 106.522928,60.8378565 C105.364532,61.7392911 104.559384,63.0577722 104.109848,64.7956624 L114.631705,64.7956624 C114.728582,64.2486582 114.77643,63.7666329 114.77643,63.3478143 L114.77643,63.3478143 Z M120.013139,55.7943122 C122.023941,57.6763376 123.029932,60.1945654 123.029932,63.3478143 C123.029932,64.0885738 122.949595,64.988827 122.788329,66.050346 C122.659553,66.8230042 122.45103,67.563173 122.161578,68.271443 L103.481916,68.271443 C103.417527,68.9147342 103.385629,69.3495021 103.385629,69.5745654 C103.385629,72.5027511 104.785629,73.9659578 107.584447,73.9659578 C108.774743,73.9659578 109.836852,73.6611477 110.770186,73.0497553 C111.703519,72.4383629 112.3793,71.6491646 112.797527,70.6845232 L121.533646,70.6845232 C120.471536,73.6127089 118.629679,75.9938903 116.007485,77.8274768 C113.38411,79.661654 110.319468,80.579038 106.81238,80.579038 C103.33719,80.579038 100.577949,79.6132152 98.5346582,77.6827511 C96.4913671,75.7522869 95.4700169,73.081654 95.4700169,69.6708523 C95.4700169,68.6412321 95.5663038,67.5466329 95.7594684,66.3882363 C96.2420844,63.6538059 97.2392152,61.2720338 98.7520422,59.244692 C100.264278,57.2179409 102.138624,55.6661266 104.37508,54.5874768 C106.610945,53.5094177 109.048835,52.9700928 111.68757,52.9700928 C115.226557,52.9700928 118.002338,53.9116962 120.013139,55.7943122 L120.013139,55.7943122 Z" id="Fill-13"></path>
                <path d="M147.162979,55.5044473 C149.157831,57.193308 150.267789,59.4545738 150.494034,62.2852911 L142.384667,62.2852911 C142.352177,61.159384 141.933359,60.2910295 141.129983,59.6796371 C140.325426,59.0682447 139.230827,58.7628439 137.847367,58.7628439 C136.849646,58.7628439 136.037409,58.9554177 135.410068,59.3417468 C134.782726,59.7274852 134.469055,60.2910295 134.469055,61.0306076 C134.469055,61.7713671 134.903232,62.3508608 135.772177,62.7684979 C136.641122,63.1873165 137.960194,63.6214937 139.729983,64.0716203 C141.692346,64.6198059 143.293781,65.1414093 144.532515,65.6399747 C145.771249,66.1397215 146.841038,66.8952489 147.741882,67.9089198 C148.642726,68.9225907 149.094034,70.2499325 149.094034,71.8909451 C149.094034,72.5667257 149.029055,73.1781181 148.900278,73.7251224 C148.51454,75.7518734 147.347873,77.4011561 145.40146,78.6723797 C143.454456,79.9436034 140.840532,80.5786245 137.557916,80.5786245 C133.92146,80.5786245 131.001544,79.7663882 128.797578,78.1413249 C126.593612,76.5168523 125.426354,74.2242785 125.298169,71.2636034 L133.407536,71.2636034 C133.311249,72.422 133.712346,73.3074852 134.613781,73.9182869 C135.514034,74.5296793 136.720869,74.8350802 138.234287,74.8350802 C139.327114,74.8350802 140.14762,74.6176962 140.695215,74.183519 C141.242219,73.7493418 141.515722,73.1781181 141.515722,72.4704388 C141.515722,71.6658819 141.096903,71.0627595 140.260447,70.6598903 C139.423401,70.2582025 138.07243,69.7992152 136.206354,69.2847004 C134.340278,68.8020844 132.795553,68.311789 131.572768,67.8126329 C130.349392,67.3140675 129.296143,66.5738987 128.41184,65.5921266 C127.526354,64.6109451 127.084498,63.3160928 127.084498,61.7063882 C127.084498,61.3525485 127.148295,60.7582869 127.277072,59.9212405 C127.599013,57.893308 128.740869,56.2286667 130.704414,54.9255443 C132.666776,53.6212405 135.289561,52.97027 138.571586,52.97027 C142.303738,52.97027 145.167536,53.8149958 147.162979,55.5044473" id="Fill-15"></path>
                <path d="M41.726557,107.622017 C43.609173,109.632819 44.5501857,112.488937 44.5501857,116.18919 L44.5501857,131.730962 L37.7929705,131.730962 L37.7929705,116.961848 C37.7929705,114.902608 37.2695949,113.317713 36.224616,112.207755 C35.1784557,111.097207 33.7382869,110.541932 31.9041097,110.541932 C30.0055443,110.541932 28.493308,111.137966 27.3668101,112.328262 C26.2403122,113.518557 25.6779494,115.256447 25.6779494,117.540751 L25.6779494,131.730962 L18.9207342,131.730962 L18.9207342,116.961848 C18.9207342,114.902608 18.3973586,113.317713 17.351789,112.207755 C16.3062194,111.097207 14.8660506,110.541932 13.0318734,110.541932 C11.1327173,110.541932 9.62107173,111.137966 8.49516456,112.328262 C7.36807595,113.518557 6.80571308,115.256447 6.80571308,117.540751 L6.80571308,131.730962 L5.907173e-05,131.730962 L5.907173e-05,104.991553 L6.80571308,104.991553 L6.80571308,110.059316 C7.51339241,108.322017 8.63162025,106.978726 10.1598059,106.029443 C11.6879916,105.08016 13.4666414,104.605814 15.4933924,104.605814 C17.6489198,104.605814 19.5238565,105.120329 21.1170211,106.149949 C22.7095949,107.18016 23.9075696,108.659907 24.7127173,110.590371 C25.5485823,108.756785 26.7955865,107.300667 28.4531392,106.222608 C30.1101013,105.144549 31.9684979,104.605814 34.0277384,104.605814 C37.277865,104.605814 39.8439409,105.611806 41.726557,107.622017" id="Fill-17"></path>
                <path d="M76.357654,104.991494 L76.357654,131.731494 L69.552,131.731494 L69.552,126.325249 C68.84373,128.128118 67.6770633,129.535207 66.0525907,130.548878 C64.4275274,131.561958 62.5531814,132.069384 60.4295527,132.069384 C57.340692,132.069384 54.879173,131.055713 53.0449958,129.027781 C51.2108186,127.00103 50.2934346,124.170312 50.2934346,120.533266 L50.2934346,104.991494 L57.0512405,104.991494 L57.0512405,119.761198 C57.0512405,121.885418 57.597654,123.53411 58.6922532,124.708456 C59.7856709,125.883392 61.2660084,126.469975 63.1326751,126.469975 C65.095038,126.469975 66.6563038,125.842633 67.8147004,124.587949 C68.973097,123.332675 69.552,121.530987 69.552,119.181705 L69.552,104.991494 L76.357654,104.991494 Z" id="Fill-19"></path>
                <polygon id="Fill-21" points="87.3620675 104.991494 94.6497468 123.140101 101.407553 104.991494 108.888397 104.991494 92.5261181 144.473857 84.9968354 144.473857 91.0298312 130.958835 79.7837553 104.991494"></polygon>
                <path d="M161.764211,106.753249 C163.227418,108.249536 163.959907,110.365485 163.959907,113.100506 C163.959907,114.03384 163.864802,115.03097 163.671046,116.09308 L160.871046,131.731139 L152.665392,131.731139 L155.223789,117.058312 C155.320667,116.511899 155.369696,116.012743 155.369696,115.561435 C155.369696,114.210464 154.982776,113.164895 154.2113,112.424726 C153.438051,111.685148 152.359401,111.314768 150.976532,111.314768 C149.335519,111.314768 147.927249,111.845232 146.753494,112.907342 C145.578557,113.969451 144.830118,115.481688 144.508768,117.444641 L141.99881,131.731139 L133.696869,131.731139 L138.427333,104.798565 L146.729274,104.798565 L145.860329,109.624726 C146.922439,108.048692 148.298219,106.801097 149.98708,105.884304 C151.675941,104.967511 153.550878,104.509114 155.610709,104.509114 C158.248262,104.509114 160.299823,105.256962 161.764211,106.753249" id="Fill-23"></path>
                <path d="M178.585241,113.438042 C177.296886,114.596439 176.47697,116.206143 176.123722,118.264793 C176.026844,118.843696 175.978405,119.391291 175.978405,119.905806 C175.978405,121.449941 176.420852,122.656776 177.306338,123.525722 C178.190641,124.394667 179.373257,124.828844 180.853595,124.828844 C182.591485,124.828844 184.11908,124.233992 185.439333,123.043105 C186.757814,121.85281 187.59427,120.260236 187.949291,118.264793 C188.044987,117.717789 188.093426,117.203274 188.093426,116.720658 C188.093426,115.144034 187.642709,113.91357 186.742456,113.028084 C185.84043,112.143781 184.650135,111.700743 183.170979,111.700743 C181.400599,111.700743 179.871823,112.279646 178.585241,113.438042 M169.993257,129.172979 C168.255958,127.242515 167.387603,124.587831 167.387603,121.208928 C167.387603,119.986734 167.499249,118.76454 167.724903,117.540574 C168.20811,114.870532 169.116633,112.544878 170.451654,110.566565 C171.786675,108.587662 173.412329,107.075426 175.326844,106.029266 C177.241359,104.983696 179.27638,104.460911 181.432498,104.460911 C183.620515,104.460911 185.406844,104.927578 186.790895,105.860321 C188.173173,106.794245 189.058658,108.064878 189.444987,109.673401 L190.313342,104.798802 L198.518996,104.798802 L193.788532,131.58665 C193.370895,134.096608 192.509629,136.356692 191.207097,138.367494 C189.903384,140.378295 188.173173,141.979139 186.018236,143.170616 C183.862118,144.360911 181.35216,144.955764 178.488363,144.955764 C174.498068,144.955764 171.425156,143.998211 169.269629,142.084287 C167.113511,140.169772 165.988194,137.571207 165.891316,134.289772 L174.047941,134.289772 C174.144819,135.382599 174.594945,136.236186 175.398911,136.847578 C176.203468,137.45838 177.345325,137.764371 178.826253,137.764371 C180.531654,137.764371 181.987772,137.274076 183.194608,136.292304 C184.401443,135.310532 185.19773,133.741586 185.584059,131.58665 L186.452414,126.856776 C185.487181,128.4653 184.175789,129.736523 182.518827,130.669857 C180.861274,131.60319 178.986928,132.069266 176.895789,132.069266 C174.031401,132.069266 171.730557,131.103443 169.993257,129.172979" id="Fill-25"></path>
                <polygon id="Fill-27" points="214.108439 96.0141857 207.83384 131.731316 199.531308 131.731316 205.805907 96.0141857"></polygon>
                <path d="M237.516793,97.8959156 L225.016624,102.867392 L225.981266,97.2685738 L238.627342,91.670346 L237.516793,97.8959156 Z M233.366414,114.838278 C233.366414,113.551105 232.962954,112.585873 232.159578,111.941401 C231.35443,111.2987 230.341941,110.976759 229.118565,110.976759 C227.605738,110.976759 226.270717,111.427477 225.112321,112.328321 C223.953924,113.229165 223.149367,114.548236 222.699241,116.286127 L233.221688,116.286127 C233.317975,115.739122 233.366414,115.256506 233.366414,114.838278 L233.366414,114.838278 Z M238.603122,107.284186 C240.613924,109.166802 241.619916,111.68503 241.619916,114.838278 C241.619916,115.578447 241.539578,116.4787 241.378903,117.54081 C241.249536,118.312878 241.041013,119.053637 240.751561,119.761316 L222.071899,119.761316 C222.00692,120.404608 221.975021,120.839376 221.975021,121.064439 C221.975021,123.992624 223.375021,125.456422 226.175021,125.456422 C227.364135,125.456422 228.426835,125.151612 229.359578,124.539629 C230.292911,123.928236 230.969283,123.139629 231.387511,122.174987 L240.123629,122.174987 C239.061519,125.103173 237.219072,127.483764 234.596878,129.31735 C231.973502,131.152118 228.909451,132.069502 225.401772,132.069502 C221.927173,132.069502 219.167932,131.103679 217.124641,129.172624 C215.080759,127.242751 214.059409,124.572118 214.059409,121.160726 C214.059409,120.131696 214.156287,119.037097 214.348861,117.8787 C214.832068,115.143679 215.828608,112.762498 217.342025,110.735156 C218.853671,108.708405 220.727426,107.156 222.964473,106.077941 C225.200338,104.999291 227.637637,104.460557 230.276962,104.460557 C233.815949,104.460557 236.59173,105.40157 238.603122,107.284186 L238.603122,107.284186 Z" id="Fill-29"></path>
                <path d="M265.511831,106.99438 C267.506684,108.683831 268.616641,110.944506 268.842295,113.775814 L260.732928,113.775814 C260.700439,112.649907 260.28162,111.781553 259.477654,111.16957 C258.673688,110.558768 257.579089,110.252776 256.195629,110.252776 C255.197907,110.252776 254.386262,110.445941 253.75892,110.831679 C253.130987,111.217418 252.817907,111.781553 252.817907,112.521131 C252.817907,113.2613 253.251494,113.841384 254.120439,114.259021 C254.989384,114.677249 256.308456,115.111426 258.078245,115.561553 C260.040608,116.109738 261.641451,116.631932 262.881367,117.130498 C264.119511,117.629654 265.1893,118.385181 266.090734,119.398852 C266.990987,120.412523 267.442295,121.740456 267.442295,123.380878 C267.442295,124.056658 267.377316,124.668641 267.249131,125.215055 C266.862802,127.242397 265.696135,128.891679 263.749722,130.162903 C261.802127,131.434127 259.188203,132.069148 255.906177,132.069148 C252.270312,132.069148 249.349806,131.256321 247.14584,129.631257 C244.941873,128.006785 243.775207,125.714211 243.64643,122.754127 L251.755207,122.754127 C251.65892,123.911932 252.060608,124.797418 252.962042,125.408219 C253.862295,126.019612 255.069131,126.325603 256.581958,126.325603 C257.675376,126.325603 258.496473,126.108219 259.044068,125.674042 C259.591072,125.239274 259.863983,124.668641 259.863983,123.960371 C259.863983,123.156405 259.445165,122.553283 258.608709,122.150414 C257.771662,121.748726 256.420692,121.289738 254.555207,120.774633 C252.68854,120.292017 251.144405,119.802312 249.92103,119.302565 C248.697654,118.804 247.644405,118.064422 246.760101,117.082059 C245.874616,116.101468 245.432759,114.806616 245.432759,113.196911 C245.432759,112.843072 245.496557,112.248219 245.625333,111.411173 C245.946684,109.383831 247.089131,107.718599 249.052675,106.415477 C251.015038,105.111764 253.637823,104.460793 256.919848,104.460793 C260.652,104.460793 263.515797,105.305519 265.511831,106.99438" id="Fill-31"></path>
                <polygon id="Fill-33" points="132.587738 104.798802 127.808835 131.731376 119.555333 131.731376 124.285207 104.798802"></polygon>
                <polygon id="Fill-35" points="134.498886 93.4655359 133.313907 100.240473 125.059814 100.240473 126.245384 93.4655359"></polygon>
                <path d="M274.659857,135.289975 C274.447789,135.207274 274.148886,135.166515 273.762557,135.166515 L273.386861,135.166515 L273.386861,136.881367 L273.98703,136.881367 C274.349139,136.881367 274.630911,136.8093 274.834118,136.664574 C275.036734,136.519848 275.137747,136.286515 275.137747,135.962802 C275.137747,135.639679 274.978253,135.415207 274.659857,135.289975 L274.659857,135.289975 Z M271.838,140.036979 L271.838,134.124489 C272.204245,134.124489 272.753021,134.125671 273.484329,134.128034 C274.215046,134.130397 274.62146,134.134532 274.70357,134.139257 C275.171418,134.172928 275.559519,134.273941 275.868464,134.442886 C276.394793,134.732928 276.657662,135.203139 276.657662,135.85411 C276.657662,136.350903 276.518253,136.710059 276.241797,136.930397 C275.96357,137.151325 275.622726,137.283646 275.216903,137.326768 C275.588464,137.404152 275.868464,137.51816 276.056903,137.668203 C276.404245,137.949975 276.577916,138.391831 276.577916,138.994363 L276.577916,139.523055 C276.577916,139.580945 276.582051,139.638835 276.58973,139.696726 C276.596819,139.755207 276.611586,139.812506 276.632262,139.870397 L276.686608,140.036979 L275.210405,140.036979 C275.161966,139.849131 275.129477,139.576219 275.112937,139.218835 C275.095215,138.862042 275.063316,138.62103 275.014878,138.495797 C274.937494,138.287865 274.792768,138.143139 274.5807,138.06103 C274.46492,138.013181 274.288295,137.981873 274.052599,137.967105 L273.712346,137.945249 L273.386861,137.945249 L273.386861,140.036979 L271.838,140.036979 Z M271.041713,133.979764 C270.192852,134.848118 269.768127,135.878329 269.768127,137.070397 C269.768127,138.304996 270.199941,139.3547 271.06357,140.217738 C271.921882,141.081958 272.959181,141.513181 274.175468,141.513181 C275.385848,141.513181 276.420785,141.079004 277.280278,140.21065 C278.138591,139.33757 278.568042,138.290228 278.568042,137.070397 C278.568042,135.883055 278.140954,134.853435 277.286776,133.979764 C276.423148,133.091916 275.385848,132.648287 274.175468,132.648287 C272.94973,132.648287 271.905342,133.091916 271.041713,133.979764 L271.041713,133.979764 Z M277.909392,140.898245 C276.872093,141.901283 275.627451,142.403392 274.175468,142.403392 C272.675046,142.403392 271.410911,141.889468 270.383654,140.862211 C269.355806,139.834363 268.841882,138.570819 268.841882,137.070397 C268.841882,135.511494 269.396565,134.216641 270.506523,133.184068 C271.547958,132.218835 272.771333,131.736219 274.175468,131.736219 C275.646945,131.736219 276.903401,132.257232 277.945426,133.299848 C278.987451,134.341873 279.508464,135.598329 279.508464,137.070397 C279.508464,138.584996 278.975637,139.860945 277.909392,140.898245 L277.909392,140.898245 Z" id="Fill-37"></path>
            </g>
        </g>
    </g>
</svg>