<svg width="447" height="447" viewBox="0 0 447 447" fill="none" xmlns="http://www.w3.org/2000/svg">
<rect width="447" height="447" fill="#D8D8D8"/>
<path d="M173.53 184.264V198.224H170.73V184.264H173.53ZM179.096 183.424V198.224H176.296V183.424H179.096ZM192.323 187.144V198.224H189.503V196.824C189.143 197.304 188.669 197.684 188.083 197.964C187.509 198.23 186.883 198.364 186.203 198.364C185.336 198.364 184.569 198.184 183.903 197.824C183.236 197.45 182.709 196.91 182.323 196.204C181.949 195.484 181.763 194.63 181.763 193.644V187.144H184.563V193.244C184.563 194.124 184.783 194.804 185.223 195.284C185.663 195.75 186.263 195.984 187.023 195.984C187.796 195.984 188.403 195.75 188.843 195.284C189.283 194.804 189.503 194.124 189.503 193.244V187.144H192.323ZM199.325 198.404C198.419 198.404 197.605 198.244 196.885 197.924C196.165 197.59 195.592 197.144 195.165 196.584C194.752 196.024 194.525 195.404 194.485 194.724H197.305C197.359 195.15 197.565 195.504 197.925 195.784C198.299 196.064 198.759 196.204 199.305 196.204C199.839 196.204 200.252 196.097 200.545 195.884C200.852 195.67 201.005 195.397 201.005 195.064C201.005 194.704 200.819 194.437 200.445 194.264C200.085 194.077 199.505 193.877 198.705 193.664C197.879 193.464 197.199 193.257 196.665 193.044C196.145 192.83 195.692 192.504 195.305 192.064C194.932 191.624 194.745 191.03 194.745 190.284C194.745 189.67 194.919 189.11 195.265 188.604C195.625 188.097 196.132 187.697 196.785 187.404C197.452 187.11 198.232 186.964 199.125 186.964C200.445 186.964 201.499 187.297 202.285 187.964C203.072 188.617 203.505 189.504 203.585 190.624H200.905C200.865 190.184 200.679 189.837 200.345 189.584C200.025 189.317 199.592 189.184 199.045 189.184C198.539 189.184 198.145 189.277 197.865 189.464C197.599 189.65 197.465 189.91 197.465 190.244C197.465 190.617 197.652 190.904 198.025 191.104C198.399 191.29 198.979 191.484 199.765 191.684C200.565 191.884 201.225 192.09 201.745 192.304C202.265 192.517 202.712 192.85 203.085 193.304C203.472 193.744 203.672 194.33 203.685 195.064C203.685 195.704 203.505 196.277 203.145 196.784C202.799 197.29 202.292 197.69 201.625 197.984C200.972 198.264 200.205 198.404 199.325 198.404ZM209.244 189.444V194.804C209.244 195.177 209.331 195.45 209.504 195.624C209.691 195.784 209.997 195.864 210.424 195.864H211.724V198.224H209.964C207.604 198.224 206.424 197.077 206.424 194.784V189.444H205.104V187.144H206.424V184.404H209.244V187.144H211.724V189.444H209.244ZM216.538 188.864C216.898 188.277 217.364 187.817 217.938 187.484C218.524 187.15 219.191 186.984 219.938 186.984V189.924H219.198C218.318 189.924 217.651 190.13 217.198 190.544C216.758 190.957 216.538 191.677 216.538 192.704V198.224H213.738V187.144H216.538V188.864ZM221.104 192.644C221.104 191.524 221.324 190.53 221.764 189.664C222.217 188.797 222.824 188.13 223.584 187.664C224.357 187.197 225.217 186.964 226.164 186.964C226.99 186.964 227.71 187.13 228.324 187.464C228.95 187.797 229.45 188.217 229.824 188.724V187.144H232.644V198.224H229.824V196.604C229.464 197.124 228.964 197.557 228.324 197.904C227.697 198.237 226.97 198.404 226.144 198.404C225.21 198.404 224.357 198.164 223.584 197.684C222.824 197.204 222.217 196.53 221.764 195.664C221.324 194.784 221.104 193.777 221.104 192.644ZM229.824 192.684C229.824 192.004 229.69 191.424 229.424 190.944C229.157 190.45 228.797 190.077 228.344 189.824C227.89 189.557 227.404 189.424 226.884 189.424C226.364 189.424 225.884 189.55 225.444 189.804C225.004 190.057 224.644 190.43 224.364 190.924C224.097 191.404 223.964 191.977 223.964 192.644C223.964 193.31 224.097 193.897 224.364 194.404C224.644 194.897 225.004 195.277 225.444 195.544C225.897 195.81 226.377 195.944 226.884 195.944C227.404 195.944 227.89 195.817 228.344 195.564C228.797 195.297 229.157 194.924 229.424 194.444C229.69 193.95 229.824 193.364 229.824 192.684ZM234.658 192.684C234.658 191.537 234.892 190.537 235.358 189.684C235.825 188.817 236.472 188.15 237.298 187.684C238.125 187.204 239.072 186.964 240.138 186.964C241.512 186.964 242.645 187.31 243.538 188.004C244.445 188.684 245.052 189.644 245.358 190.884H242.338C242.178 190.404 241.905 190.03 241.518 189.764C241.145 189.484 240.678 189.344 240.118 189.344C239.318 189.344 238.685 189.637 238.218 190.224C237.752 190.797 237.518 191.617 237.518 192.684C237.518 193.737 237.752 194.557 238.218 195.144C238.685 195.717 239.318 196.004 240.118 196.004C241.252 196.004 241.992 195.497 242.338 194.484H245.358C245.052 195.684 244.445 196.637 243.538 197.344C242.632 198.05 241.498 198.404 240.138 198.404C239.072 198.404 238.125 198.17 237.298 197.704C236.472 197.224 235.825 196.557 235.358 195.704C234.892 194.837 234.658 193.83 234.658 192.684ZM248.83 185.824C248.336 185.824 247.923 185.67 247.59 185.364C247.27 185.044 247.11 184.65 247.11 184.184C247.11 183.717 247.27 183.33 247.59 183.024C247.923 182.704 248.336 182.544 248.83 182.544C249.323 182.544 249.73 182.704 250.05 183.024C250.383 183.33 250.55 183.717 250.55 184.184C250.55 184.65 250.383 185.044 250.05 185.364C249.73 185.67 249.323 185.824 248.83 185.824ZM250.21 187.144V198.224H247.41V187.144H250.21ZM257.896 198.404C256.829 198.404 255.869 198.17 255.016 197.704C254.163 197.224 253.489 196.55 252.996 195.684C252.516 194.817 252.276 193.817 252.276 192.684C252.276 191.55 252.523 190.55 253.016 189.684C253.523 188.817 254.209 188.15 255.076 187.684C255.943 187.204 256.909 186.964 257.976 186.964C259.043 186.964 260.009 187.204 260.876 187.684C261.743 188.15 262.423 188.817 262.916 189.684C263.423 190.55 263.676 191.55 263.676 192.684C263.676 193.817 263.416 194.817 262.896 195.684C262.389 196.55 261.696 197.224 260.816 197.704C259.949 198.17 258.976 198.404 257.896 198.404ZM257.896 195.964C258.403 195.964 258.876 195.844 259.316 195.604C259.769 195.35 260.129 194.977 260.396 194.484C260.663 193.99 260.796 193.39 260.796 192.684C260.796 191.63 260.516 190.824 259.956 190.264C259.409 189.69 258.736 189.404 257.936 189.404C257.136 189.404 256.463 189.69 255.916 190.264C255.383 190.824 255.116 191.63 255.116 192.684C255.116 193.737 255.376 194.55 255.896 195.124C256.429 195.684 257.096 195.964 257.896 195.964ZM260.276 184.124L255.676 186.224V184.224L260.276 181.844V184.124ZM271.87 186.984C273.19 186.984 274.257 187.404 275.07 188.244C275.883 189.07 276.29 190.23 276.29 191.724V198.224H273.49V192.104C273.49 191.224 273.27 190.55 272.83 190.084C272.39 189.604 271.79 189.364 271.03 189.364C270.257 189.364 269.643 189.604 269.19 190.084C268.75 190.55 268.53 191.224 268.53 192.104V198.224H265.73V187.144H268.53V188.524C268.903 188.044 269.377 187.67 269.95 187.404C270.537 187.124 271.177 186.984 271.87 186.984Z" fill="#2A3233"/>
<path d="M178.59 257.696V256.406L183.63 249.176H185.7V256.211H187.095V257.696H185.7V259.976H184.02V257.696H178.59ZM184.095 250.916L180.555 256.211H184.095V250.916ZM188.302 257.696V256.406L193.342 249.176H195.412V256.211H196.807V257.696H195.412V259.976H193.732V257.696H188.302ZM193.807 250.916L190.267 256.211H193.807V250.916ZM205.154 250.361L200.984 259.976H199.259L203.474 250.541H197.924V249.086H205.154V250.361ZM214.279 255.791L216.949 259.976H215.014L213.229 257.171L211.549 259.976H209.764L212.434 255.911L209.764 251.711H211.699L213.484 254.516L215.164 251.711H216.949L214.279 255.791ZM221.686 257.696V256.406L226.726 249.176H228.796V256.211H230.191V257.696H228.796V259.976H227.116V257.696H221.686ZM227.191 250.916L223.651 256.211H227.191V250.916ZM231.398 257.696V256.406L236.438 249.176H238.508V256.211H239.903V257.696H238.508V259.976H236.828V257.696H231.398ZM236.903 250.916L233.363 256.211H236.903V250.916ZM248.25 250.361L244.08 259.976H242.355L246.57 250.541H241.02V249.086H248.25V250.361ZM255.545 252.926C255.835 252.546 256.23 252.226 256.73 251.966C257.23 251.706 257.795 251.576 258.425 251.576C259.145 251.576 259.8 251.756 260.39 252.116C260.99 252.466 261.46 252.961 261.8 253.601C262.14 254.241 262.31 254.976 262.31 255.806C262.31 256.636 262.14 257.381 261.8 258.041C261.46 258.691 260.99 259.201 260.39 259.571C259.8 259.931 259.145 260.111 258.425 260.111C257.795 260.111 257.235 259.986 256.745 259.736C256.255 259.476 255.855 259.156 255.545 258.776V263.906H253.835V251.711H255.545V252.926ZM260.57 255.806C260.57 255.236 260.45 254.746 260.21 254.336C259.98 253.916 259.67 253.601 259.28 253.391C258.9 253.171 258.49 253.061 258.05 253.061C257.62 253.061 257.21 253.171 256.82 253.391C256.44 253.611 256.13 253.931 255.89 254.351C255.66 254.771 255.545 255.266 255.545 255.836C255.545 256.406 255.66 256.906 255.89 257.336C256.13 257.756 256.44 258.076 256.82 258.296C257.21 258.516 257.62 258.626 258.05 258.626C258.49 258.626 258.9 258.516 259.28 258.296C259.67 258.066 259.98 257.736 260.21 257.306C260.45 256.876 260.57 256.376 260.57 255.806ZM267.541 255.791L270.211 259.976H268.276L266.491 257.171L264.811 259.976H263.026L265.696 255.911L263.026 251.711H264.961L266.746 254.516L268.426 251.711H270.211L267.541 255.791ZM273.196 248.876V259.976H271.486V248.876H273.196Z" fill="#2A3233"/>
<path d="M217.95 218.417V216.857H221.07V227.792H219.345V218.417H217.95ZM224.334 227.897C224.024 227.897 223.764 227.792 223.554 227.582C223.344 227.372 223.239 227.112 223.239 226.802C223.239 226.492 223.344 226.232 223.554 226.022C223.764 225.812 224.024 225.707 224.334 225.707C224.634 225.707 224.889 225.812 225.099 226.022C225.309 226.232 225.414 226.492 225.414 226.802C225.414 227.112 225.309 227.372 225.099 227.582C224.889 227.792 224.634 227.897 224.334 227.897ZM224.334 221.597C224.024 221.597 223.764 221.492 223.554 221.282C223.344 221.072 223.239 220.812 223.239 220.502C223.239 220.192 223.344 219.932 223.554 219.722C223.764 219.512 224.024 219.407 224.334 219.407C224.634 219.407 224.889 219.512 225.099 219.722C225.309 219.932 225.414 220.192 225.414 220.502C225.414 220.812 225.309 221.072 225.099 221.282C224.889 221.492 224.634 221.597 224.334 221.597ZM226.871 218.417V216.857H229.991V227.792H228.266V218.417H226.871Z" fill="#2A3233"/>
</svg>
