<svg width="563" height="375" viewBox="0 0 563 375" fill="none" xmlns="http://www.w3.org/2000/svg">
<rect width="563" height="375" fill="#D8D8D8"/>
<path d="M231.569 151.04V165H228.769V151.04H231.569ZM237.135 150.2V165H234.335V150.2H237.135ZM250.361 153.92V165H247.541V163.6C247.181 164.08 246.708 164.46 246.121 164.74C245.548 165.007 244.921 165.14 244.241 165.14C243.375 165.14 242.608 164.96 241.941 164.6C241.275 164.227 240.748 163.687 240.361 162.98C239.988 162.26 239.801 161.407 239.801 160.42V153.92H242.601V160.02C242.601 160.9 242.821 161.58 243.261 162.06C243.701 162.527 244.301 162.76 245.061 162.76C245.835 162.76 246.441 162.527 246.881 162.06C247.321 161.58 247.541 160.9 247.541 160.02V153.92H250.361ZM257.364 165.18C256.457 165.18 255.644 165.02 254.924 164.7C254.204 164.367 253.631 163.92 253.204 163.36C252.791 162.8 252.564 162.18 252.524 161.5H255.344C255.397 161.927 255.604 162.28 255.964 162.56C256.337 162.84 256.797 162.98 257.344 162.98C257.877 162.98 258.291 162.873 258.584 162.66C258.891 162.447 259.044 162.173 259.044 161.84C259.044 161.48 258.857 161.213 258.484 161.04C258.124 160.853 257.544 160.653 256.744 160.44C255.917 160.24 255.237 160.033 254.704 159.82C254.184 159.607 253.731 159.28 253.344 158.84C252.971 158.4 252.784 157.807 252.784 157.06C252.784 156.447 252.957 155.887 253.304 155.38C253.664 154.873 254.171 154.473 254.824 154.18C255.491 153.887 256.271 153.74 257.164 153.74C258.484 153.74 259.537 154.073 260.324 154.74C261.111 155.393 261.544 156.28 261.624 157.4H258.944C258.904 156.96 258.717 156.613 258.384 156.36C258.064 156.093 257.631 155.96 257.084 155.96C256.577 155.96 256.184 156.053 255.904 156.24C255.637 156.427 255.504 156.687 255.504 157.02C255.504 157.393 255.691 157.68 256.064 157.88C256.437 158.067 257.017 158.26 257.804 158.46C258.604 158.66 259.264 158.867 259.784 159.08C260.304 159.293 260.751 159.627 261.124 160.08C261.511 160.52 261.711 161.107 261.724 161.84C261.724 162.48 261.544 163.053 261.184 163.56C260.837 164.067 260.331 164.467 259.664 164.76C259.011 165.04 258.244 165.18 257.364 165.18ZM267.283 156.22V161.58C267.283 161.953 267.369 162.227 267.543 162.4C267.729 162.56 268.036 162.64 268.463 162.64H269.763V165H268.003C265.643 165 264.463 163.853 264.463 161.56V156.22H263.143V153.92H264.463V151.18H267.283V153.92H269.763V156.22H267.283ZM274.576 155.64C274.936 155.053 275.403 154.593 275.976 154.26C276.563 153.927 277.23 153.76 277.976 153.76V156.7H277.236C276.356 156.7 275.69 156.907 275.236 157.32C274.796 157.733 274.576 158.453 274.576 159.48V165H271.776V153.92H274.576V155.64ZM279.142 159.42C279.142 158.3 279.362 157.307 279.802 156.44C280.256 155.573 280.862 154.907 281.622 154.44C282.396 153.973 283.256 153.74 284.202 153.74C285.029 153.74 285.749 153.907 286.362 154.24C286.989 154.573 287.489 154.993 287.862 155.5V153.92H290.682V165H287.862V163.38C287.502 163.9 287.002 164.333 286.362 164.68C285.736 165.013 285.009 165.18 284.182 165.18C283.249 165.18 282.396 164.94 281.622 164.46C280.862 163.98 280.256 163.307 279.802 162.44C279.362 161.56 279.142 160.553 279.142 159.42ZM287.862 159.46C287.862 158.78 287.729 158.2 287.462 157.72C287.196 157.227 286.836 156.853 286.382 156.6C285.929 156.333 285.442 156.2 284.922 156.2C284.402 156.2 283.922 156.327 283.482 156.58C283.042 156.833 282.682 157.207 282.402 157.7C282.136 158.18 282.002 158.753 282.002 159.42C282.002 160.087 282.136 160.673 282.402 161.18C282.682 161.673 283.042 162.053 283.482 162.32C283.936 162.587 284.416 162.72 284.922 162.72C285.442 162.72 285.929 162.593 286.382 162.34C286.836 162.073 287.196 161.7 287.462 161.22C287.729 160.727 287.862 160.14 287.862 159.46ZM292.697 159.46C292.697 158.313 292.93 157.313 293.397 156.46C293.864 155.593 294.51 154.927 295.337 154.46C296.164 153.98 297.11 153.74 298.177 153.74C299.55 153.74 300.684 154.087 301.577 154.78C302.484 155.46 303.09 156.42 303.397 157.66H300.377C300.217 157.18 299.944 156.807 299.557 156.54C299.184 156.26 298.717 156.12 298.157 156.12C297.357 156.12 296.724 156.413 296.257 157C295.79 157.573 295.557 158.393 295.557 159.46C295.557 160.513 295.79 161.333 296.257 161.92C296.724 162.493 297.357 162.78 298.157 162.78C299.29 162.78 300.03 162.273 300.377 161.26H303.397C303.09 162.46 302.484 163.413 301.577 164.12C300.67 164.827 299.537 165.18 298.177 165.18C297.11 165.18 296.164 164.947 295.337 164.48C294.51 164 293.864 163.333 293.397 162.48C292.93 161.613 292.697 160.607 292.697 159.46ZM306.868 152.6C306.375 152.6 305.962 152.447 305.628 152.14C305.308 151.82 305.148 151.427 305.148 150.96C305.148 150.493 305.308 150.107 305.628 149.8C305.962 149.48 306.375 149.32 306.868 149.32C307.362 149.32 307.768 149.48 308.088 149.8C308.422 150.107 308.588 150.493 308.588 150.96C308.588 151.427 308.422 151.82 308.088 152.14C307.768 152.447 307.362 152.6 306.868 152.6ZM308.248 153.92V165H305.448V153.92H308.248ZM315.935 165.18C314.868 165.18 313.908 164.947 313.055 164.48C312.201 164 311.528 163.327 311.035 162.46C310.555 161.593 310.315 160.593 310.315 159.46C310.315 158.327 310.561 157.327 311.055 156.46C311.561 155.593 312.248 154.927 313.115 154.46C313.981 153.98 314.948 153.74 316.015 153.74C317.081 153.74 318.048 153.98 318.915 154.46C319.781 154.927 320.461 155.593 320.955 156.46C321.461 157.327 321.715 158.327 321.715 159.46C321.715 160.593 321.455 161.593 320.935 162.46C320.428 163.327 319.735 164 318.855 164.48C317.988 164.947 317.015 165.18 315.935 165.18ZM315.935 162.74C316.441 162.74 316.915 162.62 317.355 162.38C317.808 162.127 318.168 161.753 318.435 161.26C318.701 160.767 318.835 160.167 318.835 159.46C318.835 158.407 318.555 157.6 317.995 157.04C317.448 156.467 316.775 156.18 315.975 156.18C315.175 156.18 314.501 156.467 313.955 157.04C313.421 157.6 313.155 158.407 313.155 159.46C313.155 160.513 313.415 161.327 313.935 161.9C314.468 162.46 315.135 162.74 315.935 162.74ZM318.315 150.9L313.715 153V151L318.315 148.62V150.9ZM329.909 153.76C331.229 153.76 332.295 154.18 333.109 155.02C333.922 155.847 334.329 157.007 334.329 158.5V165H331.529V158.88C331.529 158 331.309 157.327 330.869 156.86C330.429 156.38 329.829 156.14 329.069 156.14C328.295 156.14 327.682 156.38 327.229 156.86C326.789 157.327 326.569 158 326.569 158.88V165H323.769V153.92H326.569V155.3C326.942 154.82 327.415 154.447 327.989 154.18C328.575 153.9 329.215 153.76 329.909 153.76ZM209.503 192.34H203.923L202.543 195H199.603L207.103 181.02H210.363L212.903 195H209.943L209.503 192.34ZM209.143 190.16L208.143 184.24L205.063 190.16H209.143ZM219.119 195.18C218.306 195.18 217.566 195.047 216.899 194.78C216.246 194.5 215.726 194.12 215.339 193.64C214.966 193.147 214.779 192.587 214.779 191.96C214.779 191.867 214.793 191.713 214.819 191.5H217.539C217.499 191.967 217.639 192.347 217.959 192.64C218.279 192.92 218.733 193.06 219.319 193.06C219.853 193.06 220.293 192.967 220.639 192.78C220.999 192.58 221.179 192.293 221.179 191.92C221.179 191.587 221.013 191.32 220.679 191.12C220.359 190.92 219.846 190.693 219.139 190.44C218.433 190.187 217.846 189.94 217.379 189.7C216.913 189.46 216.513 189.127 216.179 188.7C215.846 188.273 215.679 187.733 215.679 187.08C215.679 186.427 215.866 185.847 216.239 185.34C216.626 184.833 217.159 184.44 217.839 184.16C218.519 183.88 219.299 183.74 220.179 183.74C221.019 183.74 221.759 183.88 222.399 184.16C223.039 184.44 223.533 184.833 223.879 185.34C224.239 185.833 224.419 186.4 224.419 187.04C224.419 187.2 224.413 187.32 224.399 187.4H221.799C221.839 186.933 221.706 186.56 221.399 186.28C221.093 186 220.646 185.86 220.059 185.86C219.579 185.86 219.186 185.967 218.879 186.18C218.573 186.38 218.419 186.653 218.419 187C218.419 187.347 218.593 187.633 218.939 187.86C219.286 188.073 219.819 188.313 220.539 188.58C221.259 188.86 221.833 189.12 222.259 189.36C222.699 189.587 223.079 189.907 223.399 190.32C223.719 190.72 223.879 191.227 223.879 191.84C223.879 192.52 223.673 193.113 223.259 193.62C222.846 194.127 222.279 194.513 221.559 194.78C220.839 195.047 220.026 195.18 219.119 195.18ZM230.178 185.52C230.631 185.013 231.198 184.593 231.878 184.26C232.571 183.913 233.325 183.74 234.138 183.74C234.965 183.74 235.691 183.92 236.318 184.28C236.958 184.627 237.451 185.133 237.798 185.8C238.145 186.467 238.318 187.247 238.318 188.14C238.318 188.553 238.278 188.98 238.198 189.42C237.998 190.553 237.598 191.56 236.998 192.44C236.398 193.307 235.671 193.98 234.818 194.46C233.965 194.94 233.071 195.18 232.138 195.18C231.325 195.18 230.631 195.013 230.058 194.68C229.498 194.347 229.071 193.927 228.778 193.42L227.578 200.28H224.758L227.638 183.92H230.458L230.178 185.52ZM235.338 189.42C235.378 189.153 235.398 188.913 235.398 188.7C235.398 187.913 235.171 187.3 234.718 186.86C234.265 186.42 233.685 186.2 232.978 186.2C232.471 186.2 231.971 186.333 231.478 186.6C230.985 186.853 230.558 187.227 230.198 187.72C229.838 188.213 229.598 188.793 229.478 189.46C229.425 189.807 229.398 190.06 229.398 190.22C229.398 191.007 229.625 191.62 230.078 192.06C230.545 192.5 231.125 192.72 231.818 192.72C232.338 192.72 232.845 192.587 233.338 192.32C233.831 192.053 234.258 191.673 234.618 191.18C234.978 190.687 235.218 190.1 235.338 189.42ZM246.073 183.74C247.486 183.74 248.606 184.133 249.433 184.92C250.259 185.693 250.673 186.74 250.673 188.06C250.673 188.487 250.639 188.867 250.573 189.2C250.493 189.6 250.406 189.947 250.313 190.24H242.213C242.199 190.333 242.193 190.467 242.193 190.64C242.193 191.333 242.393 191.88 242.793 192.28C243.206 192.667 243.746 192.86 244.413 192.86C244.973 192.86 245.453 192.74 245.853 192.5C246.266 192.247 246.599 191.92 246.853 191.52H249.873C249.379 192.587 248.613 193.467 247.573 194.16C246.546 194.84 245.379 195.18 244.073 195.18C242.659 195.18 241.526 194.78 240.673 193.98C239.819 193.18 239.393 192.093 239.393 190.72C239.393 190.32 239.433 189.9 239.513 189.46C239.713 188.313 240.119 187.307 240.733 186.44C241.359 185.573 242.133 184.907 243.053 184.44C243.973 183.973 244.979 183.74 246.073 183.74ZM247.793 188.54C247.819 188.327 247.833 188.173 247.833 188.08C247.833 187.44 247.626 186.94 247.213 186.58C246.799 186.22 246.259 186.04 245.593 186.04C244.886 186.04 244.253 186.267 243.693 186.72C243.133 187.16 242.739 187.767 242.513 188.54H247.793ZM251.856 189.46C252.056 188.313 252.463 187.313 253.076 186.46C253.69 185.593 254.45 184.927 255.356 184.46C256.276 183.98 257.27 183.74 258.336 183.74C259.71 183.74 260.783 184.08 261.556 184.76C262.343 185.44 262.783 186.407 262.876 187.66H259.856C259.776 187.18 259.57 186.807 259.236 186.54C258.903 186.26 258.456 186.12 257.896 186.12C257.096 186.12 256.41 186.413 255.836 187C255.276 187.573 254.903 188.393 254.716 189.46C254.65 189.833 254.616 190.153 254.616 190.42C254.616 191.18 254.803 191.767 255.176 192.18C255.55 192.58 256.07 192.78 256.736 192.78C257.856 192.78 258.683 192.273 259.216 191.26H262.236C261.716 192.46 260.936 193.413 259.896 194.12C258.87 194.827 257.683 195.18 256.336 195.18C254.936 195.18 253.816 194.787 252.976 194C252.15 193.2 251.736 192.12 251.736 190.76C251.736 190.347 251.776 189.913 251.856 189.46ZM267.488 191.58C267.474 191.66 267.468 191.767 267.468 191.9C267.468 192.167 267.541 192.36 267.688 192.48C267.848 192.587 268.108 192.64 268.468 192.64H269.788L269.368 195H267.588C265.588 195 264.588 194.167 264.588 192.5C264.588 192.18 264.614 191.867 264.668 191.56L265.608 186.22H264.288L264.688 183.92H266.028L266.508 181.18H269.328L268.848 183.92H271.308L270.908 186.22H268.428L267.488 191.58ZM284.433 181.04C285.86 181.04 286.94 181.367 287.673 182.02C288.406 182.66 288.773 183.5 288.773 184.54C288.773 184.793 288.753 185.053 288.713 185.32C288.553 186.227 288.14 187.053 287.473 187.8C286.82 188.533 285.94 189.047 284.833 189.34L287.173 195H283.913L281.833 189.56H280.493L279.533 195H276.713L279.193 181.04H284.433ZM285.833 185.38C285.86 185.14 285.873 184.98 285.873 184.9C285.873 184.393 285.713 184 285.393 183.72C285.073 183.44 284.586 183.3 283.933 183.3H281.593L280.853 187.48H283.193C283.94 187.48 284.533 187.293 284.973 186.92C285.426 186.547 285.713 186.033 285.833 185.38ZM289.806 189.42C290.006 188.3 290.399 187.307 290.986 186.44C291.586 185.573 292.312 184.907 293.166 184.44C294.019 183.973 294.919 183.74 295.866 183.74C296.692 183.74 297.386 183.907 297.946 184.24C298.519 184.573 298.939 184.993 299.206 185.5L299.486 183.92H302.306L300.346 195H297.526L297.826 193.38C297.386 193.9 296.812 194.333 296.106 194.68C295.412 195.013 294.652 195.18 293.826 195.18C293.012 195.18 292.292 195 291.666 194.64C291.039 194.267 290.552 193.747 290.206 193.08C289.859 192.4 289.686 191.613 289.686 190.72C289.686 190.307 289.726 189.873 289.806 189.42ZM298.506 189.46C298.559 189.113 298.586 188.86 298.586 188.7C298.586 187.913 298.352 187.3 297.886 186.86C297.432 186.42 296.859 186.2 296.166 186.2C295.646 186.2 295.139 186.327 294.646 186.58C294.166 186.833 293.746 187.207 293.386 187.7C293.026 188.18 292.786 188.753 292.666 189.42C292.626 189.673 292.606 189.913 292.606 190.14C292.606 190.94 292.832 191.573 293.286 192.04C293.739 192.493 294.312 192.72 295.006 192.72C295.526 192.72 296.032 192.593 296.526 192.34C297.019 192.073 297.439 191.693 297.786 191.2C298.146 190.707 298.386 190.127 298.506 189.46ZM306.96 191.58C306.947 191.66 306.94 191.767 306.94 191.9C306.94 192.167 307.014 192.36 307.16 192.48C307.32 192.587 307.58 192.64 307.94 192.64H309.26L308.84 195H307.06C305.06 195 304.06 194.167 304.06 192.5C304.06 192.18 304.087 191.867 304.14 191.56L305.08 186.22H303.76L304.16 183.92H305.5L305.98 181.18H308.8L308.32 183.92H310.78L310.38 186.22H307.9L306.96 191.58ZM314.454 182.6C314.014 182.6 313.661 182.473 313.394 182.22C313.127 181.967 312.994 181.647 312.994 181.26C312.994 180.727 313.194 180.273 313.594 179.9C314.007 179.513 314.487 179.32 315.034 179.32C315.461 179.32 315.807 179.447 316.074 179.7C316.341 179.953 316.474 180.273 316.474 180.66C316.474 181.193 316.274 181.653 315.874 182.04C315.474 182.413 315.001 182.6 314.454 182.6ZM315.614 183.92L313.654 195H310.834L312.794 183.92H315.614ZM321.361 195.18C320.414 195.18 319.574 194.987 318.841 194.6C318.121 194.213 317.561 193.667 317.161 192.96C316.761 192.253 316.561 191.44 316.561 190.52C316.561 189.267 316.854 188.127 317.441 187.1C318.041 186.06 318.854 185.24 319.881 184.64C320.921 184.04 322.074 183.74 323.341 183.74C324.287 183.74 325.127 183.94 325.861 184.34C326.607 184.727 327.181 185.273 327.581 185.98C327.994 186.687 328.201 187.5 328.201 188.42C328.201 189.687 327.901 190.833 327.301 191.86C326.701 192.887 325.874 193.7 324.821 194.3C323.781 194.887 322.627 195.18 321.361 195.18ZM321.741 192.78C322.407 192.78 323.014 192.587 323.561 192.2C324.107 191.813 324.534 191.3 324.841 190.66C325.147 190.02 325.301 189.347 325.301 188.64C325.301 187.84 325.074 187.227 324.621 186.8C324.181 186.36 323.621 186.14 322.941 186.14C322.261 186.14 321.654 186.333 321.121 186.72C320.601 187.107 320.194 187.627 319.901 188.28C319.607 188.92 319.461 189.6 319.461 190.32C319.461 191.107 319.667 191.713 320.081 192.14C320.507 192.567 321.061 192.78 321.741 192.78ZM336.126 184.26C336.433 182.927 337.086 181.9 338.086 181.18C339.099 180.447 340.319 180.08 341.746 180.08C343.026 180.08 344.006 180.367 344.686 180.94C345.366 181.513 345.706 182.267 345.706 183.2C345.706 183.427 345.686 183.673 345.646 183.94C345.513 184.78 345.173 185.493 344.626 186.08C344.093 186.653 343.506 187.04 342.866 187.24V187.32C343.466 187.52 343.933 187.853 344.266 188.32C344.599 188.773 344.766 189.353 344.766 190.06C344.766 190.38 344.739 190.68 344.686 190.96C344.539 191.76 344.226 192.473 343.746 193.1C343.266 193.727 342.639 194.22 341.866 194.58C341.093 194.927 340.206 195.1 339.206 195.1C337.846 195.1 336.766 194.793 335.966 194.18C335.166 193.553 334.766 192.627 334.766 191.4C334.766 191.147 334.786 190.88 334.826 190.6H337.546C337.533 190.68 337.526 190.8 337.526 190.96C337.526 191.507 337.699 191.947 338.046 192.28C338.393 192.6 338.893 192.76 339.546 192.76C340.319 192.76 340.933 192.513 341.386 192.02C341.853 191.527 342.086 190.92 342.086 190.2C342.086 189.587 341.859 189.147 341.406 188.88C340.953 188.613 340.253 188.48 339.306 188.48H338.726L339.146 186.18H339.726C341.606 186.18 342.659 185.547 342.886 184.28C342.913 184.067 342.926 183.927 342.926 183.86C342.926 183.407 342.779 183.06 342.486 182.82C342.206 182.58 341.793 182.46 341.246 182.46C340.606 182.46 340.086 182.633 339.686 182.98C339.286 183.327 339.013 183.753 338.866 184.26H336.126ZM347.699 195.14C347.259 195.14 346.905 195.013 346.639 194.76C346.372 194.507 346.239 194.187 346.239 193.8C346.239 193.267 346.439 192.813 346.839 192.44C347.252 192.053 347.732 191.86 348.279 191.86C348.719 191.86 349.065 191.987 349.319 192.24C349.585 192.48 349.719 192.8 349.719 193.2C349.719 193.733 349.519 194.193 349.119 194.58C348.719 194.953 348.245 195.14 347.699 195.14ZM347.699 186.86C347.259 186.86 346.905 186.733 346.639 186.48C346.372 186.227 346.239 185.907 346.239 185.52C346.239 184.987 346.439 184.533 346.839 184.16C347.252 183.773 347.732 183.58 348.279 183.58C348.719 183.58 349.065 183.707 349.319 183.96C349.585 184.2 349.719 184.52 349.719 184.92C349.719 185.453 349.519 185.913 349.119 186.3C348.719 186.673 348.245 186.86 347.699 186.86ZM352.993 191.76C354.473 190.68 355.633 189.8 356.473 189.12C357.326 188.427 358.059 187.713 358.673 186.98C359.299 186.247 359.673 185.533 359.793 184.84C359.833 184.64 359.853 184.447 359.853 184.26C359.853 183.78 359.713 183.407 359.433 183.14C359.166 182.873 358.753 182.74 358.193 182.74C357.539 182.74 356.999 182.96 356.573 183.4C356.146 183.827 355.846 184.44 355.673 185.24H352.973C353.293 183.64 353.979 182.427 355.033 181.6C356.086 180.773 357.306 180.36 358.693 180.36C360.013 180.36 361.013 180.673 361.693 181.3C362.373 181.913 362.713 182.733 362.713 183.76C362.713 184.093 362.686 184.393 362.633 184.66C362.459 185.66 362.013 186.62 361.293 187.54C360.573 188.46 359.793 189.273 358.953 189.98C358.113 190.673 357.026 191.507 355.693 192.48H361.593L361.173 194.8H351.313L351.673 192.72L352.993 191.76ZM228.131 212.84H221.651V216.26C221.931 215.913 222.331 215.633 222.851 215.42C223.371 215.193 223.925 215.08 224.511 215.08C225.578 215.08 226.451 215.313 227.131 215.78C227.811 216.247 228.305 216.847 228.611 217.58C228.918 218.3 229.071 219.073 229.071 219.9C229.071 221.433 228.631 222.667 227.751 223.6C226.885 224.533 225.645 225 224.031 225C222.511 225 221.298 224.62 220.391 223.86C219.485 223.1 218.971 222.107 218.851 220.88H221.571C221.691 221.413 221.958 221.84 222.371 222.16C222.798 222.48 223.338 222.64 223.991 222.64C224.778 222.64 225.371 222.393 225.771 221.9C226.171 221.407 226.371 220.753 226.371 219.94C226.371 219.113 226.165 218.487 225.751 218.06C225.351 217.62 224.758 217.4 223.971 217.4C223.411 217.4 222.945 217.54 222.571 217.82C222.198 218.1 221.931 218.473 221.771 218.94H219.091V210.38H228.131V212.84ZM238.763 214.06C238.629 213.5 238.396 213.08 238.063 212.8C237.743 212.52 237.276 212.38 236.663 212.38C235.743 212.38 235.063 212.753 234.623 213.5C234.196 214.233 233.976 215.433 233.963 217.1C234.283 216.567 234.749 216.153 235.363 215.86C235.976 215.553 236.643 215.4 237.363 215.4C238.229 215.4 238.996 215.587 239.663 215.96C240.329 216.333 240.849 216.88 241.223 217.6C241.596 218.307 241.783 219.16 241.783 220.16C241.783 221.107 241.589 221.953 241.203 222.7C240.829 223.433 240.276 224.007 239.543 224.42C238.809 224.833 237.936 225.04 236.923 225.04C235.536 225.04 234.443 224.733 233.643 224.12C232.856 223.507 232.303 222.653 231.983 221.56C231.676 220.453 231.523 219.093 231.523 217.48C231.523 215.04 231.943 213.2 232.783 211.96C233.623 210.707 234.949 210.08 236.763 210.08C238.163 210.08 239.249 210.46 240.023 211.22C240.796 211.98 241.243 212.927 241.363 214.06H238.763ZM236.723 217.7C236.016 217.7 235.423 217.907 234.943 218.32C234.463 218.733 234.223 219.333 234.223 220.12C234.223 220.907 234.443 221.527 234.883 221.98C235.336 222.433 235.969 222.66 236.783 222.66C237.503 222.66 238.069 222.44 238.483 222C238.909 221.56 239.123 220.967 239.123 220.22C239.123 219.447 238.916 218.833 238.503 218.38C238.103 217.927 237.509 217.7 236.723 217.7ZM244.036 214.26C244.102 212.927 244.569 211.9 245.436 211.18C246.316 210.447 247.469 210.08 248.896 210.08C249.869 210.08 250.702 210.253 251.396 210.6C252.089 210.933 252.609 211.393 252.956 211.98C253.316 212.553 253.496 213.207 253.496 213.94C253.496 214.78 253.276 215.493 252.836 216.08C252.409 216.653 251.896 217.04 251.296 217.24V217.32C252.069 217.56 252.669 217.987 253.096 218.6C253.536 219.213 253.756 220 253.756 220.96C253.756 221.76 253.569 222.473 253.196 223.1C252.836 223.727 252.296 224.22 251.576 224.58C250.869 224.927 250.016 225.1 249.016 225.1C247.509 225.1 246.282 224.72 245.336 223.96C244.389 223.2 243.889 222.08 243.836 220.6H246.556C246.582 221.253 246.802 221.78 247.216 222.18C247.642 222.567 248.222 222.76 248.956 222.76C249.636 222.76 250.156 222.573 250.516 222.2C250.889 221.813 251.076 221.32 251.076 220.72C251.076 219.92 250.822 219.347 250.316 219C249.809 218.653 249.022 218.48 247.956 218.48H247.376V216.18H247.956C249.849 216.18 250.796 215.547 250.796 214.28C250.796 213.707 250.622 213.26 250.276 212.94C249.942 212.62 249.456 212.46 248.816 212.46C248.189 212.46 247.702 212.633 247.356 212.98C247.022 213.313 246.829 213.74 246.776 214.26H244.036ZM267.174 225L264.894 221.56L262.874 225H259.874L263.494 219.44L259.834 213.92H262.994L265.254 217.34L267.294 213.92H270.294L266.654 219.44L270.334 225H267.174ZM276.34 214.26C276.407 212.927 276.874 211.9 277.74 211.18C278.62 210.447 279.774 210.08 281.2 210.08C282.174 210.08 283.007 210.253 283.7 210.6C284.394 210.933 284.914 211.393 285.26 211.98C285.62 212.553 285.8 213.207 285.8 213.94C285.8 214.78 285.58 215.493 285.14 216.08C284.714 216.653 284.2 217.04 283.6 217.24V217.32C284.374 217.56 284.974 217.987 285.4 218.6C285.84 219.213 286.06 220 286.06 220.96C286.06 221.76 285.874 222.473 285.5 223.1C285.14 223.727 284.6 224.22 283.88 224.58C283.174 224.927 282.32 225.1 281.32 225.1C279.814 225.1 278.587 224.72 277.64 223.96C276.694 223.2 276.194 222.08 276.14 220.6H278.86C278.887 221.253 279.107 221.78 279.52 222.18C279.947 222.567 280.527 222.76 281.26 222.76C281.94 222.76 282.46 222.573 282.82 222.2C283.194 221.813 283.38 221.32 283.38 220.72C283.38 219.92 283.127 219.347 282.62 219C282.114 218.653 281.327 218.48 280.26 218.48H279.68V216.18H280.26C282.154 216.18 283.1 215.547 283.1 214.28C283.1 213.707 282.927 213.26 282.58 212.94C282.247 212.62 281.76 212.46 281.12 212.46C280.494 212.46 280.007 212.633 279.66 212.98C279.327 213.313 279.134 213.74 279.08 214.26H276.34ZM297.553 212.54L292.233 225H289.393L294.753 212.86H287.913V210.46H297.553V212.54ZM309.03 212.84H302.55V216.26C302.83 215.913 303.23 215.633 303.75 215.42C304.27 215.193 304.823 215.08 305.41 215.08C306.477 215.08 307.35 215.313 308.03 215.78C308.71 216.247 309.203 216.847 309.51 217.58C309.817 218.3 309.97 219.073 309.97 219.9C309.97 221.433 309.53 222.667 308.65 223.6C307.783 224.533 306.543 225 304.93 225C303.41 225 302.197 224.62 301.29 223.86C300.383 223.1 299.87 222.107 299.75 220.88H302.47C302.59 221.413 302.857 221.84 303.27 222.16C303.697 222.48 304.237 222.64 304.89 222.64C305.677 222.64 306.27 222.393 306.67 221.9C307.07 221.407 307.27 220.753 307.27 219.94C307.27 219.113 307.063 218.487 306.65 218.06C306.25 217.62 305.657 217.4 304.87 217.4C304.31 217.4 303.843 217.54 303.47 217.82C303.097 218.1 302.83 218.473 302.67 218.94H299.99V210.38H309.03V212.84ZM319.987 215.52C320.347 215.013 320.84 214.593 321.467 214.26C322.107 213.913 322.833 213.74 323.647 213.74C324.593 213.74 325.447 213.973 326.207 214.44C326.98 214.907 327.587 215.573 328.027 216.44C328.48 217.293 328.707 218.287 328.707 219.42C328.707 220.553 328.48 221.56 328.027 222.44C327.587 223.307 326.98 223.98 326.207 224.46C325.447 224.94 324.593 225.18 323.647 225.18C322.833 225.18 322.113 225.013 321.487 224.68C320.873 224.347 320.373 223.927 319.987 223.42V230.28H317.187V213.92H319.987V215.52ZM325.847 219.42C325.847 218.753 325.707 218.18 325.427 217.7C325.16 217.207 324.8 216.833 324.347 216.58C323.907 216.327 323.427 216.2 322.907 216.2C322.4 216.2 321.92 216.333 321.467 216.6C321.027 216.853 320.667 217.227 320.387 217.72C320.12 218.213 319.987 218.793 319.987 219.46C319.987 220.127 320.12 220.707 320.387 221.2C320.667 221.693 321.027 222.073 321.467 222.34C321.92 222.593 322.4 222.72 322.907 222.72C323.427 222.72 323.907 222.587 324.347 222.32C324.8 222.053 325.16 221.673 325.427 221.18C325.707 220.687 325.847 220.1 325.847 219.42ZM336.861 225L334.581 221.56L332.561 225H329.561L333.181 219.44L329.521 213.92H332.681L334.941 217.34L336.981 213.92H339.981L336.341 219.44L340.021 225H336.861ZM344.342 210.2V225H341.542V210.2H344.342Z" fill="#2A3233"/>
</svg>
