<svg width="204" height="96" viewBox="0 0 204 96" fill="none" xmlns="http://www.w3.org/2000/svg">
<circle cx="156" cy="48" r="48" fill="#D80027"/>
<path fill-rule="evenodd" clip-rule="evenodd" d="M177 4.8254V91.1746C170.657 94.2657 163.531 96 156 96C148.469 96 141.343 94.2657 135 91.1746V4.8254C141.343 1.73434 148.469 0 156 0C163.531 0 170.657 1.73434 177 4.8254Z" fill="#F0F0F0"/>
<path d="M157.788 65.7625L157.394 58.2113C157.388 58.0871 157.41 57.9632 157.459 57.8487C157.507 57.7342 157.581 57.6321 157.674 57.5498C157.767 57.4676 157.878 57.4072 157.997 57.3733C158.117 57.3394 158.243 57.3327 158.365 57.3538L164.881 58.675L163.866 55.875C163.825 55.7636 163.82 55.6421 163.851 55.5275C163.883 55.413 163.949 55.3111 164.041 55.2363L172.275 48.5687L170.42 47.7025C170.295 47.6433 170.195 47.5404 170.141 47.4131C170.086 47.2858 170.079 47.1429 170.123 47.0112L171.75 42.0062L167.008 43.0125C166.879 43.0393 166.745 43.0208 166.629 42.9602C166.512 42.8996 166.421 42.8006 166.369 42.68L165.45 40.5187L161.749 44.4912C161.664 44.5805 161.553 44.6399 161.432 44.6606C161.31 44.6813 161.186 44.6621 161.076 44.6059C160.967 44.5497 160.879 44.4595 160.825 44.349C160.771 44.2384 160.754 44.1133 160.778 43.9925L162.563 34.7875L159.701 36.4412C159.634 36.4806 159.56 36.5058 159.482 36.5152C159.405 36.5246 159.327 36.518 159.252 36.4958C159.177 36.4737 159.108 36.4364 159.048 36.3864C158.989 36.3364 158.94 36.2746 158.905 36.205L156 30.5L153.095 36.205C153.06 36.2746 153.012 36.3364 152.952 36.3864C152.892 36.4364 152.823 36.4737 152.748 36.4958C152.674 36.518 152.595 36.5246 152.518 36.5152C152.441 36.5058 152.366 36.4806 152.299 36.4412L149.438 34.7875L151.223 43.9925C151.246 44.1133 151.229 44.2384 151.175 44.349C151.122 44.4595 151.033 44.5497 150.924 44.6059C150.814 44.6621 150.69 44.6813 150.569 44.6606C150.447 44.6399 150.336 44.5805 150.251 44.4912L146.55 40.5187L145.631 42.68C145.58 42.8006 145.488 42.8996 145.371 42.9602C145.255 43.0208 145.121 43.0393 144.993 43.0125L140.25 42.0062L141.878 47.0112C141.921 47.1429 141.914 47.2858 141.86 47.4131C141.805 47.5404 141.705 47.6433 141.58 47.7025L139.725 48.5687L147.959 55.2363C148.051 55.3111 148.118 55.413 148.149 55.5275C148.18 55.6421 148.175 55.7636 148.134 55.875L147.119 58.675L153.635 57.3538C153.758 57.3327 153.883 57.3394 154.003 57.3733C154.122 57.4072 154.233 57.4676 154.326 57.5498C154.419 57.6321 154.493 57.7342 154.541 57.8487C154.59 57.9632 154.612 58.0871 154.606 58.2113L154.213 65.7625H157.788Z" fill="#D80027"/>
<circle cx="48" cy="48" r="48" fill="#0052B4"/>
<path fill-rule="evenodd" clip-rule="evenodd" d="M10.3353 18.2416L38.5438 48L10.3353 77.7584C13.034 81.1694 16.1863 84.2052 19.7009 86.7747L47.5 57.4483L75.7045 87.2025C79.2593 84.6858 82.4567 81.6977 85.2058 78.3293L56.4562 48L85.2058 17.6707C82.4567 14.3023 79.2593 11.3142 75.7045 8.79749L47.5 38.5517L19.701 9.22524C16.1863 11.7947 13.034 14.8306 10.3353 18.2416Z" fill="#F0F0F0"/>
<path fill-rule="evenodd" clip-rule="evenodd" d="M12.9591 15.1952L44.0553 48L12.9591 80.8048C14.0989 82.0218 15.3014 83.1794 16.5614 84.2725L47.5 51.634L78.886 84.7445C80.1625 83.6704 81.3823 82.531 82.5401 81.3314L50.9447 48L82.5401 14.6686C81.3823 13.469 80.1625 12.3296 78.886 11.2555L47.5 44.366L16.5614 11.7275C15.3014 12.8206 14.0989 13.9782 12.9591 15.1952Z" fill="#D80027"/>
<path fill-rule="evenodd" clip-rule="evenodd" d="M37.0833 1.24686V37.5833H1.1334C0.391289 40.9372 0 44.4229 0 48C0 51.5771 0.391288 55.0628 1.1334 58.4167H37.0833V94.7531C40.5903 95.5688 44.2448 96 48 96C51.3997 96 54.7168 95.6466 57.9167 94.9744V58.4167H94.8666C95.6087 55.0628 96 51.5771 96 48C96 44.4229 95.6087 40.9372 94.8666 37.5833H57.9167V1.02557C54.7168 0.353437 51.3997 0 48 0C44.2448 0 40.5903 0.431225 37.0833 1.24686Z" fill="#F0F0F0"/>
<path fill-rule="evenodd" clip-rule="evenodd" d="M41.25 0.470893V41.75H0.403203C0.137202 43.7957 0 45.8818 0 48C0 50.1182 0.137202 52.2043 0.403203 54.25H41.25V95.5291C43.4554 95.8395 45.709 96 48 96C49.9459 96 51.8647 95.8842 53.75 95.6591V54.25H95.5968C95.8628 52.2043 96 50.1182 96 48C96 45.8818 95.8628 43.7957 95.5968 41.75H53.75V0.340853C51.8647 0.115789 49.9459 0 48 0C45.709 0 43.4554 0.160508 41.25 0.470893Z" fill="#D80027"/>
</svg>
