<svg width="202" height="96" viewBox="0 0 202 96" fill="none" xmlns="http://www.w3.org/2000/svg">
<rect x="106" width="96" height="96" rx="48" fill="#D80027"/>
<rect x="133" width="42" height="96" fill="#F0F0F0"/>
<path d="M155.788 65.7625L155.394 58.2113C155.388 58.0871 155.41 57.9632 155.459 57.8487C155.507 57.7342 155.581 57.6321 155.674 57.5498C155.767 57.4676 155.878 57.4072 155.997 57.3733C156.117 57.3394 156.243 57.3327 156.365 57.3538L162.881 58.675L161.866 55.875C161.825 55.7636 161.82 55.6421 161.851 55.5275C161.883 55.413 161.949 55.3111 162.041 55.2363L170.275 48.5687L168.42 47.7025C168.295 47.6433 168.195 47.5404 168.141 47.4131C168.086 47.2858 168.079 47.1429 168.123 47.0112L169.75 42.0062L165.008 43.0125C164.879 43.0393 164.745 43.0208 164.629 42.9602C164.512 42.8996 164.421 42.8006 164.369 42.68L163.45 40.5187L159.749 44.4912C159.664 44.5805 159.553 44.6399 159.432 44.6606C159.31 44.6813 159.186 44.6621 159.076 44.6059C158.967 44.5497 158.879 44.4595 158.825 44.349C158.771 44.2384 158.754 44.1133 158.778 43.9925L160.563 34.7875L157.701 36.4412C157.634 36.4806 157.56 36.5058 157.482 36.5152C157.405 36.5246 157.327 36.518 157.252 36.4958C157.177 36.4737 157.108 36.4364 157.048 36.3864C156.989 36.3364 156.94 36.2746 156.905 36.205L154 30.5L151.095 36.205C151.06 36.2746 151.012 36.3364 150.952 36.3864C150.892 36.4364 150.823 36.4737 150.748 36.4958C150.674 36.518 150.595 36.5246 150.518 36.5152C150.441 36.5058 150.366 36.4806 150.299 36.4412L147.438 34.7875L149.223 43.9925C149.246 44.1133 149.229 44.2384 149.175 44.349C149.122 44.4595 149.033 44.5497 148.924 44.6059C148.814 44.6621 148.69 44.6813 148.569 44.6606C148.447 44.6399 148.336 44.5805 148.251 44.4912L144.55 40.5187L143.631 42.68C143.58 42.8006 143.488 42.8996 143.371 42.9602C143.255 43.0208 143.121 43.0393 142.993 43.0125L138.25 42.0062L139.878 47.0112C139.921 47.1429 139.914 47.2858 139.86 47.4131C139.805 47.5404 139.705 47.6433 139.58 47.7025L137.725 48.5687L145.959 55.2363C146.051 55.3111 146.118 55.413 146.149 55.5275C146.18 55.6421 146.175 55.7636 146.134 55.875L145.119 58.675L151.635 57.3538C151.758 57.3327 151.883 57.3394 152.003 57.3733C152.122 57.4072 152.233 57.4676 152.326 57.5498C152.419 57.6321 152.493 57.7342 152.541 57.8487C152.59 57.9632 152.612 58.0871 152.606 58.2113L152.213 65.7625H155.788Z" fill="#D80027"/>
<g clipPath="url(#clip0)">
<rect width="96" height="96" rx="48" fill="#0052B4"/>
<path fillRule="evenodd" clipRule="evenodd" d="M38.5438 48L-2.71741 4.4717L6.71739 -4.47171L47.5 38.5517L88.2826 -4.47171L97.7174 4.4717L56.4562 48L97.7174 91.5283L88.2826 100.472L47.5 57.4483L6.71739 100.472L-2.71741 91.5283L38.5438 48Z" fill="#F0F0F0"/>
<path fillRule="evenodd" clipRule="evenodd" d="M44.0554 48L0.185669 1.71989L3.81444 -1.71988L47.5001 44.366L91.1857 -1.71988L94.8144 1.71989L50.9447 48L94.8144 94.2801L91.1857 97.7199L47.5001 51.634L3.81444 97.7199L0.185669 94.2801L44.0554 48Z" fill="#D80027"/>
<path fillRule="evenodd" clipRule="evenodd" d="M37.0833 37.5833V-8H57.9167V37.5833H101V58.4167H57.9167V104H37.0833V58.4167H-6V37.5833H37.0833Z" fill="#F0F0F0"/>
<path fillRule="evenodd" clipRule="evenodd" d="M41.25 41.75V0H53.75V41.75H101V54.25H53.75V96H41.25V54.25H-6V41.75H41.25Z" fill="#D80027"/>
</g>
<defs>
<clipPath id="clip0">
<rect width="96" height="96" rx="48" fill="white"/>
</clipPath>
</defs>
</svg>
