<svg width="21" height="20" viewBox="0 0 21 20" fill="none" xmlns="http://www.w3.org/2000/svg">
<path fill-rule="evenodd" clip-rule="evenodd" d="M0 4.86486L10.4085 0L20.8169 4.88108L10.4085 9.78378L0 4.86486ZM10.409 1.18921L2.54211 4.8811L10.409 8.57299L18.2765 4.8811L10.409 1.18921Z" fill="#666E85"/>
<path d="M16.66 9.04866L18.2759 9.81622L10.4085 13.5076L2.55769 9.83244L4.17308 9.06487L3.72077 8.08649L0 9.83244L10.4085 14.6973L20.8169 9.82109L17.0962 8.07568L16.66 9.04866Z" fill="#666E85"/>
<path d="M18.2759 14.6865L16.66 13.9189L17.0962 12.9406L20.8169 14.6865L10.4085 19.5676L0 14.7027L3.72077 12.9568L4.17308 13.9351L2.55769 14.7027L10.4085 18.3784L18.2759 14.6865Z" fill="#666E85"/>
</svg>
