<svg width="466" height="555" viewBox="0 0 466 555" fill="none" xmlns="http://www.w3.org/2000/svg">
<path d="M346.53 502.893C346.53 502.893 327.214 465.955 335.891 463.636C346.724 460.741 348.408 492.809 349.112 500.783C349.112 500.783 329.506 418.885 345.465 416.305C361.422 413.725 352.163 498.672 352.163 503.127C352.163 503.127 347.605 430.781 357.795 430.661C366.788 430.555 358.968 475.689 358.499 478.268C358.499 478.268 357.179 446.768 366.122 447.649C375.066 448.53 355.213 504.3 354.274 507.584C354.274 507.584 361.462 462.629 369.901 464.392C376.552 465.78 360.845 500.079 359.437 502.893C359.437 502.893 365.773 475.455 370.467 475.22C375.161 474.986 366.947 492.809 363.193 502.893" stroke="#B6D4D9" stroke-width="1.5"/>
<path fill-rule="evenodd" clip-rule="evenodd" d="M118.619 317.302L17.9849 216.733C-5.99495 192.768 -5.99495 153.915 17.9849 129.95L118.619 29.3809C142.599 5.41731 181.478 5.41731 205.458 29.3809L306.093 129.95C330.072 153.915 330.072 192.768 306.093 216.733L205.458 317.302C181.478 341.266 142.599 341.266 118.619 317.302Z" fill="#FFF4D7"/>
<path d="M223.147 127.996C223.147 127.996 216.083 59.3551 210.293 103.344C204.502 147.332 234.508 75.923 198.935 107.321C171.59 131.456 243.567 104.481 173.16 131.798C153.119 139.574 216.154 136.052 183.048 145.822C144.595 157.17 155.699 167.75 178.329 156.673C194.458 148.778 175.806 132.9 149.477 156.139C127.224 175.781 149.003 181.038 155.266 180.71C183.92 179.212 172.595 139.785 111.135 194.032" stroke="#B33D2D" stroke-width="1.5"/>
<path d="M165.812 152.163C164.546 171.765 124.796 187.134 124.796 187.134C124.796 187.134 90.5465 199.193 106.059 216.483C106.059 216.483 109.911 221.123 113.296 219.194" stroke="#B33D2D" stroke-width="1.5"/>
<path d="M107.873 207.788C109.529 216.071 117.653 217.875 119.162 216.105" stroke="#B33D2D" stroke-width="1.5"/>
<path d="M113.027 205.962C114.612 212.646 124.677 215.737 125.038 211.916" stroke="#B33D2D" stroke-width="1.5"/>
<path d="M125.089 208.683C125.089 208.683 121.736 209.858 118.994 205.306C116.941 201.897 119.787 200.462 123.102 200.769C123.102 200.769 136.285 203.095 143.085 184.631" stroke="#B33D2D" stroke-width="1.5"/>
<path fill-rule="evenodd" clip-rule="evenodd" d="M289.117 428.092L224.738 483.676C218.432 489.122 208.641 484.644 208.641 476.315V159.387L260.721 205.849L295.591 410.069C296.739 416.795 294.284 423.631 289.117 428.092Z" fill="#B33D2D"/>
<path fill-rule="evenodd" clip-rule="evenodd" d="M247.859 383.841L245.218 381.355L254.713 371.277L257.354 373.763L247.859 383.841Z" fill="#D04834"/>
<path fill-rule="evenodd" clip-rule="evenodd" d="M272.816 426.997L270.175 424.512L279.669 414.433L282.31 416.918L272.816 426.997Z" fill="#D04834"/>
<path fill-rule="evenodd" clip-rule="evenodd" d="M249.596 327.912L250.134 324.327L263.832 326.38L263.294 329.966L249.596 327.912Z" fill="#D04834"/>
<path fill-rule="evenodd" clip-rule="evenodd" d="M265.071 319.326L268.378 317.835L274.075 330.452L270.767 331.943L265.071 319.326Z" fill="#D04834"/>
<path fill-rule="evenodd" clip-rule="evenodd" d="M272.848 299.022L271.869 302.512L258.532 298.776L259.512 295.285L272.848 299.022Z" fill="#D04834"/>
<path fill-rule="evenodd" clip-rule="evenodd" d="M266.661 375.349L263.033 375.303L263.211 361.461L266.839 361.508L266.661 375.349Z" fill="#D04834"/>
<path fill-rule="evenodd" clip-rule="evenodd" d="M267.8 435.999L265.166 438.492L255.643 428.44L258.276 425.948L267.8 435.999Z" fill="#D04834"/>
<path fill-rule="evenodd" clip-rule="evenodd" d="M285.746 401.53L283.113 404.023L273.589 393.971L276.223 391.479L285.746 401.53Z" fill="#D04834"/>
<path fill-rule="evenodd" clip-rule="evenodd" d="M284.459 383.136L282.32 386.065L271.132 377.903L273.272 374.975L284.459 383.136Z" fill="#D04834"/>
<path fill-rule="evenodd" clip-rule="evenodd" d="M262.674 290.532L259.442 288.885L265.735 276.554L268.967 278.201L262.674 290.532Z" fill="#D04834"/>
<path fill-rule="evenodd" clip-rule="evenodd" d="M275.573 368.158L272.342 366.511L278.635 354.18L281.866 355.826L275.573 368.158Z" fill="#D04834"/>
<path fill-rule="evenodd" clip-rule="evenodd" d="M257.39 383.442L258.588 380.021L271.662 384.595L270.463 388.017L257.39 383.442Z" fill="#D04834"/>
<path fill-rule="evenodd" clip-rule="evenodd" d="M254.166 392.693L256.75 390.147L266.473 400.006L263.888 402.551L254.166 392.693Z" fill="#D04834"/>
<path fill-rule="evenodd" clip-rule="evenodd" d="M245.929 338.211L248.785 335.977L257.323 346.877L254.466 349.111L245.929 338.211Z" fill="#D04834"/>
<path fill-rule="evenodd" clip-rule="evenodd" d="M259.619 340.935L260.363 337.387L273.919 340.23L273.174 343.778L259.619 340.935Z" fill="#D04834"/>
<path fill-rule="evenodd" clip-rule="evenodd" d="M258.473 415.098L257.649 411.568L271.139 408.426L271.962 411.956L258.473 415.098Z" fill="#D04834"/>
<path fill-rule="evenodd" clip-rule="evenodd" d="M219.602 241.946L217.747 238.83L229.653 231.755L231.506 234.871L219.602 241.946Z" fill="#D04834"/>
<path fill-rule="evenodd" clip-rule="evenodd" d="M215.024 272.915L217.534 270.297L227.536 279.873L225.027 282.491L215.024 272.915Z" fill="#D04834"/>
<path fill-rule="evenodd" clip-rule="evenodd" d="M239.221 267.662L239.758 264.077L253.457 266.13L252.919 269.715L239.221 267.662Z" fill="#D04834"/>
<path fill-rule="evenodd" clip-rule="evenodd" d="M215.105 330.995L215.642 327.41L229.341 329.463L228.802 333.049L215.105 330.995Z" fill="#D04834"/>
<path fill-rule="evenodd" clip-rule="evenodd" d="M228.879 343.661L227.059 340.526L239.041 333.58L240.861 336.716L228.879 343.661Z" fill="#D04834"/>
<path fill-rule="evenodd" clip-rule="evenodd" d="M215.825 249.859L219.132 248.368L224.829 260.985L221.521 262.476L215.825 249.859Z" fill="#D04834"/>
<path fill-rule="evenodd" clip-rule="evenodd" d="M216.839 287.379L220.145 285.888L225.843 298.505L222.535 299.996L216.839 287.379Z" fill="#D04834"/>
<path fill-rule="evenodd" clip-rule="evenodd" d="M236.743 312.597L240.35 312.209L241.832 325.972L238.226 326.36L236.743 312.597Z" fill="#D04834"/>
<path fill-rule="evenodd" clip-rule="evenodd" d="M240.601 250.541L239.622 254.031L226.285 250.295L227.264 246.804L240.601 250.541Z" fill="#D04834"/>
<path fill-rule="evenodd" clip-rule="evenodd" d="M240.26 446.804L238.405 443.688L250.311 436.613L252.165 439.728L240.26 446.804Z" fill="#D04834"/>
<path fill-rule="evenodd" clip-rule="evenodd" d="M218.03 474.106L216.175 470.99L228.081 463.915L229.934 467.031L218.03 474.106Z" fill="#D04834"/>
<path fill-rule="evenodd" clip-rule="evenodd" d="M231.453 455.562L231.991 451.977L245.689 454.03L245.151 457.616L231.453 455.562Z" fill="#D04834"/>
<path fill-rule="evenodd" clip-rule="evenodd" d="M232.566 441.118L231.587 444.608L218.249 440.872L219.229 437.381L232.566 441.118Z" fill="#D04834"/>
<path fill-rule="evenodd" clip-rule="evenodd" d="M233.571 274.745L229.944 274.698L230.122 260.857L233.749 260.903L233.571 274.745Z" fill="#D04834"/>
<path fill-rule="evenodd" clip-rule="evenodd" d="M227.495 353.817L224.773 356.213L215.62 345.823L218.343 343.428L227.495 353.817Z" fill="#D04834"/>
<path fill-rule="evenodd" clip-rule="evenodd" d="M220.831 379.964L217.315 379.07L220.73 365.655L224.245 366.549L220.831 379.964Z" fill="#D04834"/>
<path fill-rule="evenodd" clip-rule="evenodd" d="M238.928 433.47L235.3 433.423L235.478 419.582L239.106 419.628L238.928 433.47Z" fill="#D04834"/>
<path fill-rule="evenodd" clip-rule="evenodd" d="M230.224 403.212L227.59 405.704L218.067 395.653L220.701 393.16L230.224 403.212Z" fill="#D04834"/>
<path fill-rule="evenodd" clip-rule="evenodd" d="M232.374 411.18L231.885 414.772L218.16 412.904L218.65 409.313L232.374 411.18Z" fill="#D04834"/>
<path fill-rule="evenodd" clip-rule="evenodd" d="M231.065 431.515L228.431 434.008L218.908 423.956L221.542 421.464L231.065 431.515Z" fill="#D04834"/>
<path fill-rule="evenodd" clip-rule="evenodd" d="M219.759 320.757L217.04 318.357L226.207 307.981L228.927 310.381L219.759 320.757Z" fill="#D04834"/>
<path fill-rule="evenodd" clip-rule="evenodd" d="M232.95 364.234L229.718 362.588L236.011 350.256L239.243 351.903L232.95 364.234Z" fill="#D04834"/>
<path fill-rule="evenodd" clip-rule="evenodd" d="M246.872 432.929L243.64 431.283L249.933 418.951L253.165 420.598L246.872 432.929Z" fill="#D04834"/>
<path fill-rule="evenodd" clip-rule="evenodd" d="M246.45 415.949L243.218 414.302L249.511 401.971L252.743 403.618L246.45 415.949Z" fill="#D04834"/>
<path fill-rule="evenodd" clip-rule="evenodd" d="M220.721 463.151L217.489 461.505L223.782 449.173L227.014 450.82L220.721 463.151Z" fill="#D04834"/>
<path fill-rule="evenodd" clip-rule="evenodd" d="M240.6 279.368L241.345 275.82L254.9 278.663L254.156 282.21L240.6 279.368Z" fill="#D04834"/>
<path fill-rule="evenodd" clip-rule="evenodd" d="M233.699 297.694L232.224 294.383L244.876 288.751L246.352 292.062L233.699 297.694Z" fill="#D04834"/>
<path fill-rule="evenodd" clip-rule="evenodd" d="M243.965 358.955L244.71 355.407L258.266 358.25L257.521 361.797L243.965 358.955Z" fill="#D04834"/>
<path fill-rule="evenodd" clip-rule="evenodd" d="M233.235 374.745L232.412 371.214L245.902 368.072L246.725 371.603L233.235 374.745Z" fill="#D04834"/>
<path fill-rule="evenodd" clip-rule="evenodd" d="M232.305 392.432L234.4 389.472L245.709 397.464L243.615 400.424L232.305 392.432Z" fill="#D04834"/>
<path fill-rule="evenodd" clip-rule="evenodd" d="M227.347 385.954L226.523 382.423L240.013 379.281L240.836 382.812L227.347 385.954Z" fill="#D04834"/>
<path fill-rule="evenodd" clip-rule="evenodd" d="M245.108 303.716L247.975 301.495L256.461 312.435L253.594 314.656L245.108 303.716Z" fill="#D04834"/>
<path fill-rule="evenodd" clip-rule="evenodd" d="M356.247 192.207L348.927 196.807C348.493 196.999 348.297 197.507 348.49 197.941L349.274 199.703C349.469 200.143 349.988 200.336 350.422 200.132L356.457 197.307C356.929 197.086 357.487 197.332 357.641 197.829L364.173 217.184C364.288 217.556 364.641 217.803 365.031 217.787L366.026 217.677C366.539 217.655 366.917 217.192 366.837 216.686L365.036 205.291C364.976 204.914 365.173 204.542 365.519 204.38C365.977 204.165 366.521 204.391 366.692 204.867L372.64 217.962C372.81 218.433 373.345 218.659 373.802 218.453L374.927 218.019C375.323 217.841 375.523 217.394 375.392 216.979L370.186 202.249C370.061 201.851 370.239 201.421 370.608 201.23L371.039 201.005C371.473 200.779 372.009 200.961 372.215 201.406L378.296 212.56C378.518 213.038 379.115 213.205 379.553 212.911L380.789 212.157C381.155 211.911 381.276 211.429 381.068 211.041L374.583 198.909C374.402 198.57 374.468 198.152 374.746 197.886L375.08 197.565C375.418 197.241 375.953 197.247 376.283 197.579L381.408 202.727C381.782 203.104 382.406 203.053 382.715 202.621L383.571 201.599C383.826 201.243 383.772 200.753 383.446 200.462L368.044 184.341C368.044 184.341 361.346 177.588 356.247 192.207Z" fill="#FECFE4"/>
<mask id="mask0" mask-type="alpha" maskUnits="userSpaceOnUse" x="207" y="0" width="112" height="158">
<path d="M207.006 0.661621H318.183V157.983H207.006V0.661621Z" fill="white"/>
</mask>
<g mask="url(#mask0)">
<path fill-rule="evenodd" clip-rule="evenodd" d="M318.183 157.983L289.147 32.8548C283.956 10.4861 261.603 -3.44111 239.22 1.74507C216.838 6.93256 202.9 29.2715 208.091 51.6395L232.757 157.937L318.183 157.983Z" fill="#05030D"/>
</g>
<path fill-rule="evenodd" clip-rule="evenodd" d="M238.7 71.4885C242.068 69.6945 258.095 60.8098 262.063 44.57C265.77 43.6055 269.595 39.3626 269.32 34.7262C268.983 29.0511 262.451 33.8675 262.451 33.8675C262.451 33.8675 262.549 12.7253 242.107 13.736C212.877 15.1814 212.33 49.4717 233.052 70.9295C234.491 72.4205 236.83 72.4847 238.7 71.4885Z" fill="#FECFE4"/>
<path d="M263.088 41.0775C263.088 41.0775 263.503 37.7396 266.465 36.5356" stroke="#231F20" stroke-width="1.5" stroke-linecap="round" stroke-linejoin="round"/>
<path fill-rule="evenodd" clip-rule="evenodd" d="M231.407 51.7675C231.17 51.831 230.905 51.8892 230.616 51.9355C229.594 52.0982 228.624 51.4129 228.418 50.3995C227.934 48.0055 227.372 43.1957 228.932 37.4724L232.47 49.8914C232.702 50.7044 232.224 51.5492 231.407 51.7675Z" fill="#0049E6"/>
<path fill-rule="evenodd" clip-rule="evenodd" d="M224.861 35.5819C227.333 41.3462 226.85 47.0847 223.782 48.3978C220.714 49.7116 216.223 46.1031 213.752 40.3381C211.28 34.5738 211.764 28.8359 214.832 27.5221C217.899 26.2084 222.39 29.8169 224.861 35.5819Z" stroke="white" stroke-width="1.5" stroke-linecap="round" stroke-linejoin="round"/>
<path fill-rule="evenodd" clip-rule="evenodd" d="M239.539 39.7602C239.555 40.9556 239.083 41.9313 238.484 41.9392C237.887 41.9478 237.388 40.9847 237.373 39.7887C237.356 38.5933 237.828 37.6176 238.426 37.6097C239.025 37.6011 239.523 38.5642 239.539 39.7602Z" fill="#231F20"/>
<path fill-rule="evenodd" clip-rule="evenodd" d="M224.739 40.1982C224.755 41.3942 224.284 42.3692 223.685 42.3778C223.087 42.3858 222.588 41.4233 222.573 40.2273C222.557 39.0313 223.029 38.0563 223.627 38.0477C224.225 38.0397 224.723 39.0022 224.739 40.1982Z" fill="#231F20"/>
<path d="M225.113 55.8371C225.113 55.8371 231.846 60.0303 240.887 54.5498" stroke="#231F20" stroke-width="1.5" stroke-linecap="round" stroke-linejoin="round"/>
<path fill-rule="evenodd" clip-rule="evenodd" d="M270.256 55.5L267.971 56.221L264.769 46.0875L267.054 45.3665L270.256 55.5Z" fill="#FFDB7A"/>
<path fill-rule="evenodd" clip-rule="evenodd" d="M250.145 44.706C245.224 49.4007 238.183 50.0106 234.417 46.068C230.651 42.1261 231.587 35.1248 236.507 30.4301C241.428 25.7354 248.469 25.1255 252.235 29.0681C256.002 33.01 255.066 40.0113 250.145 44.706Z" stroke="white" stroke-width="1.5" stroke-linecap="round" stroke-linejoin="round"/>
<path fill-rule="evenodd" clip-rule="evenodd" d="M342.875 550.942C342.875 552.847 306.381 554.391 261.363 554.391C216.346 554.391 179.852 552.847 179.852 550.942C179.852 549.038 216.346 547.493 261.363 547.493C306.381 547.493 342.875 549.038 342.875 550.942Z" fill="#E9F2F4"/>
<path fill-rule="evenodd" clip-rule="evenodd" d="M430.723 352.669L431.291 290.245C431.357 282.907 426.49 276.451 419.427 274.444C290.213 237.722 235.395 173.808 257.979 129.46C273.498 98.9873 272.352 69.1747 240.074 77.206C173.272 93.8282 154.524 265.061 411.094 365.937C420.47 369.623 430.631 362.736 430.723 352.669Z" fill="#D04834"/>
<path fill-rule="evenodd" clip-rule="evenodd" d="M368.439 188.08C369.099 186.76 368.835 185.167 367.783 184.13L262.154 80.0694L262.143 80.082C258.844 77.2064 254.414 75.5924 249.596 76.0435C241.679 76.7844 235.265 83.234 234.576 91.1509C234.034 97.373 236.925 102.947 241.556 106.232L241.552 106.238L363.468 189.371C365.174 190.534 367.515 189.926 368.439 188.08Z" fill="#FECFE4"/>
<mask id="mask1" mask-type="alpha" maskUnits="userSpaceOnUse" x="201" y="0" width="66" height="34">
<path d="M201.267 0.661621H266.528V33.8727H201.267V0.661621Z" fill="white"/>
</mask>
<g mask="url(#mask1)">
<path fill-rule="evenodd" clip-rule="evenodd" d="M262.407 33.8727H201.267C201.267 15.5306 216.146 0.661377 234.5 0.661377H249.421L266.528 21.6058L262.407 33.8727Z" fill="#05030D"/>
</g>
<path fill-rule="evenodd" clip-rule="evenodd" d="M180.691 532.68L258.386 494.872L256.258 490.507C252.227 482.234 241.444 480.031 234.487 486.059L180.691 532.68Z" fill="#0051FF"/>
<path fill-rule="evenodd" clip-rule="evenodd" d="M258.993 502.615L186.415 537.933C185.003 538.62 183.298 538.033 182.611 536.62L180.691 532.681L258.386 494.873L260.305 498.812C260.993 500.225 260.406 501.927 258.993 502.615Z" fill="#E9F2F4"/>
<path fill-rule="evenodd" clip-rule="evenodd" d="M458.382 414.041L452.592 327.875L447.744 328.2C438.557 328.817 432.454 337.971 435.423 346.681L458.382 414.041Z" fill="#0051FF"/>
<path fill-rule="evenodd" clip-rule="evenodd" d="M459.997 330.228L465.407 410.719C465.512 412.287 464.326 413.642 462.758 413.747L458.383 414.041L452.592 327.874L456.967 327.581C458.535 327.476 459.892 328.661 459.997 330.228Z" fill="#E9F2F4"/>
<path d="M353.498 167.704C355.719 167.059 357.373 167.1 357.98 167.978C359.268 169.842 355.347 174.777 349.223 179C343.099 183.224 337.092 185.135 335.804 183.271C334.839 181.872 336.802 178.747 340.428 175.49" stroke="#0051FF" stroke-width="1.5" stroke-linecap="round"/>
<path d="M354.752 169.241C358.368 165.794 361.65 164.077 363.115 165.176C365.25 166.778 362.717 173.755 357.456 180.76C352.196 187.764 346.2 192.144 344.065 190.542C342.601 189.444 343.331 185.82 345.63 181.392" stroke="#0051FF" stroke-width="1.5" stroke-linecap="round"/>
<path fill-rule="evenodd" clip-rule="evenodd" d="M245.068 159.148L241.488 159.736L239.241 146.077L242.821 145.489L245.068 159.148Z" fill="#B33D2D"/>
<path fill-rule="evenodd" clip-rule="evenodd" d="M314.553 275.73L310.973 276.319L308.727 262.659L312.306 262.072L314.553 275.73Z" fill="#B33D2D"/>
<path fill-rule="evenodd" clip-rule="evenodd" d="M228.626 107.535L225.047 108.124L222.8 94.4644L226.38 93.877L228.626 107.535Z" fill="#B33D2D"/>
<path fill-rule="evenodd" clip-rule="evenodd" d="M226.776 140.398L225.599 136.968L238.701 132.476L239.878 135.905L226.776 140.398Z" fill="#B33D2D"/>
<path fill-rule="evenodd" clip-rule="evenodd" d="M224.44 180.561L220.958 179.545L224.842 166.258L228.324 167.275L224.44 180.561Z" fill="#B33D2D"/>
<path fill-rule="evenodd" clip-rule="evenodd" d="M418.054 334.467L414.572 333.451L418.455 320.164L421.938 321.18L418.054 334.467Z" fill="#B33D2D"/>
<path fill-rule="evenodd" clip-rule="evenodd" d="M209.468 117.222L209.099 113.616L222.879 112.209L223.247 115.816L209.468 117.222Z" fill="#B33D2D"/>
<path fill-rule="evenodd" clip-rule="evenodd" d="M201.539 154.601L204.788 152.988L210.949 165.386L207.7 166.998L201.539 154.601Z" fill="#B33D2D"/>
<path fill-rule="evenodd" clip-rule="evenodd" d="M204.749 134.735L207.973 133.072L214.328 145.371L211.104 147.035L204.749 134.735Z" fill="#B33D2D"/>
<path fill-rule="evenodd" clip-rule="evenodd" d="M210.904 189.476L212.487 186.214L224.951 192.253L223.368 195.516L210.904 189.476Z" fill="#B33D2D"/>
<path fill-rule="evenodd" clip-rule="evenodd" d="M283.577 283.124L285.16 279.862L297.623 285.901L296.04 289.164L283.577 283.124Z" fill="#B33D2D"/>
<path fill-rule="evenodd" clip-rule="evenodd" d="M233.133 188.959L235.91 186.627L244.823 197.222L242.046 199.555L233.133 188.959Z" fill="#B33D2D"/>
<path fill-rule="evenodd" clip-rule="evenodd" d="M242.472 120.834L245.403 118.698L253.564 129.882L250.633 132.018L242.472 120.834Z" fill="#B33D2D"/>
<path fill-rule="evenodd" clip-rule="evenodd" d="M270.304 225.968L268.45 222.852L280.355 215.777L282.209 218.893L270.304 225.968Z" fill="#B33D2D"/>
<path fill-rule="evenodd" clip-rule="evenodd" d="M407.724 356.636L405.87 353.52L417.775 346.445L419.629 349.561L407.724 356.636Z" fill="#B33D2D"/>
<path fill-rule="evenodd" clip-rule="evenodd" d="M412.91 312.216L411.056 309.101L422.961 302.025L424.815 305.141L412.91 312.216Z" fill="#B33D2D"/>
<path fill-rule="evenodd" clip-rule="evenodd" d="M246.7 207.045L250.09 205.753L255.026 218.687L251.637 219.979L246.7 207.045Z" fill="#B33D2D"/>
<path fill-rule="evenodd" clip-rule="evenodd" d="M322.135 303.242L325.525 301.95L330.461 314.883L327.071 316.175L322.135 303.242Z" fill="#B33D2D"/>
<path fill-rule="evenodd" clip-rule="evenodd" d="M413.351 282.628L416.74 281.336L421.676 294.269L418.287 295.561L413.351 282.628Z" fill="#B33D2D"/>
<path fill-rule="evenodd" clip-rule="evenodd" d="M227.52 148.434L228.781 151.833L215.795 156.647L214.533 153.247L227.52 148.434Z" fill="#B33D2D"/>
<path fill-rule="evenodd" clip-rule="evenodd" d="M250.406 171.896L250.509 175.52L236.664 175.917L236.561 172.293L250.406 171.896Z" fill="#B33D2D"/>
<path fill-rule="evenodd" clip-rule="evenodd" d="M262.395 192.909L260.089 195.708L249.396 186.911L251.701 184.111L262.395 192.909Z" fill="#B33D2D"/>
<path fill-rule="evenodd" clip-rule="evenodd" d="M259.461 208.385L259.999 204.8L273.698 206.852L273.159 210.438L259.461 208.385Z" fill="#B33D2D"/>
<path fill-rule="evenodd" clip-rule="evenodd" d="M298.985 253.828L299.523 250.244L313.221 252.296L312.683 255.882L298.985 253.828Z" fill="#B33D2D"/>
<path fill-rule="evenodd" clip-rule="evenodd" d="M396.69 297.728L397.229 294.143L410.927 296.196L410.388 299.781L396.69 297.728Z" fill="#B33D2D"/>
<path fill-rule="evenodd" clip-rule="evenodd" d="M329.91 298.705L329.609 295.092L343.413 293.944L343.713 297.557L329.91 298.705Z" fill="#B33D2D"/>
<path fill-rule="evenodd" clip-rule="evenodd" d="M303.832 286.261L304.37 282.675L318.068 284.729L317.529 288.314L303.832 286.261Z" fill="#B33D2D"/>
<path fill-rule="evenodd" clip-rule="evenodd" d="M397.626 306.718L400.755 304.882L407.769 316.819L404.64 318.654L397.626 306.718Z" fill="#B33D2D"/>
<path fill-rule="evenodd" clip-rule="evenodd" d="M392.005 275.058L395.545 274.266L398.575 287.772L395.035 288.565L392.005 275.058Z" fill="#B33D2D"/>
<path fill-rule="evenodd" clip-rule="evenodd" d="M307.58 234.127L309.906 236.91L299.278 245.785L296.951 243.003L307.58 234.127Z" fill="#B33D2D"/>
<path fill-rule="evenodd" clip-rule="evenodd" d="M372.816 306.753L375.142 309.535L364.513 318.411L362.187 315.628L372.816 306.753Z" fill="#B33D2D"/>
<path fill-rule="evenodd" clip-rule="evenodd" d="M245.702 248.942L245.822 245.318L259.666 245.777L259.545 249.4L245.702 248.942Z" fill="#B33D2D"/>
<path fill-rule="evenodd" clip-rule="evenodd" d="M395.716 340.373L395.836 336.749L409.68 337.208L409.559 340.831L395.716 340.373Z" fill="#B33D2D"/>
<path fill-rule="evenodd" clip-rule="evenodd" d="M370.642 325.507L370.763 321.884L384.606 322.344L384.485 325.967L370.642 325.507Z" fill="#B33D2D"/>
<path fill-rule="evenodd" clip-rule="evenodd" d="M383.367 333.009L386.994 332.952L387.21 346.793L383.582 346.85L383.367 333.009Z" fill="#B33D2D"/>
<path fill-rule="evenodd" clip-rule="evenodd" d="M388.57 302.577L391.492 304.726L383.283 315.875L380.361 313.726L388.57 302.577Z" fill="#B33D2D"/>
<path fill-rule="evenodd" clip-rule="evenodd" d="M289.149 251.511L291.242 254.473L279.927 262.457L277.835 259.496L289.149 251.511Z" fill="#B33D2D"/>
<path fill-rule="evenodd" clip-rule="evenodd" d="M286.531 269.947L286.743 273.566L272.915 274.374L272.704 270.756L286.531 269.947Z" fill="#B33D2D"/>
<path fill-rule="evenodd" clip-rule="evenodd" d="M389.874 292.897L390.086 296.516L376.259 297.324L376.046 293.706L389.874 292.897Z" fill="#B33D2D"/>
<path fill-rule="evenodd" clip-rule="evenodd" d="M337.401 264.077L333.774 264.029L333.959 250.188L337.586 250.236L337.401 264.077Z" fill="#B33D2D"/>
<path fill-rule="evenodd" clip-rule="evenodd" d="M365.304 295.869L362.983 293.082L373.628 284.226L375.949 287.012L365.304 295.869Z" fill="#B33D2D"/>
<path fill-rule="evenodd" clip-rule="evenodd" d="M325.31 253.94L321.95 255.307L316.726 242.488L320.085 241.12L325.31 253.94Z" fill="#B33D2D"/>
<path fill-rule="evenodd" clip-rule="evenodd" d="M323.995 277.212L320.582 275.986L325.265 262.959L328.679 264.186L323.995 277.212Z" fill="#B33D2D"/>
<path fill-rule="evenodd" clip-rule="evenodd" d="M308.727 304.199L306.71 301.186L318.222 293.488L320.239 296.501L308.727 304.199Z" fill="#B33D2D"/>
<path fill-rule="evenodd" clip-rule="evenodd" d="M375.027 338.935L372.365 341.399L362.954 331.243L365.616 328.779L375.027 338.935Z" fill="#B33D2D"/>
<path fill-rule="evenodd" clip-rule="evenodd" d="M362.065 306.445L359.404 308.909L349.992 298.752L352.653 296.289L362.065 306.445Z" fill="#B33D2D"/>
<path fill-rule="evenodd" clip-rule="evenodd" d="M358.24 269.07L355.579 271.534L346.167 261.378L348.828 258.914L358.24 269.07Z" fill="#B33D2D"/>
<path fill-rule="evenodd" clip-rule="evenodd" d="M360.068 291.008L356.448 290.758L357.403 276.949L361.022 277.199L360.068 291.008Z" fill="#B33D2D"/>
<path fill-rule="evenodd" clip-rule="evenodd" d="M301.281 273.056L297.815 274.126L293.725 260.901L297.19 259.831L301.281 273.056Z" fill="#B33D2D"/>
<path fill-rule="evenodd" clip-rule="evenodd" d="M352.82 329.008L349.193 329.096L348.862 315.257L352.489 315.17L352.82 329.008Z" fill="#B33D2D"/>
<path fill-rule="evenodd" clip-rule="evenodd" d="M384.694 286.75L381.067 286.837L380.736 272.999L384.362 272.912L384.694 286.75Z" fill="#B33D2D"/>
<path fill-rule="evenodd" clip-rule="evenodd" d="M333.949 307.076L335.763 303.937L347.758 310.858L345.945 313.997L333.949 307.076Z" fill="#B33D2D"/>
<path fill-rule="evenodd" clip-rule="evenodd" d="M364.124 272.888L365.937 269.748L377.932 276.669L376.118 279.809L364.124 272.888Z" fill="#B33D2D"/>
<path fill-rule="evenodd" clip-rule="evenodd" d="M326.843 285.024L327.884 281.551L341.152 285.525L340.111 288.998L326.843 285.024Z" fill="#B33D2D"/>
<path fill-rule="evenodd" clip-rule="evenodd" d="M341.039 268.878L344.415 267.552L349.48 280.435L346.104 281.761L341.039 268.878Z" fill="#B33D2D"/>
<path fill-rule="evenodd" clip-rule="evenodd" d="M392.498 316.455L396.052 315.729L398.823 329.292L395.268 330.017L392.498 316.455Z" fill="#B33D2D"/>
<path fill-rule="evenodd" clip-rule="evenodd" d="M284.481 224.399L287.788 222.908L293.486 235.525L290.178 237.016L284.481 224.399Z" fill="#B33D2D"/>
<path fill-rule="evenodd" clip-rule="evenodd" d="M224.91 119.504L228.363 120.616L224.115 133.792L220.663 132.68L224.91 119.504Z" fill="#B33D2D"/>
<path fill-rule="evenodd" clip-rule="evenodd" d="M232.842 230.096L231.711 226.651L244.873 222.336L246.003 225.782L232.842 230.096Z" fill="#B33D2D"/>
<path fill-rule="evenodd" clip-rule="evenodd" d="M230.918 202.463L234.361 203.604L230.001 216.743L226.558 215.602L230.918 202.463Z" fill="#B33D2D"/>
<path fill-rule="evenodd" clip-rule="evenodd" d="M259.502 224.418L262.786 225.959L256.896 238.489L253.613 236.947L259.502 224.418Z" fill="#B33D2D"/>
<path fill-rule="evenodd" clip-rule="evenodd" d="M282.436 242.671L281.457 246.161L268.12 242.425L269.1 238.935L282.436 242.671Z" fill="#B33D2D"/>
<path fill-rule="evenodd" clip-rule="evenodd" d="M269.966 262.817L266.338 262.771L266.516 248.93L270.144 248.976L269.966 262.817Z" fill="#B33D2D"/>
<path d="M251.534 93.103C251.534 93.103 138.038 205.697 444.855 345.746" stroke="#231F20" stroke-width="1.5"/>
<path d="M24.2002 394.227C24.2002 394.227 139.893 433.543 205.418 373.086C270.942 312.629 77.6413 441.82 191.351 396.728C286.535 358.981 277.992 338.844 250.067 352.606C222.14 366.369 129.21 438.099 238.814 394.621C355.184 348.458 351.057 328.132 303.629 349.62C212.69 390.824 215.587 456.783 330.681 384.677C445.775 312.57 327.143 457.55 447.752 415.37" stroke="#00E296" stroke-width="1.5"/>
<path fill-rule="evenodd" clip-rule="evenodd" d="M113.763 86.9285C113.763 114.052 91.7607 136.04 64.6195 136.04C37.4783 136.04 15.4763 114.052 15.4763 86.9285C15.4763 59.805 37.4783 37.8167 64.6195 37.8167C91.7607 37.8167 113.763 59.805 113.763 86.9285Z" stroke="#0051FF" stroke-width="1.5"/>
<path d="M119.944 67.4102L129.129 112.325" stroke="#00E296" stroke-width="1.5"/>
<path d="M142.817 85.0505L96.1846 96.0004" stroke="#00E296" stroke-width="1.5"/>
<path d="M136.151 70.4812L110.627 111.789" stroke="#00E296" stroke-width="1.5"/>
<path d="M145.552 104.987L103.65 73.9509" stroke="#00E296" stroke-width="1.5"/>
</svg>
