<?xml version="1.0" encoding="UTF-8"?>
<svg width="448px" height="516px" viewBox="0 0 448 516" version="1.1" xmlns="http://www.w3.org/2000/svg" xmlns:xlink="http://www.w3.org/1999/xlink">
    <title>ilustracion-maestros</title>
    <g id="Page-1" stroke="none" stroke-width="1" fill="none" fill-rule="evenodd">
        <g id="Nosotros" transform="translate(-126.000000, -2807.000000)">
            <g id="Group-81" transform="translate(127.000000, 2808.000000)">
                <path d="M43.1427381,507.271556 C43.1427381,507.271556 14.1461672,451.877073 27.1721599,448.399183 C43.4335006,444.056946 45.9608339,492.148761 47.0171064,504.10693 C47.0171064,504.10693 17.5884987,381.28517 41.541902,377.41611 C65.4961267,373.548689 51.5970254,500.940664 51.5970254,507.624183 C51.5970254,507.624183 44.756716,399.126476 60.0513127,398.946062 C73.5512317,398.78697 61.8123145,466.474207 61.1075853,470.343268 C61.1075853,470.343268 59.1264582,423.101858 72.5516331,424.423801 C85.9759867,425.744924 56.176123,509.38158 54.7666645,514.306062 C54.7666645,514.306062 65.5552648,446.888626 78.2239646,449.531691 C88.2059867,451.614653 64.6304103,503.051508 62.5170438,507.271556 C62.5170438,507.271556 72.028425,466.12158 79.0732538,465.770592 C86.1180825,465.418785 73.7894269,492.148761 68.1532354,507.271556" id="Stroke-1" stroke="#B6D4D9" stroke-width="1.5"></path>
                <path d="M362.352084,489.502498 C362.352084,492.763071 304.286662,495.405316 232.658898,495.405316 C161.031134,495.405316 102.964891,492.763071 102.964891,489.502498 C102.964891,486.242744 161.031134,483.600499 232.658898,483.600499 C304.286662,483.600499 362.352084,486.242744 362.352084,489.502498" id="Fill-3" fill="#E9F2F4"></path>
                <path d="M133.869652,173.585752 C133.869652,173.585752 145.756414,193.905291 126.900388,197.648881 C97.03153,203.577942 102.741644,242.637576 132.559578,243.494542 C160.307677,244.291644 216.672878,231.8767 216.672878,231.8767 L179.603954,181.168061 L133.869652,173.585752 Z" id="Fill-5" fill="#0D0C33"></path>
                <path d="M188.570525,97.5095916 C188.570525,113.445889 175.631597,126.364353 159.669232,126.364353 C143.70851,126.364353 130.769582,113.445889 130.769582,97.5095916 C130.769582,81.5732938 143.70851,68.6548304 159.669232,68.6548304 C175.631597,68.6548304 188.570525,81.5732938 188.570525,97.5095916" id="Fill-7" fill="#0D0C33"></path>
                <path d="M181.843153,145.175056 C181.843153,163.51742 166.950203,178.387635 148.577959,178.387635 C130.206538,178.387635 115.312766,163.51742 115.312766,145.175056 C115.312766,126.831871 130.206538,111.962476 148.577959,111.962476 C166.950203,111.962476 181.843153,126.831871 181.843153,145.175056" id="Fill-9" fill="#0D0C33"></path>
                <path d="M312.974874,130.679774 C312.974874,130.679774 302.328369,161.6585 333.731533,153.585793 C394.546056,137.951279 395.273783,238.298373 341.015378,239.025769 L169.949327,213.534909 L143.36592,149.908627 L185.971651,83.0102914 L251.155003,65.1952277 L312.974874,130.679774 Z" id="Fill-11" fill="#0D0C33"></path>
                <path d="M331.218081,117.806988 C336.898626,133.066733 331.44067,149.171144 319.026593,153.777442 C306.612515,158.38374 291.944618,149.747649 286.264073,134.488724 C280.583528,119.228158 286.041484,103.123748 298.45474,98.5174498 C310.869639,93.910332 325.537536,102.547243 331.218081,117.806988" id="Fill-13" fill="#0D0C33"></path>
                <path d="M301.873663,64.310707 C312.57602,74.4475143 314.156322,90.1328726 305.40388,99.3454682 C296.650617,108.557244 280.878808,107.807705 270.176451,97.6717182 C259.474094,87.5340908 257.89297,71.8487325 266.646234,62.636957 C275.399497,53.4251815 291.171305,54.1738997 301.873663,64.310707" id="Fill-15" fill="#0D0C33"></path>
                <path d="M288.13021,326.292191 C288.13021,326.292191 380.679727,324.347 356.323856,263.393306 C331.968806,202.439611 308.913152,189.147199 291.702316,182.33821 C284.732232,179.581156 252.409141,168.720232 234.224169,169.044978 L231.812648,169.044978 C213.627676,168.720232 181.304585,179.581156 174.334501,182.33821 C157.123664,189.147199 134.068011,202.439611 109.71214,263.393306 C85.3579112,324.347 177.907429,326.292191 177.907429,326.292191 L288.13021,326.292191 Z" id="Fill-17" fill="#D04834"></path>
                <path d="M344.620586,417.706823 L98.7448107,306.231465 L98.7398825,306.248686 C93.5858309,303.831139 87.8346486,302.473113 81.7647775,302.473113 C59.6865455,302.473113 41.7882287,320.342301 41.7882287,342.385613 C41.7882287,361.890828 55.8047849,378.118248 74.3281587,381.599419 L74.3256947,381.606799 L336.783964,440.96547 C351.290873,444.246545 358.164037,423.84746 344.620586,417.706823" id="Fill-19" fill="#3374FF"></path>
                <path d="M424.24867,342.385941 C424.24867,320.342629 406.351175,302.473441 384.272943,302.473441 C378.201429,302.473441 372.451068,303.830646 367.297017,306.249014 L367.291267,306.231793 L121.416313,417.707151 C107.872041,423.847788 114.746026,444.246873 129.253757,440.965798 L391.711204,381.606307 L391.70874,381.598927 C410.232114,378.117756 424.24867,361.891156 424.24867,342.385941" id="Fill-21" fill="#0051FF"></path>
                <path d="M271.808909,132.22461 C271.808909,110.182118 253.912235,92.3129299 231.834825,92.3129299 C209.756593,92.3129299 191.859919,110.182118 191.859919,132.22461 C191.859919,132.285295 191.864025,132.344339 191.864847,132.405844 C191.809815,134.811911 191.671827,169.956561 229.057797,198.929411 C229.850412,199.542818 230.831119,199.870024 231.834825,199.870024 C232.837709,199.870024 233.819237,199.542818 234.611031,198.929411 C271.997001,169.956561 271.859834,134.811911 271.803981,132.405844 C271.804803,132.344339 271.808909,132.285295 271.808909,132.22461" id="Fill-23" fill="#FECFE4"></path>
                <path d="M276.292647,142.220694 C274.289343,145.820774 271.263442,147.96114 269.533652,147.001666 C267.804684,146.042191 268.027273,142.346164 270.030577,138.746904 C272.033881,135.146005 275.059781,133.005639 276.78875,133.965113 C278.51854,134.924588 278.295951,138.620615 276.292647,142.220694" id="Fill-25" fill="#FECFE4"></path>
                <path d="M274.876946,138.454306 C274.489263,138.158263 273.308964,139.046392 272.23955,140.43886 C271.169314,141.830508 270.616537,143.200014 271.003399,143.496057 C271.391082,143.79292 272.57138,142.904791 273.641616,141.512323 C274.711031,140.119855 275.264629,138.750349 274.876946,138.454306" id="Fill-27" fill="#FEA0CA"></path>
                <path d="M187.883866,142.220694 C189.887169,145.820774 192.91307,147.96114 194.64286,147.001666 C196.371829,146.042191 196.149239,142.346164 194.145936,138.746904 C192.142632,135.146005 189.11591,133.005639 187.386941,133.965113 C185.657972,134.924588 185.880562,138.620615 187.883866,142.220694" id="Fill-29" fill="#FECFE4"></path>
                <path d="M189.299649,138.454306 C189.687332,138.158263 190.86763,139.046392 191.937045,140.43886 C193.00728,141.830508 193.560057,143.200014 193.172374,143.496057 C192.785512,143.79292 191.604393,142.904791 190.534978,141.512323 C189.465564,140.119855 188.911965,138.750349 189.299649,138.454306" id="Fill-31" fill="#FEA0CA"></path>
                <path d="M362.843752,218.762159 C362.843752,230.135623 353.60917,239.355599 342.216868,239.355599 C330.825387,239.355599 321.589984,230.135623 321.589984,218.762159 C321.589984,207.387876 330.825387,198.1679 342.216868,198.1679 C353.60917,198.1679 362.843752,207.387876 362.843752,218.762159" id="Fill-33" fill="#0D0C33"></path>
                <path d="M337.150538,199.680425 C337.150538,206.217153 331.843713,211.515584 325.29663,211.515584 C318.75119,211.515584 313.444365,206.217153 313.444365,199.680425 C313.444365,193.144518 318.75119,187.846086 325.29663,187.846086 C331.843713,187.846086 337.150538,193.144518 337.150538,199.680425" id="Fill-35" fill="#0D0C33"></path>
                <path d="M272.906168,72.962215 C272.806783,81.9025494 259.972989,90.2360366 255.489991,97.3312277 C246.813936,111.062374 231.180116,120.139659 213.433752,119.943664 C186.516871,119.645981 164.9331,98.1275096 165.224684,71.881371 C165.516267,45.6344124 187.571501,24.5981385 214.488382,24.8966417 C241.403619,25.1943248 273.19693,46.7152564 272.906168,72.962215" id="Fill-37" fill="#0D0C33"></path>
                <path d="M284.179044,99.8280756 C284.179044,87.305703 274.011394,77.1541346 261.470005,77.1541346 C248.926974,77.1541346 238.759324,87.305703 238.759324,99.8280756 C238.759324,112.350448 248.926974,122.502017 261.470005,122.502017 C274.011394,122.502017 284.179044,112.350448 284.179044,99.8280756" id="Fill-39" fill="#0D0C33"></path>
                <path d="M206.166416,132.078064 C198.515421,142.70281 185.553495,146.464442 177.216663,140.478797 C168.87983,134.493972 168.322946,121.028526 175.974762,110.403781 C183.626578,99.7790358 196.587683,96.0174037 204.924515,102.002229 C213.262169,107.987873 213.81741,121.453319 206.166416,132.078064" id="Fill-41" fill="#0D0C33"></path>
                <path d="M221.533292,144.491123 C221.533292,145.542444 220.679075,146.39449 219.626909,146.39449 C218.573101,146.39449 217.718884,145.542444 217.718884,144.491123 C217.718884,143.439801 218.573101,142.587755 219.626909,142.587755 C220.679075,142.587755 221.533292,143.439801 221.533292,144.491123" id="Fill-43" fill="#13124D"></path>
                <path d="M246.561613,144.491123 C246.561613,145.542444 245.707396,146.39449 244.65523,146.39449 C243.601422,146.39449 242.747204,145.542444 242.747204,144.491123 C242.747204,143.439801 243.601422,142.587755 244.65523,142.587755 C245.707396,142.587755 246.561613,143.439801 246.561613,144.491123" id="Fill-45" fill="#13124D"></path>
                <path d="M232.140454,145.915819 L229.462811,159.683049 C229.135909,161.364179 230.425448,162.92558 232.140454,162.92558 C233.855459,162.92558 235.144999,161.364179 234.818097,159.683049 L232.140454,145.915819 Z" id="Fill-47" fill="#3374FF"></path>
                <path d="M220.200138,149.035916 C220.200138,147.954252 218.030098,147.076783 215.353277,147.076783 C212.675634,147.076783 210.504772,147.954252 210.504772,149.035916 C210.504772,150.1184 212.675634,150.995868 215.353277,150.995868 C218.030098,150.995868 220.200138,150.1184 220.200138,149.035916" id="Fill-49" fill="#FECFE4"></path>
                <path d="M253.480609,149.035916 C253.480609,147.954252 251.309747,147.076783 248.632926,147.076783 C245.955283,147.076783 243.784421,147.954252 243.784421,149.035916 C243.784421,150.1184 245.955283,150.995868 248.632926,150.995868 C251.309747,150.995868 253.480609,150.1184 253.480609,149.035916" id="Fill-51" fill="#FECFE4"></path>
                <path d="M244.104753,170.448025 C244.104753,173.73156 238.748646,176.393486 232.140782,176.393486 C225.532919,176.393486 220.17599,173.73156 220.17599,170.448025 L244.104753,170.448025 Z" id="Fill-53" fill="#FFFFFF"></path>
                <path d="M267.478274,141.695361 C267.478274,150.591412 260.25521,157.803053 251.344245,157.803053 C242.434922,157.803053 235.211858,150.591412 235.211858,141.695361 C235.211858,132.79849 242.434922,125.58685 251.344245,125.58685 C260.25521,125.58685 267.478274,132.79849 267.478274,141.695361 Z" id="Stroke-55" stroke="#FFFFFF" stroke-width="1.5"></path>
                <path d="M229.273651,141.695361 C229.273651,150.591412 222.050587,157.803053 213.140443,157.803053 C204.230299,157.803053 197.007235,150.591412 197.007235,141.695361 C197.007235,132.79849 204.230299,125.58685 213.140443,125.58685 C222.050587,125.58685 229.273651,132.79849 229.273651,141.695361 Z" id="Stroke-57" stroke="#FFFFFF" stroke-width="1.5"></path>
                <path d="M337.554813,299.143572 C337.554813,299.143572 526.981608,319.440149 183.242098,408.007028" id="Stroke-59" stroke="#0D0C33" stroke-width="1.5" stroke-linecap="round" stroke-linejoin="round"></path>
                <path d="M99.0852656,288.515547 C99.0852656,288.515547 -131.362852,304.436264 330.162547,428.303604" id="Stroke-61" stroke="#0D0C33" stroke-width="1.5" stroke-linecap="round" stroke-linejoin="round"></path>
                <path d="M90.2098656,231.78067 C90.2098656,231.78067 46.3474494,167.424532 7.10109208,184.78446 C-21.9505101,197.634858 39.5679208,287.65571 335.896727,212.432088 C488.551932,173.679978 464.860543,249.872916 366.42514,272.414006" id="Stroke-63" stroke="#00E4A3" stroke-width="1.5" stroke-linecap="round" stroke-linejoin="round"></path>
                <path d="M312.257742,341.797299 C324.757241,303.248565 322.077134,265.471511 319.15144,247.04796 C318.045885,240.0889 312.74481,234.513287 305.836327,233.075715 C238.179031,218.995221 183.049981,229.068064 160.878935,234.217244 C154.304747,235.745022 149.269793,240.99671 148.002431,247.615444 C144.567491,265.541217 140.192913,303.165739 153.230405,341.684131 C154.271893,344.76347 156.793477,347.110492 159.922869,348.003541 C178.19737,353.217506 243.797152,369.036535 305.961996,348.146232 C308.944364,347.144935 311.287712,344.786432 312.257742,341.797299" id="Fill-65" fill="#E2EEF0"></path>
                <path d="M96.0941908,246.467273 C96.0941908,246.467273 159.405657,385.823157 109.636821,406.07627 C87.7976052,414.9633 82.6271263,389.270705 82.6271263,389.270705" id="Stroke-67" stroke="#00E4A3" stroke-width="1.5" stroke-linecap="round" stroke-linejoin="round"></path>
                <path d="M395.768901,388.633023 C395.768901,388.633023 520.513376,486.425619 268.252326,367.413875" id="Stroke-69" stroke="#00E4A3" stroke-width="1.5" stroke-linecap="round" stroke-linejoin="round"></path>
                <path d="M12.1499271,64.3763121 C12.1499271,64.3763121 89.0861591,75.9966146 136.279201,58.0101576 C169.030222,45.5287882 143.971264,41.2882389 129.729655,52.9011608 C116.103246,64.0130239 128.581389,76.9167261 168.726317,55.1727373 C209.27782,33.2089713 192.858778,22.1110494 164.735316,47.1574347 C136.611032,72.2046401 159.983732,77.9098232 195.327794,58.1446481 C232.919106,37.1239554 252.194848,0.861558917 213.618723,29.0725701 C167.98052,62.4491624 165.746413,82.824465 221.561301,62.572172 C277.375367,42.319879 320.549481,-28.9108535 265.411397,14.2696003 C210.273312,57.4516943 170.005179,133.055006 234.279283,79.7049427 C298.552564,26.355699 258.848708,174.744584 298.049069,87.4922675 C325.21975,27.0158503 308.284071,21.0064236 322.251345,23.8618854 C430.135706,45.9150382 422.920855,128.415906 331.1081,109.427331" id="Stroke-71" stroke="#00E4A3" stroke-width="1.5" stroke-linecap="round" stroke-linejoin="round"></path>
                <path d="M276.562218,151.38794 C276.562218,152.964103 275.282535,154.240942 273.704697,154.240942 C272.126859,154.240942 270.847176,152.964103 270.847176,151.38794 C270.847176,149.812598 272.126859,148.534939 273.704697,148.534939 C275.282535,148.534939 276.562218,149.812598 276.562218,151.38794" id="Fill-73" fill="#FFDB7A"></path>
                <path d="M192.32596,151.38794 C192.32596,152.964103 191.046277,154.240942 189.468439,154.240942 C187.890601,154.240942 186.611739,152.964103 186.611739,151.38794 C186.611739,149.812598 187.890601,148.534939 189.468439,148.534939 C191.046277,148.534939 192.32596,149.812598 192.32596,151.38794" id="Fill-75" fill="#FFDB7A"></path>
                <path d="M336.897065,514.630561 C336.897065,514.630561 342.532435,491.525267 339.837544,484.307886 C338.118432,479.705689 331.149168,505.929686 333.450627,508.195521 C337.264214,511.953873 338.426443,470.478332 334.007511,469.42045 C328.749968,468.161652 329.261677,497.834017 330.740951,501.525943 C332.220225,505.21705 334.202174,452.185991 329.117938,452.185991 C322.466542,452.185991 324.666973,502.017162 327.850575,507.352496 C330.158605,511.219916 326.03947,475.392154 324.032881,472.544072 C322.02547,469.695991 319.498958,498.804152 326.911758,514.630561" id="Stroke-77" stroke="#B6D4D9" stroke-width="1.5"></path>
                <path d="M258.758522,296.115569 C258.758522,297.383388 247.335008,297.516238 247.097635,298.715171 C246.852869,299.949367 257.352349,304.427735 256.880887,305.563523 C256.40039,306.719813 245.801524,302.466963 245.112401,303.494502 C244.418349,304.529423 252.397889,312.688236 251.519031,313.564885 C250.639351,314.443173 242.469255,306.476254 241.431874,307.169208 C240.403528,307.855601 244.661473,318.439343 243.504994,318.91826 C242.366585,319.388977 237.881944,308.906103 236.644972,309.150482 C235.444961,309.38748 235.3119,320.792926 234.042073,320.792926 C232.772246,320.792926 232.638364,309.38748 231.438353,309.150482 C230.20138,308.906103 225.715918,319.388977 224.579152,318.91826 C223.421852,318.438523 227.679797,307.855601 226.650629,307.168388 C225.614069,306.475434 217.443152,314.442353 216.564294,313.564064 C215.685436,312.686596 223.664975,304.529423 222.971745,303.493682 C222.282622,302.466963 211.683756,306.718173 211.203259,305.562703 C210.730975,304.426915 221.231277,299.949367 220.986511,298.714351 C220.749137,297.516238 209.324802,297.383388 209.324802,296.115569 C209.324802,294.847751 220.749137,294.71408 220.986511,293.515967 C221.231277,292.280951 210.731797,287.802584 211.20408,286.667615 C211.683756,285.511326 222.282622,289.763356 222.971745,288.735816 C223.665797,287.700896 215.687078,279.542902 216.565115,278.665434 C217.443973,277.787146 225.614891,285.754885 226.65145,285.061931 C227.680618,284.374717 223.422673,273.791795 224.579973,273.312058 C225.71674,272.841342 230.202202,283.324216 231.438353,283.079837 C232.638364,282.842838 232.772246,271.437393 234.042073,271.437393 C235.3119,271.437393 235.444961,282.842838 236.645793,283.079837 C237.881944,283.324216 242.367406,272.842162 243.505815,273.312878 C244.663115,273.791795 240.403528,284.374717 241.432695,285.061931 C242.469255,285.754885 250.640994,277.788786 251.519852,278.666254 C252.39871,279.543722 244.419171,287.701716 245.113222,288.736636 C245.801524,289.764176 256.401211,285.512146 256.880887,286.667615 C257.352349,287.803404 246.852869,292.281771 247.097635,293.515967 C247.335008,294.71408 258.758522,294.847751 258.758522,296.115569" id="Fill-79" fill="#FFFFFF"></path>
            </g>
        </g>
    </g>
</svg>