<svg width="448" height="516" viewBox="0 0 448 516" fill="none" xmlns="http://www.w3.org/2000/svg">
<path fill-rule="evenodd" clip-rule="evenodd" d="M166.33 70.208C164.5 69.8451 162.607 69.6548 160.669 69.6548C144.709 69.6548 131.77 82.5732 131.77 98.5095C131.77 104.791 133.78 110.603 137.193 115.341C124.955 120.245 116.313 132.202 116.313 146.175C116.313 159.615 124.309 171.191 135.811 176.419C138.202 181.5 143.288 195.594 127.9 198.649C98.0315 204.578 103.742 243.638 133.56 244.494C161.308 245.292 217.673 232.877 217.673 232.877L208.337 220.106L336.324 239.178C338.48 239.94 340.8 240.356 343.217 240.356C345.793 240.356 348.26 239.884 350.534 239.022C396.008 228.526 392.174 139.818 334.732 154.586C327.783 156.372 322.893 156.246 319.491 154.967C319.67 154.907 319.849 154.843 320.027 154.777C332.441 150.171 337.899 134.067 332.218 118.807C327.819 106.99 318.03 99.1441 308.072 98.3454C314.894 88.9901 312.836 74.7465 302.874 65.3106C293.523 56.4543 280.303 54.7641 271.275 60.6216C263.147 40.7917 237.662 26.1418 215.488 25.8966C189.492 25.6083 168.03 45.2208 166.33 70.208Z" fill="#0D0C33"/>
<path fill-rule="evenodd" clip-rule="evenodd" d="M363.352 490.502C363.352 493.763 305.287 496.405 233.659 496.405C162.031 496.405 103.965 493.763 103.965 490.502C103.965 487.243 162.031 484.6 233.659 484.6C305.287 484.6 363.352 487.243 363.352 490.502Z" fill="#E9F2F4"/>
<path fill-rule="evenodd" clip-rule="evenodd" d="M289.13 327.292C289.13 327.292 381.68 325.347 357.324 264.393C332.969 203.44 309.913 190.147 292.702 183.338C285.732 180.581 253.409 169.72 235.224 170.045H232.813C214.628 169.72 182.305 180.581 175.335 183.338C158.124 190.147 135.068 203.44 110.712 264.393C86.3579 325.347 178.907 327.292 178.907 327.292H289.13Z" fill="#D04834"/>
<path fill-rule="evenodd" clip-rule="evenodd" d="M345.621 418.707L99.7448 307.231L99.7399 307.249C94.5858 304.831 88.8346 303.473 82.7648 303.473C60.6865 303.473 42.7882 321.342 42.7882 343.386C42.7882 362.891 56.8048 379.118 75.3282 382.599L75.3257 382.607L337.784 441.965C352.291 445.246 359.164 424.847 345.621 418.707Z" fill="#3374FF"/>
<path fill-rule="evenodd" clip-rule="evenodd" d="M425.249 343.386C425.249 321.343 407.351 303.473 385.273 303.473C379.201 303.473 373.451 304.831 368.297 307.249L368.291 307.232L122.416 418.707C108.872 424.848 115.746 445.247 130.254 441.966L392.711 382.606L392.709 382.599C411.232 379.118 425.249 362.891 425.249 343.386Z" fill="#0051FF"/>
<path fill-rule="evenodd" clip-rule="evenodd" d="M272.809 133.225C272.809 111.182 254.912 93.3129 232.835 93.3129C210.757 93.3129 192.86 111.182 192.86 133.225C192.86 133.285 192.864 133.344 192.865 133.406C192.81 135.812 192.672 170.957 230.058 199.929C230.85 200.543 231.831 200.87 232.835 200.87C233.838 200.87 234.819 200.543 235.611 199.929C272.997 170.957 272.86 135.812 272.804 133.406C272.805 133.344 272.809 133.285 272.809 133.225Z" fill="#FECFE4"/>
<path fill-rule="evenodd" clip-rule="evenodd" d="M277.293 143.221C275.289 146.821 272.263 148.961 270.534 148.002C268.805 147.042 269.027 143.346 271.031 139.747C273.034 136.146 276.06 134.006 277.789 134.965C279.519 135.925 279.296 139.621 277.293 143.221Z" fill="#FECFE4"/>
<path fill-rule="evenodd" clip-rule="evenodd" d="M275.877 139.454C275.489 139.158 274.309 140.046 273.24 141.439C272.169 142.83 271.617 144.2 272.003 144.496C272.391 144.793 273.571 143.905 274.642 142.512C275.711 141.12 276.265 139.75 275.877 139.454Z" fill="#FEA0CA"/>
<path fill-rule="evenodd" clip-rule="evenodd" d="M188.884 143.221C190.887 146.821 193.913 148.961 195.643 148.002C197.372 147.042 197.149 143.346 195.146 139.747C193.143 136.146 190.116 134.006 188.387 134.965C186.658 135.925 186.881 139.621 188.884 143.221Z" fill="#FECFE4"/>
<path fill-rule="evenodd" clip-rule="evenodd" d="M190.3 139.454C190.687 139.158 191.868 140.046 192.937 141.439C194.007 142.83 194.56 144.2 194.172 144.496C193.786 144.793 192.604 143.905 191.535 142.512C190.466 141.12 189.912 139.75 190.3 139.454Z" fill="#FEA0CA"/>
<path fill-rule="evenodd" clip-rule="evenodd" d="M285.179 100.828C285.179 88.3056 275.011 78.1541 262.47 78.1541C249.927 78.1541 239.759 88.3056 239.759 100.828C239.759 113.35 249.927 123.502 262.47 123.502C275.011 123.502 285.179 113.35 285.179 100.828Z" fill="#0D0C33"/>
<path fill-rule="evenodd" clip-rule="evenodd" d="M207.166 133.078C199.515 143.703 186.553 147.464 178.217 141.479C169.88 135.494 169.323 122.028 176.975 111.404C184.627 100.779 197.588 97.0173 205.925 103.002C214.262 108.988 214.817 122.453 207.166 133.078Z" fill="#0D0C33"/>
<path fill-rule="evenodd" clip-rule="evenodd" d="M222.533 145.491C222.533 146.542 221.679 147.394 220.627 147.394C219.573 147.394 218.719 146.542 218.719 145.491C218.719 144.44 219.573 143.588 220.627 143.588C221.679 143.588 222.533 144.44 222.533 145.491Z" fill="#13124D"/>
<path fill-rule="evenodd" clip-rule="evenodd" d="M247.562 145.491C247.562 146.542 246.707 147.394 245.655 147.394C244.601 147.394 243.747 146.542 243.747 145.491C243.747 144.44 244.601 143.588 245.655 143.588C246.707 143.588 247.562 144.44 247.562 145.491Z" fill="#13124D"/>
<path fill-rule="evenodd" clip-rule="evenodd" d="M233.14 146.916L230.463 160.683C230.136 162.364 231.425 163.926 233.14 163.926C234.855 163.926 236.145 162.364 235.818 160.683L233.14 146.916Z" fill="#3374FF"/>
<path fill-rule="evenodd" clip-rule="evenodd" d="M221.2 150.036C221.2 148.954 219.03 148.077 216.353 148.077C213.676 148.077 211.505 148.954 211.505 150.036C211.505 151.118 213.676 151.996 216.353 151.996C219.03 151.996 221.2 151.118 221.2 150.036Z" fill="#FECFE4"/>
<path fill-rule="evenodd" clip-rule="evenodd" d="M254.481 150.036C254.481 148.954 252.31 148.077 249.633 148.077C246.955 148.077 244.784 148.954 244.784 150.036C244.784 151.118 246.955 151.996 249.633 151.996C252.31 151.996 254.481 151.118 254.481 150.036Z" fill="#FECFE4"/>
<path fill-rule="evenodd" clip-rule="evenodd" d="M245.105 171.448C245.105 174.732 239.749 177.393 233.141 177.393C226.533 177.393 221.176 174.732 221.176 171.448H245.105Z" fill="white"/>
<path fill-rule="evenodd" clip-rule="evenodd" d="M268.478 142.695C268.478 151.591 261.255 158.803 252.344 158.803C243.435 158.803 236.212 151.591 236.212 142.695C236.212 133.798 243.435 126.587 252.344 126.587C261.255 126.587 268.478 133.798 268.478 142.695Z" stroke="white" stroke-width="1.5"/>
<path fill-rule="evenodd" clip-rule="evenodd" d="M230.274 142.695C230.274 151.591 223.051 158.803 214.14 158.803C205.23 158.803 198.007 151.591 198.007 142.695C198.007 133.798 205.23 126.587 214.14 126.587C223.051 126.587 230.274 133.798 230.274 142.695Z" stroke="white" stroke-width="1.5"/>
<path d="M338.555 300.144C338.555 300.144 527.982 320.44 184.242 409.007" stroke="#0D0C33" stroke-width="1.5" stroke-linecap="round" stroke-linejoin="round"/>
<path d="M100.085 289.515C100.085 289.515 -130.363 305.436 331.163 429.304" stroke="#0D0C33" stroke-width="1.5" stroke-linecap="round" stroke-linejoin="round"/>
<path d="M91.2099 232.781C91.2099 232.781 47.3474 168.424 8.10109 185.784C-20.9505 198.635 40.5679 288.656 336.897 213.432C489.552 174.68 465.861 250.873 367.425 273.414" stroke="#00E4A3" stroke-width="1.5" stroke-linecap="round" stroke-linejoin="round"/>
<path fill-rule="evenodd" clip-rule="evenodd" d="M313.258 342.797C325.757 304.249 323.077 266.471 320.151 248.048C319.046 241.089 313.745 235.513 306.836 234.076C239.179 219.995 184.05 230.068 161.879 235.217C155.305 236.745 150.27 241.997 149.002 248.615C145.567 266.541 141.193 304.166 154.23 342.684C155.272 345.763 157.793 348.11 160.923 349.003C179.197 354.217 244.797 370.036 306.962 349.146C309.944 348.145 312.288 345.786 313.258 342.797Z" fill="#E2EEF0"/>
<path d="M97.0942 247.467C97.0942 247.467 160.406 386.823 110.637 407.076C88.7976 415.963 83.6271 390.271 83.6271 390.271" stroke="#00E4A3" stroke-width="1.5" stroke-linecap="round" stroke-linejoin="round"/>
<path d="M396.769 389.633C396.769 389.633 521.513 487.426 269.252 368.414" stroke="#00E4A3" stroke-width="1.5" stroke-linecap="round" stroke-linejoin="round"/>
<path d="M13.1499 65.3762C13.1499 65.3762 90.0862 76.9966 137.279 59.0101C170.03 46.5287 144.971 42.2882 130.73 53.9011C117.103 65.013 129.581 77.9167 169.726 56.1727C210.278 34.2089 193.859 23.111 165.735 48.1574C137.611 73.2046 160.984 78.9098 196.328 59.1446C233.919 38.1239 253.195 1.86149 214.619 30.0725C168.981 63.4491 166.746 83.8244 222.561 63.5721C278.375 43.3198 321.549 -27.9109 266.411 15.2695C211.273 58.4516 171.005 134.055 235.279 80.7049C299.553 27.3556 259.849 175.745 299.049 88.4922C326.22 28.0158 309.284 22.0064 323.251 24.8618C431.136 46.915 423.921 129.416 332.108 110.427" stroke="#00E4A3" stroke-width="1.5" stroke-linecap="round" stroke-linejoin="round"/>
<path fill-rule="evenodd" clip-rule="evenodd" d="M277.562 152.388C277.562 153.964 276.283 155.241 274.705 155.241C273.127 155.241 271.847 153.964 271.847 152.388C271.847 150.813 273.127 149.535 274.705 149.535C276.283 149.535 277.562 150.813 277.562 152.388Z" fill="#FFDB7A"/>
<path fill-rule="evenodd" clip-rule="evenodd" d="M193.326 152.388C193.326 153.964 192.046 155.241 190.468 155.241C188.891 155.241 187.612 153.964 187.612 152.388C187.612 150.813 188.891 149.535 190.468 149.535C192.046 149.535 193.326 150.813 193.326 152.388Z" fill="#FFDB7A"/>
<path d="M44.1427 508.271C44.1427 508.271 15.1462 452.877 28.1722 449.399C44.4335 445.057 46.9608 493.149 48.0171 505.107C48.0171 505.107 18.5885 382.285 42.5419 378.416C66.4961 374.549 52.597 501.941 52.597 508.624C52.597 508.624 45.7567 400.126 61.0513 399.946C74.5512 399.787 62.8123 467.474 62.1076 471.343C62.1076 471.343 60.1265 424.102 73.5516 425.424C86.976 426.745 57.1761 510.382 55.7667 515.306C55.7667 515.306 66.5553 447.889 79.224 450.532C89.206 452.615 65.6304 504.051 63.517 508.271C63.517 508.271 73.0284 467.122 80.0733 466.771C87.1181 466.419 74.7894 493.149 69.1532 508.271M337.897 515.63C337.897 515.63 343.532 492.525 340.838 485.308C339.118 480.706 332.149 506.93 334.451 509.195C338.264 512.954 339.426 471.478 335.007 470.42C329.75 469.162 330.262 498.834 331.741 502.526C333.22 506.217 335.202 453.186 330.118 453.186C323.467 453.186 325.667 503.017 328.851 508.352C331.159 512.22 327.039 476.392 325.033 473.544C323.025 470.696 320.499 499.804 327.912 515.63" stroke="#B6D4D9" stroke-width="1.5"/>
<path fill-rule="evenodd" clip-rule="evenodd" d="M259.759 297.116C259.759 298.383 248.335 298.516 248.098 299.715C247.853 300.949 258.352 305.428 257.881 306.563C257.4 307.72 246.802 303.467 246.112 304.494C245.418 305.529 253.398 313.688 252.519 314.565C251.639 315.443 243.469 307.476 242.432 308.169C241.404 308.856 245.661 319.439 244.505 319.918C243.367 320.389 238.882 309.906 237.645 310.15C236.445 310.387 236.312 321.793 235.042 321.793C233.772 321.793 233.638 310.387 232.438 310.15C231.201 309.906 226.716 320.389 225.579 319.918C224.422 319.438 228.68 308.856 227.651 308.168C226.614 307.475 218.443 315.442 217.564 314.564C216.685 313.687 224.665 305.529 223.972 304.494C223.283 303.467 212.684 307.718 212.203 306.563C211.731 305.427 222.231 300.949 221.987 299.714C221.749 298.516 210.325 298.383 210.325 297.116C210.325 295.848 221.749 295.714 221.987 294.516C222.231 293.281 211.732 288.803 212.204 287.668C212.684 286.511 223.283 290.763 223.972 289.736C224.666 288.701 216.687 280.543 217.565 279.665C218.444 278.787 226.615 286.755 227.651 286.062C228.681 285.375 224.423 274.792 225.58 274.312C226.717 273.841 231.202 284.324 232.438 284.08C233.638 283.843 233.772 272.437 235.042 272.437C236.312 272.437 236.445 283.843 237.646 284.08C238.882 284.324 243.367 273.842 244.506 274.313C245.663 274.792 241.404 285.375 242.433 286.062C243.469 286.755 251.641 278.789 252.52 279.666C253.399 280.544 245.419 288.702 246.113 289.737C246.802 290.764 257.401 286.512 257.881 287.668C258.352 288.803 247.853 293.282 248.098 294.516C248.335 295.714 259.759 295.848 259.759 297.116Z" fill="white"/>
</svg>
