<?xml version="1.0" encoding="UTF-8"?>
<svg width="564px" height="382px" viewBox="0 0 564 382" version="1.1" xmlns="http://www.w3.org/2000/svg" xmlns:xlink="http://www.w3.org/1999/xlink">
    <title>ilustracion-certificacion</title>
    <defs>
        <polygon id="path-1" points="0.0235930265 0.263713347 50.3590407 0.263713347 50.3590407 40.788501 0.0235930265 40.788501"></polygon>
    </defs>
    <g id="Page-1" stroke="none" stroke-width="1" fill="none" fill-rule="evenodd">
        <g id="Centro-Examinador" transform="translate(-709.000000, -216.000000)">
            <g id="Group-52" transform="translate(710.000000, 216.000000)">
                <polygon id="Fill-1" fill="#FECFE4" points="206.591749 316.756439 163.507433 162.899076 188.416496 154.357807 279.642343 276.34131"></polygon>
                <g id="Group-51" transform="translate(0.000000, 0.050201)">
                    <path d="M526.126842,224.98341 C553.32388,263.681501 564.011286,303.047895 549.998909,312.910868 C535.985749,322.773841 502.578494,299.398108 475.380672,260.699234 C448.184418,222.001143 437.496229,182.635533 451.509389,172.771776 C465.52255,162.909587 498.929805,186.28532 526.126842,224.98341" id="Fill-2" fill="#0051FF"></path>
                    <path d="M93.2189478,144.038395 C93.2189478,144.038395 -108.342313,61.0055569 83.1656536,96.2962386 C83.1656536,96.2962386 34.1611347,-57.6803528 125.461444,74.0876842 C125.461444,74.0876842 113.611631,-52.7119996 206.572075,84.3875651 C206.572075,84.3875651 180.531958,-14.0084185 249.113985,80.449906 C291.380775,138.663725 294.583469,84.4542386 294.583469,84.4542386 C294.583469,84.4542386 557.711556,-15.9607758 538.182644,176.838625" id="Stroke-4" stroke="#99B9FF" stroke-width="1.5" stroke-linecap="round" stroke-linejoin="round"></path>
                    <path d="M301.514881,356.590882 C301.514881,356.590882 271.471004,338.538832 271.471004,178.516915 C271.471004,97.5054608 482.075997,151.463157 499.154683,198.550344 C515.999007,244.99119 449.132764,345.053227 434.707314,356.590882 L301.514881,356.590882 Z" id="Fill-6" fill="#0051FF"></path>
                    <path d="M391.851874,356.590882 L526.091492,356.590882 C550.92374,356.590882 566.427729,327.11413 552.788452,304.966759 C546.172215,294.22291 534.085687,287.837941 515.352354,293.451851 C466.172259,308.191403 440.292825,324.480134 391.851874,356.590882" id="Fill-8" fill="#FECFE4"></path>
                    <path d="M430.953828,345.770947 L561.81831,310.037867 C523.019931,205.027087 459.76397,175.948023 459.76397,175.948023 L453.160274,214.733966 L432.878893,185.613329 L303.2552,185.613329 C303.2552,185.613329 419.849429,190.907991 423.376625,287.976779" id="Stroke-10" stroke="#FD60A7" stroke-width="1.5"></path>
                    <path d="M425.709278,56.463522 C424.714609,28.1633618 401.490762,5.52339055 372.969066,5.52339055 C344.446586,5.52339055 321.22274,28.1633618 320.22807,56.463522 L320.181041,56.463522 L320.181041,121.022306 C320.181041,129.396499 323.761538,137.371436 330.018784,142.933575 L348.966885,159.77452 C351.356756,161.89866 354.442662,163.072113 357.639086,163.072113 L388.298263,163.072113 C391.495471,163.072113 394.581376,161.89866 396.971247,159.77452 L415.919348,142.933575 C422.176595,137.371436 425.757091,129.396499 425.757091,121.022306 L425.757091,56.463522 L425.709278,56.463522 Z" id="Fill-12" fill="#FECFE4"></path>
                    <path d="M320.183079,80.3224419 C317.752449,77.6798177 314.922853,76.409099 312.553361,77.2672263 C308.59663,78.7018834 307.428736,85.4970908 309.943235,92.445255 C312.155179,98.5596082 316.48109,102.750627 320.183079,102.69415 L320.183079,80.3224419 Z" id="Fill-14" fill="#FECFE4"></path>
                    <path d="M313.0931,85.1161105 C312.327307,85.5969441 313.10956,88.2223117 314.838671,90.9802419 C316.568565,93.7373877 318.590824,95.5846361 319.355834,95.1030181 C320.120844,94.6229688 319.339374,91.9976012 317.610263,89.239671 C315.880369,86.4817409 313.85811,84.6360612 313.0931,85.1161105" id="Fill-16" fill="#FEAFD3"></path>
                    <path d="M425.073991,80.3224419 C427.505405,77.6798177 430.334217,76.409099 432.704493,77.2672263 C436.66044,78.7018834 437.829118,85.4970908 435.313835,92.445255 C433.10189,98.5596082 428.77598,102.750627 425.073991,102.69415 L425.073991,80.3224419 Z" id="Fill-18" fill="#FECFE4"></path>
                    <path d="M432.164362,85.1161105 C432.929371,85.5969441 432.147901,88.2223117 430.418007,90.9802419 C428.688897,93.7373877 426.666638,95.5846361 425.901628,95.1030181 C425.135834,94.6229688 425.918088,91.9976012 427.647198,89.239671 C429.376309,86.4817409 431.398568,84.6360612 432.164362,85.1161105" id="Fill-20" fill="#FEAFD3"></path>
                    <path d="M361.285502,89.5720189 C361.285502,91.247485 359.928707,92.6044871 358.254464,92.6044871 C356.581005,92.6044871 355.22421,91.247485 355.22421,89.5720189 C355.22421,87.8965528 356.581005,86.5387663 358.254464,86.5387663 C359.928707,86.5387663 361.285502,87.8965528 361.285502,89.5720189" id="Fill-22" fill="#13124D"></path>
                    <path d="M389.347721,89.5720189 C389.347721,91.247485 387.990926,92.6044871 386.316684,92.6044871 C384.643225,92.6044871 383.28643,91.247485 383.28643,89.5720189 C383.28643,87.8965528 384.643225,86.5387663 386.316684,86.5387663 C387.990926,86.5387663 389.347721,87.8965528 389.347721,89.5720189" id="Fill-24" fill="#13124D"></path>
                    <polygon id="Fill-26" fill="#0051FF" points="372.285809 95.2198144 366.416554 110.81671 378.155848 110.81671"></polygon>
                    <path d="M353.306434,99.5171183 C353.306434,97.7930197 349.856052,96.3952292 345.600685,96.3952292 C341.344534,96.3952292 337.894152,97.7930197 337.894152,99.5171183 C337.894152,101.241217 341.344534,102.639007 345.600685,102.639007 C349.856052,102.639007 353.306434,101.241217 353.306434,99.5171183" id="Fill-28" fill="#FECFE4"></path>
                    <path d="M406.677152,99.5171183 C406.677152,97.7930197 403.22677,96.3952292 398.971403,96.3952292 C394.715252,96.3952292 391.26487,97.7930197 391.26487,99.5171183 C391.26487,101.241217 394.715252,102.639007 398.971403,102.639007 C403.22677,102.639007 406.677152,101.241217 406.677152,99.5171183" id="Fill-30" fill="#FECFE4"></path>
                    <path d="M383.576601,119.46246 C383.576601,124.829285 378.521736,129.18032 372.285652,129.18032 C366.050352,129.18032 360.994704,124.829285 360.994704,119.46246 L383.576601,119.46246 Z" id="Fill-32" fill="#FFFFFF"></path>
                    <path d="M399.0762,46.3973906 C399.0762,46.3973906 398.743076,61.2342078 412.940434,63.2869676 C412.940434,63.2869676 413.790881,81.1248772 421.956733,81.1248772 C426.322618,81.1248772 428.785385,71.2156246 428.785385,71.2156246 L435.575631,45.1658916 C435.575631,45.1658916 439.254105,18.8322078 407.564987,18.5498259 C407.564987,18.5498259 389.802808,-8.84749651 338.595751,3.04313593 C267.609743,19.5256123 300.088169,103.522471 365.20022,54.408409 C380.531768,42.8440846 393.750917,43.8449717 399.0762,46.3973906" id="Fill-34" fill="#13124D"></path>
                    <path d="M324.271727,70.0740172 C324.271727,75.6730234 322.522237,80.2123129 320.363593,80.2123129 C318.204949,80.2123129 316.454675,75.6730234 316.454675,70.0740172 C316.454675,64.4742267 318.204949,59.9357216 320.363593,59.9357216 C322.522237,59.9357216 324.271727,64.4742267 324.271727,70.0740172" id="Fill-36" fill="#13124D"></path>
                    <path d="M224.475341,337.76542 L368.693006,337.76542 C373.887391,337.76542 378.09808,341.97997 378.09808,347.178151 C378.09808,352.376331 373.887391,356.590882 368.693006,356.590882 L224.475341,356.590882 C219.280956,356.590882 215.069483,352.376331 215.069483,347.178151 C215.069483,341.97997 219.280956,337.76542 224.475341,337.76542" id="Fill-38" fill="#D3E5E8"></path>
                    <path d="M290.148372,220.634023 L131.275597,220.634023 C117.337683,220.634023 106.883856,233.395333 109.617826,247.072031 L127.954545,338.822626 C130.019131,349.153883 139.084026,356.590725 149.612317,356.590725 L309.190531,356.590725 C323.19507,356.590725 333.663789,343.714109 330.816166,329.9927 L311.774007,238.242105 C309.645932,227.986934 300.615524,220.634023 290.148372,220.634023" id="Fill-40" fill="#B6D4D9"></path>
                    <path d="M215.288013,207.646336 C207.372984,192.145922 200.898618,174.615494 196.602493,154.813462 L216.556236,141.648973 C218.822264,140.2151 218.005522,136.868874 215.429101,137.029675 L194.20635,138.357655 C193.310442,138.473745 192.533675,137.900353 192.405912,137.028891 L186.144746,94.3021515 C185.864138,92.3882296 183.081572,92.5670715 182.692797,94.5249195 L177.593254,120.167552 C177.224858,122.019507 174.642166,122.326205 174.178144,120.573084 L164.123282,82.586439 C163.619285,80.6827142 160.748147,81.2576752 160.675251,83.2774903 L159.449355,117.099786 C159.381946,118.958016 156.848635,119.678874 156.095382,118.054394 L145.404841,95.0041844 C144.603776,93.2769483 141.890186,94.2205745 142.056356,96.1682255 L144.340412,122.891753 C144.47758,124.494271 142.523514,125.588501 141.364242,124.557807 L131.829053,116.080074 C130.413472,114.820336 128.135686,116.691901 129.037865,118.373642 L150.108554,158.557375" id="Stroke-42" stroke="#FD60A7" stroke-width="1.5"></path>
                    <g id="Group-46" transform="translate(159.899582, 340.427105)">
                        <mask id="mask-2" fill="white">
                            <use xlink:href="#path-1"></use>
                        </mask>
                        <g id="Clip-45"></g>
                        <path d="M50.3590407,0.263713347 C50.3590407,14.1733766 39.0908232,40.7886579 25.1913169,40.7886579 C11.2918106,40.7886579 0.0235930265,14.1733766 0.0235930265,0.263713347 L50.3590407,0.263713347 Z" id="Fill-44" fill="#00E296" mask="url(#mask-2)"></path>
                    </g>
                    <path d="M176.678691,355.26102 C176.678691,355.26102 151.813522,307.648289 162.982979,304.658178 C176.927946,300.92603 179.095213,342.262038 180.00131,352.539956 C180.00131,352.539956 154.76461,246.97304 175.30622,243.647993 C195.847829,240.322946 183.92904,349.819677 183.92904,355.563011 C183.92904,355.563011 178.06292,262.307948 191.178605,262.152638 C202.755648,262.016153 192.689029,320.19389 192.084702,323.519722 C192.084702,323.519722 190.385377,282.915554 201.898147,284.051356 C213.410133,285.187159 187.855985,357.075324 186.647333,361.307131 C186.647333,361.307131 195.898778,303.36079 206.762543,305.631611 C215.322658,307.422383 195.10555,351.633196 193.293355,355.26102 C193.293355,355.26102 201.449018,319.891899 207.490714,319.589122 C213.532409,319.287915 202.959442,342.262038 198.126398,355.26102" id="Stroke-47" stroke="#6446FF" stroke-width="1.348"></path>
                    <path d="M346.606485,276.569647 C346.606485,291.695906 334.353004,303.959126 319.237006,303.959126 C304.121009,303.959126 291.867528,291.695906 291.867528,276.569647 C291.867528,261.442604 304.121009,249.180169 319.237006,249.180169 C334.353004,249.180169 346.606485,261.442604 346.606485,276.569647 Z" id="Stroke-49" stroke="#FFFFFF" stroke-width="1.5"></path>
                </g>
            </g>
        </g>
    </g>
</svg>