<?xml version="1.0" encoding="UTF-8"?>
<svg width="584px" height="496px" viewBox="0 0 584 496" version="1.1" xmlns="http://www.w3.org/2000/svg" xmlns:xlink="http://www.w3.org/1999/xlink">
    <title>ilustracion-patineta</title>
    <g id="Page-1" stroke="none" stroke-width="1" fill="none" fill-rule="evenodd">
        <g id="Cursos" transform="translate(-672.000000, -167.000000)">
            <g id="Group-81" transform="translate(673.000000, 168.000000)">
                <path d="M433.062141,378.826185 L360.354794,216.351213 C358.309538,211.664892 355.012914,207.454293 350.554354,204.263299 C340.80895,197.288549 287.827687,195.833153 265.4599,193.053167 C225.346616,188.067367 203.677091,191.278327 196.838248,207.361352 C191.756411,219.312263 196.594028,239.725677 259.66673,239.725677 C274.588907,239.725677 286.53573,239.680928 296.1119,239.535663 C300.537439,239.468195 304.716006,241.559725 307.324687,245.13832 L405.26029,365.69526 C411.69256,374.519892 422.165808,379.467138 433.062141,378.826185" id="Fill-1" fill="#FFDB7A"></path>
                <path d="M327.076501,230.702564 C299.323494,226.791444 210.398572,152.549017 235.598622,131.721841 C260.798672,110.893287 287.011374,124.885471 327.061367,148.036876 C366.309906,170.725638 380.411367,238.219129 327.076501,230.702564" id="Fill-3" fill="#FB4C00"></path>
                <path d="M293.407595,156.922091 C295.204503,158.358211 288.787368,167.951848 290.109595,169.598635 C291.57285,171.421667 302.392134,167.501597 303.213538,169.40449 C304.162212,171.599289 293.747439,176.061862 293.752943,178.095561 C293.759822,180.427362 303.254127,186.096799 301.886496,187.810366 C300.518865,189.523934 292.893013,181.513746 290.619361,182.023204 C288.636021,182.467946 286.592829,193.620248 284.243503,193.179636 C282.207879,192.79892 283.632609,181.373301 281.532318,180.34819 C279.635659,179.422905 271.707113,187.80899 269.910205,186.37287 C268.112609,184.93675 274.529744,175.343113 273.208205,173.696326 C271.744262,171.873983 260.925666,175.792675 260.103574,173.890471 C259.1549,171.695672 269.569673,167.233099 269.56417,165.1994 C269.557978,162.868287 260.062985,157.198162 261.431304,155.484595 C262.798248,153.771027 270.424787,161.781903 272.697751,161.271069 C274.681091,160.827015 276.724283,149.675401 279.074297,150.114636 C281.109921,150.496041 279.685191,161.922348 281.784106,162.946771 C283.681453,163.872056 291.610687,155.485971 293.407595,156.922091 Z" id="Stroke-5" stroke="#FFFFFF" stroke-width="1.5"></path>
                <path d="M369.954079,484.679009 C367.271788,490.060671 358.946299,491.352903 351.35966,487.565706 C343.772334,483.77782 339.79671,476.345247 342.479001,470.963585 C345.161979,465.582611 353.486781,464.290379 361.074107,468.077576 C368.660745,471.865462 372.63637,479.298035 369.954079,484.679009 Z" id="Stroke-7" stroke="#6446FF" stroke-width="1.5" fill="#6446FF"></path>
                <path d="M250.251951,425.171266 C247.56966,430.552239 239.244859,431.844471 231.658221,428.057274 C224.070894,424.269388 220.09527,416.837503 222.777561,411.455841 C225.459852,406.074179 233.784653,404.781947 241.371979,408.569145 C248.958618,412.357031 252.934242,419.789604 250.251951,425.171266 Z" id="Stroke-9" stroke="#6446FF" stroke-width="1.5" fill="#6446FF"></path>
                <path d="M431.686943,137.944452 C431.125581,132.102213 431.920843,127.824146 433.998432,127.26925 C437.026758,126.460314 441.63185,133.868103 444.283872,143.813541 C446.935893,153.760356 446.631134,162.478965 443.602808,163.287901 C441.527283,163.84142 438.710155,160.534765 436.288595,155.195787" id="Stroke-11" stroke="#6446FF" stroke-width="1.5"></path>
                <path d="M484.792929,145.553821 L502.221284,139.774919 C502.758567,139.597298 503.060574,139.027256 502.907163,138.482687 L502.609972,137.426595 C502.451745,136.863438 501.866305,136.535045 501.303567,136.694766 L493.892355,138.793181 C493.370206,138.94051 492.821227,138.669947 492.620348,138.166686 C492.403645,137.621428 492.668504,137.00526 493.212667,136.789085 L504.793504,132.186755 C505.24273,132.008445 505.51378,131.548556 505.452553,131.068702 L505.209021,129.148598 C505.126468,128.497318 504.477738,128.07736 503.850333,128.268751 L491.895255,131.913438 C491.377234,132.071783 490.82344,131.812235 490.612241,131.313104 L490.586099,131.251143 C490.363206,130.724474 490.597794,130.116567 491.115816,129.876296 L505.868071,123.046122 C506.375773,122.811359 506.613113,122.220663 506.409482,121.699502 L505.787582,120.104349 C505.570191,119.549453 504.937972,119.282332 504.388993,119.514342 L489.572071,125.775851 C489.098078,126.004419 488.528461,125.792374 488.320014,125.308389 C488.133582,124.876727 488.300752,124.373466 488.706638,124.139391 L497.878298,118.558765 C498.38944,118.248271 498.541475,117.57565 498.21539,117.075142 L497.241262,115.579815 C496.95439,115.138515 496.387525,114.976039 495.910092,115.196345 L473.746624,125.463292 C473.063496,125.779982 472.277865,125.300816 472.244844,124.547645 L471.792865,114.049377 C471.76466,113.406359 471.173716,112.936143 470.541496,113.053869 L467.535184,113.612896 C467.066007,113.70033 466.71378,114.089996 466.673191,114.565031 L465.676362,125.099787 C465.326199,128.794043 462.736092,131.895538 459.165667,132.895177 C232.775234,196.256554 153.889468,88.0429444 136.292567,66.5500306 C134.514922,64.3786398 133.985206,61.445128 134.901546,58.7911293 L138.330943,48.8456912 C138.584106,48.472548 138.513248,47.9679096 138.165837,47.6801349 L135.522071,45.4880904 C135.162277,45.1906773 134.63256,45.2271655 134.31817,45.5720821 L128.573844,56.7980487 C128.227809,57.1780765 127.630674,57.1794534 127.283262,56.8008025 L112.46634,37.9102531 C112.171213,37.5887441 111.684149,37.5343561 111.325043,37.7822003 L109.764787,38.862388 C109.352709,39.1480974 109.263965,39.7215814 109.571475,40.1188206 L115.315113,49.5279513 C115.586163,49.879064 115.553142,50.3781947 115.236,50.6893769 C114.881021,51.0377357 114.307277,51.0198359 113.974312,50.6501349 L102.105915,37.7794465 C101.790149,37.4290223 101.254241,37.3925341 100.893759,37.6947663 L99.1291844,39.1763241 C98.7687021,39.4792448 98.7116028,40.0114214 98.9991631,40.3824993 L110.140404,54.7843143 C110.410766,55.1333616 110.378433,55.6297385 110.065418,55.9409207 L109.87417,56.1309346 C109.528135,56.4758512 108.965397,56.4696551 108.626929,56.1171655 L99.2206809,47.1273046 C98.8588227,46.7493421 98.2479291,46.7734381 97.9156525,47.1775619 L96.563156,48.8222837 C96.2934823,49.1499889 96.2976099,49.6243352 96.5741631,49.9472211 L105.150752,59.1635841 C105.443816,59.5057469 105.428681,60.0152045 105.115667,60.3394673 L104.969135,60.4909277 C104.627915,60.8454826 104.06105,60.8482364 103.71639,60.4971238 L98.1220355,57.2186954 C97.7649929,56.8565675 97.1768014,56.8730904 96.8410851,57.255872 L95.5904043,58.6809764 C95.2973404,59.0155661 95.3007801,59.5160737 95.5993475,59.8458442 L108.480397,71.3217204 C109.572163,72.294509 110.74717,73.1688484 111.99166,73.9357886 C112.330128,74.1437024 112.687858,74.3192587 113.055908,74.4714075 L118.190716,76.5952949 C118.190716,76.5952949 148.104553,117.118515 214.984333,153.198438" id="Stroke-13" stroke="#0D0C33" stroke-width="1.5" stroke-linecap="round" stroke-linejoin="round"></path>
                <path d="M265.195248,172.289328 C260.61217,170.255629 238.776163,160.124996 232.036383,139.19937 C227.088695,138.287166 221.675957,133.085191 221.596156,126.977896 C221.49778,119.501261 230.511901,125.198925 230.511901,125.198925 C230.511901,125.198925 228.374461,97.4768595 255.246213,96.8600028 C293.669908,95.9794673 297.64278,140.904676 272.540418,171.019127 C270.79717,173.111345 267.738574,173.418396 265.195248,172.289328" id="Fill-15" fill="#FECFE4"></path>
                <path d="M266.481771,155.914949 C266.70604,155.903933 266.953012,155.881214 267.21787,155.840595 C268.154161,155.698085 268.807707,154.829253 268.70314,153.887445 C268.458232,151.663043 267.604494,147.309935 264.648402,142.752355 L265.032274,154.575213 C265.05704,155.349038 265.708523,155.952814 266.481771,155.914949" id="Fill-17" fill="#0051FF"></path>
                <path d="M254.62617,146.923986 C254.899971,148.344271 255.697985,149.385217 256.407943,149.248214 C257.117212,149.111211 257.470815,147.848583 257.196326,146.426921 C256.923212,145.006636 256.125198,143.96569 255.41524,144.102693 C254.705283,144.240384 254.352368,145.503013 254.62617,146.923986" id="Fill-19" fill="#231F20"></path>
                <path d="M272.459585,142.884745 C272.733387,144.30503 273.531401,145.345976 274.241358,145.208973 C274.950628,145.07197 275.30423,143.809341 275.029741,142.387679 C274.75594,140.967394 273.958613,139.926449 273.247968,140.063451 C272.538699,140.201143 272.185784,141.463771 272.459585,142.884745" id="Fill-21" fill="#231F20"></path>
                <path d="M272.32523,158.330604 C272.32523,158.330604 268.89996,162.493698 261.889818,160.921264" id="Stroke-23" stroke="#0D0C33" stroke-width="1.553" stroke-linecap="round" stroke-linejoin="round"></path>
                <path d="M288.236601,148.148956 L274.480487,152.019457 C272.612721,152.545437 270.674097,151.4563 270.148509,149.58783 L265.927977,134.566404 C265.403764,132.698622 266.491402,130.757864 268.35848,130.232572 L282.115282,126.361383 C283.981672,125.836091 285.920984,126.925229 286.445884,128.793699 L290.666416,143.814436 C291.191317,145.682906 290.103679,147.623664 288.236601,148.148956 Z" id="Stroke-25" stroke="#FFFFFF" stroke-width="1.695" stroke-linecap="round" stroke-linejoin="round"></path>
                <path d="M259.097801,155.43895 L245.341687,159.310139 C243.474609,159.835431 241.535297,158.746982 241.010396,156.877823 L236.789177,141.857086 C236.264964,139.988616 237.35329,138.047858 239.21968,137.522566 L252.976482,133.651377 C254.842872,133.126773 256.782184,134.215223 257.307084,136.083693 L261.527616,151.10443 C262.052517,152.9729 260.964879,154.913658 259.097801,155.43895 Z" id="Stroke-27" stroke="#FFFFFF" stroke-width="1.695" stroke-linecap="round" stroke-linejoin="round"></path>
                <path d="M283.082392,318.607748 C283.082392,318.607748 192.037917,296.243937 174.66047,230.021337 C157.284399,163.799424 228.86352,327.332554 173.98491,251.141107 C128.047499,187.362526 141.893045,177.857011 154.259513,198.308979 C166.626669,218.760947 197.061967,303.60973 144.170825,230.159716 C88.0140163,152.176218 99.0830234,140.723061 120.863995,174.237108 C162.62903,238.499675 133.496697,280.004633 88.8877043,185.751538 C44.2787113,91.4991321 61.0590234,234.393722 0.515888652,157.236371" id="Stroke-29" stroke="#99B9FF" stroke-width="1.5" stroke-linecap="round" stroke-linejoin="round"></path>
                <path d="M459.19456,416.658987 C459.19456,416.658987 664.726553,542.785538 508.45405,394.470044 C508.45405,394.470044 678.118057,337.744008 500.781418,342.115704 C500.781418,342.115704 621.938546,269.894585 438.75095,276.262805 C438.75095,276.262805 543.737972,235.293465 414.573184,235.623236 C334.969206,235.827019 379.319532,198.239376 379.319532,198.239376 C379.319532,198.239376 299.883411,-103.494449 140.11134,39.9157949" id="Stroke-31" stroke="#99B9FF" stroke-width="1.5" stroke-linecap="round" stroke-linejoin="round"></path>
                <path d="M193.006885,379.862243 C175.159573,371.242083 167.67475,349.773953 176.289176,331.913334 C184.904289,314.052027 206.355736,306.561624 224.203736,315.183161 L448.442282,426.411519 C466.289594,435.032368 473.774417,456.499809 465.160679,474.361116 C456.545566,492.221735 435.093431,499.712138 417.246119,491.090602 L193.006885,379.862243 Z" id="Fill-33" fill="#836BFF"></path>
                <path d="M226.620687,100.857248 L228.533857,101.36051 C225.868765,72.7909548 280.181198,83.7470466 280.181198,83.7470466 C280.181198,83.7470466 279.714772,87.7958574 274.712737,90.4959826 C298.291304,95.2477072 302.720283,76.0707601 302.720283,76.0707601 C302.720283,76.0707601 328.205829,95.6187851 309.921673,123.065468 C282.963928,163.532234 233.059836,123.694717 233.059836,123.694717" id="Fill-35" fill="#13124D"></path>
                <path d="M229.634498,98.6930862 C229.634498,98.6930862 213.551072,97.8421544 230.286668,125.372829 C230.286668,125.372829 233.265462,126.664373 234.808519,121.173935 L229.634498,98.6930862 Z" id="Fill-37" fill="#13124D"></path>
                <path d="M436.120943,428.602738 C436.120943,428.602738 424.862752,191.580353 228.506546,192.8478 C187.361348,193.112856 193.161397,254.844657 247.205532,338.810151" id="Stroke-39" stroke="#0D0C33" stroke-width="1.5" stroke-linecap="round" stroke-linejoin="round"></path>
                <path d="M383.924555,450.541909 C382.928413,453.484371 384.775541,457.100143 388.437463,457.366575 L443.837534,461.393355 C447.513903,461.660476 450.52503,458.851575 450.772002,455.401033 L383.924555,450.541909 Z" id="Fill-41" fill="#FFFFFF"></path>
                <path d="M450.633588,453.522993 L441.245914,415.523654 C440.943907,414.157757 439.781283,413.151922 438.386822,413.051408 L416.958765,411.189822 C414.867418,411.036985 413.209474,412.926797 413.631184,414.983216 L415.700517,425.593014 C416.032106,427.208821 415.339347,428.863869 413.956581,429.761616 L386.008886,447.903814 C384.946701,448.592958 384.267701,449.527193 383.924418,450.541978 L450.771865,455.401102 C450.815893,454.790441 450.774616,454.160503 450.633588,453.522993" id="Fill-43" fill="#00E4A3"></path>
                <line x1="329.030191" y1="378.545157" x2="301.690638" y2="386.090637" id="Stroke-45" stroke="#FFFFFF" stroke-width="1.5" stroke-linecap="round" stroke-linejoin="round"></line>
                <line x1="314.616267" y1="396.287706" x2="309.843316" y2="374.430599" id="Stroke-47" stroke="#FFFFFF" stroke-width="1.5" stroke-linecap="round" stroke-linejoin="round"></line>
                <line x1="303.289418" y1="380.20172" x2="323.329894" y2="387.490406" id="Stroke-49" stroke="#FFFFFF" stroke-width="1.5" stroke-linecap="round" stroke-linejoin="round"></line>
                <line x1="317.568919" y1="374.938129" x2="303.849955" y2="394.708525" id="Stroke-51" stroke="#FFFFFF" stroke-width="1.5" stroke-linecap="round" stroke-linejoin="round"></line>
                <line x1="245.95093" y1="356.971694" x2="216.208391" y2="380.37232" id="Stroke-53" stroke="#FFFFFF" stroke-width="1.5" stroke-linecap="round" stroke-linejoin="round"></line>
                <line x1="224.358661" y1="359.340328" x2="237.054654" y2="378.693519" id="Stroke-55" stroke="#FFFFFF" stroke-width="1.5" stroke-linecap="round" stroke-linejoin="round"></line>
                <line x1="241.215266" y1="370.144477" x2="221.46923" y2="368.032982" id="Stroke-57" stroke="#FFFFFF" stroke-width="1.5" stroke-linecap="round" stroke-linejoin="round"></line>
                <line x1="232.066446" y1="361.731061" x2="229.391723" y2="375.837528" id="Stroke-59" stroke="#FFFFFF" stroke-width="1.5" stroke-linecap="round" stroke-linejoin="round"></line>
                <line x1="383.870139" y1="426.624115" x2="338.919238" y2="436.760944" id="Stroke-61" stroke="#FFFFFF" stroke-width="1.5" stroke-linecap="round" stroke-linejoin="round"></line>
                <line x1="357.000038" y1="419.691154" x2="363.096591" y2="440.848102" id="Stroke-63" stroke="#FFFFFF" stroke-width="1.5" stroke-linecap="round" stroke-linejoin="round"></line>
                <line x1="367.256722" y1="422.690345" x2="354.255282" y2="439.879031" id="Stroke-65" stroke="#FFFFFF" stroke-width="1.5" stroke-linecap="round" stroke-linejoin="round"></line>
                <line x1="350.875073" y1="428.760739" x2="374.069768" y2="436.421879" id="Stroke-67" stroke="#FFFFFF" stroke-width="1.5" stroke-linecap="round" stroke-linejoin="round"></line>
                <path d="M189.038416,352.494732 C188.042962,355.436506 189.889401,359.052966 193.552011,359.319398 L248.951394,363.346179 C252.628451,363.6133 255.638891,360.80371 255.885862,357.353856 L189.038416,352.494732 Z" id="Fill-69" fill="#FFFFFF"></path>
                <path d="M255.747448,355.475816 L246.359774,317.476477 C246.057767,316.109892 244.895831,315.104745 243.500682,315.003542 L222.073313,313.141957 C219.981278,312.989808 218.324023,314.87962 218.745044,316.936039 L220.814377,327.545837 C221.145966,329.161644 220.453895,330.816693 219.070441,331.714439 L191.122746,349.856637 C190.06125,350.545782 189.381562,351.480017 189.038278,352.494801 L255.885725,357.353925 C255.930441,356.743264 255.888477,356.112638 255.747448,355.475816" id="Fill-71" fill="#00E4A3"></path>
                <path d="M524.176993,280.549064 C524.176993,287.209189 518.782142,292.608063 512.126979,292.608063 C505.472504,292.608063 500.076965,287.209189 500.076965,280.549064 C500.076965,273.888939 505.472504,268.489377 512.126979,268.489377 C518.782142,268.489377 524.176993,273.888939 524.176993,280.549064 Z" id="Stroke-73" stroke="#6446FF" stroke-width="1.5" stroke-linecap="round" stroke-linejoin="round"></path>
                <polygon id="Stroke-75" stroke="#00E4A3" stroke-width="1.5" stroke-linecap="round" stroke-linejoin="round" points="156.500213 0.516135605 114.091262 5.79728303 139.865057 39.9116641"></polygon>
                <path d="M408.037517,440.717295 C409.58195,439.676349 413.725432,445.830459 415.269177,444.789513 C416.813609,443.747879 412.670127,437.594458 414.21456,436.552823 C415.758992,435.511878 419.901099,441.665987 421.445531,440.625042 C422.989276,439.584096 418.846482,433.429986 420.390226,432.38904 C421.933971,431.348783 426.077453,437.502204 427.621198,436.461259 C429.166318,435.419624 425.022836,429.265515 426.568645,428.22388 C428.115141,427.180869 432.257935,433.334979 433.804432,432.292656 C435.350928,431.249645 431.208134,425.096224 432.75463,424.053213" id="Stroke-77" stroke="#FFFFFF" stroke-width="1.5" stroke-linecap="round" stroke-linejoin="round"></path>
                <path d="M211.06003,343.181779 C212.604462,342.140833 216.747945,348.294943 218.291689,347.253997 C219.836122,346.212363 215.69264,340.058942 217.237072,339.017307 C218.781505,337.976362 222.924299,344.130471 224.468044,343.089526 C226.011789,342.04858 221.868994,335.89447 223.412739,334.853524 C224.956484,333.813267 229.099966,339.966688 230.643711,338.925743 C232.188831,337.884108 228.045349,331.729999 229.591157,330.688364 C231.137654,329.645353 235.280448,335.799463 236.826945,334.75714 C238.373441,333.714129 234.230647,327.560708 235.777143,326.517697" id="Stroke-79" stroke="#FFFFFF" stroke-width="1.5" stroke-linecap="round" stroke-linejoin="round"></path>
            </g>
        </g>
    </g>
</svg>