<?xml version="1.0" encoding="UTF-8"?>
<svg width="680px" height="442px" viewBox="0 0 680 442" version="1.1" xmlns="http://www.w3.org/2000/svg" xmlns:xlink="http://www.w3.org/1999/xlink">
    <title>Ilustracion-Bicicleta</title>
    <defs>
        <polygon id="path-1" points="0.0225081692 0.837035294 249.64098 0.837035294 249.64098 176.561786 0.0225081692 176.561786"></polygon>
    </defs>
    <g id="Page-1" stroke="none" stroke-width="1" fill="none" fill-rule="evenodd">
        <g id="Nosotros" transform="translate(-607.000000, -191.000000)">
            <g id="Group-118" transform="translate(607.000000, 191.000000)">
                <path d="M309.043649,82.6873271 C306.892911,82.6873271 287.47744,133.563162 224.675201,189.884915" id="Stroke-1" stroke="#231F20" stroke-linecap="round" stroke-linejoin="round"></path>
                <path d="M188.751043,190.545896 C188.751043,190.545896 198.400814,177.840773 202.303461,191.039644 C205.02173,200.233196 197.986412,202.153708 198.907786,193.059596 C199.973639,182.533532 208.402697,179.517438 213.287277,188.009714 C215.464835,191.795396 217.553282,198.627438 214.467328,198.795191 C212.290636,198.91452 210.904682,194.718967 211.440204,190.652255 C212.472316,182.817155 221.98626,181.453514 224.489109,190.136891" id="Stroke-3" stroke="#231F20" stroke-linecap="round" stroke-linejoin="round"></path>
                <path d="M262.120967,172.328014 C263.810585,174.317702 264.532977,176.041061 263.906616,177.070925 C262.577761,179.259496 255.67827,177.49809 248.495013,173.138243 C241.312621,168.778396 236.567328,163.470831 237.897048,161.28399 C238.89369,159.642778 243.023868,160.223861 248.057252,162.455666" id="Stroke-5" stroke="#00E4A3" stroke-linecap="round" stroke-linejoin="round"></path>
                <path d="M261.113598,174.329289 C266.339043,176.462518 269.62398,179.051448 269.167186,181.068806 C268.500163,184.007942 260.13426,184.618424 250.481028,182.432448 C240.827796,180.246471 233.542453,176.090695 234.208611,173.150695 C234.66627,171.13593 238.741079,170.214154 244.369679,170.539283" id="Stroke-7" stroke="#00E4A3" stroke-linecap="round" stroke-linejoin="round"></path>
                <g id="Group-11" transform="translate(243.969466, 0.027671)">
                    <mask id="mask-2" fill="white">
                        <use xlink:href="#path-1"></use>
                    </mask>
                    <g id="Clip-10"></g>
                    <path d="M225.859059,82.32441 C208.037176,86.8476865 215.369237,61.9121629 199.764707,51.0073571 C173.523282,32.6729982 185.895649,82.0027394 148.127099,32.2812865 C131.688575,10.6394276 115.075293,52.0899688 87.9557506,21.2657982 C46.268117,-26.1157606 -11.5993639,21.4188512 7.75035623,38.8504571 C30.040687,58.9297924 -0.917480916,51.3489159 0.0445547074,73.2026276 C0.880279898,92.1716806 43.8016031,93.5379159 35.1553944,109.790063 C-6.73208651,188.521534 144.920025,143.753116 129.228117,171.201475 C128.230611,172.945586 127.326539,174.752822 126.608473,176.561786 L151.31687,172.044563 L151.775394,170.718104 C155.61056,158.136634 167.315038,148.981992 181.158142,148.981992 C192.943944,148.981992 203.174224,155.622069 208.322672,165.358657 C211.084198,163.961292 214.635598,162.884734 219.380891,162.266469 C264.241858,156.426245 214.347506,108.667675 242.853868,115.448698 C260.023435,119.532704 240.985165,78.4842512 225.859059,82.32441" id="Fill-9" fill="#0D0C33" mask="url(#mask-2)"></path>
                </g>
                <path d="M287.52312,34.4791959 C279.520575,36.1022488 274.192178,34.9513253 270.637318,32.7930194 C265.071873,44.9049547 269.433908,63.2133724 282.08485,76.6725194 C283.493298,78.17019 285.811873,78.2653076 287.67971,77.3011606 C291.043374,75.5674253 307.054519,66.9679253 311.205461,50.9129312 C313.42714,50.3664371 315.701593,48.6352959 317.117827,46.3429606 C310.27284,39.2437253 299.914519,31.9672253 287.52312,34.4791959" id="Fill-12" fill="#FECFE4"></path>
                <path d="M382.39255,348.956815 C382.39255,363.871262 370.296163,375.960715 355.374229,375.960715 C340.452295,375.960715 328.355908,363.871262 328.355908,348.956815 C328.355908,334.042368 340.452295,321.952915 355.374229,321.952915 C370.296163,321.952915 382.39255,334.042368 382.39255,348.956815" id="Fill-14" fill="#FECFE4"></path>
                <path d="M317.207369,186.348182 C302.404824,189.054711 295.259634,206.06607 303.692153,218.522158 L353.718005,292.421652 L395.286249,172.071888 L395.286249,172.071888 L370.577852,176.589976 L317.207369,186.348182 Z" id="Fill-16" fill="#5038CC"></path>
                <path d="M455.839211,179.706722 C455.839211,174.534051 454.553613,169.663163 452.292137,165.386328 C447.14369,155.649739 436.91341,149.009663 425.127608,149.009663 C411.284504,149.009663 399.580025,158.164304 395.74486,170.745775 L386.901399,196.331557 L329.1957,363.286375 L351.14257,363.286375 L451.519567,195.414104 C454.262926,190.819922 455.839211,185.447504 455.839211,179.706722" id="Fill-18" fill="#6446FF"></path>
                <path d="M512.560901,299.188927 C512.560901,305.502145 507.441003,310.620339 501.124616,310.620339 C494.808229,310.620339 489.687466,305.502145 489.687466,299.188927 C489.687466,292.875709 494.808229,287.75838 501.124616,287.75838 C507.441003,287.75838 512.560901,292.875709 512.560901,299.188927 Z" id="Stroke-20" stroke="#6446FF" stroke-linecap="round" stroke-linejoin="round"></path>
                <polygon id="Fill-22" fill="#FFDB7A" points="567.284117 344.52096 516.934702 304.547336 556.927527 254.223184 607.277807 294.196807"></polygon>
                <path d="M276.218682,356.41914 C280.478631,356.716599 470.534305,358.871446 481.654814,295.651934 C487.224585,263.986405 352.665043,390.701269 446.157257,355.406569 C536.686366,321.230799 551.72769,259.872134 537.462397,267.109722 C523.197969,274.348175 409.439852,383.927164 536.105858,334.630281 C662.771863,285.333399 699.051506,194.534958 669.827079,202.573264 C639.36031,210.952264 426.971913,412.679499 660.350336,324.335093" id="Stroke-24" stroke="#FF4C62" stroke-linecap="round" stroke-linejoin="round"></path>
                <path d="M0.432569975,419.594206 C0.432569975,419.594206 96.6196947,424.963165 145.629008,389.707376 C165.603359,375.337694 77.958626,406.961718 85.2431043,423.555424 C92.5284478,440.149129 174.650992,397.236371 181.34112,383.682971 C188.030382,370.129571 90.5022901,433.881741 142.883919,426.491965 C195.266412,419.101324 233.73313,366.912 231.257964,382.115259 C220.361527,449.029659 269.368244,457.002247 280.264682,390.087847" id="Stroke-26" stroke="#FF4C62" stroke-linecap="round" stroke-linejoin="round"></path>
                <path d="M389.987181,341.895626 C389.987181,287.385432 434.198427,243.196368 488.735985,243.196368 C543.273542,243.196368 587.485654,287.385432 587.485654,341.895626 C587.485654,396.405821 543.273542,440.59575 488.735985,440.59575 C434.198427,440.59575 389.987181,396.405821 389.987181,341.895626 Z" id="Stroke-28" stroke="#6D6E71" stroke-linecap="round" stroke-linejoin="round"></path>
                <path d="M124.923873,341.895626 C124.923873,287.385432 169.13512,243.196368 223.672677,243.196368 C278.210234,243.196368 322.422346,287.385432 322.422346,341.895626 C322.422346,396.405821 278.210234,440.59575 223.672677,440.59575 C169.13512,440.59575 124.923873,396.405821 124.923873,341.895626 Z" id="Stroke-30" stroke="#6D6E71" stroke-linecap="round" stroke-linejoin="round"></path>
                <path d="M200.878835,341.895626 C200.878835,329.313291 211.084025,319.113221 223.672677,319.113221 C236.261328,319.113221 246.466519,329.313291 246.466519,341.895626 C246.466519,354.478826 236.261328,364.678897 223.672677,364.678897 C211.084025,364.678897 200.878835,354.478826 200.878835,341.895626" id="Fill-32" fill="#00E4A3"></path>
                <path d="M318.240433,56.5418206 C319.39972,58.9820206 319.541603,61.3392088 318.557939,61.8052853 C317.574275,62.2722265 315.837074,60.6716559 314.678651,58.2314559 C313.519364,55.7921206 313.377481,53.4349324 314.361145,52.9679912 C315.344809,52.5019147 317.081145,54.1016206 318.240433,56.5418206 Z" id="Stroke-34" stroke="#FFFFFF" stroke-linecap="round" stroke-linejoin="round"></path>
                <path d="M312.268458,47.4632735 C312.268458,47.4632735 312.723522,44.1575029 315.676244,43.0022559" id="Stroke-36" stroke="#0D0C33" stroke-linecap="round" stroke-linejoin="round"></path>
                <path d="M389.987181,341.895626 C389.987181,287.385432 434.198427,243.196368 488.735985,243.196368 C543.273542,243.196368 587.485654,287.385432 587.485654,341.895626 C587.485654,396.405821 543.273542,440.59575 488.735985,440.59575 C434.198427,440.59575 389.987181,396.405821 389.987181,341.895626 Z" id="Stroke-38" stroke="#231F20" stroke-linecap="round" stroke-linejoin="round"></path>
                <path d="M124.923873,341.895626 C124.923873,287.385432 169.13512,243.196368 223.672677,243.196368 C278.210234,243.196368 322.422346,287.385432 322.422346,341.895626 C322.422346,396.405821 278.210234,440.59575 223.672677,440.59575 C169.13512,440.59575 124.923873,396.405821 124.923873,341.895626 Z" id="Stroke-40" stroke="#231F20" stroke-linecap="round" stroke-linejoin="round"></path>
                <path d="M361.126372,322.324911 C361.126372,322.324911 376.861537,223.738064 442.665812,144.569917" id="Stroke-42" stroke="#FFFFFF" stroke-linecap="round" stroke-linejoin="round"></path>
                <path d="M333.73656,403.163065 L285.267094,403.163065 C283.328316,403.163065 281.756356,401.591894 281.756356,399.653224 L281.756356,395.956606 L339.387654,395.956606 L336.906433,401.163 C336.324193,402.384829 335.090504,403.163065 333.73656,403.163065" id="Fill-44" fill="#E2EEF0"></path>
                <path d="M351.490183,363.286115 L351.142397,363.286115 L329.195527,363.286115 L325.975476,363.286115 C324.425145,363.286115 323.103211,364.408504 322.851455,365.936439 L321.938733,371.47488 C321.767435,372.515121 321.136748,373.423062 320.22143,373.946209 L315.623211,376.577509 L318.412422,381.498551 C318.754153,382.099521 318.542193,382.863921 317.940056,383.204615 L316.690794,383.912809 C316.088656,384.253504 315.323873,384.042515 314.983008,383.44068 L312.201583,378.535204 L310.146875,379.711204 L312.919649,384.601115 C313.260514,385.202951 313.048555,385.966486 312.447282,386.308045 L311.197155,387.015374 C310.595018,387.356933 309.831099,387.145945 309.489369,386.543245 L306.726112,381.668898 L304.670539,382.844033 L307.42601,387.704545 C307.766875,388.30638 307.555781,389.069915 306.953644,389.411474 L305.704382,390.118804 C305.102244,390.460362 304.337461,390.249374 303.996595,389.646674 L301.249776,384.802592 L281.756443,395.956433 L330.125552,395.956433 L331.607537,395.956433 L339.38774,395.956433 L354.286316,367.936504 C355.406672,365.828351 353.878835,363.286115 351.490183,363.286115" id="Fill-46" fill="#FF4C62"></path>
                <path d="M316.690707,383.912377 L317.939969,383.205048 C318.542107,382.863489 318.754066,382.099089 318.412336,381.498118 L315.623125,376.577942 L314.703481,374.955754 C314.362616,374.353054 313.597832,374.142065 312.995695,374.483624 L311.746433,375.190954 C311.144295,375.532512 310.932336,376.296048 311.274066,376.897883 L312.202361,378.534771 L314.982921,383.440248 C315.323786,384.042083 316.08857,384.253936 316.690707,383.912377" id="Fill-48" fill="#E2EEF0"></path>
                <path d="M311.197415,387.01572 L312.446677,386.308391 C313.048814,385.966832 313.260774,385.202432 312.919043,384.601461 L310.147135,379.711549 L309.210188,378.059096 C308.869323,377.456396 308.104539,377.245408 307.502402,377.586967 L306.25314,378.294296 C305.651003,378.635855 305.439043,379.399391 305.780774,380.001226 L306.726372,381.668379 L309.489628,386.543591 C309.830494,387.145426 310.595277,387.357279 311.197415,387.01572" id="Fill-50" fill="#E2EEF0"></path>
                <path d="M305.704122,390.118976 L306.953384,389.411647 C307.555522,389.070088 307.767481,388.305688 307.425751,387.704718 L304.671145,382.844206 L303.716896,381.162353 C303.376031,380.559653 302.611247,380.348665 302.009109,380.690224 L300.759847,381.397553 C300.15771,381.739112 299.945751,382.502647 300.287481,383.104482 L301.250382,384.802765 L303.996336,389.646847 C304.337201,390.248682 305.101985,390.460535 305.704122,390.118976" id="Fill-52" fill="#E2EEF0"></path>
                <polygon id="Stroke-54" stroke="#00E4A3" stroke-linecap="round" stroke-linejoin="round" points="464.78744 306.048293 421.769221 313.193358 449.468407 346.857222"></polygon>
                <path d="M544.25288,321.624845 C544.25288,323.848004 542.449929,325.650051 540.224789,325.650051 C538.000514,325.650051 536.197562,323.848004 536.197562,321.624845 C536.197562,319.401686 538.000514,317.599639 540.224789,317.599639 C542.449929,317.599639 544.25288,319.401686 544.25288,321.624845" id="Fill-56" fill="#6446FF"></path>
                <path d="M254.890127,321.333526 C254.890127,323.556685 253.087176,325.358732 250.862036,325.358732 C248.637761,325.358732 246.834809,323.556685 246.834809,321.333526 C246.834809,319.110367 248.637761,317.30832 250.862036,317.30832 C253.087176,317.30832 254.890127,319.110367 254.890127,321.333526" id="Fill-58" fill="#FFFFFF"></path>
                <path d="M386.061954,348.212822 C386.061954,350.435981 384.259003,352.238028 382.033863,352.238028 C379.809588,352.238028 378.006636,350.435981 378.006636,348.212822 C378.006636,345.989663 379.809588,344.186751 382.033863,344.186751 C384.259003,344.186751 386.061954,345.989663 386.061954,348.212822" id="Fill-60" fill="#6446FF"></path>
                <line x1="279.397639" y1="213.771378" x2="224.444814" y2="339.056019" id="Stroke-62" stroke="#00E4A3" stroke-linecap="round" stroke-linejoin="round"></line>
                <path d="M281.744504,57.8464888 C281.325776,57.9891653 280.790254,58.1318418 280.151781,58.2243653 C278.946641,58.3999006 277.818499,57.5767006 277.592697,56.3799476 C277.058041,53.5489006 276.471476,47.8660535 278.400738,41.1395065 L282.52659,56.3894594 C282.693562,57.0068594 282.350102,57.6415535 281.744504,57.8464888" id="Fill-64" fill="#6446FF"></path>
                <path d="M274.413481,61.5991394 C274.413481,61.5991394 281.035262,65.8465747 290.073379,60.5303629" id="Stroke-66" stroke="#0D0C33" stroke-linecap="round" stroke-linejoin="round"></path>
                <path d="M301.886173,43.4048629 C301.886173,50.0008394 297.287954,55.3490453 291.615232,55.3490453 C285.942509,55.3490453 281.343425,50.0008394 281.343425,43.4048629 C281.343425,36.8080218 285.942509,31.4606806 291.615232,31.4606806 C297.287954,31.4606806 301.886173,36.8080218 301.886173,43.4048629 Z" id="Stroke-68" stroke="#FFFFFF" stroke-linecap="round" stroke-linejoin="round"></path>
                <path d="M275.896677,43.4859724 C275.896677,49.7066665 273.213013,54.7496312 269.902987,54.7496312 C266.592962,54.7496312 263.910163,49.7066665 263.910163,43.4859724 C263.910163,37.2652782 266.592962,32.2223135 269.902987,32.2223135 C273.213013,32.2223135 275.896677,37.2652782 275.896677,43.4859724 Z" id="Stroke-70" stroke="#FFFFFF" stroke-linecap="round" stroke-linejoin="round"></path>
                <path d="M288.932087,45.8444576 C288.932087,47.0299694 288.451069,47.9915224 287.857583,47.9915224 C287.264097,47.9915224 286.783079,47.0299694 286.783079,45.8444576 C286.783079,44.6580812 287.264097,43.6965282 287.857583,43.6965282 C288.451069,43.6965282 288.932087,44.6580812 288.932087,45.8444576" id="Fill-72" fill="#0D0C33"></path>
                <path d="M274.249969,46.0825976 C274.249969,47.2689741 273.768952,48.2296624 273.175466,48.2296624 C272.58198,48.2296624 272.100962,47.2689741 272.100962,46.0825976 C272.100962,44.8970859 272.58198,43.9355329 273.175466,43.9355329 C273.768952,43.9355329 274.249969,44.8970859 274.249969,46.0825976" id="Fill-74" fill="#0D0C33"></path>
                <polyline id="Stroke-76" stroke="#FFDB7A" stroke-linecap="round" stroke-linejoin="round" points="348.225145 97.0462006 332.34031 103.502095 345.531964 104.373718 331.78143 114.621348 340.964025 113.342448 322.238071 136.854665"></polyline>
                <path d="M296.475242,189.641501 C296.475242,189.641501 345.118601,121.835589 361.459364,93.4282712 C376.072443,68.0232124 356.496056,20.49033 289.321399,185.513395 L271.114529,185.781454 C271.114529,185.781454 259.070051,186.211212 262.941552,200.399306 C262.941552,200.399306 263.559262,202.993424 265.796514,202.124395" id="Stroke-78" stroke="#6446FF" stroke-linecap="round" stroke-linejoin="round"></path>
                <path d="M268.579842,191.60568 C264.375262,195.190751 268.341064,203.117509 268.341064,203.117509 C268.341064,203.117509 269.326458,205.410709 271.169206,204.363551" id="Stroke-80" stroke="#6446FF" stroke-linecap="round" stroke-linejoin="round"></path>
                <path d="M272.726285,193.929577 C269.596209,199.484448 274.619211,204.702948 274.619211,204.702948 C274.619211,204.702948 276.320941,206.927836 277.97855,205.064395" id="Stroke-82" stroke="#6446FF" stroke-linecap="round" stroke-linejoin="round"></path>
                <path d="M278.002081,195.340604 C274.751751,201.399598 279.97287,202.456269 279.97287,202.456269 C279.97287,202.456269 281.749003,202.911104 281.956636,201.12981" id="Stroke-84" stroke="#6446FF" stroke-linecap="round" stroke-linejoin="round"></path>
                <path d="M355.06745,79.8829994 C355.06745,79.8829994 356.902412,76.1422818 359.446789,77.7990582 C363.993964,80.7589465 353.857985,88.1383465 353.857985,88.1383465 C353.857985,88.1383465 346.177272,78.5046582 351.772132,77.1730112 C354.400427,76.5486935 355.06745,79.0450994 355.06745,79.8829994 Z" id="Stroke-86" stroke="#FF4C62" stroke-linecap="round" stroke-linejoin="round"></path>
                <line x1="351.376504" y1="84.4420747" x2="346.052433" y2="87.6250571" id="Stroke-88" stroke="#FF4C62" stroke-linecap="round" stroke-linejoin="round"></line>
                <line x1="355.525888" y1="82.6265382" x2="370.493674" y2="73.3836971" id="Stroke-90" stroke="#FF4C62" stroke-linecap="round" stroke-linejoin="round"></line>
                <path d="M363.915842,77.4687406 C363.915842,77.4687406 364.507598,71.8490171 374.348565,66.6495406 L372.661542,71.70807 L375.981949,72.8780171 C375.981949,72.8780171 371.127649,79.0105112 363.915842,77.4687406 Z" id="Stroke-92" stroke="#FF4C62" stroke-linecap="round" stroke-linejoin="round"></path>
                <polygon id="Stroke-94" stroke="#FF4C62" stroke-linecap="round" stroke-linejoin="round" points="345.831562 85.8151412 343.435125 89.0206059 347.395735 89.3578412 346.046982 87.6362118"></polygon>
                <line x1="534.254718" y1="330.361401" x2="502.523115" y2="367.413184" id="Stroke-96" stroke="#00E4A3" stroke-linecap="round" stroke-linejoin="round"></line>
                <line x1="503.708962" y1="334.808238" x2="530.99288" y2="361.485279" id="Stroke-98" stroke="#00E4A3" stroke-linecap="round" stroke-linejoin="round"></line>
                <line x1="517.054265" y1="333.32544" x2="519.130601" y2="362.077775" id="Stroke-100" stroke="#00E4A3" stroke-linecap="round" stroke-linejoin="round"></line>
                <line x1="505.191812" y1="350.813771" x2="528.916545" y2="345.775129" id="Stroke-102" stroke="#00E4A3" stroke-linecap="round" stroke-linejoin="round"></line>
                <line x1="393.337262" y1="70.8559024" x2="398.153496" y2="94.4070318" id="Stroke-104" stroke="#FFFFFF" stroke-linecap="round" stroke-linejoin="round"></line>
                <line x1="405.32914" y1="80.1059206" x2="380.88115" y2="85.8475676" id="Stroke-106" stroke="#FFFFFF" stroke-linecap="round" stroke-linejoin="round"></line>
                <line x1="401.834148" y1="72.4662441" x2="388.453028" y2="94.1262618" id="Stroke-108" stroke="#FFFFFF" stroke-linecap="round" stroke-linejoin="round"></line>
                <line x1="406.76285" y1="90.5592635" x2="384.795216" y2="74.2854988" id="Stroke-110" stroke="#FFFFFF" stroke-linecap="round" stroke-linejoin="round"></line>
                <path d="M405.145557,102.030106 C405.145557,102.030106 400.546473,118.980071 389.599858,109.892876 C381.975379,103.563229 388.966575,97.5889765 392.433191,106.058771 C396.444845,115.862806 388.423267,123.6417 378.699959,119.2464 C374.366473,117.288706 368.622809,112.627076 372.022809,110.592424 C374.421842,109.157876 378.065812,111.956929 379.47599,115.819571 C382.193394,123.262959 372.126626,130.268806 364.999603,124.250453" id="Stroke-112" stroke="#00E4A3" stroke-linecap="round" stroke-linejoin="round"></path>
                <path d="M359.675186,127.119201 C357.991623,124.411807 358.823023,120.852678 361.531776,119.170825 C364.240529,117.487242 367.801445,118.31736 369.485008,121.025619 C371.16857,123.733013 370.33717,127.292142 367.628417,128.97486 C364.919664,130.657578 361.358748,129.826595 359.675186,127.119201 Z" id="Stroke-114" stroke="#00E4A3" stroke-linecap="round" stroke-linejoin="round"></path>
                <path d="M337.933613,386.98779 C337.933613,389.607849 335.80883,391.731566 333.187455,391.731566 C330.566081,391.731566 328.441298,389.607849 328.441298,386.98779 C328.441298,384.368596 330.566081,382.244878 333.187455,382.244878 C335.80883,382.244878 337.933613,384.368596 337.933613,386.98779" id="Fill-116" fill="#E2EEF0"></path>
            </g>
        </g>
    </g>
</svg>