<?xml version="1.0" encoding="UTF-8"?>
<svg width="800px" height="506px" viewBox="0 0 800 506" version="1.1" xmlns="http://www.w3.org/2000/svg" xmlns:xlink="http://www.w3.org/1999/xlink">
    <title>Sitting Girl</title>
    <defs>
        <polygon id="path-1" points="0.240103226 0.638967742 150.685523 0.638967742 150.685523 151.085006 0.240103226 151.085006"></polygon>
        <polygon id="path-3" points="0.877006452 0.701316129 91.1872 0.701316129 91.1872 8.25806452 0.877006452 8.25806452"></polygon>
    </defs>
    <g id="Page-1" stroke="none" stroke-width="1" fill="none" fill-rule="evenodd">
        <g id="Artboard-Copy" transform="translate(-988.000000, -223.000000)">
            <g id="Group-145" transform="translate(988.000000, 222.000000)">
                <path d="M90.6327742,372.302968 C90.6327742,372.302968 97.716129,343.219097 94.3282581,334.134194 C92.1677419,328.341161 83.4090323,361.35071 86.3003871,364.202839 C91.0952258,368.933677 92.5548387,316.726194 87.0023226,315.394581 C80.3938065,313.810065 81.0369032,351.160258 82.896,355.807484 C84.7540645,360.453677 87.2449032,293.700645 80.8572903,293.700645 C72.4970323,293.700645 75.2624516,356.425806 79.2634839,363.141677 C82.164129,368.009806 76.9883871,322.910452 74.4655484,319.326452 C71.9427097,315.741419 68.7685161,352.380387 78.0836129,372.302968" id="Stroke-1" stroke="#4D85FF" stroke-width="1.5" stroke-linecap="round" stroke-linejoin="round"></path>
                <g id="Group-5" transform="translate(561.548387, 0.393290)">
                    <mask id="mask-2" fill="white">
                        <use xlink:href="#path-1"></use>
                    </mask>
                    <g id="Clip-4"></g>
                    <path d="M150.685523,75.8622968 C150.685523,117.406555 117.007071,151.085006 75.4628129,151.085006 C33.9185548,151.085006 0.240103226,117.406555 0.240103226,75.8622968 C0.240103226,34.3170065 33.9185548,0.638554839 75.4628129,0.638554839 C117.007071,0.638554839 150.685523,34.3170065 150.685523,75.8622968" id="Fill-3" fill="#D3E5E8" mask="url(#mask-2)"></path>
                </g>
                <path d="M508.978168,61.0580645 C437.266168,29.9385806 402.466684,71.3661935 419.894297,97.9922581 C419.894297,97.9922581 419.855071,98.0077419 419.789006,98.0335484 C412.744877,96.8980645 398.667974,97.0725161 388.686039,113.100387 C388.686039,113.100387 395.802426,106.679742 404.734555,106.744774 C392.662297,115.86271 382.960103,126.814968 382.960103,154.337032 C382.960103,193.056 409.770942,250.435097 574.116748,250.435097 C589.943329,250.435097 605.351845,248.334452 620.048103,244.825806 C621.048361,244.588387 614.20449,240.350968 615.197523,240.100129 C615.7952,239.948387 624.231845,243.786323 624.827458,243.630452 C628.119329,242.768516 631.375071,241.837419 634.587458,240.846452 C635.77249,240.481032 615.90049,230.218323 617.073135,229.837419 C617.986684,229.540129 639.94591,239.128774 640.852232,238.823226 C667.450426,229.839484 690.946684,216.949677 709.315716,204.961032 C710.442942,204.225032 692.601394,193.706323 693.689394,192.978581 C696.164748,191.321806 715.414297,200.746323 717.679071,199.150452 C737.179458,185.414194 750.760877,173.103484 750.760877,173.103484 C750.760877,173.103484 551.627974,79.5654194 508.978168,61.0580645" id="Fill-6" fill="#0D0C33"></path>
                <path d="M464.958761,192.554942 C470.83231,189.424103 498.774503,173.924748 505.692697,145.591329 C512.155665,143.908748 518.824052,136.506426 518.344052,128.417652 C517.756697,118.516232 506.367794,126.919845 506.367794,126.919845 C506.367794,126.919845 506.540181,90.0352 470.899406,91.799329 C419.937858,94.3201032 418.984052,154.142555 455.111019,191.579458 C457.620439,194.179716 461.69889,194.292232 464.958761,192.554942" id="Fill-8" fill="#FECFE4"></path>
                <path d="M507.480877,139.499561 C507.480877,139.499561 508.202426,133.674529 513.366813,131.573884" id="Stroke-10" stroke="#231F20" stroke-width="1.5" stroke-linecap="round" stroke-linejoin="round"></path>
                <path d="M452.244232,158.148748 C451.830297,158.2592 451.368877,158.361394 450.864103,158.44191 C449.082426,158.726813 447.391587,157.530426 447.033394,155.761135 C446.187974,151.585652 445.209394,143.194426 447.928361,133.209394 L454.098168,154.875458 C454.501781,156.293781 453.668748,157.767845 452.244232,158.148748" id="Fill-12" fill="#0049E6"></path>
                <path d="M440.832,129.910813 C445.140645,139.968103 444.298323,149.97791 438.950194,152.270555 C433.601032,154.562168 425.771355,148.266426 421.46271,138.209135 C417.154065,128.152877 417.996387,118.142039 423.345548,115.850426 C428.693677,113.557781 436.523355,119.853523 440.832,129.910813 Z" id="Stroke-14" stroke="#FFFFFF" stroke-width="1.5" stroke-linecap="round" stroke-linejoin="round"></path>
                <path d="M466.421677,137.200103 C466.449548,139.286297 465.626839,140.98849 464.583226,141.002942 C463.540645,141.016361 462.672516,139.335845 462.644645,137.250684 C462.616774,135.16449 463.439484,133.462297 464.483097,133.447777 C465.525677,133.435458 466.393806,135.11391 466.421677,137.200103" id="Fill-16" fill="#231F20"></path>
                <path d="M440.618529,137.965316 C440.6464,140.05151 439.82369,141.752671 438.780077,141.767123 C437.737497,141.780542 436.869368,140.101058 436.841497,138.015897 C436.813626,135.928671 437.636335,134.22751 438.679948,134.213058 C439.722529,134.199639 440.590658,135.879123 440.618529,137.965316" id="Fill-18" fill="#231F20"></path>
                <path d="M435.465084,124.223381 C445.500697,134.658477 459.233858,133.835768 459.233858,133.835768 C444.189729,129.980284 439.549729,113.066735 439.549729,113.066735 C439.549729,113.066735 445.629729,136.062348 491.868697,127.867252 C512.444697,124.221316 527.527019,130.063897 540.905084,135.925058 C540.905084,135.925058 536.415794,86.9124129 473.651406,87.8837677 C473.651406,87.8837677 413.507923,95.5978323 432.7616,121.082219 C433.526503,122.093832 434.424568,123.140542 435.465084,124.223381" id="Fill-20" fill="#0D0C33"></path>
                <path d="M441.27071,165.249548 C441.27071,165.249548 453.010581,172.564129 468.773161,163.002323" id="Stroke-22" stroke="#231F20" stroke-width="1.5" stroke-linecap="round" stroke-linejoin="round"></path>
                <path d="M29.4712774,434.999535 L514.672826,434.999535 C544.64031,434.999535 511.940439,336.219665 478.199019,343.359794 L29.4712774,414.407019 L29.4712774,434.999535 Z" id="Fill-24" fill="#0049E6"></path>
                <path d="M447.307045,213.74049 L520.124594,188.541006 C532.920465,184.112619 546.790916,191.401394 550.407948,204.449135 C563.156335,250.4352 583.052077,373.3152 531.124335,429.483458 C531.124335,429.483458 405.937239,321.40191 432.102916,229.870555 C434.256206,222.338168 439.90369,216.301523 447.307045,213.74049" id="Fill-26" fill="#FD60A7"></path>
                <path d="M532.571871,427.67391 C519.496258,447.328103 452.981677,426.061523 384.008258,380.173523 C315.034839,334.285523 269.720774,281.154168 282.796387,261.499974 C295.872,241.845781 362.386581,263.112361 431.36,309.000361 C500.333419,354.887329 545.647484,408.020748 532.571871,427.67391" id="Fill-28" fill="#0051FF"></path>
                <path d="M310.953187,484.040877 L280.949574,357.679071 C264.368413,287.843716 274.151123,262.474942 289.86209,256.079071 C289.86209,256.079071 349.016671,223.786942 531.105961,429.305394" id="Stroke-30" stroke="#231F20" stroke-width="1.5" stroke-linecap="round" stroke-linejoin="round"></path>
                <path d="M420.391432,235.876542 C420.391432,235.876542 442.01311,376.765316 392.028077,434.986735" id="Stroke-32" stroke="#231F20" stroke-width="1.5" stroke-linecap="round" stroke-linejoin="round"></path>
                <path d="M345.377858,438.540903 C345.377858,438.540903 353.395406,417.373419 361.119794,434.748387 C365.441858,444.472258 354.845729,446.399484 356.383794,436.691097 C358.163406,425.453935 369.860955,422.778323 376.33631,432.229677 C379.222503,436.442323 381.897084,443.921032 377.642116,443.895292 C374.641342,443.876645 372.856568,439.276903 373.714374,434.944516 C375.367019,426.596645 388.510761,425.767742 391.699406,435.263484" id="Stroke-34" stroke="#231F20" stroke-width="1.5" stroke-linecap="round" stroke-linejoin="round"></path>
                <path d="M473.507097,227.56511 C473.507097,231.659045 470.188387,234.977755 466.095484,234.977755 C462.002581,234.977755 458.683871,231.659045 458.683871,227.56511 C458.683871,223.472206 462.002581,220.153497 466.095484,220.153497 C470.188387,220.153497 473.507097,223.472206 473.507097,227.56511" id="Fill-36" fill="#FFFFFF"></path>
                <path d="M466.784619,257.144671 C466.784619,261.238606 463.46591,264.556284 459.373006,264.556284 C455.280103,264.556284 451.961394,261.238606 451.961394,257.144671 C451.961394,253.051768 455.280103,249.733058 459.373006,249.733058 C463.46591,249.733058 466.784619,253.051768 466.784619,257.144671" id="Fill-38" fill="#FFFFFF"></path>
                <path d="M502.514168,257.509677 C502.514168,261.603613 499.195458,264.92129 495.102555,264.92129 C491.009652,264.92129 487.690942,261.603613 487.690942,257.509677 C487.690942,253.416774 491.009652,250.098065 495.102555,250.098065 C499.195458,250.098065 502.514168,253.416774 502.514168,257.509677" id="Fill-40" fill="#FFFFFF"></path>
                <path d="M490.358194,289.386632 C490.358194,293.479535 487.040516,296.798245 482.946581,296.798245 C478.853677,296.798245 475.534968,293.479535 475.534968,289.386632 C475.534968,285.292697 478.853677,281.973987 482.946581,281.973987 C487.040516,281.973987 490.358194,285.292697 490.358194,289.386632" id="Fill-42" fill="#FFFFFF"></path>
                <path d="M455.381161,282.060077 C455.381161,286.152981 452.063484,289.47169 447.969548,289.47169 C443.876645,289.47169 440.557935,286.152981 440.557935,282.060077 C440.557935,277.966142 443.876645,274.647432 447.969548,274.647432 C452.063484,274.647432 455.381161,277.966142 455.381161,282.060077" id="Fill-44" fill="#FFFFFF"></path>
                <path d="M492.230606,350.048929 C492.230606,354.141832 488.911897,357.460542 484.818994,357.460542 C480.72609,357.460542 477.407381,354.141832 477.407381,350.048929 C477.407381,345.954994 480.72609,342.637316 484.818994,342.637316 C488.911897,342.637316 492.230606,345.954994 492.230606,350.048929" id="Fill-46" fill="#FFFFFF"></path>
                <path d="M549.961806,311.82111 C549.961806,315.915045 546.643097,319.233755 542.550194,319.233755 C538.45729,319.233755 535.138581,315.915045 535.138581,311.82111 C535.138581,307.728206 538.45729,304.409497 542.550194,304.409497 C546.643097,304.409497 549.961806,307.728206 549.961806,311.82111" id="Fill-48" fill="#FFFFFF"></path>
                <path d="M507.833703,387.495535 C507.833703,391.589471 504.514994,394.908181 500.42209,394.908181 C496.329187,394.908181 493.010477,391.589471 493.010477,387.495535 C493.010477,383.402632 496.329187,380.083923 500.42209,380.083923 C504.514994,380.083923 507.833703,383.402632 507.833703,387.495535" id="Fill-50" fill="#FFFFFF"></path>
                <path d="M523.071587,284.997574 C523.071587,289.09151 519.752877,292.409187 515.659974,292.409187 C511.567071,292.409187 508.248361,289.09151 508.248361,284.997574 C508.248361,280.904671 511.567071,277.585961 515.659974,277.585961 C519.752877,277.585961 523.071587,280.904671 523.071587,284.997574" id="Fill-52" fill="#FFFFFF"></path>
                <path d="M537.073858,346.321135 C537.073858,350.414039 533.756181,353.732748 529.662245,353.732748 C525.569342,353.732748 522.250632,350.414039 522.250632,346.321135 C522.250632,342.2272 525.569342,338.909523 529.662245,338.909523 C533.756181,338.909523 537.073858,342.2272 537.073858,346.321135" id="Fill-54" fill="#FFFFFF"></path>
                <path d="M567.125058,357.850323 C567.125058,361.943226 563.806348,365.261935 559.713445,365.261935 C555.620542,365.261935 552.301832,361.943226 552.301832,357.850323 C552.301832,353.757419 555.620542,350.43871 559.713445,350.43871 C563.806348,350.43871 567.125058,353.757419 567.125058,357.850323" id="Fill-56" fill="#FFFFFF"></path>
                <path d="M543.720568,387.495535 C543.720568,391.589471 540.401858,394.908181 536.308955,394.908181 C532.216052,394.908181 528.897342,391.589471 528.897342,387.495535 C528.897342,383.402632 532.216052,380.083923 536.308955,380.083923 C540.401858,380.083923 543.720568,383.402632 543.720568,387.495535" id="Fill-58" fill="#FFFFFF"></path>
                <path d="M457.603923,354.997574 C457.603923,359.09151 454.286245,362.409187 450.19231,362.409187 C446.099406,362.409187 442.780697,359.09151 442.780697,354.997574 C442.780697,350.904671 446.099406,347.585961 450.19231,347.585961 C454.286245,347.585961 457.603923,350.904671 457.603923,354.997574" id="Fill-60" fill="#FFFFFF"></path>
                <path d="M514.826942,194.046968 C514.826942,198.140903 511.508232,201.458581 507.415329,201.458581 C503.322426,201.458581 500.003716,198.140903 500.003716,194.046968 C500.003716,189.954065 503.322426,186.635355 507.415329,186.635355 C511.508232,186.635355 514.826942,189.954065 514.826942,194.046968" id="Fill-62" fill="#FFFFFF"></path>
                <path d="M539.785806,208.863484 C539.785806,212.957419 536.467097,216.275097 532.374194,216.275097 C528.28129,216.275097 524.962581,212.957419 524.962581,208.863484 C524.962581,204.770581 528.28129,201.451871 532.374194,201.451871 C536.467097,201.451871 539.785806,204.770581 539.785806,208.863484" id="Fill-64" fill="#FFFFFF"></path>
                <path d="M502.372542,220.543897 C502.372542,224.637832 499.054865,227.95551 494.960929,227.95551 C490.868026,227.95551 487.549316,224.637832 487.549316,220.543897 C487.549316,216.450994 490.868026,213.132284 494.960929,213.132284 C499.054865,213.132284 502.372542,216.450994 502.372542,220.543897" id="Fill-66" fill="#FFFFFF"></path>
                <path d="M551.521961,270.47329 C551.521961,274.567226 548.203252,277.884903 544.110348,277.884903 C540.017445,277.884903 536.698735,274.567226 536.698735,270.47329 C536.698735,266.380387 540.017445,263.061677 544.110348,263.061677 C548.203252,263.061677 551.521961,266.380387 551.521961,270.47329" id="Fill-68" fill="#FFFFFF"></path>
                <path d="M530.458013,238.487432 C530.458013,242.581368 527.139303,245.899045 523.0464,245.899045 C518.953497,245.899045 515.634787,242.581368 515.634787,238.487432 C515.634787,234.394529 518.953497,231.075819 523.0464,231.075819 C527.139303,231.075819 530.458013,234.394529 530.458013,238.487432" id="Fill-70" fill="#FFFFFF"></path>
                <path d="M471.166658,318.063071 C471.166658,322.155974 467.847948,325.474684 463.755045,325.474684 C459.662142,325.474684 456.343432,322.155974 456.343432,318.063071 C456.343432,313.969135 459.662142,310.651458 463.755045,310.651458 C467.847948,310.651458 471.166658,313.969135 471.166658,318.063071" id="Fill-72" fill="#FFFFFF"></path>
                <path d="M509.393961,321.182968 C509.393961,325.276903 506.075252,328.594581 501.982348,328.594581 C497.889445,328.594581 494.570735,325.276903 494.570735,321.182968 C494.570735,317.090065 497.889445,313.771355 501.982348,313.771355 C506.075252,313.771355 509.393961,317.090065 509.393961,321.182968" id="Fill-74" fill="#FFFFFF"></path>
                <path d="M439.089239,240.296877 C439.089239,244.389781 435.770529,247.70849 431.677626,247.70849 C427.584723,247.70849 424.266013,244.389781 424.266013,240.296877 C424.266013,236.202942 427.584723,232.884232 431.677626,232.884232 C435.770529,232.884232 439.089239,236.202942 439.089239,240.296877" id="Fill-76" fill="#FFFFFF"></path>
                <polygon id="Fill-78" fill="#D3E5E8" points="31.7015742 414.053987 7.55705806 344.689342 7.55705806 434.999535 31.7015742 434.999535"></polygon>
                <path d="M0,432.024774 L0,347.662452 C0,346.021161 1.3316129,344.689548 2.97393548,344.689548 L7.55612903,344.689548 L7.55612903,434.999742 L2.97393548,434.999742 C1.3316129,434.999742 0,433.668129 0,432.024774" id="Fill-80" fill="#E9F2F4"></path>
                <path d="M12.1935484,384.784826 C12.1935484,384.784826 22.6131613,361.744826 29.7336774,372.697084 C35.2769032,381.2256 15.0353548,384.00031 15.1107097,382.731665 C15.2304516,380.72289 24.2100645,370.297084 29.547871,381.820181 C33.3816774,390.094761 21.4270968,388.728052 17.4209032,384.719794 C15.7703226,383.066116 45.6087742,383.28289 42.3778065,392.984052 C39.1447742,402.690374 19.8797419,391.514116 12.1935484,384.784826 Z" id="Stroke-82" stroke="#231F20" stroke-width="1.5" stroke-linecap="round" stroke-linejoin="round"></path>
                <polygon id="Fill-84" fill="#D3E5E8" points="308.693781 474.498581 239.328103 498.643097 329.639329 498.643097 329.639329 474.498581"></polygon>
                <g id="Group-88" transform="translate(238.451613, 497.941677)">
                    <mask id="mask-4" fill="white">
                        <use xlink:href="#path-3"></use>
                    </mask>
                    <g id="Clip-87"></g>
                    <path d="M88.2132645,8.25847742 L3.85094194,8.25847742 C2.20861935,8.25847742 0.877006452,6.92686452 0.877006452,5.28350968 L0.877006452,0.701316129 L91.1872,0.701316129 L91.1872,5.28350968 C91.1872,6.92686452 89.8555871,8.25847742 88.2132645,8.25847742" id="Fill-86" fill="#E9F2F4" mask="url(#mask-4)"></path>
                </g>
                <path d="M292.221935,488.860387 C292.221935,488.860387 257.084903,474.491355 270.717935,464.152258 C281.331613,456.10271 290.007742,485.869935 288.58529,484.752 C260.034065,462.315871 297.915871,455.682581 291.028645,482.08671 C290.257548,485.04 310.670452,451.219097 292.221935,488.860387 Z" id="Stroke-89" stroke="#231F20" stroke-width="1.5" stroke-linecap="round" stroke-linejoin="round"></path>
                <polygon id="Fill-91" fill="#FFDB7A" points="519.97791 164.659819 515.994426 165.918142 510.410942 148.23969 514.394426 146.981368"></polygon>
                <path d="M630.967845,409.695071 C554.334039,88.0413935 491.787458,171.876232 566.036748,303.855587 C594.688103,354.784103 615.813265,423.725523 615.813265,423.725523 L596.371716,436.081652 C593.994426,437.486555 594.295845,441.016877 596.87649,441.998555 C597.637265,442.287587 598.479587,442.285523 599.239329,441.991329 L614.822297,435.951587 L679.881394,454.395974 C680.136361,454.4672 680.40991,454.432313 680.638039,454.298942 L682.949265,452.946684 C683.664619,452.528619 683.562426,451.465394 682.782039,451.188748 L649.853006,439.568619 C649.17791,439.330168 648.982813,438.469265 649.488619,437.963458 L650.062555,437.389523 C650.294813,437.157265 650.629265,437.058168 650.951329,437.125265 L696.886813,446.820232 C697.275974,446.902813 697.67649,446.739716 697.897394,446.408361 L699.190813,444.469781 C699.565523,443.909265 699.268232,443.145394 698.612748,442.984361 L656.752619,432.726813 C656.167329,432.582297 655.851458,431.946426 656.093006,431.393135 C656.263329,431.000877 656.671071,430.765523 657.096361,430.815071 L695.146426,435.204232 C695.763716,435.275458 696.288103,434.759329 696.226168,434.142039 L695.956748,431.411716 C695.911329,430.9472 695.541781,430.580748 695.077265,430.538426 L656.85791,427.009135 C656.628748,426.98849 656.415071,426.887329 656.254039,426.7232 L656.242684,426.711845 C655.647071,426.106942 656.056877,425.082942 656.905394,425.057135 L674.669523,424.496619 C675.202168,424.480103 675.622297,424.039329 675.611974,423.506684 L675.568619,421.110813 C675.559329,420.596748 675.150555,420.177652 674.635458,420.157006 L641.833394,418.792361" id="Stroke-93" stroke="#809599" stroke-width="1.5" stroke-linecap="round" stroke-linejoin="round"></path>
                <path d="M484.914168,145.829161 C476.335071,154.020129 464.058426,155.083355 457.492232,148.205419 C450.926039,141.327484 452.558039,129.112774 461.136103,120.922839 C469.7152,112.732903 481.991845,111.668645 488.558039,118.546581 C495.124232,125.424516 493.493265,137.639226 484.914168,145.829161 Z" id="Stroke-95" stroke="#FFFFFF" stroke-width="1.5" stroke-linecap="round" stroke-linejoin="round"></path>
                <path d="M180.620181,387.258632 C179.121342,394.135535 172.332181,398.495794 165.455277,396.996955 C158.579406,395.497084 154.219148,388.707923 155.717987,381.832052 C157.216826,374.955148 164.005987,370.59489 170.88289,372.094761 C177.758761,373.5936 182.119019,380.382761 180.620181,387.258632" id="Fill-97" fill="#D3E5E8"></path>
                <path d="M164.58271,409.288877 C163.707355,413.307458 159.740387,415.854039 155.722839,414.978684 C151.70529,414.103329 149.157677,410.136361 150.033032,406.118813 C150.908387,402.100232 154.875355,399.553652 158.892903,400.429006 C162.911484,401.305394 165.458065,405.271329 164.58271,409.288877" id="Fill-99" fill="#D3E5E8"></path>
                <path d="M158.451613,427.767742 C157.844645,430.553806 155.09471,432.32 152.308645,431.712 C149.522581,431.105032 147.757419,428.355097 148.364387,425.570065 C148.971355,422.784 151.72129,421.017806 154.507355,421.624774 C157.292387,422.232774 159.058581,424.98271 158.451613,427.767742" id="Fill-101" fill="#D3E5E8"></path>
                <path d="M155.760516,451.182968 C155.760516,451.182968 145.347097,420.672516 167.896774,384.696258" id="Stroke-103" stroke="#231F20" stroke-width="1.5" stroke-linecap="round" stroke-linejoin="round"></path>
                <path d="M102.522116,404.515716 C103.8816,410.902297 110.160826,414.977652 116.548439,413.618168 C122.935019,412.258684 127.010374,405.979458 125.65089,399.591845 C124.291406,393.205265 118.012181,389.12991 111.624568,390.489394 C105.237987,391.848877 101.162632,398.129135 102.522116,404.515716" id="Fill-105" fill="#D3E5E8"></path>
                <path d="M111.409548,425.455174 C112.179613,429.073239 115.736774,431.381368 119.354839,430.611303 C122.972903,429.841239 125.282065,426.284077 124.512,422.666013 C123.741935,419.047948 120.183742,416.739819 116.565677,417.509884 C112.947613,418.279948 110.639484,421.83711 111.409548,425.455174" id="Fill-107" fill="#D3E5E8"></path>
                <path d="M115.224877,451.182968 C115.224877,451.182968 123.223845,421.472516 113.865394,401.732645" id="Stroke-109" stroke="#231F20" stroke-width="1.5" stroke-linecap="round" stroke-linejoin="round"></path>
                <path d="M136.79009,409.636645 L136.79009,409.636645 C140.760155,410.151742 144.3968,407.350194 144.911897,403.380129 L149.620026,367.102452 C150.135123,363.131355 147.334606,359.495742 143.364542,358.980645 C139.393445,358.464516 135.757832,361.266065 135.241703,365.236129 L130.533574,401.514839 C130.018477,405.484903 132.820026,409.121548 136.79009,409.636645" id="Fill-111" fill="#D3E5E8"></path>
                <path d="M139.959123,384.287897 C139.959123,384.287897 134.311639,417.577187 136.615639,451.183381" id="Stroke-113" stroke="#231F20" stroke-width="1.5" stroke-linecap="round" stroke-linejoin="round"></path>
                <path d="M123.676594,372.989419 C123.676594,375.52671 121.620335,377.582968 119.083045,377.582968 C116.545755,377.582968 114.489497,375.52671 114.489497,372.989419 C114.489497,370.453161 116.545755,368.396903 119.083045,368.396903 C121.620335,368.396903 123.676594,370.453161 123.676594,372.989419 Z" id="Stroke-115" stroke="#D3E5E8" stroke-width="1.5" stroke-linecap="round" stroke-linejoin="round"></path>
                <path d="M709.504619,373.401806 C709.504619,327.249548 720.434168,289.835355 733.91649,289.835355 C747.397781,289.835355 758.327329,327.249548 758.327329,373.401806 L709.504619,373.401806 Z" id="Fill-117" fill="#D3E5E8"></path>
                <path d="M495.618477,111.258632 C495.618477,111.258632 599.893058,117.082632 653.023381,78.8426323 C674.67809,63.2565677 579.662865,97.5564387 587.560671,115.55489 C595.457445,133.554374 684.486606,87.0088258 691.738219,72.3084387 C698.989832,57.6070194 593.261832,126.755923 650.048413,118.739406 C706.833961,110.72289 748.536155,54.1190194 745.852284,70.6083097 C734.040155,143.185342 787.167381,151.831535 798.97951,79.2545032" id="Stroke-119" stroke="#4D85FF" stroke-width="1.5" stroke-linecap="round" stroke-linejoin="round"></path>
                <path d="M641.944671,382.460181 C642.628026,385.788181 629.61951,391.268439 612.890735,394.700697 C596.161961,398.135019 582.046865,398.220697 581.36351,394.892697 C580.681187,391.565729 593.688671,386.085471 610.417445,382.652181 C627.147252,379.217858 641.261316,379.132181 641.944671,382.460181 Z" id="Stroke-121" stroke="#4D85FF" stroke-width="1.5" stroke-linecap="round" stroke-linejoin="round"></path>
                <path d="M626.539871,375.362477 C630.943484,376.316284 633.741935,377.920413 633.965935,379.989058 C634.441806,384.381316 623.141677,389.207123 608.727226,390.768929 C594.312774,392.329703 582.242581,390.034994 581.76671,385.642735 C581.409548,382.349832 587.676387,378.811252 596.913032,376.5888" id="Stroke-123" stroke="#4D85FF" stroke-width="1.5" stroke-linecap="round" stroke-linejoin="round"></path>
                <path d="M627.261419,379.162839 C636.657032,376.603871 643.874581,376.705032 645.366194,379.948387 C647.539097,384.676129 636.721032,394.290581 621.204129,401.421419 C605.686194,408.554323 591.346065,410.502194 589.173161,405.774452 C587.683613,402.534194 592.298839,396.996129 600.348387,391.535484" id="Stroke-125" stroke="#4D85FF" stroke-width="1.5" stroke-linecap="round" stroke-linejoin="round"></path>
                <polyline id="Stroke-127" stroke="#FFDB7A" stroke-width="1.5" stroke-linecap="round" stroke-linejoin="round" points="575.145187 260.356439 566.635252 284.939665 580.818477 270.757471 578.773574 296.699148 586.491768 284.939665 594.617703 329.827406"></polyline>
                <line x1="581.953961" y1="217.631587" x2="536.973316" y2="257.954684" id="Stroke-129" stroke="#FFDB7A" stroke-width="1.5" stroke-linecap="round" stroke-linejoin="round"></line>
                <line x1="543.743484" y1="218.114477" x2="572.877935" y2="255.313961" id="Stroke-131" stroke="#FFDB7A" stroke-width="1.5" stroke-linecap="round" stroke-linejoin="round"></line>
                <line x1="560.362426" y1="218.469265" x2="558.223587" y2="254.109006" id="Stroke-133" stroke="#FFDB7A" stroke-width="1.5" stroke-linecap="round" stroke-linejoin="round"></line>
                <line x1="542.954219" y1="238.008568" x2="572.890735" y2="235.687019" id="Stroke-135" stroke="#FFDB7A" stroke-width="1.5" stroke-linecap="round" stroke-linejoin="round"></line>
                <path d="M714.039639,373.401806 C714.039639,373.401806 692.10209,326.095484 701.956026,323.459097 C712.5088,320.637935 715.416671,352.729806 716.535639,367.637677 C716.571768,368.116645 715.873961,368.21471 715.776929,367.745032 C711.405316,346.446452 697.310865,272.180645 712.8288,269.670194 C727.936929,267.226839 723.14209,337.426581 721.129187,363.78529 C721.073445,364.515097 719.997832,364.497548 719.966865,363.76671 C719.012026,341.063226 717.65151,286.093419 726.832413,285.984 C734.810735,285.891097 731.137961,317.164387 728.893832,332.257032 C728.773058,333.069419 727.570477,332.96929 727.586994,332.147613 C727.802735,321.665032 729.232413,304.595613 736.289961,305.291355 C744.425187,306.093419 731.578735,346.916129 725.595768,365.049806 C725.353187,365.786839 724.248671,365.502968 724.397316,364.740129 C727.213316,350.258581 733.51009,322.840774 740.581058,324.317935 C746.518606,325.557677 736.766865,353.202581 731.545703,366.526968 C731.241187,367.30529 730.070606,366.946065 730.254348,366.130581 C732.665703,355.46529 737.420284,336.813419 741.224155,336.622452 C746.554735,336.356129 737.226219,361.941677 732.961961,373.401806" id="Stroke-137" stroke="#4D85FF" stroke-width="1.5" stroke-linecap="round" stroke-linejoin="round"></path>
                <path d="M683.454452,310.959174 L683.454452,310.959174 C678.961032,311.5424 674.846452,308.372335 674.263226,303.879948 L668.935742,262.826013 C668.352516,258.333626 671.522581,254.218013 676.014968,253.635819 C680.508387,253.051561 684.622968,256.222658 685.206194,260.715045 L690.533677,301.768981 C691.116903,306.261368 687.947871,310.376981 683.454452,310.959174" id="Fill-139" fill="#D3E5E8"></path>
                <path d="M679.86849,282.273755 C679.86849,282.273755 686.2592,319.944981 683.651716,357.9744" id="Stroke-141" stroke="#231F20" stroke-width="1.5" stroke-linecap="round" stroke-linejoin="round"></path>
                <path d="M653.899045,315.805006 C653.899045,318.341265 651.842787,320.397523 649.305497,320.397523 C646.769239,320.397523 644.711948,318.341265 644.711948,315.805006 C644.711948,313.267716 646.769239,311.211458 649.305497,311.211458 C651.842787,311.211458 653.899045,313.267716 653.899045,315.805006" id="Fill-143" fill="#D3E5E8"></path>
            </g>
        </g>
    </g>
</svg>