<svg width="1400" height="506" viewBox="0 0 1400 506" fill="none" xmlns="http://www.w3.org/2000/svg">
<path fill-rule="evenodd" clip-rule="evenodd" d="M1298.39 303.403C1263.14 279.72 1205.14 281.117 1106.47 336.402C1057.16 364.023 1018.01 383.122 987.887 395.054C957.734 406.999 936.738 411.721 923.714 410.702C917.214 410.193 912.818 408.264 910.217 405.217C907.624 402.178 906.692 397.879 907.445 392.345C908.958 381.23 917.216 365.575 931.298 346.676C948.547 323.527 974.401 295.682 1006.83 265.63C1015.36 263.801 1024.15 261.857 1033.18 259.794C1202.62 221.104 1355.01 125.688 1422.79 62.2002C1439.72 46.3352 1451.44 32.408 1456.79 21.8141C1459.46 16.5304 1460.61 11.9533 1459.91 8.33329C1459.18 4.61704 1456.54 2.08402 1452.11 0.865519C1447.73 -0.34005 1441.53 -0.289692 1433.43 1.11149C1425.32 2.51547 1415.25 5.28859 1403.07 9.59388C1378.73 18.2048 1345.94 32.9685 1303.67 55.2591C1186.58 117 1079.59 196.215 1006.11 264.25C934.931 279.489 881.306 286.612 844.198 286.948C823.381 287.136 807.825 285.186 797.298 281.375C786.773 277.564 781.45 271.97 780.681 264.94C780.662 264.774 780.647 264.608 780.634 264.44C809.995 257.202 842.182 247.368 876.26 234.801C933.607 213.652 984.215 188.07 1024.18 163.404C1064.13 138.746 1093.49 114.974 1108.31 97.427C1112.01 93.037 1114.83 89.0164 1116.67 85.4515C1118.5 81.8995 1119.41 78.7285 1119.2 76.0627C1118.98 73.3377 1117.6 71.2104 1115.07 69.8292C1112.58 68.4745 1109.02 67.851 1104.4 67.9563C1095.15 68.1669 1081.32 71.3105 1062.47 77.9985C1043.59 84.6923 1019.63 94.9571 990.083 109.456C920.198 143.753 866.719 175.06 831.107 201.531C813.303 214.764 799.938 226.809 791.219 237.435C783.198 247.211 779.016 255.901 779.083 263.276C762.473 267.342 746.783 270.57 732.183 272.986C691.521 279.717 659.397 280.14 639.439 274.887C629.452 272.258 622.648 268.244 619.271 263.027C616.297 258.432 615.895 252.758 618.563 245.953C647.52 238.932 680.25 229.175 716.802 216.153C778.61 194.132 818.954 174.333 841.99 158.63C853.494 150.788 860.753 143.92 864.183 138.251C865.901 135.412 866.699 132.806 866.517 130.491C866.333 128.144 865.149 126.2 863.128 124.71C861.128 123.235 858.311 122.201 854.802 121.591C851.286 120.979 847.026 120.785 842.098 121.027C832.243 121.511 819.645 123.742 804.837 127.943C775.216 136.345 736.674 152.649 693.402 178.73C671.767 191.769 654.999 203.66 642.649 214.334C630.307 225 622.332 234.488 618.339 242.733C618.022 243.388 617.729 244.036 617.462 244.676C598.27 249.309 580.753 252.732 564.896 255.104C524.997 261.072 495.658 260.374 476.602 255.564C467.072 253.158 460.174 249.738 455.804 245.666C452.613 242.692 450.769 239.371 450.218 235.809C474.776 231.94 498.558 227.316 521.249 221.837C570.943 209.839 598.96 199.322 611.61 191.003C614.778 188.919 617.03 186.944 618.415 185.078C619.803 183.208 620.369 181.377 620 179.645C619.634 177.924 618.385 176.493 616.566 175.325C614.744 174.155 612.271 173.197 609.283 172.44C597.352 169.419 576.505 169.455 553.222 173.229C529.918 177.007 504.071 184.547 482.129 196.615C471.631 202.388 463.557 208.39 457.959 214.317C452.368 220.237 449.202 226.135 448.634 231.694C448.536 232.66 448.516 233.612 448.574 234.548C318.487 254.867 166.744 254.107 40.1312 247.261C-35.3407 243.181 -101.864 236.939 -149.519 231.718C-173.346 229.107 -192.456 226.752 -205.608 225.049C-212.184 224.198 -217.27 223.51 -220.712 223.034C-222.433 222.797 -223.743 222.612 -224.623 222.487C-225.062 222.425 -225.394 222.377 -225.617 222.345L-225.945 222.298C-225.948 222.297 -225.95 222.297 -226.058 223.039C-226.167 223.781 -226.165 223.782 -226.161 223.782L-225.83 223.83C-225.607 223.862 -225.274 223.91 -224.834 223.972C-223.952 224.098 -222.64 224.282 -220.917 224.52C-217.471 224.996 -212.381 225.685 -205.8 226.537C-192.639 228.241 -173.52 230.597 -149.682 233.209C-102.007 238.433 -35.4553 244.677 40.0502 248.759C166.657 255.604 318.494 256.375 448.736 236.041C449.342 239.959 451.367 243.581 454.782 246.763C459.405 251.072 466.571 254.578 476.235 257.018C495.565 261.898 525.129 262.569 565.118 256.588C580.743 254.251 597.967 250.897 616.803 246.378C614.409 253.103 614.857 258.968 618.012 263.842C621.688 269.522 628.93 273.672 639.057 276.338C659.329 281.674 691.709 281.207 732.428 274.466C746.985 272.057 762.618 268.843 779.159 264.802C779.168 264.903 779.179 265.003 779.19 265.103C780.048 272.951 786.01 278.883 796.788 282.785C807.564 286.687 823.329 288.636 844.211 288.448C881.034 288.115 933.963 281.129 1003.97 266.241C972.337 295.7 947.073 322.996 930.095 345.78C915.999 364.697 907.527 380.618 905.959 392.143C905.171 397.929 906.11 402.715 909.076 406.191C912.035 409.658 916.886 411.672 923.596 412.197C936.991 413.246 958.267 408.402 988.439 396.448C1018.65 384.482 1057.87 365.349 1107.2 337.71C1205.8 282.471 1263.07 281.478 1297.55 304.648C1314.82 316.25 1326.48 333.971 1334.77 354.237C1343.06 374.503 1347.96 397.257 1351.73 418.859C1352.96 425.944 1354.08 432.912 1355.16 439.627C1357.35 453.346 1359.38 466.009 1361.92 476.451C1363.81 484.234 1366.01 490.853 1368.8 495.801C1371.6 500.75 1375.05 504.125 1379.5 505.23C1383.94 506.333 1389.18 505.122 1395.42 501.364C1401.67 497.604 1409.03 491.236 1417.78 481.842C1435.28 463.051 1458.46 432.017 1489.59 385.092C1575.95 254.935 1593.49 184.194 1600.09 146.947C1600.77 143.119 1601.32 139.662 1601.83 136.538C1602.56 132.044 1603.18 128.238 1603.87 125.002C1605.05 119.519 1606.43 115.9 1608.79 113.539C1611.14 111.201 1614.58 109.984 1620.19 109.626C1625.82 109.267 1633.48 109.777 1644.15 110.769C1900.16 134.566 2084.51 188.954 2204.84 237.381C2265 261.594 2309.16 284.318 2338.27 300.984C2352.83 309.317 2363.62 316.136 2370.78 320.869C2374.35 323.235 2377.02 325.08 2378.79 326.333C2379.67 326.959 2380.34 327.437 2380.77 327.758C2380.91 327.86 2381.03 327.946 2381.13 328.016L2381.27 328.12L2381.42 328.233L2381.43 328.239C2381.43 328.239 2381.43 328.24 2381.88 327.641C2382.33 327.042 2382.33 327.042 2382.33 327.04L2382.29 327.01L2382.16 326.916C2382.05 326.833 2381.88 326.709 2381.66 326.547C2381.21 326.221 2380.55 325.739 2379.66 325.108C2377.87 323.847 2375.19 321.993 2371.6 319.618C2364.43 314.867 2353.6 308.032 2339.02 299.682C2309.85 282.984 2265.62 260.229 2205.4 235.989C2084.94 187.509 1900.45 133.086 1644.29 109.275C1633.64 108.285 1625.86 107.762 1620.1 108.129C1614.33 108.496 1610.46 109.762 1607.73 112.477C1605.03 115.168 1603.59 119.169 1602.41 124.686C1601.7 127.951 1601.08 131.826 1600.34 136.362C1599.83 139.485 1599.28 142.92 1598.61 146.685C1592.05 183.706 1574.6 254.256 1488.34 384.263C1457.22 431.175 1434.09 462.123 1416.68 480.82C1407.97 490.17 1400.72 496.423 1394.65 500.079C1388.57 503.738 1383.75 504.741 1379.86 503.774C1375.97 502.809 1372.8 499.831 1370.11 495.064C1367.41 490.296 1365.26 483.836 1363.38 476.097C1360.85 465.712 1358.84 453.151 1356.65 439.471C1355.57 432.743 1354.45 425.744 1353.21 418.601C1349.43 396.975 1344.51 374.09 1336.16 353.669C1327.8 333.246 1315.99 315.229 1298.39 303.403ZM450.063 234.315C450.02 233.503 450.041 232.68 450.126 231.846C450.648 226.736 453.585 221.133 459.05 215.347C464.509 209.566 472.444 203.653 482.852 197.93C504.605 185.965 530.278 178.469 553.462 174.71C576.667 170.948 597.276 170.947 608.915 173.894C611.82 174.63 614.122 175.538 615.756 176.587C617.393 177.639 618.282 178.778 618.533 179.957C618.782 181.124 618.445 182.521 617.211 184.184C615.973 185.851 613.882 187.713 610.786 189.75C598.379 197.909 570.598 208.379 520.897 220.379C498.271 225.842 474.555 230.454 450.063 234.315ZM619.292 244.232C619.419 243.952 619.552 243.67 619.689 243.387C623.554 235.408 631.354 226.078 643.629 215.469C655.896 204.868 672.587 193.026 694.177 180.014C737.355 153.991 775.775 137.746 805.246 129.386C819.984 125.205 832.464 123.001 842.172 122.525C847.026 122.287 851.169 122.482 854.545 123.069C857.929 123.657 860.495 124.632 862.238 125.917C863.959 127.186 864.876 128.753 865.022 130.608C865.17 132.496 864.527 134.785 862.9 137.474C859.64 142.861 852.6 149.582 841.145 157.39C818.264 172.988 778.057 192.736 716.299 214.74C680.243 227.586 647.923 237.245 619.292 244.232ZM780.583 262.907C780.657 256.146 784.548 247.93 792.379 238.386C800.987 227.894 814.245 215.933 832.002 202.735C867.51 176.342 920.898 145.08 990.743 110.802C1020.25 96.3194 1044.16 86.0805 1062.97 79.4122C1081.79 72.738 1095.43 69.6609 1104.44 69.4559C1108.94 69.3532 1112.2 69.9732 1114.35 71.1461C1116.45 72.2925 1117.53 73.977 1117.7 76.181C1117.88 78.444 1117.11 81.3191 1115.34 84.7633C1113.56 88.1945 1110.83 92.1201 1107.16 96.4593C1092.5 113.829 1063.29 137.502 1023.39 162.127C983.51 186.743 932.992 212.28 875.741 233.394C841.828 245.9 809.801 255.692 780.583 262.907ZM1008.99 263.63C1082.29 196.098 1188.34 117.765 1304.37 56.5859C1346.61 34.3124 1379.32 19.5851 1403.57 11.008C1415.7 6.71931 1425.69 3.97421 1433.69 2.58952C1441.71 1.20201 1447.65 1.19322 1451.72 2.3118C1455.73 3.41744 1457.84 5.59184 1458.43 8.6201C1459.04 11.7446 1458.07 15.949 1455.45 21.1376C1450.22 31.4885 1438.67 45.2692 1421.76 61.1054C1354.17 124.422 1202.02 219.704 1032.85 258.331C1024.69 260.194 1016.74 261.96 1008.99 263.63Z" fill="#FAE0B0"/>
</svg>
