<svg width="660" height="428" viewBox="0 0 660 428" fill="none" xmlns="http://www.w3.org/2000/svg">
<path fill-rule="evenodd" clip-rule="evenodd" d="M374.32 203.085C374.317 203.085 374.315 203.084 374.277 203.834C373.601 203.509 373.601 203.51 373.601 203.51L373.599 203.514L373.591 203.529L373.562 203.591C373.535 203.646 373.495 203.728 373.442 203.835C373.337 204.05 373.18 204.368 372.975 204.776C372.564 205.592 371.962 206.771 371.195 208.214C369.661 211.103 367.469 215.052 364.838 219.294C359.556 227.814 352.582 237.39 345.676 242.028C342.231 244.342 338.931 245.342 335.922 244.538C332.917 243.737 329.959 241.073 327.347 235.494C322.112 224.312 318.541 202 318.48 162.264C318.45 142.379 317.57 127.151 316.049 115.73C314.53 104.327 312.363 96.6529 309.717 91.9249C308.39 89.555 306.92 87.8822 305.308 86.8655C303.681 85.839 301.948 85.507 300.172 85.7594C296.684 86.2552 293.11 88.9901 289.67 92.8104C282.754 100.493 275.884 113.143 270.762 123.809C268.196 129.154 266.058 134.022 264.561 137.554C263.916 139.078 263.39 140.354 263 141.312C247.739 91.8297 234.069 63.4548 222.087 48.8226C216.011 41.4022 210.311 37.4431 204.987 36.1205C199.631 34.7898 194.775 36.1565 190.483 39.1265C186.211 42.0827 182.478 46.6374 179.285 51.7518C176.087 56.8735 173.404 62.6017 171.248 67.9522C169.092 73.3049 167.458 78.2942 166.363 81.9449C165.957 83.298 165.625 84.468 165.368 85.4051C157.931 62.112 151.396 44.514 145.65 31.5765C139.711 18.2046 134.588 9.74722 130.144 5.13509C127.919 2.82715 125.812 1.4262 123.802 0.897901C121.755 0.36025 119.877 0.745268 118.204 1.86577C116.558 2.96755 115.133 4.76277 113.886 7.02362C112.634 9.29172 111.535 12.0792 110.566 15.2265C106.696 27.7936 104.792 46.4741 103.851 61.9564C103.379 69.7092 103.148 76.6804 103.035 81.7135C102.979 84.2302 102.952 86.2628 102.939 87.6667C102.936 87.9702 102.934 88.2443 102.932 88.4876C75.2714 70.9758 54.3509 58.6858 38.9296 50.5985C31.1129 46.4993 24.6996 43.4748 19.5312 41.3966C14.3736 39.3228 10.4138 38.1739 7.51704 37.8573C4.67533 37.5468 2.55956 38.0116 1.53226 39.5829C1.02907 40.3524 0.860333 41.2919 0.921894 42.3134C0.983398 43.333 1.27622 44.4816 1.74994 45.7293C3.63194 50.6859 8.60353 57.7858 15.2588 65.9135C28.6057 82.2135 49.0058 102.977 66.0517 119.651C74.5782 127.991 82.2716 135.314 87.8334 140.552C90.6143 143.171 92.8626 145.269 94.4157 146.713C95.1923 147.434 95.7952 147.992 96.204 148.37C96.4084 148.559 96.5643 148.703 96.6691 148.799L96.8254 148.943C96.8254 148.943 96.827 148.945 96.9053 148.86L96.828 148.946C97.1329 149.226 97.6074 149.206 97.8877 148.901C98.1681 148.596 98.148 148.122 97.8431 147.841L97.3356 148.393C97.8431 147.841 97.8423 147.841 97.8407 147.839L97.6856 147.696C97.5813 147.6 97.4258 147.457 97.2219 147.268C96.8141 146.892 96.2123 146.334 95.4368 145.614C93.8858 144.172 91.6401 142.077 88.8617 139.46C83.305 134.227 75.6187 126.911 67.1006 118.579C50.0575 101.908 29.7094 81.1937 16.4193 64.9632C9.75597 56.8256 4.93687 49.897 3.15228 45.1968C2.70931 44.0302 2.4683 43.0379 2.41919 42.2232C2.37018 41.4103 2.51426 40.822 2.7877 40.4037C3.31366 39.5993 4.6068 39.0482 7.35408 39.3485C10.0463 39.6427 13.8555 40.7312 18.9716 42.7883C24.077 44.8411 30.442 47.8412 38.2329 51.9269C53.8144 60.0982 75.0608 72.5916 103.276 90.4808L104.429 91.2123L104.427 89.8462L103.677 89.8473C104.427 89.8462 104.427 89.8442 104.427 89.8442L104.427 89.8112L104.427 89.7054C104.427 89.6117 104.427 89.472 104.428 89.2885C104.429 88.9216 104.432 88.3796 104.439 87.6805C104.452 86.2825 104.479 84.2566 104.535 81.7472C104.648 76.728 104.878 69.7765 105.348 62.0474C106.289 46.5662 108.188 28.0466 111.999 15.6679C112.951 12.5788 114.014 9.89573 115.199 7.74816C116.388 5.59327 117.671 4.02757 119.039 3.11218C120.378 2.21552 121.816 1.92709 123.42 2.34866C125.06 2.77958 126.938 3.97047 129.064 6.17598C133.318 10.5907 138.354 18.8465 144.279 32.1853C150.195 45.5056 156.969 63.8309 164.722 88.3255L165.536 90.8969L166.167 88.2745L165.992 88.2324C166.167 88.2742 166.167 88.2733 166.167 88.2733L166.168 88.2688L166.192 88.1725C166.209 88.1039 166.234 88.0011 166.268 87.8662C166.336 87.5964 166.439 87.198 166.575 86.6862C166.848 85.6624 167.257 84.1851 167.8 82.3757C168.885 78.756 170.505 73.812 172.639 68.5128C174.775 63.2114 177.422 57.5691 180.557 52.5462C183.698 47.516 187.302 43.1521 191.337 40.3599C195.352 37.5815 199.771 36.3702 204.626 37.5762C209.513 38.7903 214.957 42.4826 220.927 49.7728C232.873 64.3627 246.685 93.0702 262.189 143.782L262.821 145.849L263.605 143.834L262.906 143.562C263.605 143.834 263.606 143.833 263.606 143.833L263.615 143.81L263.644 143.735C263.67 143.669 263.709 143.571 263.76 143.441C263.863 143.182 264.015 142.8 264.214 142.307C264.613 141.322 265.198 139.897 265.943 138.14C267.432 134.623 269.56 129.777 272.115 124.459C277.234 113.797 284.026 101.322 290.785 93.814C294.184 90.0386 297.451 87.6612 300.383 87.2445C301.817 87.0408 303.189 87.3024 304.508 88.1342C305.842 88.9757 307.159 90.4256 308.408 92.6575C310.913 97.1332 313.05 104.579 314.562 115.928C316.071 127.26 316.95 142.417 316.98 162.266C317.041 201.999 320.598 224.617 325.988 236.13C328.689 241.898 331.918 245.023 335.535 245.988C339.147 246.952 342.905 245.697 346.513 243.273C353.713 238.437 360.831 228.604 366.113 220.084C368.765 215.807 370.974 211.828 372.52 208.918C373.293 207.463 373.9 206.275 374.315 205.45C374.489 205.103 374.629 204.821 374.733 204.61C374.884 204.618 375.068 204.629 375.285 204.642C375.976 204.683 377.001 204.748 378.334 204.841C381 205.027 384.899 205.327 389.826 205.78C399.681 206.687 413.65 208.211 430.097 210.675C462.999 215.604 505.793 224.295 545.424 239.339C585.074 254.39 621.444 275.758 641.63 305.972C661.771 336.118 665.889 375.205 640.761 425.964C640.577 426.335 640.729 426.785 641.101 426.969C641.472 427.152 641.922 427 642.106 426.629C667.424 375.485 663.371 335.812 642.878 305.139C622.431 274.535 585.706 253.025 545.956 237.936C506.186 222.84 463.274 214.129 430.319 209.191C413.839 206.722 399.842 205.196 389.963 204.286C385.024 203.832 381.114 203.531 378.438 203.345C377.1 203.251 376.07 203.186 375.375 203.145C375.027 203.124 374.763 203.109 374.585 203.099L374.384 203.088L374.32 203.085ZM374.277 203.834L373.601 203.509L373.817 203.059L374.315 203.085L374.277 203.834Z" fill="#8A26ED"/>
</svg>
