<svg width="2609" height="506" viewBox="0 0 2609 506" fill="none" xmlns="http://www.w3.org/2000/svg">
<path fill-rule="evenodd" clip-rule="evenodd" d="M1524.55 303.396C1489.31 279.712 1431.31 281.11 1332.63 336.394C1283.33 364.016 1244.17 383.114 1214.05 395.046C1183.9 406.991 1162.9 411.714 1149.88 410.694C1143.38 410.185 1138.98 408.256 1136.38 405.209C1133.79 402.171 1132.85 397.872 1133.61 392.337C1135.12 381.222 1143.38 365.567 1157.46 346.669C1174.71 323.519 1200.56 295.675 1232.99 265.622C1241.53 263.794 1250.31 261.849 1259.34 259.786C1428.79 221.097 1581.17 125.681 1648.95 62.1923C1665.88 46.3274 1677.6 32.4001 1682.95 21.8063C1685.62 16.5226 1686.77 11.9455 1686.07 8.32548C1685.34 4.60923 1682.7 2.07621 1678.28 0.857707C1673.89 -0.347863 1667.69 -0.297505 1659.6 1.10368C1651.49 2.50766 1641.41 5.28078 1629.24 9.58607C1604.89 18.197 1572.1 32.9607 1529.83 55.2512C1412.74 116.992 1305.75 196.207 1232.28 264.242C1161.09 279.481 1107.47 286.605 1070.36 286.94C1049.54 287.128 1033.99 285.178 1023.46 281.367C1012.94 277.556 1007.61 271.962 1006.84 264.932C1006.82 264.767 1006.81 264.6 1006.8 264.432C1036.16 257.194 1068.34 247.361 1102.42 234.793C1159.77 213.644 1210.38 188.062 1250.34 163.396C1290.29 138.738 1319.66 114.967 1334.47 97.4192C1338.18 93.0292 1340.99 89.0086 1342.83 85.4436C1344.67 81.8917 1345.57 78.7207 1345.36 76.0549C1345.14 73.3299 1343.77 71.2026 1341.23 69.8213C1338.75 68.4666 1335.18 67.8432 1330.56 67.9484C1321.32 68.1591 1307.49 71.3027 1288.63 77.9907C1269.75 84.6845 1245.79 94.9493 1216.24 109.448C1146.36 143.745 1092.88 175.052 1057.27 201.523C1039.47 214.757 1026.1 226.801 1017.38 237.427C1009.36 247.203 1005.18 255.893 1005.25 263.269C988.636 267.334 972.946 270.562 958.346 272.979C917.683 279.709 885.559 280.133 865.602 274.879C855.615 272.251 848.81 268.236 845.434 263.019C842.459 258.424 842.057 252.751 844.725 245.945C873.683 238.924 906.413 229.168 942.964 216.145C1004.77 194.124 1045.12 174.325 1068.15 158.622C1079.66 150.78 1086.92 143.912 1090.35 138.243C1092.06 135.404 1092.86 132.798 1092.68 130.483C1092.5 128.136 1091.31 126.192 1089.29 124.702C1087.29 123.227 1084.47 122.193 1080.96 121.583C1077.45 120.972 1073.19 120.777 1068.26 121.019C1058.41 121.503 1045.81 123.734 1031 127.935C1001.38 136.338 962.837 152.642 919.565 178.722C897.929 191.761 881.162 203.652 868.811 214.326C856.47 224.992 848.495 234.48 844.502 242.725C844.184 243.38 843.892 244.028 843.624 244.669C824.433 249.301 806.916 252.724 791.059 255.096C751.16 261.064 721.82 260.366 702.764 255.556C693.235 253.15 686.337 249.731 681.967 245.658C678.776 242.684 676.931 239.363 676.38 235.801C700.939 231.932 724.721 227.308 747.411 221.829C797.105 209.831 825.123 199.314 837.773 190.995C840.941 188.912 843.193 186.936 844.578 185.07C845.966 183.2 846.531 181.369 846.162 179.637C845.796 177.916 844.547 176.485 842.729 175.317C840.907 174.147 838.434 173.189 835.446 172.432C823.515 169.412 802.668 169.447 779.384 173.222C756.08 177 730.233 184.539 708.291 196.608C697.794 202.381 689.719 208.382 684.122 214.309C678.53 220.23 675.365 226.127 674.797 231.686C674.698 232.652 674.678 233.604 674.737 234.541C544.65 254.859 392.906 254.099 266.294 247.253C190.822 243.173 124.299 236.931 76.6438 231.71C52.8166 229.1 33.7069 226.744 20.5549 225.041C13.9789 224.19 8.89238 223.502 5.45027 223.027C3.72921 222.789 2.41927 222.605 1.53982 222.48C1.1001 222.417 0.767995 222.369 0.545939 222.337L0.217422 222.29C0.213998 222.289 0.212326 222.289 0.104019 223.031C-0.0042889 223.773 -0.00244572 223.774 0.00114995 223.774L0.332089 223.822C0.555078 223.854 0.888123 223.902 1.3288 223.965C2.21016 224.09 3.52205 224.275 5.2451 224.512C8.6912 224.988 13.782 225.677 20.3623 226.529C33.5231 228.233 52.6425 230.59 76.4804 233.201C124.156 238.425 190.707 244.669 266.213 248.751C392.819 255.596 544.656 256.367 674.898 236.033C675.505 239.952 677.53 243.573 680.944 246.755C685.568 251.064 692.734 254.571 702.397 257.01C721.728 261.89 751.292 262.561 791.281 256.58C806.905 254.243 824.129 250.889 842.966 246.37C840.572 253.095 841.02 258.96 844.174 263.834C847.851 269.514 855.092 273.664 865.22 276.33C885.491 281.666 917.871 281.199 958.591 274.458C973.148 272.049 988.781 268.836 1005.32 264.794C1005.33 264.895 1005.34 264.995 1005.35 265.096C1006.21 272.943 1012.17 278.875 1022.95 282.777C1033.73 286.679 1049.49 288.628 1070.37 288.44C1107.2 288.107 1160.13 281.122 1230.13 266.233C1198.5 295.692 1173.24 322.988 1156.26 345.772C1142.16 364.689 1133.69 380.611 1132.12 392.135C1131.33 397.921 1132.27 402.707 1135.24 406.183C1138.2 409.65 1143.05 411.664 1149.76 412.189C1163.15 413.238 1184.43 408.394 1214.6 396.441C1244.81 384.474 1284.03 365.342 1333.36 337.703C1431.96 282.463 1489.23 281.47 1523.72 304.641C1540.98 316.242 1552.64 333.964 1560.93 354.229C1569.22 374.495 1574.12 397.249 1577.89 418.851C1579.13 425.936 1580.24 432.904 1581.32 439.619C1583.51 453.339 1585.54 466.001 1588.08 476.443C1589.98 484.226 1592.17 490.845 1594.96 495.794C1597.76 500.743 1601.21 504.117 1605.66 505.222C1610.1 506.325 1615.34 505.114 1621.58 501.356C1627.83 497.596 1635.19 491.228 1643.94 481.834C1661.44 463.043 1684.62 432.009 1715.75 385.084C1802.11 254.927 1819.65 184.187 1826.25 146.939C1826.93 143.111 1827.49 139.654 1827.99 136.53C1828.72 132.037 1829.34 128.23 1830.04 124.994C1831.22 119.511 1832.59 115.892 1834.96 113.531C1837.3 111.194 1840.74 109.976 1846.36 109.618C1851.98 109.26 1859.64 109.77 1870.31 110.761C2126.33 134.559 2310.67 188.946 2431 237.373C2491.16 261.586 2535.32 284.31 2564.43 300.976C2578.99 309.309 2589.79 316.128 2596.94 320.861C2600.52 323.227 2603.18 325.072 2604.95 326.325C2605.84 326.951 2606.5 327.429 2606.94 327.75C2607.08 327.852 2607.19 327.938 2607.29 328.008L2607.43 328.112L2607.58 328.225L2607.59 328.231C2607.59 328.231 2607.59 328.232 2608.04 327.633C2608.49 327.035 2608.49 327.034 2608.49 327.032L2608.45 327.002L2608.32 326.908C2608.21 326.825 2608.04 326.701 2607.82 326.539C2607.38 326.213 2606.71 325.731 2605.82 325.1C2604.04 323.839 2601.36 321.985 2597.77 319.61C2590.59 314.859 2579.77 308.024 2565.18 299.675C2536.01 282.976 2491.79 260.221 2431.56 235.981C2311.1 187.501 2126.61 133.079 1870.45 109.268C1859.8 108.278 1852.02 107.754 1846.26 108.121C1840.5 108.488 1836.62 109.754 1833.9 112.469C1831.2 115.16 1829.76 119.161 1828.57 124.678C1827.87 127.943 1827.24 131.819 1826.5 136.355C1826 139.477 1825.44 142.913 1824.77 146.677C1818.21 183.698 1800.76 254.248 1714.5 384.255C1683.38 431.167 1660.25 462.116 1642.84 480.812C1634.14 490.162 1626.89 496.415 1620.81 500.071C1614.73 503.73 1609.92 504.733 1606.02 503.766C1602.14 502.801 1598.96 499.823 1596.27 495.056C1593.58 490.288 1591.42 483.828 1589.54 476.089C1587.01 465.705 1585 453.143 1582.81 439.463C1581.74 432.735 1580.61 425.736 1579.37 418.593C1575.6 396.967 1570.68 374.083 1562.32 353.661C1553.97 333.238 1542.15 315.222 1524.55 303.396ZM676.226 234.307C676.183 233.495 676.204 232.672 676.289 231.839C676.811 226.729 679.748 221.125 685.212 215.339C690.671 209.558 698.606 203.646 709.014 197.922C730.768 185.957 756.44 178.461 779.624 174.702C802.829 170.94 823.439 170.94 835.078 173.886C837.983 174.622 840.284 175.53 841.918 176.579C843.556 177.631 844.444 178.77 844.695 179.949C844.944 181.116 844.608 182.513 843.373 184.176C842.136 185.843 840.045 187.706 836.948 189.742C824.541 197.902 796.76 208.371 747.06 220.371C724.433 225.835 700.717 230.446 676.226 234.307ZM845.455 244.224C845.582 243.944 845.714 243.662 845.852 243.379C849.716 235.4 857.516 226.07 869.792 215.461C882.058 204.86 898.749 193.018 920.339 180.007C963.517 153.983 1001.94 137.738 1031.41 129.378C1046.15 125.197 1058.63 122.994 1068.33 122.517C1073.19 122.279 1077.33 122.474 1080.71 123.061C1084.09 123.649 1086.66 124.624 1088.4 125.909C1090.12 127.178 1091.04 128.745 1091.18 130.601C1091.33 132.488 1090.69 134.777 1089.06 137.466C1085.8 142.854 1078.76 149.574 1067.31 157.383C1044.43 172.98 1004.22 192.729 942.461 214.732C906.405 227.578 874.086 237.237 845.455 244.224ZM1006.75 262.9C1006.82 256.138 1010.71 247.922 1018.54 238.378C1027.15 227.887 1040.41 215.926 1058.16 202.727C1093.67 176.334 1147.06 145.072 1216.91 110.794C1246.42 96.3116 1270.33 86.0727 1289.13 79.4044C1307.95 72.7302 1321.6 69.6531 1330.6 69.4481C1335.11 69.3454 1338.36 69.9654 1340.51 71.1383C1342.62 72.2847 1343.69 73.9692 1343.86 76.1731C1344.04 78.4362 1343.28 81.3113 1341.5 84.7555C1339.73 88.1867 1336.99 92.1123 1333.32 96.4515C1318.66 113.821 1289.45 137.495 1249.56 162.119C1209.67 186.735 1159.15 212.272 1101.9 233.386C1067.99 245.892 1035.96 255.684 1006.75 262.9ZM1235.16 263.623C1308.45 196.09 1414.51 117.757 1530.53 56.5781C1572.77 34.3046 1605.49 19.5773 1629.74 11.0002C1641.86 6.7115 1651.85 3.9664 1659.85 2.58171C1667.87 1.19419 1673.81 1.18541 1677.88 2.30399C1681.9 3.40963 1684.01 5.58403 1684.6 8.61228C1685.2 11.7368 1684.23 15.9412 1681.61 21.1298C1676.38 31.4807 1664.83 45.2613 1647.92 61.0976C1580.33 124.414 1428.18 219.697 1259.01 258.323C1250.85 260.186 1242.9 261.952 1235.16 263.623Z" fill="#FAE0B0"/>
</svg>
