<?xml version="1.0" encoding="UTF-8"?>
<svg width="205px" height="78px" viewBox="0 0 205 78" version="1.1" xmlns="http://www.w3.org/2000/svg" xmlns:xlink="http://www.w3.org/1999/xlink">
    <title>Logo-Cambridge-Preparation-Centre</title>
    <defs>
        <polygon id="path-1" points="0.15055768 0.200166667 9.28867238 0.200166667 9.28867238 13.8888889 0.15055768 13.8888889"></polygon>
    </defs>
    <g id="Page-1" stroke="none" stroke-width="1" fill="none" fill-rule="evenodd">
        <g id="Nosotros" transform="translate(-201.000000, -3961.000000)">
            <g id="Group" transform="translate(201.000000, 3959.000000)">
                <g id="Group-63" transform="translate(0.000000, 1.666667)">
                    <polygon id="Fill-26" fill="#4A4A49" points="9.34022413 61.3822778 16.209176 61.3822778 15.5856823 63.3139444 11.6044034 63.3139444 11.6044034 66.5695 15.5856823 66.5695 15.5856823 68.5000556 11.6044034 68.5000556 11.6044034 71.9272778 16.2268952 71.9272778 16.2268952 73.8589444 9.34022413 73.8589444"></polygon>
                    <path d="M17.5720026,64.9027778 L19.4967488,64.9027778 L19.7232221,65.9077778 C20.6662149,65.1683333 21.666795,64.6761111 22.7792274,64.6761111 C24.1945471,64.6761111 25.6486276,65.3761111 25.6486276,67.9322222 L25.6486276,73.8588889 L23.3838945,73.8588889 L23.3838945,68.6322222 C23.3838945,67.5344444 23.1568675,66.6455556 22.0056744,66.6455556 C21.270882,66.6455556 20.4785023,67.0422222 19.8173553,67.5916667 L19.8173553,73.8588889 L17.5720026,73.8588889 L17.5720026,64.9027778 Z" id="Fill-28" fill="#4A4A49"></path>
                    <g id="Group-32" transform="translate(26.025049, 64.094444)">
                        <mask id="mask-2" fill="white">
                            <use xlink:href="#path-1"></use>
                        </mask>
                        <g id="Clip-31"></g>
                        <path d="M9.27261437,0.200166667 L7.57323401,0.200166667 L5.80629927,0.200166667 L5.76753856,0.200166667 L5.76753856,0.2035 L4.40094661,0.2035 C1.964559,0.2035 0.755224786,1.85238889 0.755224786,3.50183333 C0.755224786,4.69738889 1.303412,5.73961111 2.24695847,6.28794444 C1.51050494,6.80016667 1.16941068,7.44405556 1.16941068,7.97461111 C1.16941068,8.45072222 1.37705735,8.86572222 1.7563586,9.09405556 C0.832192485,9.49127778 0.15055768,10.2696111 0.15055768,11.2546111 C0.15055768,12.8090556 1.67828345,13.8890556 4.30625972,13.8890556 C7.40490178,13.8890556 9.02897561,12.5612778 9.02897561,10.9318333 C9.02897561,7.57794444 3.15395913,9.07461111 3.15395913,7.46294444 C3.15395913,7.2735 3.21099275,7.08516667 3.37987871,6.80016667 C3.68387343,6.89405556 4.06040606,6.95238889 4.47625313,6.95238889 C6.6490679,6.95238889 8.17845485,5.64516667 8.17845485,3.6335 C8.17845485,2.9335 7.95973368,2.27127778 7.54887014,1.73294444 L7.80690574,1.72016667 C8.54225181,1.6585 8.77260119,1.24572222 8.88722215,1.03961111 L9.27261437,0.261277778 L9.28867238,0.229611111 L9.27261437,0.200166667 Z M4.45798022,5.24572222 C3.45518523,5.24572222 2.89038629,4.46961111 2.89038629,3.57738889 C2.89038629,2.49794444 3.55042584,1.90905556 4.43859987,1.90905556 C5.43917996,1.90905556 6.04329334,2.70794444 6.04329334,3.59794444 C6.04329334,4.67683333 5.36331971,5.24572222 4.45798022,5.24572222 L4.45798022,5.24572222 Z M4.60803955,12.2968333 C3.11630587,12.2968333 2.17165194,11.7473889 2.17165194,10.8562778 C2.17165194,10.2696111 2.60687937,9.89016667 2.89038629,9.68183333 C4.09805933,10.1551667 6.8755412,9.89016667 6.8755412,11.1796111 C6.8755412,11.8423889 5.96798682,12.2968333 4.60803955,12.2968333 L4.60803955,12.2968333 Z" id="Fill-30" fill="#4A4A49" mask="url(#mask-2)"></path>
                    </g>
                    <path d="M41.1910086,73.8588889 L43.4557416,73.8588889 L43.4557416,64.9027778 L41.1910086,64.9027778 L41.1910086,73.8588889 Z M40.9462624,62.1016667 C40.9462624,61.3433333 41.5304417,60.7383333 42.3228214,60.7383333 C43.1163085,60.7383333 43.7204219,61.3255556 43.7204219,62.1016667 C43.7204219,62.8405556 43.1163085,63.4461111 42.3228214,63.4461111 C41.5304417,63.4461111 40.9462624,62.8588889 40.9462624,62.1016667 L40.9462624,62.1016667 Z" id="Fill-33" fill="#4A4A49"></path>
                    <path d="M45.2284904,71.529 C45.9084641,71.9651111 46.7567699,72.2684444 47.6621094,72.2684444 C48.5685564,72.2684444 49.2280422,72.0034444 49.2280422,71.3212222 C49.2280422,69.8067778 45.0402241,70.3745556 45.0402241,67.384 C45.0402241,65.7923333 46.3232037,64.6762222 48.4179433,64.6762222 C49.417416,64.6762222 50.3044825,64.8456667 51.0409361,65.1112222 L51.0409361,67.024 C50.2845485,66.7012222 49.4556229,66.4551111 48.5120765,66.4551111 C47.7562426,66.4551111 47.2468161,66.6828889 47.2468161,67.2695556 C47.2468161,68.689 51.4362953,68.1401111 51.4362953,71.264 C51.4362953,73.2328889 49.736915,74.0473333 47.8132762,74.0473333 C46.4167831,74.0473333 45.2650363,73.6301111 44.5302439,73.1767778 L45.2284904,71.529 Z" id="Fill-35" fill="#4A4A49"></path>
                    <path d="M52.4398655,60.4537222 L54.6841107,60.4537222 L54.6841107,65.8876111 C55.4958708,65.2065 56.5158312,64.6759444 57.6481978,64.6759444 C59.0629637,64.6759444 60.4965564,65.3759444 60.4965564,67.9320556 L60.4965564,73.8587222 L58.2512037,73.8587222 L58.2512037,68.6326111 C58.2512037,67.5342778 58.0247304,66.6453889 56.874091,66.6453889 C56.1193645,66.6453889 55.3463652,67.0420556 54.6841107,67.5915 L54.6841107,73.8587222 L52.4398655,73.8587222 L52.4398655,60.4537222 Z" id="Fill-36" fill="#4A4A49"></path>
                    <path d="M39.118584,72.0406111 C38.7038444,72.0406111 38.4568833,71.8511667 38.4568833,71.2261667 L38.4568833,60.4539444 L36.2120844,60.4539444 L36.2120844,71.8322778 C36.2120844,73.2528333 36.9673645,73.9900556 38.4568833,73.9900556 C38.8467053,73.9900556 39.2996519,73.9339444 39.7298958,73.8061667 L39.6651101,71.9350556 C39.4768438,72.0050556 39.2276678,72.0406111 39.118584,72.0406111" id="Fill-37" fill="#4A4A49"></path>
                    <path d="M76.1229927,67.6599444 C76.1229927,64.8966111 74.6318128,63.1732778 72.2735003,63.1732778 C69.9705603,63.1732778 68.4240079,64.8205 68.4240079,67.6599444 C68.4240079,70.4821667 69.9705603,72.1288333 72.2735003,72.1288333 C74.5565063,72.1288333 76.1229927,70.4821667 76.1229927,67.6599444 M66.0086618,67.6599444 C66.0086618,63.8749444 68.5934476,61.2610556 72.2735003,61.2610556 C75.9529993,61.2610556 78.5372314,63.8938333 78.5372314,67.6599444 C78.5372314,71.1249444 76.4053922,73.5099444 73.31118,73.9271667 C73.9717732,74.6838333 74.8195254,75.0243889 75.8389321,75.0243889 C76.3300857,75.0243889 76.8395122,74.9110556 77.0848121,74.8171667 L77.6125115,76.5577222 C77.0089519,76.8416111 76.2730521,76.9371667 75.5748055,76.9371667 C73.1218062,76.9371667 71.5747001,75.5171667 70.4041266,73.7932778 C67.7639684,73.0927222 66.0086618,70.8027222 66.0086618,67.6599444" id="Fill-38" fill="#4A4A49"></path>
                    <path d="M87.6587343,68.8152778 L87.6587343,74.0941667 L87.6194199,74.1186111 L87.575122,74.0941667 L86.3967963,73.5041667 C86.2356625,73.4158333 85.9909163,73.2786111 85.7793935,73.0175 L85.6996572,72.9230556 L85.5440606,72.9230556 C84.8668556,73.5291667 83.9404746,74.0402778 82.7715623,74.0402778 C81.9038761,74.0402778 80.6402769,73.6813889 80.0915359,72.2791667 C79.884443,71.7880556 79.7897561,71.2375 79.7897561,70.4058333 L79.7897561,64.8963889 L82.0351088,64.8963889 L82.0351088,70.1780556 C82.0351088,70.6513889 82.0915887,71.0113889 82.2250363,71.2952778 C82.4498484,71.8258333 82.8845221,72.1091667 83.5633883,72.1091667 C84.2992881,72.1091667 84.9969809,71.7497222 85.3940013,71.3152778 L85.3940013,64.8963889 L87.6587343,64.8963889 L87.6587343,71.6358333" id="Fill-39" fill="#4A4A49"></path>
                    <path d="M92.6952459,64.6784444 C91.4488121,64.6784444 90.2954041,64.9795556 89.2377904,65.569 L89.9759051,67.0295556 C90.6160105,66.6867778 91.4294318,66.4023333 92.3170521,66.4023333 C93.3563929,66.4023333 94.0363665,66.8573333 94.0363665,67.9001111 L94.0363665,68.1851111 L92.5053184,68.2412222 C91.597764,68.2806667 90.8236572,68.4323333 90.2018247,68.7523333 C89.2771048,69.2278889 88.6901569,69.9856667 88.6901569,71.1978889 C88.6901569,72.9228889 89.9565247,74.0612222 91.6575662,74.0612222 C92.7727673,74.0612222 93.5828662,73.6056667 94.2257403,73.0173333 L94.4140066,73.0173333 C94.6260831,73.2784444 94.8680606,73.4156667 95.0308556,73.5045556 L96.2080738,74.0945556 L96.2523718,74.119 L96.2916862,74.0945556 L96.2916862,68.8151111 L96.2916862,67.9384444 C96.2916862,65.7778889 95.0939802,64.6784444 92.6952459,64.6784444 M92.2982254,72.2784444 C91.4870191,72.2784444 90.9764852,71.824 90.9764852,71.0456667 C90.9764852,70.5923333 91.1481397,70.2312222 91.5224575,70.0234444 C91.8270059,69.8517778 92.2417456,69.7562222 92.8264786,69.739 L93.9826552,69.7023333 L93.9826552,71.5801111 L93.9881925,71.6512222 C93.6731233,71.9012222 93.0883902,72.2784444 92.2982254,72.2784444" id="Fill-40" fill="#4A4A49"></path>
                    <path d="M129.238347,64.6784444 C127.99302,64.6784444 126.840166,64.9795556 125.782552,65.569 L126.520113,67.0295556 C127.160773,66.6867778 127.974194,66.4023333 128.862922,66.4023333 C129.901155,66.4023333 130.581129,66.8573333 130.581129,67.9001111 L130.581129,68.1851111 L129.05008,68.2412222 C128.14308,68.2806667 127.368419,68.4323333 126.744926,68.7523333 C125.821313,69.2278889 125.234919,69.9856667 125.234919,71.1978889 C125.234919,72.9228889 126.500179,74.0612222 128.200667,74.0612222 C129.316976,74.0612222 130.128182,73.6056667 130.769395,73.0173333 L130.957661,73.0173333 C131.170845,73.2784444 131.412823,73.4156667 131.575618,73.5045556 L132.752282,74.0945556 L132.798241,74.119 L132.836448,74.0945556 L132.836448,67.9384444 C132.836448,65.7778889 131.638742,64.6784444 129.238347,64.6784444 M128.843541,72.2784444 C128.030674,72.2784444 127.52014,71.824 127.52014,71.0456667 C127.52014,70.5923333 127.691794,70.2312222 128.068327,70.0234444 C128.371214,69.8517778 128.786508,69.7562222 129.371794,69.739 L130.527417,69.7023333 L130.527417,71.5801111 L130.532955,71.6512222 C130.217332,71.9012222 129.633152,72.2784444 128.843541,72.2784444" id="Fill-41" fill="#4A4A49"></path>
                    <path d="M100.649608,72.0335556 C100.234869,72.0335556 99.9884614,71.8441111 99.9884614,71.2202222 L99.9884614,60.4474444 L97.7431088,60.4474444 L97.7431088,71.8257778 C97.7431088,73.2452222 98.4972815,73.9841111 99.9884614,73.9841111 C100.357242,73.9841111 100.784163,73.9307778 101.192258,73.8191111 L101.192258,71.928 C101.005653,71.998 100.757031,72.0335556 100.649608,72.0335556" id="Fill-42" fill="#4A4A49"></path>
                    <path d="M102.570811,73.8516667 L104.836651,73.8516667 L104.836651,64.8966667 L102.570811,64.8966667 L102.570811,73.8516667 Z M102.326618,62.0944444 C102.326618,61.3372222 102.910244,60.7305556 103.703177,60.7305556 C104.496111,60.7305556 105.100224,61.3183333 105.100224,62.0944444 C105.100224,62.8333333 104.496111,63.4394444 103.703177,63.4394444 C102.910244,63.4394444 102.326618,62.8527778 102.326618,62.0944444 L102.326618,62.0944444 Z" id="Fill-43" fill="#4A4A49"></path>
                    <path d="M113.340751,73.8516667 L115.60327,73.8516667 L115.60327,64.8966667 L113.340751,64.8966667 L113.340751,73.8516667 Z M113.095452,62.0944444 C113.095452,61.3372222 113.680738,60.7305556 114.473118,60.7305556 C115.265498,60.7305556 115.869057,61.3183333 115.869057,62.0944444 C115.869057,62.8333333 115.265498,63.4394444 114.473118,63.4394444 C113.680738,63.4394444 113.095452,62.8527778 113.095452,62.0944444 L113.095452,62.0944444 Z M107.47238,66.6566667 L106.151747,66.6566667 L106.151747,64.8966667 L107.47238,64.8966667 L107.47238,63.6472222 C107.47238,61.545 108.698879,60.4472222 110.510112,60.4472222 C111.094845,60.4472222 111.773711,60.5616667 112.378378,60.8455556 L111.925985,62.6438889 C111.547792,62.5105556 111.169598,62.3983333 110.831826,62.3983333 C110.076546,62.3983333 109.736559,62.8527778 109.736559,63.6272222 L109.736559,64.8966667 L112.058326,64.8966667 L111.510138,66.6566667 L109.736559,66.6566667 L109.736559,73.8516667 L107.47238,73.8516667 L107.47238,66.6566667 Z" id="Fill-44" fill="#4A4A49"></path>
                    <path d="M135.03191,71.6356111 L135.03191,66.6567222 L133.428324,66.6567222 L133.428324,64.8967222 L135.03191,64.8967222 L135.03191,62.8139444 L137.276709,62.1517222 L137.276709,64.8967222 L139.974455,64.8967222 L139.428483,66.6567222 L137.276709,66.6567222 L137.276709,71.0867222 C137.276709,71.9211667 137.559109,72.2239444 138.144396,72.2239444 C138.672095,72.2239444 139.163802,72.0139444 139.502682,71.7878333 L140.182655,73.3383889 C139.540889,73.7761667 138.465002,74.0406111 137.578489,74.0406111 C135.993176,74.0406111 135.03191,73.1306111 135.03191,71.6356111" id="Fill-45" fill="#4A4A49"></path>
                    <path d="M141.52588,73.8516667 L143.790613,73.8516667 L143.790613,64.8966667 L141.52588,64.8966667 L141.52588,73.8516667 Z M141.28058,62.0944444 C141.28058,61.3372222 141.865867,60.7305556 142.657693,60.7305556 C143.45118,60.7305556 144.05474,61.3183333 144.05474,62.0944444 C144.05474,62.8333333 143.45118,63.4394444 142.657693,63.4394444 C141.865867,63.4394444 141.28058,62.8527778 141.28058,62.0944444 L141.28058,62.0944444 Z" id="Fill-46" fill="#4A4A49"></path>
                    <path d="M151.623599,69.3456111 C151.623599,67.6978333 150.887699,66.4872778 149.472933,66.4872778 C148.058167,66.4872778 147.320606,67.6978333 147.320606,69.3456111 C147.320606,71.0117222 148.058167,72.2239444 149.472933,72.2239444 C150.887699,72.2239444 151.623599,71.0117222 151.623599,69.3456111 M145.019881,69.3456111 C145.019881,66.6567222 146.812287,64.6683889 149.472933,64.6683889 C152.134133,64.6683889 153.94592,66.6567222 153.94592,69.3456111 C153.94592,72.0333889 152.134133,74.0406111 149.472933,74.0406111 C146.812287,74.0406111 145.019881,72.0333889 145.019881,69.3456111" id="Fill-47" fill="#4A4A49"></path>
                    <path d="M155.159019,64.8965556 L157.083765,64.8965556 L157.310792,65.8998889 C158.254339,65.1615556 159.254365,64.6682222 160.367351,64.6682222 C161.782671,64.6682222 163.236198,65.3693333 163.236198,67.9254444 L163.236198,73.8515556 L160.970911,73.8515556 L160.970911,68.6254444 C160.970911,67.5282222 160.744991,66.6387778 159.593798,66.6387778 C158.857898,66.6387778 158.066073,67.0354444 157.405479,67.5854444 L157.405479,73.8515556 L155.159019,73.8515556 L155.159019,64.8965556 Z" id="Fill-48" fill="#4A4A49"></path>
                    <path d="M165.113102,71.5230556 C165.791968,71.9580556 166.640828,72.2613889 167.545614,72.2613889 C168.452614,72.2613889 169.112654,71.9952778 169.112654,71.3152778 C169.112654,69.7997222 164.923175,70.3686111 164.923175,67.3769444 C164.923175,65.7863889 166.206154,64.6680556 168.302001,64.6680556 C169.300367,64.6680556 170.188541,64.8397222 170.923887,65.1036111 L170.923887,67.0169444 C170.168606,66.6941667 169.339681,66.4480556 168.395027,66.4480556 C167.640301,66.4480556 167.130874,66.6758333 167.130874,67.2625 C167.130874,68.6819444 171.320907,68.1341667 171.320907,71.2580556 C171.320907,73.2258333 169.62208,74.0402778 167.697334,74.0402778 C166.300841,74.0402778 165.150202,73.6241667 164.413748,73.1702778 L165.113102,71.5230556 Z" id="Fill-49" fill="#4A4A49"></path>
                    <path d="M124.046073,71.5276667 L123.896567,71.6182222 C123.272519,71.9582222 122.650133,72.2237778 121.820654,72.2237778 C120.292374,72.2237778 119.292902,71.2198889 119.292902,69.3837778 C119.292902,67.736 120.274102,66.4871111 121.934167,66.4871111 C122.802407,66.4871111 123.48072,66.7332222 124.10366,67.1865556 L124.10366,65.2748889 C123.632994,64.971 122.820127,64.6682222 121.706587,64.6682222 C119.047602,64.6682222 116.989962,66.6565556 116.989962,69.441 C116.989962,72.0337778 118.594655,74.0404444 121.49894,74.0404444 C122.72544,74.0404444 123.83898,73.6615556 124.556606,73.1704444 C124.556606,73.1704444 124.204991,72.7082222 124.046073,71.5276667" id="Fill-50" fill="#4A4A49"></path>
                    <polygon id="Fill-51" fill="#E84A34" points="204.471338 24.6149444 170.993711 0.456055556 0.00138431114 0.456055556 -0.000276862227 48.7732778 170.993711 48.7732778"></polygon>
                    <path d="M22.1937746,9.42588889 C14.1941173,9.42588889 9.05943045,15.1831111 9.05943045,22.412 C9.05943045,29.7203333 13.4764904,34.9853333 21.6284219,34.9853333 C24.0576111,34.9853333 26.6302149,34.5442222 29.310795,33.1197778 C28.6529703,32.0953333 28.2753303,30.8464444 28.2675781,29.4236667 C26.4917838,30.4414444 24.6091206,31.1608889 22.156675,31.1608889 C17.0635175,31.1608889 13.8917838,27.5275556 13.8917838,22.3008889 C13.8917838,17.4142222 16.7960686,13.2492222 22.3106104,13.2492222 C24.7237416,13.2492222 26.8002083,13.8547778 28.7255082,14.8775556 L28.7255082,10.6386667 C27.1778484,9.957 24.9131154,9.42588889 22.1937746,9.42588889" id="Fill-52" fill="#FFFFFF"></path>
                    <path d="M85.5811602,31.0437222 C84.9371786,31.0437222 84.2223204,30.9709444 83.5046935,30.7409444 L83.5046935,20.3659444 C84.0705999,20.1392778 84.864087,19.7998333 86.2207119,19.7998333 C89.1643111,19.7998333 90.900791,21.9953889 90.900791,25.1387222 C90.900791,28.6587222 88.8254318,31.0437222 85.5811602,31.0437222 L85.5811602,31.0437222 Z M83.5046935,7.60927778 L79.0145419,7.60927778 L79.0145419,33.5453889 C80.5217798,34.3381667 82.5622544,34.7920556 84.864087,34.7920556 C90.9428741,34.7920556 95.5421094,31.1603889 95.5421094,24.8737222 C95.5421094,19.1942778 91.7319314,16.0515 86.9748846,16.0515 C85.5811602,16.0515 84.5235465,16.2776111 83.5046935,16.5809444 L83.5046935,7.60927778 Z" id="Fill-53" fill="#FFFFFF"></path>
                    <path d="M129.522241,31.2352222 C126.277416,31.2352222 124.049782,29.2296667 124.049782,25.7485556 C124.049782,22.0724444 126.350508,19.9524444 129.481266,19.9524444 C130.390481,19.9524444 130.955834,20.0663333 131.634146,20.2185556 L131.634146,30.9341111 C131.032802,31.1607778 130.12414,31.2352222 129.522241,31.2352222 L129.522241,31.2352222 Z M136.16472,7.798 L131.634146,7.798 L131.634146,16.4691111 C130.917627,16.318 129.899881,16.2446667 129.220461,16.2446667 C123.556968,16.2446667 119.443902,20.1441111 119.443902,25.8218889 C119.443902,31.7268889 123.786763,34.9852222 129.596994,34.9852222 C131.786421,34.9852222 134.389479,34.5291111 136.16472,33.6613333 L136.16472,7.798 Z" id="Fill-54" fill="#FFFFFF"></path>
                    <path d="M160.768192,23.7398333 C160.807507,21.5787222 162.012965,19.6887222 164.240599,19.6887222 C166.618291,19.6887222 167.638252,21.6909444 167.674244,23.7398333 L160.768192,23.7398333 Z M164.315905,16.2442778 C159.219425,16.2442778 156.278595,20.2931667 156.278595,25.6715 C156.278595,30.5142778 158.917645,34.9853889 165.409511,34.9853889 C167.599491,34.9853889 169.827678,34.4903889 171.715325,33.3176111 L170.356485,30.2142778 C169.070737,30.9370556 167.638252,31.4253889 165.864672,31.4253889 C162.882866,31.4253889 160.920467,29.6465 160.807507,26.8831667 L172.241917,26.8831667 L172.241917,25.8220556 C172.241917,19.8765 169.335417,16.2442778 164.315905,16.2442778 L164.315905,16.2442778 Z" id="Fill-55" fill="#FFFFFF"></path>
                    <path d="M37.2021991,31.4240556 C35.5781252,31.4240556 34.5592722,30.5179444 34.5592722,28.9640556 C34.5592722,28.0568333 34.8981516,27.3346111 35.6562004,26.9196111 C36.2586526,26.5785 37.0875781,26.3896111 38.2570442,26.3523889 L40.5671826,26.2801667 L40.5671826,30.0335 L40.5782571,30.1757222 C39.9486724,30.6718333 38.7825287,31.4240556 37.2021991,31.4240556 M37.9918102,16.2446111 C35.5061411,16.2446111 33.2004324,16.8468333 31.0890811,18.0229444 L32.5614344,20.9346111 C33.8433065,20.2551667 35.4668266,19.6851667 37.2392986,19.6851667 C39.3141042,19.6851667 40.6757126,20.5957222 40.6757126,22.6796111 L40.6757126,23.2468333 L37.6185999,23.3601667 C35.805706,23.4357222 34.2574924,23.7368333 33.0121661,24.3857222 C31.1660488,25.3273889 29.9921529,26.8451667 29.9921529,29.2696111 C29.9921529,32.7129444 32.5215662,34.9835 35.9208807,34.9835 C38.1440844,34.9835 39.7681582,34.0762778 41.0494766,32.9057222 L41.4260092,32.9057222 C41.8512696,33.4207222 42.3341173,33.6962778 42.6597073,33.8723889 L45.0146974,35.0490556 L45.1044008,35.1023889 L45.1675254,35.0490556 L45.1669717,22.7562778 C45.1669717,18.4368333 42.7876177,16.2446111 37.9918102,16.2446111" id="Fill-56" fill="#FFFFFF"></path>
                    <path d="M48.5551562,15.8513889 L48.4687752,15.8969444 L48.4687752,18.6313889 L48.4687752,34.5291667 L52.9589268,34.5291667 L52.9589268,26.1008333 L52.9589268,21.8836111 C54.2801134,20.8247222 55.7906737,20.1058333 57.2253738,20.1058333 C59.5255452,20.1058333 59.8644245,21.8491667 59.8644245,23.9308333 L59.8644245,34.5291667 L64.3972129,34.5291667 L64.3972129,22.5658333 L64.3595597,21.8863889 C65.6397706,20.8247222 67.1497772,20.1058333 68.5833698,20.1058333 C70.887971,20.1058333 71.3021569,21.7725 71.3021569,23.8913889 L71.3021569,34.5291667 L75.793416,34.5291667 L75.793416,22.6430556 C75.793416,17.9086111 72.9998761,16.1675 69.8674568,16.1675 C67.8674041,16.1675 65.6032248,17.1141667 63.4508978,18.9313889 C62.5854265,17.1513889 60.8838312,16.1675 58.6949585,16.1675 C56.5066394,16.1675 54.4700409,17.2269444 52.6970152,18.6313889 L52.5297904,18.6313889 C52.0729677,17.6758333 51.3542334,17.2730556 50.932849,17.0441667 L48.6454133,15.8969444 L48.5551562,15.8513889 Z" id="Fill-57" fill="#FFFFFF"></path>
                    <path d="M107.392699,16.3315556 C105.357208,16.3315556 103.574215,17.4298889 102.488361,18.7037778 L101.994993,16.6965556 L98.1825999,16.6965556 L98.1825999,34.6071111 L102.674966,34.6071111 L102.674966,21.961 C104.056509,20.2548889 105.426423,19.7521111 106.55879,19.7521111 C108.181202,19.7521111 109.319106,20.7837778 109.319106,20.7837778 L109.319106,16.666 C108.664604,16.4332222 108.018407,16.3315556 107.392699,16.3315556" id="Fill-58" fill="#FFFFFF"></path>
                    <path d="M112.014581,34.6094444 L116.544047,34.6094444 L116.544047,16.6966667 L112.014581,16.6966667 L112.014581,34.6094444 Z M114.277653,8.36611111 C112.691786,8.36611111 111.522874,9.57888889 111.522874,11.0944444 C111.522874,12.6066667 112.691786,13.7777778 114.277653,13.7777778 C115.862966,13.7777778 117.071193,12.5694444 117.071193,11.0944444 C117.071193,9.53833333 115.862966,8.36611111 114.277653,8.36611111 L114.277653,8.36611111 Z" id="Fill-59" fill="#FFFFFF"></path>
                    <path d="M146.798555,39.7137222 C143.81841,39.7137222 141.931317,38.6176111 141.931317,36.8337222 C141.931317,35.6631667 142.801218,34.9037222 143.366571,34.4898333 C145.779702,35.4365 151.328021,34.9037222 151.328021,37.4803889 C151.328021,38.8065 149.516235,39.7137222 146.798555,39.7137222 L146.798555,39.7137222 Z M146.49899,25.6281667 C144.49783,25.6281667 143.366571,24.0770556 143.366571,22.2976111 C143.366571,20.1392778 144.686096,18.9637222 146.458568,18.9637222 C148.459728,18.9637222 149.668509,20.5559444 149.668509,22.3348333 C149.668509,24.4937222 148.309115,25.6281667 146.49899,25.6281667 L146.49899,25.6281667 Z M156.115523,15.5531667 L152.72396,15.5531667 L149.188984,15.5531667 L149.118107,15.5531667 L146.384369,15.5531667 C141.516577,15.5531667 139.09957,18.8537222 139.09957,22.1470556 C139.09957,24.5326111 140.19373,26.6126111 142.083038,27.7103889 C140.611792,28.7353889 139.930157,30.0220556 139.930157,31.0803889 C139.930157,32.0287222 140.349326,32.8626111 141.099623,33.3142778 C139.253506,34.1109444 137.893005,35.6631667 137.893005,37.6331667 C137.893005,40.7365 140.950117,42.8959444 146.196103,42.8959444 C152.385635,42.8959444 155.628799,40.2448333 155.628799,36.9876111 C155.628799,30.2853889 143.893717,33.2765 143.893717,30.0598333 C143.893717,29.6776111 144.006676,29.3037222 144.347217,28.7353889 C144.948562,28.9253889 145.705503,29.0370556 146.533321,29.0370556 C150.875074,29.0370556 153.93108,26.4253889 153.93108,22.4120556 C153.93108,21.0092778 153.493637,19.6837222 152.672464,18.6092778 L153.19075,18.5837222 C154.655351,18.4631667 155.11605,17.6426111 155.344738,17.2265 L156.115523,15.6715 L156.151515,15.6087222 L156.115523,15.5531667 Z" id="Fill-60" fill="#FFFFFF"></path>
                    <polygon id="Fill-61" fill="#4A4A49" points="171.507955 61.9928889 170.631409 61.9928889 170.631409 61.6756667 172.76491 61.6756667 172.76491 61.9928889 171.884488 61.9928889 171.884488 64.5667778 171.507955 64.5667778"></polygon>
                    <path d="M175.456509,63.2971111 C175.434914,62.8937778 175.409442,62.4087778 175.413872,62.0487778 L175.400583,62.0487778 C175.302574,62.3876667 175.182969,62.7482222 175.037339,63.1465556 L174.528467,64.5493333 L174.246067,64.5493333 L173.780385,63.1726667 C173.643615,62.7648889 173.52844,62.3921111 173.447043,62.0487778 L173.438183,62.0487778 C173.429877,62.4087778 173.408836,62.8937778 173.382811,63.3271111 L173.305843,64.5665556 L172.951459,64.5665556 L173.151908,61.6754444 L173.62645,61.6754444 L174.118157,63.0737778 C174.237761,63.4298889 174.336324,63.7476667 174.408862,64.0476667 L174.421598,64.0476667 C174.49469,63.756 174.596575,63.4382222 174.725593,63.0737778 L175.237788,61.6754444 L175.712883,61.6754444 L175.89229,64.5665556 L175.529047,64.5665556 L175.456509,63.2971111 Z" id="Fill-62" fill="#4A4A49"></path>
                </g>
            </g>
        </g>
    </g>
</svg>