<?xml version="1.0" encoding="UTF-8"?>
<svg width="110px" height="110px" viewBox="0 0 110 110" version="1.1" xmlns="http://www.w3.org/2000/svg" xmlns:xlink="http://www.w3.org/1999/xlink">
    <title>Logo-Great-Place-to-Work</title>
    <defs>
        <polygon id="path-1" points="0 109.867347 109.470412 109.867347 109.470412 0.52894898 0 0.52894898"></polygon>
    </defs>
    <g id="Page-1" stroke="none" stroke-width="1" fill="none" fill-rule="evenodd">
        <g id="Nosotros" transform="translate(-1034.000000, -3944.000000)">
            <g id="Group-27" transform="translate(1034.000000, 3943.000000)">
                <polygon id="Fill-1" fill="#E60000" points="0 110.471051 109.470412 110.471051 109.470412 1.13265306 0 1.13265306"></polygon>
                <g id="Group-26" transform="translate(0.000000, 0.603704)">
                    <path d="M27.236,17.3829398 L27.236,18.8633173 C27.236,21.6043378 26.358268,23.8254704 24.6005361,25.5255827 C22.8439381,27.2256949 20.5656907,28.0751847 17.7941443,28.0751847 C14.8286804,28.0751847 12.3587835,27.1158276 10.4105361,25.1959806 C8.46115464,23.2500827 7.50063918,20.891899 7.50063918,18.1225622 C7.50063918,15.3271745 8.46115464,12.9689908 10.3833196,11.0219602 C12.331567,9.07606224 14.7198144,8.1167051 17.5741443,8.1167051 C21.1701237,8.1167051 24.2988866,9.87118469 25.9466186,12.5850214 L22.7067216,14.4493684 C21.8006392,12.8863071 19.8251753,11.789899 17.5469278,11.789899 C15.7075464,11.789899 14.1981649,12.3936031 13.0176495,13.5998786 C11.837134,14.7789704 11.2610515,16.2865316 11.2610515,18.1225622 C11.2610515,19.9325418 11.8643505,21.4401031 13.044866,22.6191949 C14.2525979,23.7982867 15.8447629,24.3736745 17.8213608,24.3736745 C20.7584742,24.3736745 22.7350722,23.0031643 23.4200206,20.7276643 L17.6013608,20.7276643 L17.6013608,17.3829398 L27.236,17.3829398 Z" id="Fill-2" fill="#FFFFFF"></path>
                    <path d="M32.9082577,16.3410122 C33.5342371,14.5865327 35.1003196,13.7087265 36.8716598,13.7087265 L36.8716598,17.6571551 C35.8567113,17.5201041 34.9166082,17.7387061 34.1091856,18.3152265 C33.2994948,18.8906143 32.9082577,19.8227878 32.9082577,21.1389306 L32.9082577,27.6913286 L29.5447526,27.6913286 L29.5447526,13.9828286 L32.9082577,13.9828286 L32.9082577,16.3410122 Z" id="Fill-4" fill="#FFFFFF"></path>
                    <path d="M49.497732,19.5486857 C49.0860825,17.6843388 47.7139175,16.779349 46.0945361,16.779349 C44.2007216,16.779349 42.9090722,17.7942061 42.4985567,19.5486857 L49.497732,19.5486857 Z M42.5529897,22.2897061 C43.0202062,24.017002 44.3095876,24.8676245 46.4234021,24.8676245 C47.7683505,24.8676245 48.8116495,24.4009714 49.497732,23.4971143 L52.3531959,25.1417265 C51.0082474,27.0876245 49.003299,28.075298 46.3689691,28.075298 C44.0895876,28.075298 42.2796907,27.3889102 40.9063918,26.0184 C39.5342268,24.6478898 38.8470103,22.9205939 38.8470103,20.8376449 C38.8470103,18.7807469 39.5342268,17.053451 40.8780412,15.6829408 C42.2241237,14.2852469 43.9807216,13.5999918 46.0945361,13.5999918 C48.0983505,13.5999918 49.7721649,14.2852469 51.0626804,15.6829408 C52.3804124,17.0817673 53.0381443,18.7807469 53.0381443,20.8376449 C53.0381443,21.3031653 52.9837113,21.7698184 52.9009278,22.2897061 L42.5529897,22.2897061 Z" id="Fill-6" fill="#FFFFFF"></path>
                    <path d="M61.9874948,24.7031633 C63.0863608,24.7031633 63.9924433,24.3463776 64.7046082,23.6339388 C65.4473918,22.8931837 65.8034742,21.9621429 65.8034742,20.8374184 C65.8034742,19.7138265 65.4473918,18.7816531 64.7046082,18.0692143 C63.9924433,17.3284592 63.0863608,16.9716735 61.9874948,16.9716735 C60.8897629,16.9716735 59.9836804,17.3284592 59.2703814,18.0692143 C58.5570825,18.7816531 58.199866,19.7138265 58.199866,20.8374184 C58.199866,21.9621429 58.5570825,22.8931837 59.2703814,23.6339388 C59.9836804,24.3463776 60.8897629,24.7031633 61.9874948,24.7031633 L61.9874948,24.7031633 Z M65.8034742,13.9837347 L69.3438866,13.9837347 L69.3438866,27.691102 L65.8034742,27.691102 L65.8034742,26.0736735 C64.7340928,27.417 63.2507938,28.0750714 61.3286289,28.0750714 C59.4915155,28.0750714 57.925433,27.3898163 56.6088351,25.9921224 C55.3171856,24.5932959 54.6583196,22.866 54.6583196,20.8374184 C54.6583196,18.8088367 55.3171856,17.1087245 56.6088351,15.7110306 C57.925433,14.3122041 59.4915155,13.5997653 61.3286289,13.5997653 C63.2507938,13.5997653 64.7340928,14.2578367 65.8034742,15.6011633 L65.8034742,13.9837347 Z" id="Fill-8" fill="#FFFFFF"></path>
                    <path d="M80.9568247,17.3829398 L77.8552784,17.3829398 L77.8552784,23.0847153 C77.8552784,24.5662255 78.9257938,24.5934092 80.9568247,24.4835418 L80.9568247,27.6912153 C76.0986804,28.2394194 74.313732,26.8417255 74.313732,23.0847153 L74.313732,17.3829398 L71.9266186,17.3829398 L71.9266186,13.983848 L74.313732,13.983848 L74.313732,11.2145112 L77.8552784,10.1452867 L77.8552784,13.983848 L80.9568247,13.983848 L80.9568247,17.3829398 Z" id="Fill-10" fill="#FFFFFF"></path>
                    <path d="M17.1898247,41.9529031 C18.8092062,41.9529031 19.9897216,40.6922602 19.9897216,39.0465153 C19.9897216,37.3747194 18.8092062,36.1412602 17.1898247,36.1412602 L13.8138454,36.1412602 L13.8138454,41.9529031 L17.1898247,41.9529031 Z M17.1898247,32.6039847 C19.0292062,32.6039847 20.5930206,33.2348724 21.8563196,34.4683316 C23.1184845,35.7017908 23.750134,37.2376684 23.750134,39.0465153 C23.750134,40.8564949 23.1184845,42.3912398 21.8563196,43.6258316 C20.5930206,44.8592908 19.0292062,45.4890459 17.1898247,45.4890459 L13.8138454,45.4890459 L13.8138454,51.7945255 L10.0262165,51.7945255 L10.0262165,32.6039847 L17.1898247,32.6039847 Z" id="Fill-12" fill="#FFFFFF"></path>
                    <mask id="mask-2" fill="white">
                        <use xlink:href="#path-1"></use>
                    </mask>
                    <g id="Clip-15"></g>
                    <polygon id="Fill-14" fill="#FFFFFF" mask="url(#mask-2)" points="26.3319588 51.7950918 29.8723711 51.7950918 29.8723711 32.7812449 26.3319588 32.7812449"></polygon>
                    <path d="M40.2761031,48.8063602 C41.3738351,48.8063602 42.2799175,48.4507071 42.9932165,47.7371357 C43.734866,46.9963806 44.0920825,46.0653398 44.0920825,44.9406153 C44.0920825,43.8170235 43.734866,42.88485 42.9932165,42.1724112 C42.2799175,41.4316561 41.3738351,41.0748704 40.2761031,41.0748704 C39.1783711,41.0748704 38.2722887,41.4316561 37.5589897,42.1724112 C36.8445567,42.88485 36.4884742,43.8170235 36.4884742,44.9406153 C36.4884742,46.0653398 36.8445567,46.9963806 37.5589897,47.7371357 C38.2722887,48.4507071 39.1783711,48.8063602 40.2761031,48.8063602 L40.2761031,48.8063602 Z M44.0920825,38.0869316 L47.6324948,38.0869316 L47.6324948,51.7954316 L44.0920825,51.7954316 L44.0920825,50.1768704 C43.021567,51.5201969 41.5394021,52.179401 39.6172371,52.179401 C37.7789897,52.179401 36.2140412,51.4930133 34.8963093,50.096452 C33.6057938,48.6964929 32.9469278,46.9691969 32.9469278,44.9406153 C32.9469278,42.9120337 33.6057938,41.2119214 34.8963093,39.8142276 C36.2140412,38.415401 37.7789897,37.7029622 39.6172371,37.7029622 C41.5394021,37.7029622 43.021567,38.3610337 44.0920825,39.7043602 L44.0920825,38.0869316 Z" id="Fill-16" fill="#FFFFFF" mask="url(#mask-2)"></path>
                    <path d="M52.7392165,50.0949796 C51.3670515,48.6984184 50.6821031,46.9971735 50.6821031,44.9414082 C50.6821031,42.8845102 51.3670515,41.184398 52.7392165,39.7867041 C54.139732,38.3890102 55.8691134,37.7037551 57.9273608,37.7037551 C60.5900412,37.7037551 62.9499381,39.0742653 64.0760206,41.239898 L61.0300412,43.0215612 C60.4800412,41.8979694 59.2995258,41.184398 57.8990103,41.184398 C55.7874639,41.184398 54.2213814,42.7474592 54.2213814,44.9414082 C54.2213814,46.0106327 54.5785979,46.9144898 55.2658144,47.6280612 C55.9507629,48.3133163 56.8296289,48.6689694 57.8990103,48.6689694 C59.3278763,48.6689694 60.5072577,47.9848469 61.0561237,46.8601224 L64.1304536,48.614602 C62.9227216,50.7802347 60.5900412,52.1790612 57.9273608,52.1790612 C55.8691134,52.1790612 54.139732,51.4926735 52.7392165,50.0949796" id="Fill-17" fill="#FFFFFF" mask="url(#mask-2)"></path>
                    <path d="M76.7308969,43.652449 C76.3192474,41.788102 74.9470825,40.8831122 73.327701,40.8831122 C71.4327526,40.8831122 70.1433711,41.8979694 69.7317216,43.652449 L76.7308969,43.652449 Z M69.7861546,46.3934694 C70.2533711,48.1207653 71.5427526,48.9713878 73.656567,48.9713878 C75.0015155,48.9713878 76.0459485,48.5058673 76.7308969,47.6008776 L79.5863608,49.2454898 C78.2414124,51.1913878 76.2375979,52.1790612 73.602134,52.1790612 C71.3238866,52.1790612 69.5128557,51.4926735 68.1395567,50.1221633 C66.7673918,48.7516531 66.0813093,47.0243571 66.0813093,44.9414082 C66.0813093,42.8845102 66.7673918,41.1572143 68.1123402,39.7867041 C69.4572887,38.3890102 71.2138866,37.7037551 73.327701,37.7037551 C75.3315155,37.7037551 77.0053299,38.3890102 78.2958454,39.7867041 C79.6135773,41.1855306 80.2713093,42.8845102 80.2713093,44.9414082 C80.2713093,45.4069286 80.2168763,45.8735816 80.1340928,46.3934694 L69.7861546,46.3934694 Z" id="Fill-18" fill="#FFFFFF" mask="url(#mask-2)"></path>
                    <polygon id="Fill-19" fill="#FFFFFF" mask="url(#mask-2)" points="21.6362062 57.6663122 21.6362062 61.1039143 16.4480619 61.1039143 16.4480619 75.8997612 12.660433 75.8997612 12.660433 61.1039143 7.50063918 61.1039143 7.50063918 57.6663122"></polygon>
                    <path d="M27.5371959,72.8276663 C28.6077113,72.8276663 29.4865773,72.4720133 30.1998763,71.7595745 C30.9131753,71.0471357 31.2703918,70.1410133 31.2703918,69.0446051 C31.2703918,67.9481969 30.9131753,67.0443398 30.1998763,66.331901 C29.4865773,65.6183296 28.6077113,65.2615439 27.5371959,65.2615439 C26.4666804,65.2615439 25.5878144,65.6183296 24.8745155,66.331901 C24.188433,67.0443398 23.8312165,67.9481969 23.8312165,69.0446051 C23.8312165,70.1410133 24.188433,71.0471357 24.8745155,71.7595745 C25.5878144,72.4720133 26.4666804,72.8276663 27.5371959,72.8276663 M27.5371959,76.2833908 C25.5061649,76.2833908 23.7767835,75.5970031 22.3774021,74.1981765 C20.9768866,72.8016153 20.2908041,71.0731867 20.2908041,69.0446051 C20.2908041,67.0160235 20.9768866,65.3159112 22.3774021,63.91935 C23.7767835,62.5193908 25.5061649,61.8080847 27.5371959,61.8080847 C29.5682268,61.8080847 31.2976082,62.5193908 32.6969897,63.91935 C34.0975052,65.3159112 34.8108041,67.0160235 34.8108041,69.0446051 C34.8108041,71.0731867 34.0975052,72.8016153 32.6969897,74.1981765 C31.2976082,75.5970031 29.5682268,76.2833908 27.5371959,76.2833908" id="Fill-20" fill="#FFFFFF" mask="url(#mask-2)"></path>
                    <polygon id="Fill-21" fill="#FFFFFF" mask="url(#mask-2)" points="13.3995876 101.124058 8.01979381 81.9335173 12.0002062 81.9335173 15.6778351 96.1607724 19.6854639 81.9335173 22.9242268 81.9335173 26.9590722 96.1607724 30.636701 81.9335173 34.6171134 81.9335173 29.2373196 101.124058 24.9280412 101.124058 21.3048454 88.4564663 17.708866 101.124058"></polygon>
                    <path d="M41.5363402,98.053549 C42.6068557,98.053549 43.4857216,97.6967633 44.1990206,96.9843245 C44.9134536,96.2718857 45.2695361,95.3668959 45.2695361,94.2693551 C45.2695361,93.1729469 44.9134536,92.2690898 44.1990206,91.556651 C43.4857216,90.8430796 42.6068557,90.4862939 41.5363402,90.4862939 C40.4658247,90.4862939 39.5869588,90.8430796 38.8736598,91.556651 C38.1875773,92.2690898 37.8303608,93.1729469 37.8303608,94.2693551 C37.8303608,95.3668959 38.1875773,96.2718857 38.8736598,96.9843245 C39.5869588,97.6967633 40.4658247,98.053549 41.5363402,98.053549 M41.5363402,101.508141 C39.5053093,101.508141 37.7770619,100.821753 36.3765464,99.4240592 C34.9760309,98.0263653 34.2899485,96.2979367 34.2899485,94.2693551 C34.2899485,92.2407735 34.9760309,90.5406612 36.3765464,89.1441 C37.7770619,87.7441408 39.5053093,87.0328347 41.5363402,87.0328347 C43.5673711,87.0328347 45.2967526,87.7441408 46.696134,89.1441 C48.0966495,90.5406612 48.8099485,92.2407735 48.8099485,94.2693551 C48.8099485,96.2979367 48.0966495,98.0263653 46.696134,99.4240592 C45.2967526,100.821753 43.5673711,101.508141 41.5363402,101.508141" id="Fill-22" fill="#FFFFFF" mask="url(#mask-2)"></path>
                    <path d="M54.8500825,89.7731755 C55.5089485,88.0186959 57.1555464,87.1420224 59.0232784,87.1420224 L59.0232784,91.0893184 C57.9516289,90.9522673 56.9638969,91.1708694 56.1122474,91.7473898 C55.261732,92.3227776 54.8500825,93.254951 54.8500825,94.5710939 L54.8500825,101.123492 L51.3108041,101.123492 L51.3108041,87.4149918 L54.8500825,87.4149918 L54.8500825,89.7731755 Z" id="Fill-23" fill="#FFFFFF" mask="url(#mask-2)"></path>
                    <polygon id="Fill-24" fill="#FFFFFF" mask="url(#mask-2)" points="74.2844742 101.124058 70.1668454 101.124058 65.1714845 94.9012622 65.1714845 101.124058 61.6322062 101.124058 61.6322062 81.9335173 65.1714845 81.9335173 65.1714845 93.4480684 69.8924124 87.4155582 74.1200412 87.4155582 68.6030309 94.1876908"></polygon>
                    <path d="M78.6810722,98.4848633 C79.0303505,98.4848633 79.2117938,98.3308224 79.2117938,98.038598 L79.2117938,98.0250061 C79.2117938,97.7044653 79.0167423,97.5912 78.6810722,97.5912 L78.288701,97.5912 L78.288701,98.4848633 L78.6810722,98.4848633 Z M77.6184948,97.0758429 L78.6946804,97.0758429 C79.4079794,97.0758429 79.8683918,97.3692 79.8683918,97.9955571 L79.8683918,98.0102816 C79.8683918,98.4712714 79.6030309,98.7227204 79.2401443,98.8348531 L80.0509691,100.132873 L79.3524124,100.132873 L78.6107629,98.9458531 L78.288701,98.9458531 L78.288701,100.132873 L77.6184948,100.132873 L77.6184948,97.0758429 Z M81.2258144,98.6389041 C81.2258144,97.1166184 80.1621031,96.0553224 78.6810722,96.0553224 C77.1977732,96.0553224 76.1363299,97.1313429 76.1363299,98.6524959 C76.1363299,100.189506 77.2544742,101.221353 78.6810722,101.221353 C80.1201443,101.221353 81.2258144,100.160057 81.2258144,98.6389041 L81.2258144,98.6389041 Z M75.5772577,98.6524959 C75.5772577,96.9365265 76.9471546,95.5524245 78.6810722,95.5524245 C80.4422062,95.5524245 81.7826186,96.9206694 81.7826186,98.6389041 C81.7826186,100.385455 80.4127216,101.724251 78.6810722,101.724251 C76.9596289,101.724251 75.5772577,100.397914 75.5772577,98.6524959 L75.5772577,98.6524959 Z" id="Fill-25" fill="#FFFFFF" mask="url(#mask-2)"></path>
                </g>
            </g>
        </g>
    </g>
</svg>