<?xml version="1.0" encoding="UTF-8"?>
<svg width="68px" height="69px" viewBox="0 0 68 69" version="1.1" xmlns="http://www.w3.org/2000/svg" xmlns:xlink="http://www.w3.org/1999/xlink">
    <title>pictograma-lecturas copy</title>
    <defs>
        <polygon id="path-1" points="0 68.481203 67.6198182 68.481203 67.6198182 0.38287218 0 0.38287218"></polygon>
    </defs>
    <g id="Page-1" stroke="none" stroke-width="1" fill="none" fill-rule="evenodd">
        <g id="Cursos" transform="translate(-930.000000, -2856.000000)">
            <g id="Group-31" transform="translate(930.000000, 2856.000000)">
                <polygon id="Fill-1" fill="#0051FF" points="58.6041515 27.7577143 63.1117273 27.7577143 63.1117273 25.4879774 58.6041515 25.4879774"></polygon>
                <polygon id="Fill-2" fill="#0051FF" points="58.6041515 33.4328346 63.1117273 33.4328346 63.1117273 31.1630977 58.6041515 31.1630977"></polygon>
                <polygon id="Fill-3" fill="#0051FF" points="58.6041515 39.1074361 63.1117273 39.1074361 63.1117273 36.8376992 58.6041515 36.8376992"></polygon>
                <polygon id="Fill-4" fill="#0051FF" points="39.4451515 10.733391 55.2232121 10.733391 55.2232121 8.46365414 39.4451515 8.46365414"></polygon>
                <polygon id="Fill-5" fill="#0051FF" points="39.4451515 16.4079925 63.1117273 16.4079925 63.1117273 14.1382556 39.4451515 14.1382556"></polygon>
                <polygon id="Fill-6" fill="#0051FF" points="54.0960606 22.0831128 63.1117273 22.0831128 63.1117273 19.8133759 54.0960606 19.8133759"></polygon>
                <polygon id="Fill-7" fill="#0051FF" points="39.4451515 20.947985 41.6989394 20.947985 41.6989394 18.6782481 39.4451515 18.6782481"></polygon>
                <g id="Group-30" transform="translate(0.000000, 0.135925)">
                    <path d="M54.0961636,66.2112068 L29.3019212,66.2112068 C29.3039818,64.3316053 30.8169818,62.8084173 32.6833758,62.8063421 L54.0961636,62.8063421 L54.0961636,66.2112068 Z M29.3019177,32.1620414 L29.3019177,30.9179662 C29.2993455,28.8339586 30.7088,27.0166128 32.7168606,26.5133797 L49.5880727,22.2659887 L49.5880727,53.9753797 L32.1697697,58.3607707 C31.1049515,58.6274323 30.120497,59.1519361 29.3019177,59.888109 L29.3019177,32.1620414 Z M27.0481333,61.6738083 C26.0739818,60.9345226 24.8870727,60.5350489 23.6671939,60.5366053 L2.25389091,60.5366053 L2.25389091,28.7571767 L23.6671939,28.7571767 C25.5335879,28.7592519 27.0455576,30.2824398 27.0481333,32.1620414 L27.0481333,61.6738083 Z M2.25389091,66.2112068 L2.25389091,62.8063421 L23.6671939,62.8063421 C25.5335879,62.8084173 27.0455576,64.3316053 27.0481333,66.2112068 L2.25389091,66.2112068 Z M55.2233152,26.4869211 L54.0961636,26.4869211 L54.0961636,60.5366053 L32.8219515,60.5366053 L50.9882545,55.962891 C51.4900121,55.8363045 51.8418606,55.3823571 51.8418606,54.861485 L51.8418606,20.8123195 C51.8418606,20.1856128 51.3375273,19.6771917 50.7152242,19.6771917 C50.6230121,19.6771917 50.5308,19.6886053 50.4416788,19.7114323 L32.1697697,24.3110865 C30.154497,24.8163947 28.4823152,26.2275226 27.6354061,28.1372143 C26.5819212,27.0793872 25.1544364,26.4864023 23.6671939,26.4869211 L1.12725455,26.4869211 C0.504951515,26.4869211 0.000103030303,26.9953421 0.000103030303,27.6220489 L0.000103030303,67.3463346 C0.000103030303,67.9730414 0.504951515,68.4809436 1.12725455,68.4809436 L55.2233152,68.4809436 C55.8456182,68.4809436 56.3499515,67.9730414 56.3499515,67.3463346 L56.3499515,27.6220489 C56.3499515,26.9953421 55.8456182,26.4869211 55.2233152,26.4869211 L55.2233152,26.4869211 Z" id="Fill-8" fill="#0051FF"></path>
                    <polygon id="Fill-10" fill="#0051FF" points="32.3269424 29.9501504 45.8507 25.4106767 46.5636697 27.5636842 33.039397 32.1036767"></polygon>
                    <polygon id="Fill-12" fill="#0051FF" points="32.3264788 35.6250113 45.8507515 31.0850188 46.5637212 33.2385451 33.0394485 37.7785376"></polygon>
                    <polygon id="Fill-14" fill="#0051FF" points="32.3264788 41.2998203 45.8507515 36.7603466 46.5637212 38.9133541 33.0394485 43.4533466"></polygon>
                    <polygon id="Fill-16" fill="#0051FF" points="32.3264788 46.9749406 45.8507515 42.4349481 46.5637212 44.5884744 33.0394485 49.1284669"></polygon>
                    <polygon id="Fill-18" fill="#0051FF" points="32.3264788 52.6498015 45.8507515 48.109809 46.5637212 50.2633353 33.0394485 54.8033278"></polygon>
                    <mask id="mask-2" fill="white">
                        <use xlink:href="#path-1"></use>
                    </mask>
                    <g id="Clip-21"></g>
                    <polygon id="Fill-20" fill="#0051FF" mask="url(#mask-2)" points="5.63524242 34.4320376 22.5399394 34.4320376 22.5399394 32.1623008 5.63524242 32.1623008"></polygon>
                    <polygon id="Fill-22" fill="#0051FF" mask="url(#mask-2)" points="5.63524242 40.1066391 22.5399394 40.1066391 22.5399394 37.8369023 5.63524242 37.8369023"></polygon>
                    <polygon id="Fill-23" fill="#0051FF" mask="url(#mask-2)" points="5.63524242 45.7817594 22.5399394 45.7817594 22.5399394 43.5120226 5.63524242 43.5120226"></polygon>
                    <polygon id="Fill-24" fill="#0051FF" mask="url(#mask-2)" points="5.63524242 51.4563609 22.5399394 51.4563609 22.5399394 49.1866241 5.63524242 49.1866241"></polygon>
                    <polygon id="Fill-25" fill="#0051FF" mask="url(#mask-2)" points="5.63524242 57.1314812 22.5399394 57.1314812 22.5399394 54.8617444 5.63524242 54.8617444"></polygon>
                    <path d="M7.32550606,11.7324383 C10.1263848,11.7324383 12.3971727,14.0192955 12.3971727,16.8399947 C12.3971727,19.660694 10.1263848,21.9470323 7.32550606,21.9470323 C4.52462727,21.9470323 2.25383939,19.660694 2.25383939,16.8399947 C2.2569303,14.0203331 4.52565758,11.7355511 7.32550606,11.7324383 M25.3573545,11.7324383 C28.1582333,11.7324383 30.4290212,14.0192955 30.4290212,16.8399947 C30.4290212,19.660694 28.1582333,21.9470323 25.3573545,21.9470323 C22.5564758,21.9470323 20.2856879,19.660694 20.2856879,16.8399947 C20.2892939,14.0203331 22.5575061,11.7355511 25.3573545,11.7324383 M7.32550606,24.217288 C11.3694455,24.2126188 14.6463242,20.9120323 14.6509606,16.8399947 C14.6509606,16.8291 14.6509606,16.8182053 14.6504455,16.8078293 C15.6668394,16.0955211 17.0165364,16.0955211 18.0329303,16.8078293 C18.0329303,16.8182053 18.0319,16.8291 18.0319,16.8399947 C18.0319,20.9141075 21.3113545,24.217288 25.3573545,24.217288 C29.4028394,24.217288 32.6833242,20.9141075 32.6833242,16.8399947 C32.6833242,16.6485586 32.6735364,16.4597165 32.6591121,16.2724308 L32.6833242,16.2724308 L32.6833242,4.92270902 C32.6833242,2.41536316 30.6649606,0.382716541 28.1752333,0.382716541 C25.6855061,0.382716541 23.6671424,2.41536316 23.6671424,4.92270902 L23.6671424,6.05783684 L25.9209303,6.05783684 L25.9209303,4.92270902 C25.9209303,3.66929549 26.9301121,2.65297218 28.1752333,2.65297218 C29.4198394,2.65297218 30.4290212,3.66929549 30.4290212,4.92270902 L30.4290212,11.523882 C27.5184152,8.70058872 22.8861727,8.78826541 20.0832333,11.7194684 C19.3414152,12.4945511 18.7773242,13.4237165 18.4311424,14.442115 C17.0974152,13.8636564 15.5854455,13.8636564 14.2517182,14.442115 C12.9416879,10.5921226 8.78080909,8.54079925 4.9578697,9.8606188 C3.94662727,10.2092504 3.02347576,10.7773331 2.25383939,11.523882 L2.25383939,4.92270902 C2.25383939,3.66929549 3.26302121,2.65297218 4.50762727,2.65297218 C5.75274848,2.65297218 6.7619303,3.66929549 6.7619303,4.92270902 L6.7619303,6.05783684 L9.01571818,6.05783684 L9.01571818,4.92270902 C9.01571818,2.41536316 6.99735455,0.382716541 4.50762727,0.382716541 C2.01841515,0.382716541 5.15151515e-05,2.41536316 5.15151515e-05,4.92270902 L5.15151515e-05,16.2724308 L0.0237484848,16.2724308 C0.00983939394,16.4597165 5.15151515e-05,16.6485586 5.15151515e-05,16.8399947 C0.00468787879,20.9120323 3.28156667,24.2126188 7.32550606,24.217288" id="Fill-26" fill="#0051FF" mask="url(#mask-2)"></path>
                    <polygon id="Fill-27" fill="#0051FF" mask="url(#mask-2)" points="3.71089394 16.6047722 7.09183333 13.1999075 8.68571212 14.8050654 5.30477273 18.2099301"></polygon>
                    <polygon id="Fill-28" fill="#0051FF" mask="url(#mask-2)" points="21.7432061 16.6047722 25.1236303 13.1999075 26.7175091 14.8050654 23.3370848 18.2099301"></polygon>
                    <path d="M59.731097,8.32762556 L59.731097,4.25766316 L63.7724606,8.32762556 L59.731097,8.32762556 Z M67.2899152,8.66017444 L59.4008848,0.715317293 C59.1896727,0.502610526 58.9032485,0.382768421 58.6039455,0.382768421 L36.0640061,0.382768421 C35.441703,0.382768421 34.9368545,0.891189474 34.9368545,1.51789624 L34.9368545,20.8119564 L37.1911576,20.8119564 L37.1911576,2.65302406 L57.4767939,2.65302406 L57.4767939,9.46275338 C57.4767939,10.0894602 57.9816424,10.5973624 58.6039455,10.5973624 L65.3658242,10.5973624 L65.3658242,42.376791 L58.6039455,42.376791 L58.6039455,44.6465278 L66.4929758,44.6465278 C67.1152788,44.6465278 67.6196121,44.1386256 67.6196121,43.5119188 L67.6196121,9.46275338 C67.6196121,9.16133233 67.5011273,8.8728812 67.2899152,8.66017444 L67.2899152,8.66017444 Z" id="Fill-29" fill="#0051FF" mask="url(#mask-2)"></path>
                </g>
            </g>
        </g>
    </g>
</svg>