<?xml version="1.0" encoding="UTF-8"?>
<svg width="70px" height="70px" viewBox="0 0 70 70" version="1.1" xmlns="http://www.w3.org/2000/svg" xmlns:xlink="http://www.w3.org/1999/xlink">
    <title>Group 18</title>
    <defs>
        <polygon id="path-1" points="0 69.8419167 69.84075 69.8419167 69.84075 0 0 0"></polygon>
    </defs>
    <g id="Page-1" stroke="none" stroke-width="1" fill="none" fill-rule="evenodd">
        <g id="Nosotros" transform="translate(-723.000000, -1377.000000)">
            <g id="Group-18" transform="translate(723.000000, 1377.000000)">
                <path d="M40.74035,32.59235 L40.74035,36.3606833 L36.9784333,31.84685 C36.75735,31.5814333 36.4295167,31.4280167 36.0841833,31.4286 L32.59235,31.4286 C31.4770167,31.4262667 30.5197667,30.6346833 30.3080167,29.5397667 L33.0741833,26.77185 L39.5760167,26.77185 C42.1467667,26.7695167 44.2292667,24.6864333 44.2321833,22.1162667 L44.2321833,4.65593333 C44.2292667,2.08576667 42.1467667,0.00326666667 39.5760167,0.00035 L9.3121,0.00035 C6.74193333,0.00326666667 4.65885,2.08576667 4.65593333,4.65593333 L4.65593333,11.6401833 L6.98401667,11.6401833 L6.98401667,4.65593333 C6.98576667,3.37085 8.02701667,2.3296 9.3121,2.32785 L39.5760167,2.32785 C40.8616833,2.3296 41.9029333,3.37085 41.9041,4.65593333 L41.9041,22.1162667 C41.9029333,23.40135 40.8616833,24.4426 39.5760167,24.44435 L32.59235,24.44435 C32.2831833,24.44435 31.9874333,24.56685 31.7692667,24.7850167 L26.7724333,29.7824333 L26.7724333,25.6081 C26.7724333,24.96585 26.2509333,24.44435 25.6081,24.44435 L22.1162667,24.44435 L22.1162667,26.77185 L24.4437667,26.77185 L24.4437667,32.59235 C24.4437667,33.2357667 24.9652667,33.7561 25.6081,33.7561 C25.9166833,33.7561 26.2130167,33.6336 26.4311833,33.4154333 L28.5101833,31.3370167 C29.3274333,32.8274333 30.8919333,33.7549333 32.59235,33.7561 L35.5387667,33.7561 L41.00985,40.3215167 C41.4211,40.8156 42.1555167,40.8826833 42.6490167,40.4714333 C42.9150167,40.2497667 43.0684333,39.9219333 43.0684333,39.5766 L43.0684333,33.7561 L45.3959333,33.7561 L45.3959333,31.4286 L41.9041,31.4286 C41.2612667,31.4286 40.74035,31.9495167 40.74035,32.59235" id="Fill-1" fill="#0051FF"></path>
                <path d="M60.3962333,8.53609167 L62.5907333,7.76025833 C61.9309833,5.901175 60.1728167,4.658675 58.2005667,4.65634167 L46.56015,4.65634167 L46.56015,6.984425 L58.2005667,6.984425 C59.1869833,6.98559167 60.0660667,7.60625833 60.3962333,8.53609167" id="Fill-3" fill="#0051FF"></path>
                <mask id="mask-2" fill="white">
                    <use xlink:href="#path-1"></use>
                </mask>
                <g id="Clip-6"></g>
                <polygon id="Fill-5" fill="#0051FF" mask="url(#mask-2)" points="46.5605 11.6398333 52.3804167 11.6398333 52.3804167 9.31175 46.5605 9.31175"></polygon>
                <polygon id="Fill-7" fill="#0051FF" mask="url(#mask-2)" points="46.5605 16.296 48.8885833 16.296 48.8885833 13.9685 46.5605 13.9685"></polygon>
                <polygon id="Fill-8" fill="#0051FF" mask="url(#mask-2)" points="10.4760833 6.98425 38.4125 6.98425 38.4125 4.65616667 10.4760833 4.65616667"></polygon>
                <polygon id="Fill-9" fill="#0051FF" mask="url(#mask-2)" points="25.6083333 16.296 38.4125 16.296 38.4125 13.9685 25.6083333 13.9685"></polygon>
                <polygon id="Fill-10" fill="#0051FF" mask="url(#mask-2)" points="10.4760833 11.6398333 17.4603333 11.6398333 17.4603333 9.31175 10.4760833 9.31175"></polygon>
                <polygon id="Fill-11" fill="#0051FF" mask="url(#mask-2)" points="19.7884167 11.6398333 38.4125 11.6398333 38.4125 9.31175 19.7884167 9.31175"></polygon>
                <polygon id="Fill-12" fill="#0051FF" mask="url(#mask-2)" points="25.6083333 20.9521667 33.7563333 20.9521667 33.7563333 18.6240833 25.6083333 18.6240833"></polygon>
                <polygon id="Fill-13" fill="#0051FF" mask="url(#mask-2)" points="36.0844167 20.9521667 38.4125 20.9521667 38.4125 18.6240833 36.0844167 18.6240833"></polygon>
                <path d="M11.6400083,25.608275 C12.925675,25.608275 13.9680917,26.6506917 13.9680917,27.9363583 C13.9680917,29.222025 12.925675,30.2638583 11.6400083,30.2638583 C10.3543417,30.2638583 9.311925,29.222025 9.311925,27.9363583 C9.311925,26.6506917 10.3543417,25.608275 11.6400083,25.608275" id="Fill-14" fill="#0051FF" mask="url(#mask-2)"></path>
                <path d="M40.2319167,47.3027333 L37.82275,52.1210667 L32.4374167,50.32615 L31.5659167,45.9709833 C31.542,45.8514 31.5793333,45.7277333 31.6656667,45.6408167 C31.8085833,45.4984833 32.0395833,45.4984833 32.1819167,45.6408167 C32.2221667,45.6810667 32.2525,45.7300667 32.2705833,45.7837333 L32.6520833,46.9282333 C32.8550833,47.5384 33.51425,47.8685667 34.1244167,47.6649833 C34.41725,47.5669833 34.6593333,47.3575667 34.7975833,47.0810667 L36.1596667,44.3569 C36.3031667,44.0693167 36.6525833,43.9532333 36.9401667,44.0967333 C36.9769167,44.1148167 37.0113333,44.1369833 37.044,44.16265 L40.075,46.5875667 C40.2885,46.75965 40.35325,47.05715 40.2319167,47.3027333 L40.2319167,47.3027333 Z M31.612,65.5009833 C30.8110833,67.2375667 28.7536667,67.9959 27.0170833,67.1949833 C26.3025,66.8648167 25.7215,66.3019 25.36975,65.5984 L22.1159167,59.0895667 L22.1159167,54.70815 L19.7884167,54.70815 L19.7884167,67.5129 L2.32808333,67.5129 L2.32808333,44.232065 L16.296,44.232065 C18.6555833,44.2303167 20.78825,45.6373167 21.7163333,47.80615 L26.866,59.8234 C27.1191667,60.4143167 27.8034167,60.6879 28.3943333,60.4347333 C28.6696667,60.3174833 28.8884167,60.09815 29.00625,59.8234 L32.0763333,52.6594833 L36.8106667,54.2379833 L31.612,65.5009833 Z M2.32808333,20.9524 C2.331,18.3822333 4.41408333,16.29915 6.98366667,16.2962333 L20.9521667,16.2962333 C20.94925,18.8664 18.86675,20.9494833 16.296,20.9524 L6.98366667,20.9524 C6.63891667,20.9524 6.31108333,21.1058167 6.09,21.3712333 L2.32808333,25.8844833 L2.32808333,20.9524 Z M16.296,32.5922333 C15.6531667,32.5922333 15.13225,33.1137333 15.13225,33.7559833 L15.13225,36.07065 C14.0793333,35.97965 13.1506667,35.34615 12.6810833,34.3999833 L10.5991667,35.4412333 C11.46075,37.1778167 13.1955833,38.3112333 15.13225,38.4028167 L15.13225,41.9045667 L2.32808333,41.9045667 L2.32808333,29.5227333 L7.52908333,23.2799 L15.974,23.2799 L19.30075,32.5922333 L16.296,32.5922333 Z M41.52925,44.7699 L38.4976667,42.3449833 C37.2429167,41.3404833 35.41125,41.5440667 34.4079167,42.7994 C34.2795833,42.9592333 34.16875,43.1324833 34.0771667,43.31565 L33.7685833,43.9334 C32.6824167,42.9154833 30.9773333,42.9709 29.9594167,44.0570667 C29.365,44.69115 29.113,45.5743167 29.2833333,46.42715 L30.2160833,51.0903167 L27.9358333,56.40915 L23.856,46.8897333 C22.72725,44.25015 20.3023333,42.39165 17.45975,41.9879833 L17.45975,34.9203167 L20.9521667,34.9203167 C21.595,34.9203167 22.1159167,34.3994 22.1159167,33.7559833 C22.1159167,33.6229833 22.0931667,33.4905667 22.04825,33.3645667 L18.3370833,22.9759833 C21.2718333,22.0753167 23.27675,19.3663167 23.28025,16.2962333 L23.28025,15.1324833 C23.28025,14.48965 22.75875,13.96815 22.1159167,13.96815 L6.98366667,13.96815 C3.129,13.9722333 0.00466666667,17.09715 0,20.9524 L0,68.67665 C0,69.3194833 0.520916667,69.8409833 1.16375,69.8409833 L20.9521667,69.8409833 C21.595,69.8409833 22.1159167,69.3194833 22.1159167,68.67665 L22.1159167,64.2952333 L23.2884167,66.63965 C24.71875,69.5003167 28.1971667,70.6594 31.0578333,69.2290667 C32.2338333,68.6410667 33.17475,67.6704 33.726,66.4763167 L39.4619167,54.0478167 L42.3138333,48.3445667 C42.92225,47.11665 42.5961667,45.6303167 41.52925,44.7699 L41.52925,44.7699 Z" id="Fill-15" fill="#0051FF" mask="url(#mask-2)"></path>
                <path d="M54.7084417,23.280075 C55.9941083,23.280075 57.036525,24.3224917 57.036525,25.6081583 C57.036525,26.893825 55.9941083,27.9362417 54.7084417,27.9362417 C53.422775,27.9362417 52.3803583,26.893825 52.3803583,25.6081583 C52.3803583,24.3224917 53.422775,23.280075 54.7084417,23.280075" id="Fill-16" fill="#0051FF" mask="url(#mask-2)"></path>
                <path d="M61.69275,67.5126667 L67.5126667,67.5126667 L67.5126667,58.2003333 L61.69275,58.2003333 L61.69275,67.5126667 Z M55.40675,64.2535833 L53.4263333,62.76725 C50.9850833,60.9361667 50.4904167,57.4735 52.3215,55.03225 C52.39325,54.936 52.4685,54.8426667 52.5466667,54.7516667 L57.5720833,48.8885833 L59.6645,48.8885833 C59.4655833,49.4491667 59.3640833,50.0395 59.3640833,50.6345 L59.3640833,67.5126667 L55.87225,67.5126667 L55.87225,65.1845833 C55.87225,64.81825 55.7001667,64.4735 55.40675,64.2535833 L55.40675,64.2535833 Z M51.2166667,36.0844167 L51.2166667,34.9206667 L51.695,34.9206667 C53.4385833,34.9206667 55.0456667,33.719 55.7888333,31.8610833 L53.6275833,30.996 C53.2396667,31.9655 52.4813333,32.5925833 51.695,32.5925833 L51.2166667,32.5925833 L51.2166667,31.42825 C51.2166667,30.9878333 50.967,30.5841667 50.57325,30.387 L47.3614167,28.7810833 L49.7110833,26.4314167 C49.8831667,26.2599167 49.9969167,26.0388333 50.0365833,25.7996667 L50.9868333,20.0975833 C51.7305833,20.6564167 52.5093333,21.1668333 53.3184167,21.6253333 C56.01925,23.1530833 59.0158333,24.08525 62.1069167,24.36 L61.5889167,25.3085 C59.7210833,28.7326667 58.2884167,32.3773333 57.3241667,36.1573333 C57.134,36.904 56.9625,37.6570833 56.8090833,38.4125 L53.5441667,38.4125 C52.2590833,38.41075 51.2178333,37.3695 51.2166667,36.0844167 L51.2166667,36.0844167 Z M53.8661667,14.76825 C57.3585833,11.8095833 62.58875,12.2418333 65.548,15.73425 C66.81675,17.2316667 67.5126667,19.1304167 67.5126667,21.0933333 L67.5126667,46.2810833 C65.6086667,45.0053333 63.09625,45.1185 61.3153333,46.5605 L58.2160833,46.5605 C58.2656667,44.6705 58.436,42.78575 58.7253333,40.9173333 C58.9394167,39.5249167 59.227,38.11675 59.5799167,36.7325 C60.49575,33.1403333 61.85725,29.6776667 63.6323333,26.4226667 L65.04225,23.8379167 C65.35025,23.27325 65.142,22.56625 64.5773333,22.25825 C64.4064167,22.1655 64.2150833,22.1165 64.02025,22.1165 C59.5134167,22.1159167 55.1465833,20.5455833 51.6710833,17.6761667 C52.1774167,16.5555833 52.9275833,15.5621667 53.8661667,14.76825 L53.8661667,14.76825 Z M61.69275,50.6345 C61.69275,49.0268333 62.9953333,47.72425 64.6024167,47.72425 C66.2095,47.72425 67.5126667,49.0268333 67.5126667,50.6345 L67.5126667,55.8728333 L61.69275,55.8728333 L61.69275,50.6345 Z M59.2235,10.4760833 C54.6904167,10.4760833 50.6578333,13.3554167 49.18375,17.6423333 L49.18375,17.6446667 C48.993,18.1994167 48.8483333,18.7693333 48.7520833,19.348 L47.8024167,25.0489167 L44.5736667,28.2770833 C44.11925,28.7315 44.11925,29.4688333 44.5736667,29.92325 C44.6623333,30.0119167 44.7644167,30.0854167 44.8764167,30.1414167 L48.888,32.1475 L48.888,36.0844167 C48.8915,38.6545833 50.974,40.7370833 53.5441667,40.74 L56.3984167,40.74 C56.0711667,42.90825 55.8973333,45.0963333 55.8763333,47.2890833 L50.77975,53.2361667 C47.957,56.5285 48.33675,61.4850833 51.6285,64.3078333 C51.7591667,64.4198333 51.89275,64.5271667 52.0304167,64.6298333 L53.5441667,65.76675 L53.5441667,68.6764167 C53.5441667,69.3198333 54.0656667,69.84075 54.7085,69.84075 L68.6764167,69.84075 C69.31925,69.84075 69.8401667,69.3198333 69.8401667,68.6764167 L69.8401667,21.0933333 C69.83375,15.2325833 65.08425,10.4825 59.2235,10.4760833 L59.2235,10.4760833 Z" id="Fill-17" fill="#0051FF" mask="url(#mask-2)"></path>
            </g>
        </g>
    </g>
</svg>