<?xml version="1.0" encoding="UTF-8"?>
<svg width="97px" height="97px" viewBox="0 0 97 97" version="1.1" xmlns="http://www.w3.org/2000/svg" xmlns:xlink="http://www.w3.org/1999/xlink">
    <title>pictograma-docente</title>
    <defs>
        <polygon id="path-1" points="6.0625e-05 0.133395208 42.033394 0.133395208 42.033394 60.01875 6.0625e-05 60.01875"></polygon>
        <polygon id="path-3" points="0 97 97 97 97 0 0 0"></polygon>
    </defs>
    <g id="Page-1" stroke="none" stroke-width="1" fill="none" fill-rule="evenodd">
        <g id="Educación-Continua" transform="translate(-526.000000, -2670.000000)">
            <g id="Group-18" transform="translate(526.000000, 2670.000000)">
                <path d="M9.70010104,50.1166869 L9.70010104,50.9250202 C9.70010104,54.942841 12.9570781,58.2000202 16.975101,58.2000202 C20.9929219,58.2000202 24.250101,54.942841 24.250101,50.9250202 L24.250101,50.1166869 L21.0167677,50.1166869 L21.0167677,50.9250202 C21.0167677,53.1572327 19.2071115,54.9666869 16.975101,54.9666869 C14.7428885,54.9666869 12.9334344,53.1572327 12.9334344,50.9250202 L12.9334344,50.1166869 L9.70010104,50.1166869 Z" id="Fill-1" fill="#0051FF"></path>
                <g id="Group-5" transform="translate(0.000000, 36.981250)">
                    <mask id="mask-2" fill="white">
                        <use xlink:href="#path-1"></use>
                    </mask>
                    <g id="Clip-4"></g>
                    <path d="M21.178394,39.0021035 L29.1000606,39.0021035 L29.1000606,45.4687702 C25.2602752,45.4641223 21.9517669,42.7630765 21.178394,39.0021035 M1.61672729,60.0187702 L21.0167273,60.0187702 C27.2637294,60.0116973 32.326321,54.9491056 32.333394,48.7021035 L32.333394,32.5354369 L40.4167273,32.5354369 C41.3095315,32.5354369 42.033394,31.8115744 42.033394,30.9187702 C42.033394,30.7451806 42.0055065,30.5723994 41.9505398,30.4077015 L34.9455231,9.39103479 L31.877696,10.4131723 L38.1736023,29.3021035 L30.7167273,29.3021035 C29.823721,29.3021035 29.1000606,30.025966 29.1000606,30.9187702 L29.1000606,35.7687702 L19.4000606,35.7687702 C18.5070544,35.7687702 17.783394,36.4926327 17.783394,37.3854369 C17.7902648,43.632439 22.8528565,48.6950306 29.1000606,48.7021035 C29.0950085,53.1643056 25.4789294,56.7803848 21.0167273,56.7854369 L3.23339396,56.7854369 L3.23339396,12.0732869 L10.9760148,2.11825771 L8.42410646,0.133395208 L3.23339396,6.80699521 L3.23339396,0.202103542 L6.0625e-05,0.202103542 L6.0625e-05,58.4021035 C6.0625e-05,59.2949077 0.723721042,60.0187702 1.61672729,60.0187702" id="Fill-3" fill="#0051FF" mask="url(#mask-2)"></path>
                </g>
                <path d="M8.08343438,35.5666869 L25.8667677,35.5666869 L25.8667677,45.2666869 C25.8665656,46.159491 26.5904281,46.8835556 27.4832323,46.8835556 C27.8748698,46.8835556 28.2531698,46.741289 28.5478073,46.4836327 L41.0244323,35.5666869 L50.1167677,35.5666869 C54.5789698,35.5616348 58.195049,31.9455556 58.200101,27.4833535 L58.200101,16.1666869 L54.9667677,16.1666869 L54.9667677,27.4833535 C54.9635344,30.1607556 52.7939677,32.3301202 50.1167677,32.3333535 L40.4167677,32.3333535 C40.0251302,32.3333535 39.6466281,32.4756202 39.3517885,32.7334785 L29.100101,41.7051702 L29.100101,33.9500202 C29.100101,33.057216 28.3762385,32.3333535 27.4834344,32.3333535 L8.08343438,32.3333535 C5.40603229,32.3301202 3.23646563,30.1607556 3.23343438,27.4833535 L3.23343438,8.08335354 C3.23646563,5.40595146 5.40603229,3.23638479 8.08343438,3.23335354 L50.1167677,3.23335354 C52.3287719,3.23133271 54.2614969,4.72755771 54.8137906,6.86964104 L57.9448698,6.06373271 C57.0251885,2.49271813 53.8041823,-0.00220270833 50.1167677,1.87241049e-05 L8.08343438,1.87241049e-05 C3.62103021,0.00507229167 0.00495104167,3.62115146 0.000101041667,8.08335354 L0.000101041667,27.4833535 C0.00495104167,31.9455556 3.62103021,35.5616348 8.08343438,35.5666869" id="Fill-6" fill="#0051FF"></path>
                <mask id="mask-4" fill="white">
                    <use xlink:href="#path-3"></use>
                </mask>
                <g id="Clip-9"></g>
                <polygon id="Fill-8" fill="#0051FF" mask="url(#mask-4)" points="8.08333333 11.3166667 22.6333333 11.3166667 22.6333333 8.08333333 8.08333333 8.08333333"></polygon>
                <polygon id="Fill-10" fill="#0051FF" mask="url(#mask-4)" points="25.8666667 11.3166667 50.1166667 11.3166667 50.1166667 8.08333333 25.8666667 8.08333333"></polygon>
                <polygon id="Fill-11" fill="#0051FF" mask="url(#mask-4)" points="8.08333333 19.4 50.1166667 19.4 50.1166667 16.1666667 8.08333333 16.1666667"></polygon>
                <polygon id="Fill-12" fill="#0051FF" mask="url(#mask-4)" points="30.7166667 27.4833333 50.1166667 27.4833333 50.1166667 24.25 30.7166667 24.25"></polygon>
                <polygon id="Fill-13" fill="#0051FF" mask="url(#mask-4)" points="8.08333333 27.4833333 27.4833333 27.4833333 27.4833333 24.25 8.08333333 24.25"></polygon>
                <path d="M51.7334344,93.7666869 L38.800101,93.7666869 L38.800101,78.4083535 C38.800101,77.0689452 39.8856927,75.9833535 41.225101,75.9833535 C42.5643073,75.9833535 43.650101,77.0689452 43.650101,78.4083535 L43.650101,84.0666869 C43.650101,84.959491 44.3737615,85.6833535 45.2667677,85.6833535 L48.500101,85.6833535 C50.284901,85.6855765 51.7312115,87.1318869 51.7334344,88.9166869 L51.7334344,93.7666869 Z M48.500101,82.4500202 L46.8834344,82.4500202 L46.8834344,78.4083535 C46.8834344,75.2833369 44.3501177,72.7500202 41.225101,72.7500202 C38.0998823,72.7500202 35.5667677,75.2833369 35.5667677,78.4083535 L35.5667677,95.3833535 C35.5667677,96.2761577 36.2904281,97.0000202 37.1834344,97.0000202 L53.350101,97.0000202 C54.2429052,97.0000202 54.9667677,96.2761577 54.9667677,95.3833535 L54.9667677,88.9166869 C54.962524,85.3468848 52.069701,82.4540619 48.500101,82.4500202 L48.500101,82.4500202 Z" id="Fill-14" fill="#0051FF" mask="url(#mask-4)"></path>
                <path d="M93.7667677,19.1237319 L88.8896885,20.9202527 L60.4363552,11.4354715 L88.8935281,3.30485063 L93.7667677,4.84371521 L93.7667677,19.1237319 Z M93.7667677,93.7666465 L75.9834344,93.7666465 C71.5210302,93.7615944 67.904951,90.1455152 67.900101,85.6833131 L67.900101,79.2166465 L68.6510427,79.2166465 C72.7416135,79.227761 76.6668802,77.6020006 79.5514177,74.7014985 L77.265249,72.4151277 C74.9855469,74.707359 71.8837698,75.9920027 68.6510427,75.9833131 L67.900101,75.9833131 L67.900101,67.8999798 C67.900101,67.0071756 67.1762385,66.2833131 66.2834344,66.2833131 L58.8617219,66.2833131 L69.046924,37.1833131 L93.7667677,37.1833131 L93.7667677,93.7666465 Z M88.4054969,24.1671256 C88.7538885,24.2833235 89.1315823,24.277261 89.4765385,24.1503527 L93.7667677,22.5694548 L93.7667677,33.9499798 L69.5167677,33.9499798 L69.5167677,17.8708152 L88.4054969,24.1671256 Z M95.870051,2.11720687 L89.4033844,0.0749527083 C89.1010677,-0.020430625 88.7775323,-0.0248764583 88.4725885,0.0622214583 L54.5225885,9.76222146 C53.6639365,10.0075506 53.1668115,10.9021735 53.4121406,11.7606235 C53.558651,12.2739152 53.949076,12.6817194 54.4554969,12.850459 L66.2834344,16.7931048 L66.2834344,35.2920152 L55.057301,67.3658735 C54.7624615,68.2087631 55.2066406,69.1308694 56.049126,69.425911 C56.2208969,69.4859298 56.4015594,69.5166465 56.5834344,69.5166465 L64.6667677,69.5166465 L64.6667677,85.6833131 C64.6736385,91.9303152 69.7362302,96.9929069 75.9834344,96.9999798 L95.3834344,96.9999798 C96.2762385,96.9999798 97.000101,96.2761173 97.000101,95.3833131 L97.000101,3.65768812 C96.9994948,2.95282146 96.5421802,2.32959646 95.870051,2.11720687 L95.870051,2.11720687 Z" id="Fill-15" fill="#0051FF" mask="url(#mask-4)"></path>
                <path d="M88.9167677,12.9333535 C88.0237615,12.9333535 87.300101,12.209491 87.300101,11.3166869 C87.300101,10.4238827 88.0237615,9.70002021 88.9167677,9.70002021 C89.8095719,9.70002021 90.5334344,10.4238827 90.5334344,11.3166869 C90.5322219,12.2090869 89.8091677,12.9323431 88.9167677,12.9333535 M88.9167677,6.46668687 C86.2381531,6.46668687 84.0667677,8.63807229 84.0667677,11.3166869 C84.0667677,13.9953015 86.2381531,16.1666869 88.9167677,16.1666869 C91.5951802,16.1666869 93.7667677,13.9953015 93.7667677,11.3166869 C93.7635344,8.63928479 91.5939677,6.46971812 88.9167677,6.46668687" id="Fill-16" fill="#0051FF" mask="url(#mask-4)"></path>
                <path d="M80.8334344,50.1166869 C82.6190427,50.1166869 84.0667677,51.5642098 84.0667677,53.3500202 C84.0667677,55.1356285 82.6190427,56.5833535 80.8334344,56.5833535 C79.047624,56.5833535 77.600101,55.1356285 77.600101,53.3500202 C77.6021219,51.5652202 79.0484323,50.1187077 80.8334344,50.1166869 M80.8334344,59.8166869 C84.4048531,59.8166869 87.300101,56.921439 87.300101,53.3500202 C87.300101,49.7786015 84.4048531,46.8833535 80.8334344,46.8833535 C77.2618135,46.8833535 74.3667677,49.7786015 74.3667677,53.3500202 C74.3708094,56.9198223 77.2636323,59.8126452 80.8334344,59.8166869" id="Fill-17" fill="#0051FF" mask="url(#mask-4)"></path>
            </g>
        </g>
    </g>
</svg>