<?xml version="1.0" encoding="UTF-8"?>
<svg width="35px" height="34px" viewBox="0 0 35 34" version="1.1" xmlns="http://www.w3.org/2000/svg" xmlns:xlink="http://www.w3.org/1999/xlink">
    <title>inicio-pictograma</title>
    <defs>
        <polygon id="path-1" points="0 0.169966825 29.8710342 0.169966825 29.8710342 30.256127 0 30.256127"></polygon>
        <polygon id="path-3" points="0 33.8453739 34.7517094 33.8453739 34.7517094 0 0 0"></polygon>
    </defs>
    <g id="Page-1" stroke="none" stroke-width="1" fill="none" fill-rule="evenodd">
        <g id="Course-Detailed-Page" transform="translate(-278.000000, -832.000000)">
            <g id="Group-15" transform="translate(278.000000, 832.000000)">
                <g id="Group-3" transform="translate(0.000000, 2.506243)">
                    <mask id="mask-2" fill="white">
                        <use xlink:href="#path-1"></use>
                    </mask>
                    <g id="Clip-2"></g>
                    <path d="M1.14889744,12.0885965 C1.14979487,11.1484226 1.92099145,10.386527 2.8722735,10.3853443 L3.44663248,10.3853443 L3.44663248,18.3336574 L2.8722735,18.3336574 C1.92099145,18.3324748 1.14979487,17.5705791 1.14889744,16.6304052 L1.14889744,12.0885965 Z M4.59564957,18.3336574 L11.4888547,18.3336574 L11.4888547,10.3853443 L4.59564957,10.3853443 L4.59564957,18.3336574 Z M21.4076154,4.60564 L22.4031709,3.5726313 L22.4031709,25.1463704 L21.4076154,24.1133617 C18.9695812,21.5879009 15.9655641,19.6640922 12.6375726,18.4962661 L12.6375726,10.2227357 C15.9655641,9.05490957 18.9695812,7.13110087 21.4076154,4.60564 L21.4076154,4.60564 Z M24.4137265,1.30172696 C24.8893675,1.30231826 25.2749658,1.68311826 25.275265,2.15350087 L25.275265,26.5657965 C25.275265,27.0361791 24.8896667,27.4175704 24.4137265,27.4175704 C23.9377863,27.4175704 23.552188,27.0361791 23.552188,26.5657965 L23.552188,2.15350087 C23.5524872,1.68311826 23.9380855,1.30231826 24.4137265,1.30172696 L24.4137265,1.30172696 Z M28.7220171,12.5696226 L28.7220171,16.1493791 L26.4242821,16.5281096 L26.4242821,12.1911878 L28.7220171,12.5696226 Z M11.4888547,21.7401617 L10.4310769,21.7401617 L9.91026496,19.4692574 L11.4888547,19.4692574 L11.4888547,21.7401617 Z M11.1442393,27.9852226 L11.4888547,27.9852226 C11.8059487,27.9852226 12.0632137,28.2391878 12.0632137,28.5528748 C12.0632137,28.8662661 11.8059487,29.120527 11.4888547,29.120527 L6.78479487,29.120527 L4.72906838,19.4692574 L8.73223077,19.4692574 L10.5842393,27.542927 C10.6434701,27.801327 10.875906,27.9852226 11.1442393,27.9852226 L11.1442393,27.9852226 Z M2.8722735,19.4692574 L3.55492308,19.4692574 L5.75663248,29.8052574 C5.81257265,30.0680922 6.04710256,30.256127 6.3187265,30.256127 L11.4888547,30.256127 C12.440735,30.256127 13.2122308,29.4939357 13.2125299,28.5531704 C13.2128291,27.6561617 12.5092393,26.9131878 11.6037265,26.8531704 L10.6916325,22.8754661 L12.0632137,22.8754661 C12.3806068,22.8754661 12.6375726,22.6215009 12.6375726,22.3078139 L12.6375726,19.7057791 C15.6445812,20.8251183 18.3575299,22.599327 20.5756923,24.8962487 L22.4187265,26.8091183 C22.5566325,27.8980052 23.5617607,28.6702487 24.6635128,28.533953 C25.6680427,28.4094835 26.4224872,27.5665791 26.4242821,26.5657965 L26.4242821,17.6790835 L29.390906,17.1906661 C29.6679145,17.1451357 29.8710342,16.9080226 29.8710342,16.6304052 L29.8710342,12.0885965 C29.8710342,11.8112748 29.6679145,11.5741617 29.390906,11.5283357 L26.4242821,11.0399183 L26.4242821,2.15350087 C26.422188,1.05604 25.5205641,0.16790087 24.4101368,0.169966825 C23.3978291,0.171448696 22.5443675,0.917083478 22.4187265,1.90988348 L20.5756923,3.82275304 C18.1915043,6.29204 15.2383419,8.15405739 11.9677863,9.24974435 L2.8722735,9.24974435 C1.28650427,9.25151826 0.00197435897,10.52164 -0.00011965812,12.0885965 L-0.00011965812,16.6304052 C0.00197435897,18.1973617 1.28650427,19.4674835 2.8722735,19.4692574 L2.8722735,19.4692574 Z" id="Fill-1" fill="#404B4D" mask="url(#mask-2)"></path>
                </g>
                <mask id="mask-4" fill="white">
                    <use xlink:href="#path-3"></use>
                </mask>
                <g id="Clip-5"></g>
                <polygon id="Fill-4" fill="#404B4D" mask="url(#mask-4)" points="5.74448718 19.1369739 6.89320513 19.1369739 6.89320513 16.8657739 5.74448718 16.8657739"></polygon>
                <polygon id="Fill-6" fill="#404B4D" mask="url(#mask-4)" points="8.04222222 19.1369739 9.19094017 19.1369739 9.19094017 16.8657739 8.04222222 16.8657739"></polygon>
                <polygon id="Fill-7" fill="#404B4D" mask="url(#mask-4)" points="30.9071538 13.5840052 34.353906 12.9028226 34.5791624 14.0162487 31.1324103 14.6974313"></polygon>
                <polygon id="Fill-8" fill="#404B4D" mask="url(#mask-4)" points="29.4645855 3.97389043 33.4856966 2.95652174e-05 34.2981752 0.802725217 30.276765 4.77688174"></polygon>
                <polygon id="Fill-9" fill="#404B4D" mask="url(#mask-4)" points="30.1604573 8.42481565 34.1815684 6.1539113 34.7517393 7.13961565 30.7306282 9.41081565"></polygon>
                <polygon id="Fill-10" fill="#404B4D" mask="url(#mask-4)" points="30.9071538 20.2610139 31.1324103 19.1475878 34.5791624 19.8287704 34.3536068 20.9424922"></polygon>
                <polygon id="Fill-11" fill="#404B4D" mask="url(#mask-4)" points="29.464735 29.8714539 30.2769145 29.0684626 34.2983248 33.0426191 33.4858462 33.8453148"></polygon>
                <polygon id="Fill-12" fill="#404B4D" mask="url(#mask-4)" points="30.1604573 25.4204991 30.7306282 24.4344991 34.7517393 26.7056991 34.1815684 27.6916991"></polygon>
                <path d="M21.048641,10.5530087 L20.3112479,9.68231304 C20.0381282,9.9081913 19.755735,10.1314087 19.4724444,10.3448696 L20.1691538,11.2477913 C20.4662051,11.023687 20.7620598,10.7901217 21.048641,10.5530087" id="Fill-13" fill="#404B4D" mask="url(#mask-4)"></path>
                <path d="M19.2261581,11.9247165 L18.5725256,10.9907513 C17.1853889,11.9386122 15.6998333,12.73776 14.1415855,13.3748904 L14.5801325,14.42416 C16.2143632,13.7562817 17.7717137,12.9184035 19.2261581,11.9247165" id="Fill-14" fill="#404B4D" mask="url(#mask-4)"></path>
            </g>
        </g>
    </g>
</svg>