<?xml version="1.0" encoding="UTF-8"?>
<svg width="120px" height="89px" viewBox="0 0 120 89" version="1.1" xmlns="http://www.w3.org/2000/svg" xmlns:xlink="http://www.w3.org/1999/xlink">
    <title>Group 29</title>
    <defs>
        <polygon id="path-1" points="0 87.2844732 118.801237 87.2844732 118.801237 -0.000371830986 0 -0.000371830986"></polygon>
    </defs>
    <g id="Page-1" stroke="none" stroke-width="1" fill="none" fill-rule="evenodd">
        <g id="Nosotros" transform="translate(-621.000000, -4315.000000)">
            <g id="Group-29" transform="translate(621.348624, 4315.865772)">
                <path d="M59.400866,29.7558986 C60.4944742,29.7558986 61.3802474,30.6445746 61.3802474,31.7402366 C61.3802474,32.8346592 60.4944742,33.7233352 59.400866,33.7233352 C58.3072577,33.7233352 57.4202474,32.8346592 57.4202474,31.7402366 C57.4202474,30.6445746 58.3072577,29.7558986 59.400866,29.7558986 M59.400866,37.6907718 C62.6804536,37.6907718 65.3402474,35.0272225 65.3402474,31.7402366 C65.3402474,28.4532507 62.6804536,25.788462 59.400866,25.788462 C56.1200412,25.788462 53.4602474,28.4532507 53.4602474,31.7402366 C53.4602474,35.0272225 56.1200412,37.6907718 59.400866,37.6907718" id="Fill-1" fill="#404B4D"></path>
                <mask id="mask-2" fill="white">
                    <use xlink:href="#path-1"></use>
                </mask>
                <g id="Clip-4"></g>
                <polygon id="Fill-3" fill="#404B4D" mask="url(#mask-2)" points="7.92 51.5775437 11.88 51.5775437 11.88 45.6270085 7.92 45.6270085"></polygon>
                <polygon id="Fill-5" fill="#404B4D" mask="url(#mask-2)" points="15.84 51.5775437 19.8 51.5775437 19.8 45.6270085 15.84 45.6270085"></polygon>
                <polygon id="Fill-6" fill="#404B4D" mask="url(#mask-2)" points="23.76 51.5775437 27.72 51.5775437 27.72 45.6270085 23.76 45.6270085"></polygon>
                <polygon id="Fill-7" fill="#404B4D" mask="url(#mask-2)" points="31.68 51.5775437 35.64 51.5775437 35.64 45.6270085 31.68 45.6270085"></polygon>
                <polygon id="Fill-8" fill="#404B4D" mask="url(#mask-2)" points="7.92 61.4967549 11.88 61.4967549 11.88 55.5449803 7.92 55.5449803"></polygon>
                <polygon id="Fill-9" fill="#404B4D" mask="url(#mask-2)" points="15.84 61.4967549 19.8 61.4967549 19.8 55.5449803 15.84 55.5449803"></polygon>
                <polygon id="Fill-10" fill="#404B4D" mask="url(#mask-2)" points="23.76 61.4967549 27.72 61.4967549 27.72 55.5449803 23.76 55.5449803"></polygon>
                <polygon id="Fill-11" fill="#404B4D" mask="url(#mask-2)" points="31.68 61.4967549 35.64 61.4967549 35.64 55.5449803 31.68 55.5449803"></polygon>
                <polygon id="Fill-12" fill="#404B4D" mask="url(#mask-2)" points="7.92 71.4147268 11.88 71.4147268 11.88 65.4629521 7.92 65.4629521"></polygon>
                <polygon id="Fill-13" fill="#404B4D" mask="url(#mask-2)" points="15.84 71.4147268 19.8 71.4147268 19.8 65.4629521 15.84 65.4629521"></polygon>
                <polygon id="Fill-14" fill="#404B4D" mask="url(#mask-2)" points="23.76 71.4147268 27.72 71.4147268 27.72 65.4629521 23.76 65.4629521"></polygon>
                <polygon id="Fill-15" fill="#404B4D" mask="url(#mask-2)" points="31.68 71.4147268 35.64 71.4147268 35.64 65.4629521 31.68 65.4629521"></polygon>
                <polygon id="Fill-16" fill="#404B4D" mask="url(#mask-2)" points="106.921237 51.5775437 110.881237 51.5775437 110.881237 45.6270085 106.921237 45.6270085"></polygon>
                <polygon id="Fill-17" fill="#404B4D" mask="url(#mask-2)" points="99.0012371 51.5775437 102.961237 51.5775437 102.961237 45.6270085 99.0012371 45.6270085"></polygon>
                <polygon id="Fill-18" fill="#404B4D" mask="url(#mask-2)" points="91.0812371 51.5775437 95.0412371 51.5775437 95.0412371 45.6270085 91.0812371 45.6270085"></polygon>
                <polygon id="Fill-19" fill="#404B4D" mask="url(#mask-2)" points="83.1612371 51.5775437 87.1212371 51.5775437 87.1212371 45.6270085 83.1612371 45.6270085"></polygon>
                <polygon id="Fill-20" fill="#404B4D" mask="url(#mask-2)" points="106.921237 61.4967549 110.881237 61.4967549 110.881237 55.5449803 106.921237 55.5449803"></polygon>
                <polygon id="Fill-21" fill="#404B4D" mask="url(#mask-2)" points="99.0012371 61.4967549 102.961237 61.4967549 102.961237 55.5449803 99.0012371 55.5449803"></polygon>
                <polygon id="Fill-22" fill="#404B4D" mask="url(#mask-2)" points="91.0812371 61.4967549 95.0412371 61.4967549 95.0412371 55.5449803 91.0812371 55.5449803"></polygon>
                <polygon id="Fill-23" fill="#404B4D" mask="url(#mask-2)" points="83.1612371 61.4967549 87.1212371 61.4967549 87.1212371 55.5449803 83.1612371 55.5449803"></polygon>
                <polygon id="Fill-24" fill="#404B4D" mask="url(#mask-2)" points="106.921237 71.4147268 110.881237 71.4147268 110.881237 65.4629521 106.921237 65.4629521"></polygon>
                <polygon id="Fill-25" fill="#404B4D" mask="url(#mask-2)" points="99.0012371 71.4147268 102.961237 71.4147268 102.961237 65.4629521 99.0012371 65.4629521"></polygon>
                <polygon id="Fill-26" fill="#404B4D" mask="url(#mask-2)" points="91.0812371 71.4147268 95.0412371 71.4147268 95.0412371 65.4629521 91.0812371 65.4629521"></polygon>
                <polygon id="Fill-27" fill="#404B4D" mask="url(#mask-2)" points="83.1612371 71.4147268 87.1212371 71.4147268 87.1212371 65.4629521 83.1612371 65.4629521"></polygon>
                <path d="M79.2,83.3170366 L114.841237,83.3170366 L114.841237,79.3496 L79.2,79.3496 L79.2,83.3170366 Z M71.2812371,83.3170366 L75.2412371,83.3170366 L75.2412371,79.3496 L71.2812371,79.3496 L71.2812371,83.3170366 Z M43.5612371,83.3170366 L47.5212371,83.3170366 L47.5212371,79.3496 L43.5612371,79.3496 L43.5612371,83.3170366 Z M3.96,83.3170366 L39.6,83.3170366 L39.6,79.3496 L3.96,79.3496 L3.96,83.3170366 Z M7.16412371,33.7234592 L39.6,33.7234592 L39.6,37.6908958 L5.18350515,37.6908958 L7.16412371,33.7234592 Z M43.5612371,28.9417127 L59.4012371,20.1231211 L75.24,28.9417127 L75.24,51.5763042 L69.3006186,51.5763042 C69.3006186,46.0992338 64.8680412,41.6583324 59.4012371,41.6583324 C53.9331959,41.6583324 49.5006186,46.0992338 49.5006186,51.5763042 L43.5612371,51.5763042 L43.5612371,28.9417127 Z M67.9002062,5.37010704 C69.5356701,7.01731831 71.7612371,7.94069859 74.0808247,7.93450141 L75.24,7.93450141 L75.24,13.8862851 L72.1002062,13.8862851 C70.8321649,13.8887549 69.6160825,13.3843042 68.7204124,12.4832338 C67.0849485,10.8360225 64.8606186,9.91264225 62.5410309,9.91883944 L61.3806186,9.91883944 L61.3806186,3.96705572 L64.5204124,3.96705572 C65.7896907,3.96458592 67.0057732,4.47027606 67.9002062,5.37010704 L67.9002062,5.37010704 Z M111.637113,33.7234592 L113.617732,37.6908958 L79.2012371,37.6908958 L79.2012371,33.7234592 L111.637113,33.7234592 Z M79.2012371,61.4955155 L79.2012371,41.6583324 L114.841237,41.6583324 L114.841237,75.3821634 L79.2012371,75.3821634 L79.2012371,61.4955155 Z M71.2812371,75.3834028 L75.2412371,75.3834028 L75.2412371,63.4798535 L71.2812371,63.4798535 L71.2812371,75.3834028 Z M51.48,83.3170366 L67.32,83.3170366 L67.32,79.3496 L51.48,79.3496 L51.48,83.3170366 Z M43.5612371,75.3834028 L47.5212371,75.3834028 L47.5212371,63.4798535 L43.5612371,63.4798535 L43.5612371,75.3834028 Z M51.48,75.3834028 L57.4206186,75.3834028 L57.4206186,63.4798535 L51.48,63.4798535 L51.48,75.3834028 Z M61.3806186,75.3821634 L67.3212371,75.3821634 L67.3212371,63.4786141 L61.3806186,63.4786141 L61.3806186,75.3821634 Z M53.4606186,51.5763042 C53.4606186,48.2905577 56.1204124,45.6270085 59.4012371,45.6270085 C62.6808247,45.6270085 65.3406186,48.2905577 65.3406186,51.5763042 L53.4606186,51.5763042 Z M51.48,55.5449803 L75.24,55.5449803 L75.24,59.5124169 L43.5612371,59.5124169 L43.5612371,55.5449803 L51.48,55.5449803 Z M3.96,75.3821634 L39.6,75.3821634 L39.6,41.6583324 L3.96,41.6583324 L3.96,75.3821634 Z M118.663918,38.9923042 C118.646598,38.9489239 118.636701,38.9030648 118.616907,38.8621634 C118.597113,38.8187831 118.605773,38.8125859 118.593402,38.7877972 L114.633402,30.8529239 C114.298144,30.1811493 113.611546,29.7560225 112.861856,29.7560225 L79.2012371,29.7560225 L79.2012371,27.7716845 C79.2012371,27.0515718 78.8103093,26.3884732 78.1806186,26.0389521 L61.3806186,16.6874028 L61.3806186,13.8862761 L62.5410309,13.8862761 C63.8090722,13.8825577 65.0263918,14.3870085 65.9208247,15.2880789 C67.5550515,16.9365296 69.7806186,17.8599099 72.1002062,17.8537127 L77.2206186,17.8537127 C78.3142268,17.8537127 79.2012371,16.9662761 79.2012371,15.8706141 L79.2012371,5.95140282 C79.2012371,4.85574085 78.3142268,3.96706479 77.2206186,3.96706479 L74.0808247,3.96706479 C72.8127835,3.9707831 71.5954639,3.46509296 70.6997938,2.56402254 C69.065567,0.916811268 66.84,-0.00656901408 64.5204124,-0.000402824526 L59.4012371,-0.000402824526 C58.3063918,-0.000402824526 57.4206186,0.888304225 57.4206186,1.9839662 L57.4206186,16.6874028 L40.6206186,26.0389521 C39.9909278,26.3884732 39.6012371,27.0515718 39.6,27.7716845 L39.6,29.7560225 L5.93938144,29.7560225 C5.18969072,29.7560225 4.50309278,30.1811493 4.16783505,30.8529239 L0.207835052,38.7877972 C0.195463918,38.8125859 0.194226804,38.8373746 0.18185567,38.8621634 C0.170721649,38.8857127 0.154639175,38.9489239 0.136082474,38.9923042 C0.0630927835,39.1881352 0.0222680412,39.3938817 0.0136082474,39.6033465 C0.0136082474,39.6268958 0,39.6492056 0,39.6752338 L0,85.3001352 C0,86.3957972 0.885773196,87.2844732 1.98061856,87.2844732 L116.820619,87.2844732 C117.915464,87.2844732 118.801237,86.3957972 118.801237,85.3001352 L118.801237,39.6752338 C118.801237,39.6492056 118.787629,39.6293746 118.787629,39.6033465 C118.778969,39.3938817 118.738144,39.1881352 118.663918,38.9923042 L118.663918,38.9923042 Z" id="Fill-28" fill="#404B4D" mask="url(#mask-2)"></path>
            </g>
        </g>
    </g>
</svg>