<?xml version="1.0" encoding="UTF-8"?>
<svg width="97px" height="98px" viewBox="0 0 97 98" version="1.1" xmlns="http://www.w3.org/2000/svg" xmlns:xlink="http://www.w3.org/1999/xlink">
    <title>pictograma-50-plus</title>
    <defs>
        <polygon id="path-1" points="0 0.207593197 96.7927367 0.207593197 96.7927367 96.9997361 0 96.9997361"></polygon>
    </defs>
    <g id="Page-1" stroke="none" stroke-width="1" fill="none" fill-rule="evenodd">
        <g id="Educación-Continua" transform="translate(-943.000000, -860.000000)">
            <g id="Group-14" transform="translate(943.000000, 860.000000)">
                <path d="M24.1983986,26.4713897 C25.5689361,26.4561891 26.6676095,25.3324408 26.6524327,23.9619034 C26.6372558,22.591366 25.5135075,21.4926925 24.1429701,21.5078694 C22.7829905,21.5230463 21.6889361,22.6296381 21.6882762,23.9896177 C21.6981741,25.3674136 22.8206027,26.4773048 24.1983986,26.4713897" id="Fill-1" fill="#0051FF"></path>
                <path d="M40.3302905,26.4713897 C41.7008279,26.4561891 42.7995014,25.3324408 42.7849844,23.9619034 C42.7691476,22.591366 41.6460592,21.4926925 40.2755218,21.5078694 C38.9148823,21.5230463 37.8208279,22.6296381 37.8208279,23.9896177 C37.830066,25.3674136 38.9524946,26.4773048 40.3302905,26.4713897" id="Fill-3" fill="#0051FF"></path>
                <g id="Group-7" transform="translate(0.000000, 0.452667)">
                    <mask id="mask-2" fill="white">
                        <use xlink:href="#path-1"></use>
                    </mask>
                    <g id="Clip-6"></g>
                    <path d="M88.7265599,93.7736612 L66.1413966,93.7736612 L66.1413966,87.1063959 C66.1413966,87.1063959 87.343485,84.0947769 87.571798,84.0947769 L88.7265599,84.0947769 C91.3996687,84.0947769 93.566002,86.2611102 93.566002,88.934219 C93.566002,91.606668 91.3996687,93.7736612 88.7265599,93.7736612 L88.7265599,93.7736612 Z M61.3019544,93.7736612 C58.9059884,93.7736612 55.2991721,93.0755252 53.7722469,91.0286272 C52.8161041,89.7458517 53.4376959,88.178015 52.7151449,86.7507293 C51.8837163,85.1287837 50.2188796,84.1046748 48.3963354,84.0947769 L45.1696007,84.0947769 C45.1616823,84.0947769 45.1537639,84.0934571 45.1451857,84.0927973 L45.1234102,82.6562735 C45.1220905,82.0604163 45.0145327,81.4698381 44.8053558,80.9109333 C44.9247912,80.883219 45.0475259,80.868702 45.1696007,80.8680376 L47.6341925,80.8680376 C48.3217707,80.8673823 49.0067095,80.9379878 49.6797707,81.0778789 L49.7055054,81.0831578 C49.7332197,81.0884367 49.760934,81.0950354 49.7873286,81.101634 L49.8150429,81.1082327 C52.7718932,81.7680966 55.2747571,83.7219537 56.6327571,86.4293755 C56.9059408,86.9757429 57.4648456,87.3208517 58.0758796,87.3208517 L62.9153218,87.3208517 L62.9153218,93.7736612 L61.3019544,93.7736612 Z M35.584417,93.7736612 L35.5751789,92.8828449 L35.497315,84.7513415 L38.8137912,81.4018721 C39.5145667,80.694498 40.6554714,80.689219 41.3635054,81.3899946 C41.7046551,81.7285048 41.8966755,82.1890898 41.8966755,82.6701306 L41.8966755,82.6945456 L41.9435259,85.7318993 C41.9567231,86.6134776 42.675315,87.3208517 43.5568932,87.3208517 L48.3963354,87.3208517 C49.2864918,87.3215116 50.008383,88.0434027 50.0097027,88.934219 L50.0097027,92.1602939 C50.008383,93.0511102 49.2864918,93.7730014 48.3963354,93.7736612 L35.584417,93.7736612 Z M12.9062129,93.7736612 C7.56263469,93.7677224 3.23260748,89.4376952 3.22666871,84.0947769 L3.22666871,59.8962463 C3.23326735,54.2854231 7.35345782,49.5278041 12.9062129,48.7188109 L12.9062129,84.0947769 C12.9062129,84.9855932 13.6274442,85.7074844 14.5189204,85.7074844 L32.2798184,85.7074844 L32.2903762,86.7995592 L32.3570224,93.7736612 L12.9062129,93.7736612 Z M18.2194374,30.9994844 C18.1976619,30.8754299 18.177866,30.7507156 18.1574102,30.6101646 C17.8842265,28.8522871 17.746315,27.0759333 17.7456551,25.2969401 L17.7456551,21.5700286 C20.345519,18.7517497 22.513832,15.5639469 24.181968,12.110219 L40.3506143,12.1168177 C42.0167707,15.568566 44.1844238,18.7543891 46.7836279,21.5706884 L46.7836279,25.2969401 C46.7823082,26.7855932 46.6839884,28.2729265 46.4899884,29.7490422 L45.2276687,32.2736816 C44.4463898,33.8401986 44.037934,35.5664027 44.0366143,37.3170218 C44.0366143,37.6832463 44.0570701,38.0514503 44.091383,38.4176748 C44.0801653,38.4401102 44.066968,38.4612259 44.0557503,38.4830014 C43.0659544,33.5300626 38.9173898,29.8018313 33.9631313,29.8018313 L30.4810293,29.8018313 C25.5637231,29.8018313 21.4415531,33.4752939 20.4128252,38.3734639 C20.1073082,37.796083 19.8466619,37.1956068 19.6341857,36.5779741 C19.0099544,34.7607088 18.536832,32.8946136 18.2194374,30.9994844 L18.2194374,30.9994844 Z M12.9062129,26.0188313 C12.9022537,24.8601102 13.5165871,23.7884912 14.5189204,23.207151 L14.5189204,25.2969401 C14.5189204,26.5031714 14.5776483,27.7166612 14.6944442,28.9202531 C14.3777095,28.7632054 14.0906687,28.5553483 13.8425599,28.3039401 C13.2407639,27.6962054 12.9035735,26.8746748 12.9062129,26.0188313 L12.9062129,26.0188313 Z M20.5579952,12.1088993 C19.729866,13.6490218 18.7902197,15.1264571 17.7456459,16.5293279 L17.7456459,14.6777497 C17.7443354,13.8040898 17.8848864,12.9363687 18.1613694,12.1069197 L20.5579952,12.1088993 Z M20.8813286,5.85800816 L22.4412469,8.88282449 L19.0271109,8.8808449 C19.3972946,7.7406 20.0320837,6.70461361 20.8813286,5.85800816 L20.8813286,5.85800816 Z M27.0662333,3.43366192 L27.0662333,8.88480408 L26.0724782,8.88480408 L23.5834714,4.05987891 C24.6016415,3.64482449 25.6910769,3.4323483 26.7904102,3.43366192 L27.0662333,3.43366192 Z M30.2923082,8.88612381 L30.2923082,3.43366803 L34.2356551,3.43366803 L34.2356551,8.8881034 L30.2923082,8.88612381 Z M40.9444918,4.06053878 L38.4528456,8.89008299 L37.4623898,8.89008299 L37.4623898,3.43366194 L37.7375531,3.43366194 C38.8368864,3.4323483 39.9263218,3.64548435 40.9444918,4.06053878 L40.9444918,4.06053878 Z M42.0820973,8.89140272 L43.6472946,5.85932789 C44.498519,6.70857279 45.1346279,7.74851837 45.5034918,8.89338231 L42.0820973,8.89140272 Z M51.1974578,23.0666 C51.1842605,22.4918585 51.1717231,21.8966612 51.1842605,21.3232395 C51.4383082,11.1956476 59.8535531,3.19215782 69.980485,3.44620544 C77.9654986,3.64614422 84.9033082,8.99104218 87.1336483,16.6613007 C87.6331653,18.3136 87.8852333,20.030566 87.881934,21.7561102 C87.8746755,22.1309129 87.8614782,22.5004367 87.848281,22.8666612 C87.770417,25.0250762 87.6905735,27.2580558 88.8565531,29.5880354 L90.9206075,33.7168041 C92.9100973,37.6984231 91.2954102,42.5378653 87.3137912,44.5273551 C86.1966415,45.0856 84.9646755,45.3766 83.7155531,45.3772599 L77.5834374,45.3772599 L77.5834374,44.8196748 C82.5706891,41.9387088 85.6449952,36.6182259 85.6496143,30.8582735 L85.6496143,22.7920966 C85.6496143,22.0213755 85.1039068,21.3582122 84.3470429,21.209083 L80.5963762,20.4726748 C78.7606347,20.1097497 77.4376075,18.5016612 77.4343082,16.6302871 C77.4343082,12.6862803 74.2366075,9.48857959 70.2919408,9.48857959 C69.8221177,9.48857959 69.3529544,9.53477007 68.8910497,9.62715102 L67.4380293,9.91749116 C66.9173966,10.0224095 66.4812265,10.3760966 66.2720497,10.8643959 L64.5511245,14.879668 C62.9159816,18.7035796 59.1560769,21.1820286 54.9976143,21.1793891 C54.106798,21.1793891 53.3842469,21.9012803 53.3842469,22.7920966 L53.3842469,30.8582735 C53.388866,36.6182259 56.4625122,41.9393687 61.4504238,44.8203347 L61.4504238,45.3772599 L55.318968,45.3772599 C51.3267912,45.3587837 47.9430088,42.4342667 47.3478116,38.4863007 C47.3478116,38.4783823 47.3451721,38.4704639 47.3445122,38.4625456 C47.2904034,38.0831238 47.2640088,37.7004027 47.263349,37.3170218 C47.2646687,36.0678993 47.5556687,34.8352735 48.1139136,33.7174639 L50.177968,29.5880354 C51.2911585,27.359015 51.2429884,25.1768449 51.1974578,23.0666 L51.1974578,23.0666 Z M32.2646415,48.6033347 C34.0198796,48.6053143 35.7639,48.3347701 37.4359952,47.8002803 L32.2646415,54.1224367 L27.091968,47.8002803 C28.7640633,48.3334503 30.5087435,48.6046544 32.2646415,48.6033347 L32.2646415,48.6033347 Z M23.5438796,39.1461646 C24.2261789,35.6541646 27.0767912,33.0272463 30.4803694,33.0272463 L33.9631313,33.0272463 C37.3660497,33.0272463 40.2166619,35.6541646 40.8996211,39.1461646 L40.6277571,39.1461646 C37.8741449,39.1323075 35.2525054,37.9623687 33.4029068,35.9214095 C32.7951721,35.2694639 31.7743626,35.2338313 31.122417,35.8409061 C31.0947027,35.8666408 31.0676483,35.8936952 31.0419136,35.9214095 C29.1916551,37.9623687 26.5700156,39.1323075 23.8150837,39.1461646 L23.5438796,39.1461646 Z M23.8150837,42.3728993 C26.897968,42.3524435 29.8746143,41.244532 32.2210905,39.2451442 C34.5682265,41.2451918 37.5455327,42.3524435 40.6277571,42.3728993 L40.8131789,42.3728993 C40.5710088,42.5688789 40.3222401,42.7576 40.0655531,42.937083 C35.0881993,46.3881714 28.4347912,46.1585388 23.706866,42.3728993 L23.8150837,42.3728993 Z M42.1975735,45.3772599 C43.3470565,44.5379129 44.3830429,43.5520762 45.2771585,42.4448245 C45.8387027,43.5329401 46.5724714,44.5233959 47.4500905,45.3772599 L42.1975735,45.3772599 Z M61.4504238,50.9583891 C61.0861789,50.4912054 60.6948796,50.047117 60.2765259,49.6287633 C59.9149204,49.2678177 59.5341789,48.9253483 59.1369408,48.6033347 L61.4510837,48.6033347 L61.4504238,50.9583891 Z M69.5166007,43.7638925 C62.3927095,43.7559741 56.6189,37.9828245 56.6109816,30.8582735 L56.6109816,24.3104435 C61.4438252,23.7376816 65.6029476,20.6257633 67.5165531,16.150566 L68.9042469,12.9152531 L69.5251789,12.7911986 C71.6453218,12.367566 73.7080565,13.7427224 74.1316891,15.8635252 C74.1824986,16.1155932 74.2075735,16.3729401 74.2075735,16.6302871 C74.2135122,20.0424435 76.6266347,22.9761986 79.9728048,23.6393619 L82.4222197,24.1204027 L82.4222197,30.8582735 C82.4143014,37.9828245 76.6411517,43.7559741 69.5166007,43.7638925 L69.5166007,43.7638925 Z M72.958451,61.5089537 L69.5166007,67.8192327 L66.0747503,61.5089537 L72.958451,61.5089537 Z M51.6230701,48.7174912 C53.9985803,49.0540218 56.2031857,50.1454367 57.9122333,51.8300694 L53.2357776,51.8300694 C52.6960088,51.8307293 52.1569,51.8696612 51.6230701,51.9468653 L51.6230701,48.7174912 Z M43.5568932,48.6033347 L48.3963354,48.6033347 L48.3963354,52.9188449 C46.3863898,53.8730082 44.7030769,55.3992735 43.5568932,57.3056204 L43.5568932,48.6033347 Z M34.7906007,56.129083 L40.3301585,49.358219 L40.3301585,58.8991918 L34.7906007,56.129083 Z M32.2646415,58.4729197 L33.503866,59.092532 L32.2646415,61.3664231 L31.0247571,59.0931918 L32.2646415,58.4729197 Z M24.1984646,49.358219 L29.7373626,56.129083 L24.1984646,58.8991918 L24.1984646,49.358219 Z M76.6602878,54.7215932 L74.7183082,58.2828789 L64.3148932,58.2828789 L62.3735735,54.7248925 C63.7777639,54.1085796 64.6824374,52.7182463 64.6778184,51.1847224 L64.6778184,46.2482803 C67.8280088,47.2380762 71.2065122,47.2380762 74.3573626,46.2482803 L74.3573626,51.1847224 C74.3593422,52.7156068 75.2620361,54.1013211 76.6609476,54.7215932 L76.6602878,54.7215932 Z M46.3718728,12.120117 C46.6463762,12.9449469 46.7842878,13.8087088 46.7836302,14.6777497 L46.7836302,16.5306476 C45.7397231,15.1304163 44.8020565,13.6562803 43.9752469,12.1187973 L46.3718728,12.120117 Z M33.2042878,82.4814095 L16.1316279,82.4814095 L16.1316279,48.6033347 L20.9717299,48.6033347 L20.9717299,61.5089537 C20.9717299,62.4004299 21.694281,63.1223211 22.5850973,63.1223211 C22.8358456,63.1223211 23.0826347,63.0642531 23.3063286,62.9520762 L28.1371925,60.5369741 L30.8479136,65.5083891 C31.2748456,66.2903279 32.2547435,66.5786884 33.0366823,66.1517565 C33.3092061,66.0032871 33.5315803,65.7802531 33.6800497,65.5083891 L36.3907707,60.5369741 L41.2222946,62.9520762 C41.4459884,63.0642531 41.6934374,63.1223211 41.9435259,63.1223211 L41.9435259,77.9949946 C41.3549272,77.7614027 40.7280565,77.6413075 40.0952469,77.6413075 C38.7537435,77.6452667 37.4683286,78.1810762 36.5220837,79.1319401 L33.2042878,82.4814095 Z M93.566002,63.1223211 L93.566002,82.4853687 C92.4970224,81.679015 91.2426211,81.1537633 89.9176143,80.9564639 C91.0921721,76.4014231 89.7711245,71.5652803 86.4454102,68.2389061 L85.0280224,66.8215184 L82.7462129,69.102668 L84.1636007,70.5207156 C86.0521313,72.4092463 87.1131925,74.9708381 87.1138524,77.6413075 C87.1112129,78.7630762 86.9224918,79.8762667 86.5549476,80.9360082 C86.5140361,80.9412871 86.4718048,80.9432667 86.4308932,80.9485456 L64.4138728,84.0947769 L59.0280633,84.0947769 C57.3605871,81.3160898 54.7343286,79.244117 51.6448456,78.2675184 C51.6309884,78.0596612 51.6230701,77.8504844 51.6230701,77.6413075 C51.6230701,74.9708381 52.6841313,72.4092463 54.572002,70.5207156 L55.9900497,69.102668 L53.7089,66.8215184 L52.2901925,68.2389061 C49.7972265,70.7331918 48.3969952,74.1149946 48.3963354,77.6413075 L48.3963354,77.6650626 C48.1422878,77.6505456 47.8882401,77.6413075 47.6341925,77.6413075 L45.1695997,77.6413075 L45.1695997,63.1223211 C45.1689408,61.7610218 45.5133898,60.421498 46.1706143,59.2291238 C46.1785327,59.2139469 46.1857912,59.1994299 46.1937095,59.1849129 C47.6176959,56.6325592 50.3132401,55.052185 53.2357776,55.056794 L58.8802537,55.056794 L68.1005327,71.9611986 C68.5274646,72.7431374 69.5067027,73.031498 70.2893014,72.6052259 C70.5611653,72.4567565 70.7848592,72.2330626 70.9326687,71.9611986 L80.1536075,55.056794 L85.4998252,55.056794 C89.9525871,55.0614231 93.561383,58.670219 93.566002,63.1223211 L93.566002,63.1223211 Z M85.4998252,51.8300694 L78.2287844,51.8300694 C77.8724578,51.8300694 77.5834374,51.541049 77.5834374,51.1847224 L77.5834374,48.6033347 L83.7155531,48.6033347 C89.9473082,48.6039946 94.9992265,43.5527361 94.9992265,37.320981 C94.9998864,35.5690422 94.5920905,33.8415184 93.8081721,32.2743415 L91.7421381,28.1442531 C90.9443626,26.5506816 91.0037503,24.8977224 91.0730361,22.9821374 C91.0868932,22.5987565 91.1007503,22.2100966 91.1080088,21.8174776 C91.1172469,19.7666204 90.8222878,17.7263211 90.2323694,15.7619061 C86.8980769,4.31920544 74.9169272,-2.25435918 63.4735667,1.0805932 C57.4371313,2.83979048 52.4683558,7.14474286 49.8651925,12.8690626 C49.7094646,11.8885048 49.4230837,10.9336816 49.0133082,10.029668 C48.4511041,4.49604898 43.5654714,0.207593197 37.7375531,0.207593197 L26.7904102,0.207593197 C20.9545735,0.207593197 16.0722401,4.49802857 15.5126755,10.0375864 C14.8547912,11.4958857 14.5156211,13.0775796 14.5189204,14.6777497 L14.5189204,19.7580422 C11.0592537,20.6607361 8.98596122,24.1969469 9.8886551,27.6566136 C10.1756959,28.7559469 10.7464782,29.7596 11.5442537,30.5685932 C12.522832,31.5709265 13.8075871,32.2195728 15.195281,32.4109333 C15.534451,34.1800286 15.9976755,35.9227293 16.582315,37.6258381 C17.6578932,40.7370966 19.6625599,43.4425388 22.3251109,45.3772599 L14.5189204,45.3772599 C6.50421293,45.386498 0.00917210884,51.8815388 -6.59863945e-05,59.8962463 L-6.59863945e-05,84.0947769 C0.00785238095,91.218668 5.7816619,96.9918177 12.9062129,96.9997361 L88.7265599,96.9997361 C93.1793218,96.995117 96.7874578,93.386981 96.7927367,88.934219 L96.7927367,63.1223211 C96.7854782,56.8892463 91.7342197,51.8373279 85.4998252,51.8300694 L85.4998252,51.8300694 Z" id="Fill-5" fill="#0051FF" mask="url(#mask-2)"></path>
                </g>
                <path d="M64.6769605,27.2781816 C64.6769605,25.9419571 63.5934639,24.8584605 62.2572395,24.8584605 C60.921015,24.8584605 59.8375184,25.9419571 59.8375184,27.2781816 C59.8375184,28.6144061 60.921015,29.6979027 62.2572395,29.6979027 C63.5928041,29.696583 64.6756408,28.6137463 64.6769605,27.2781816" id="Fill-8" fill="#0051FF"></path>
                <path d="M76.7761599,24.8581306 C75.4399354,24.8581306 74.3564388,25.9416272 74.3564388,27.2778517 C74.3564388,28.6140762 75.4399354,29.6975728 76.7761599,29.6975728 C78.1123844,29.6975728 79.195881,28.6140762 79.195881,27.2778517 C79.1945612,25.9422871 78.1117245,24.8594503 76.7761599,24.8581306" id="Fill-10" fill="#0051FF"></path>
                <path d="M71.3175014,32.9243735 C71.3175014,33.8138701 70.4280048,34.5377408 69.3346102,34.5377408 C68.2405558,34.5377408 67.3510592,33.8138701 67.3510592,32.9243735 L64.136202,32.9243735 L61.5726306,36.8690401 L64.257617,38.6585912 L65.7456102,36.4269313 C67.822202,38.2237408 70.9077259,38.2079041 72.9658415,36.389319 L74.4782497,38.6585912 L77.1625762,36.8690401 L74.646515,32.9243735 L71.3175014,32.9243735 Z" id="Fill-12" fill="#0051FF"></path>
            </g>
        </g>
    </g>
</svg>