<svg width="68" height="68" viewBox="0 0 68 68" fill="none" xmlns="http://www.w3.org/2000/svg">
<path fill-rule="evenodd" clip-rule="evenodd" d="M28.2119 14.3908C28.2119 12.2209 29.9803 10.4619 32.1617 10.4619C34.3417 10.4644 36.1086 12.222 36.1111 14.3908C36.1111 16.5607 34.3428 18.3193 32.1617 18.3193C29.9803 18.3193 28.2119 16.5607 28.2119 14.3908ZM30.47 14.3908C30.47 15.3205 31.2278 16.0746 32.1628 16.0746C33.0971 16.0735 33.8545 15.3201 33.8556 14.3908C33.8556 13.4607 33.0974 12.7074 32.1628 12.7074C31.2278 12.7074 30.47 13.4607 30.47 14.3908Z" fill="#0051FF"/>
<path fill-rule="evenodd" clip-rule="evenodd" d="M66.5798 0.359497H42.6912C40.3148 0.366333 38.1142 1.60616 36.8855 3.62961L35.4724 5.97184H27.0838C25.2152 5.97399 23.7004 7.48079 23.6982 9.33946V29.5445C23.7004 31.4031 25.2152 32.9096 27.0838 32.9117H33.8548V37.4019C33.8548 38.0214 34.3598 38.524 34.9833 38.524C35.247 38.524 35.5028 38.4319 35.7057 38.2639L42.1628 32.9117H57.5521C59.421 32.9096 60.9358 31.4031 60.9376 29.5445V13.6116C63.3195 13.1582 65.5088 12.0008 67.2193 10.2907L67.3777 10.1331C67.5893 9.92267 67.7083 9.63736 67.7083 9.33946V1.48204C67.7083 0.862121 67.2034 0.359497 66.5798 0.359497ZM65.4525 8.87065C62.1046 12.0425 56.9941 12.4836 53.1471 9.93239L52.5372 9.52798C52.0898 9.23116 51.4934 9.2898 51.1132 9.6683L44.927 15.8218C44.3396 16.4014 43.4151 16.4669 42.751 15.9761C42.0157 15.4274 41.867 14.3898 42.4186 13.6584C42.466 13.5958 42.5177 13.5367 42.5731 13.481L50.452 5.64371L48.8562 4.0556L46.9298 5.97184H38.106L38.8218 4.78489C39.6411 3.43569 41.1082 2.60925 42.6924 2.60458H65.4525V8.87065ZM58.6799 26.3243L53.6638 22.9981C53.3267 22.7747 52.8952 22.7473 52.5327 22.9276L46.348 26.0038L36.7368 19.6301C36.3737 19.3898 35.9038 19.379 35.5302 19.6021L25.9549 25.3166V9.33946C25.9556 8.7199 26.4602 8.21799 27.083 8.21728H44.6711L40.9753 11.8929C39.4558 13.4281 39.4746 15.8977 41.0176 17.4091C42.544 18.9048 44.9941 18.9048 46.5209 17.4091L52.0542 11.9055C54.0139 13.1636 56.2977 13.8318 58.6303 13.8293C58.6386 13.8293 58.6469 13.829 58.6551 13.8287L58.6728 13.8282L58.6799 13.8282V26.3243ZM58.6799 29.5445C58.6791 30.164 58.1746 30.6659 57.5513 30.6666H41.7529C41.4892 30.6666 41.2335 30.7587 41.0306 30.9271L36.1107 35.0053V31.7892C36.1107 31.1696 35.6054 30.6666 34.9826 30.6666H27.083C26.4602 30.6659 25.9556 30.164 25.9549 29.5445V27.9348L36.0789 21.8921L45.6409 28.233C45.978 28.4565 46.4091 28.4834 46.7715 28.3035L52.9566 25.2274L58.6799 29.0224V29.5445Z" fill="#0051FF"/>
<path d="M9.02793 23.9321C7.15902 23.9339 5.64457 25.4403 5.64276 27.2993V34.0342H3.38574V27.2993C3.38936 24.2012 5.91332 21.6902 9.02793 21.6866H21.4412V23.9321H9.02793Z" fill="#0051FF"/>
<path d="M45.1387 43.0141H56.4234V40.7694H45.1387V43.0141Z" fill="#0051FF"/>
<path d="M63.1924 43.0141H58.6787V40.7694H63.1924V43.0141Z" fill="#0051FF"/>
<path d="M45.1387 51.9937H63.1941V49.749H45.1387V51.9937Z" fill="#0051FF"/>
<path d="M63.1941 47.504H45.1387V45.2593H63.1941V47.504Z" fill="#0051FF"/>
<path fill-rule="evenodd" clip-rule="evenodd" d="M44.0097 36.2792H64.3221C66.1907 36.2813 67.7051 37.7881 67.7073 39.6468V53.1166C67.7051 54.9756 66.1907 56.482 64.3221 56.4838H44.0097C42.1411 56.482 40.6263 54.9756 40.6241 53.1166V51.994H37.239C36.9398 51.994 36.6526 51.876 36.441 51.6652C36.0001 51.2269 36.0001 50.516 36.441 50.0778L40.6241 45.9165V39.6468C40.6263 37.7881 42.1411 36.2813 44.0097 36.2792ZM64.3221 54.2391C64.9449 54.2384 65.4495 53.7365 65.4502 53.1166V39.6468C65.4495 39.0272 64.9449 38.5246 64.3221 38.5239H44.0096C43.3867 38.5246 42.8818 39.0272 42.8814 39.6468V46.3817C42.8814 46.6792 42.7621 46.9649 42.5505 47.1754L39.9632 49.7493H41.7526C42.3758 49.7493 42.8814 50.2516 42.8814 50.8718V53.1166C42.8818 53.7365 43.3867 54.2384 44.0096 54.2391H64.3221Z" fill="#0051FF"/>
<path d="M7.89844 28.4218H10.1551V26.1768H7.89844V28.4218Z" fill="#0051FF"/>
<path d="M14.6688 28.4218H12.4121V26.1768H14.6688V28.4218Z" fill="#0051FF"/>
<path d="M16.9277 28.4218H19.1844V26.1768H16.9277V28.4218Z" fill="#0051FF"/>
<path d="M21.4398 32.9116H7.89844V30.6665H21.4398V32.9116Z" fill="#0051FF"/>
<path d="M6.77033 43.0141H4.51367V40.7694H6.77033V43.0141Z" fill="#0051FF"/>
<path d="M4.51367 47.504H6.77033V45.2593H4.51367V47.504Z" fill="#0051FF"/>
<path d="M6.77033 51.9937H4.51367V49.749H6.77033V51.9937Z" fill="#0051FF"/>
<path d="M9.02637 43.0141H22.5678V40.7694H9.02637V43.0141Z" fill="#0051FF"/>
<path d="M22.5678 47.504H9.02637V45.2593H22.5678V47.504Z" fill="#0051FF"/>
<path d="M9.02637 51.9937H22.5678V49.749H9.02637V51.9937Z" fill="#0051FF"/>
<path fill-rule="evenodd" clip-rule="evenodd" d="M3.38517 56.4841H23.6973C25.5662 56.4819 27.0806 54.9755 27.0828 53.1164V48.6266H30.4683C31.0916 48.6266 31.5965 48.124 31.5969 47.5041C31.5969 47.2066 31.4779 46.9209 31.2663 46.7104L27.0828 42.5491V39.6467C27.0806 37.788 25.5662 36.2812 23.6973 36.2794H3.38517C1.51626 36.2812 0.00217021 37.788 0 39.6467V53.1164C0.00217021 54.9755 1.51626 56.4819 3.38517 56.4841ZM2.25712 39.6467C2.25784 39.0271 2.76242 38.5249 3.38563 38.5241H23.6977C24.3209 38.5249 24.8259 39.0271 24.8262 39.6467V43.0139C24.8262 43.3122 24.9456 43.5972 25.1572 43.8076L27.7445 46.3819H25.9551C25.3315 46.3819 24.8262 46.8842 24.8262 47.5041V53.1164C24.8259 53.7364 24.3209 54.2386 23.6977 54.2393H3.38563C2.76242 54.2386 2.25784 53.7364 2.25712 53.1164V39.6467Z" fill="#0051FF"/>
<path fill-rule="evenodd" clip-rule="evenodd" d="M37.7064 58.729H57.5511C58.1747 58.729 58.6797 59.2316 58.6797 59.8516V63.2192C58.6768 65.6978 56.6574 67.7065 54.166 67.709H4.51368C2.02191 67.7065 0.00289362 65.6978 0 63.2192V59.8516C0 59.2316 0.504936 58.729 1.12851 58.729H20.9733C22.295 58.7254 23.5634 59.2482 24.4952 60.1804C25.0052 60.6902 25.6989 60.9763 26.422 60.9741H32.2577C32.9807 60.9763 33.6741 60.6902 34.1845 60.1804C35.1162 59.2482 36.3847 58.7254 37.7064 58.729ZM54.1664 65.4639C55.4121 65.4625 56.4217 64.4583 56.4235 63.2192V60.9741H37.7068C36.9841 60.9723 36.2904 61.258 35.7808 61.7678C34.8487 62.7004 33.5802 63.2228 32.2581 63.2192H26.4224C25.1004 63.2228 23.8323 62.7004 22.8998 61.7678C22.3902 61.258 21.6964 60.9723 20.9738 60.9741H2.25712V63.2192C2.25857 64.4583 3.26844 65.4625 4.51414 65.4639H54.1664Z" fill="#0051FF"/>
</svg>
