<svg width="35" height="35" viewBox="0 0 35 35" fill="none" xmlns="http://www.w3.org/2000/svg">
<path fill-rule="evenodd" clip-rule="evenodd" d="M2.91151 30.3105H23.8749C24.5054 30.3111 25.1186 30.1074 25.622 29.7302V29.7317C25.6207 30.6901 24.8392 31.4666 23.8749 31.4677H2.91151C1.94721 31.4666 1.16577 30.6901 1.16465 29.7317V29.7302C1.66788 30.1074 2.28106 30.3111 2.91151 30.3105ZM23.8749 33.7821H2.91151C1.94721 33.7808 1.16577 33.0046 1.16465 32.0462V32.0446C1.66788 32.4218 2.28106 32.6256 2.91151 32.6249H23.8749C24.5054 32.6256 25.1186 32.4218 25.622 32.0446V32.0462C25.6207 33.0046 24.8392 33.7808 23.8749 33.7821ZM2.91151 3.1159H4.07615V4.85186H5.2408V3.1159H7.5701V4.85186H8.73474V3.1159H11.064V4.85186H12.2287V3.1159H14.558V4.85186H15.7226V3.1159H18.0517V4.85186H19.2163V3.1159H21.5456V4.85186H22.7103V3.1159H23.8749C24.8392 3.11702 25.6209 3.89348 25.622 4.85186V7.16632H1.16465V4.85186C1.16577 3.89348 1.94721 3.11702 2.91151 3.1159ZM2.91151 34.9394H23.8749C25.4822 34.9376 26.7846 33.6433 26.7867 32.0462V19.8954H25.622V27.4173C25.6209 28.3756 24.8392 29.1523 23.8749 29.1535H2.91151C1.94721 29.1523 1.16577 28.3756 1.16465 27.4173V8.32332H25.622V8.90205H26.7867V4.85186C26.7846 3.25479 25.4822 1.96046 23.8749 1.95867H22.7103V0.222717H21.5456V1.95867H19.2163V0.222717H18.0517V1.95867H15.7226V0.222717H14.558V1.95867H12.2287V0.222717H11.064V1.95867H8.73474V0.222717H7.5701V1.95867H5.2408V0.222717H4.07615V1.95867H2.91151C1.3042 1.96046 0.00179487 3.25479 0 4.85186V32.0462C0.00179487 33.6433 1.3042 34.9376 2.91151 34.9394Z" fill="#404B4D"/>
<path fill-rule="evenodd" clip-rule="evenodd" d="M5.24078 11.7951H5.82322C6.14472 11.7951 6.40543 12.0541 6.40543 12.3736V12.9521C6.40543 13.2718 6.14472 13.5308 5.82322 13.5308H5.24078C4.91927 13.5308 4.65857 13.2718 4.65857 12.9521V12.3736C4.65857 12.0541 4.91927 11.7951 5.24078 11.7951Z" fill="#404B4D"/>
<path fill-rule="evenodd" clip-rule="evenodd" d="M10.4816 11.7951H11.0641C11.3856 11.7951 11.6463 12.0541 11.6463 12.3736V12.9521C11.6463 13.2718 11.3856 13.5308 11.0641 13.5308H10.4816C10.1599 13.5308 9.89941 13.2718 9.89941 12.9521V12.3736C9.89941 12.0541 10.1599 11.7951 10.4816 11.7951Z" fill="#404B4D"/>
<path fill-rule="evenodd" clip-rule="evenodd" d="M15.7225 11.7951H16.3047C16.6265 11.7951 16.8872 12.0541 16.8872 12.3736V12.9521C16.8872 13.2718 16.6265 13.5308 16.3047 13.5308H15.7225C15.4008 13.5308 15.1401 13.2718 15.1401 12.9521V12.3736C15.1401 12.0541 15.4008 11.7951 15.7225 11.7951Z" fill="#404B4D"/>
<path fill-rule="evenodd" clip-rule="evenodd" d="M20.9633 11.7951H21.5457C21.8673 11.7951 22.128 12.0541 22.128 12.3736V12.9521C22.128 13.2718 21.8673 13.5308 21.5457 13.5308H20.9633C20.6418 13.5308 20.3811 13.2718 20.3811 12.9521V12.3736C20.3811 12.0541 20.6418 11.7951 20.9633 11.7951Z" fill="#404B4D"/>
<path fill-rule="evenodd" clip-rule="evenodd" d="M5.24078 17.581H5.82322C6.14472 17.581 6.40543 17.8401 6.40543 18.1598V18.7383C6.40543 19.0579 6.14472 19.317 5.82322 19.317H5.24078C4.91927 19.317 4.65857 19.0579 4.65857 18.7383V18.1598C4.65857 17.8401 4.91927 17.581 5.24078 17.581Z" fill="#404B4D"/>
<path fill-rule="evenodd" clip-rule="evenodd" d="M10.4816 17.581H11.0641C11.3856 17.581 11.6463 17.8401 11.6463 18.1598V18.7383C11.6463 19.0579 11.3856 19.317 11.0641 19.317H10.4816C10.1599 19.317 9.89941 19.0579 9.89941 18.7383V18.1598C9.89941 17.8401 10.1599 17.581 10.4816 17.581Z" fill="#404B4D"/>
<path fill-rule="evenodd" clip-rule="evenodd" d="M15.7225 17.581H16.3047C16.6265 17.581 16.8872 17.8401 16.8872 18.1598V18.7383C16.8872 19.0579 16.6265 19.317 16.3047 19.317H15.7225C15.4008 19.317 15.1401 19.0579 15.1401 18.7383V18.1598C15.1401 17.8401 15.4008 17.581 15.7225 17.581Z" fill="#404B4D"/>
<path fill-rule="evenodd" clip-rule="evenodd" d="M5.24078 23.3672H5.82322C6.14472 23.3672 6.40543 23.6262 6.40543 23.9459V24.5242C6.40543 24.8439 6.14472 25.1029 5.82322 25.1029H5.24078C4.91927 25.1029 4.65857 24.8439 4.65857 24.5242V23.9459C4.65857 23.6262 4.91927 23.3672 5.24078 23.3672Z" fill="#404B4D"/>
<path fill-rule="evenodd" clip-rule="evenodd" d="M10.4816 23.3672H11.0641C11.3856 23.3672 11.6463 23.6262 11.6463 23.9459V24.5242C11.6463 24.8439 11.3856 25.1029 11.0641 25.1029H10.4816C10.1599 25.1029 9.89941 24.8439 9.89941 24.5242V23.9459C9.89941 23.6262 10.1599 23.3672 10.4816 23.3672Z" fill="#404B4D"/>
<path fill-rule="evenodd" clip-rule="evenodd" d="M15.7225 23.3672H16.3047C16.6265 23.3672 16.8872 23.6262 16.8872 23.9459V24.5242C16.8872 24.8439 16.6265 25.1029 16.3047 25.1029H15.7225C15.4008 25.1029 15.1401 24.8439 15.1401 24.5242V23.9459C15.1401 23.6262 15.4008 23.3672 15.7225 23.3672Z" fill="#404B4D"/>
<path fill-rule="evenodd" clip-rule="evenodd" d="M20.9633 23.3672H21.5457C21.8673 23.3672 22.128 23.6262 22.128 23.9459V24.5242C22.128 24.8439 21.8673 25.1029 21.5457 25.1029H20.9633C20.6418 25.1029 20.3811 24.8439 20.3811 24.5242V23.9459C20.3811 23.6262 20.6418 23.3672 20.9633 23.3672Z" fill="#404B4D"/>
<path fill-rule="evenodd" clip-rule="evenodd" d="M12.8109 24.2352C12.8109 25.9928 14.2448 27.4173 16.0136 27.4173C17.7825 27.4173 19.2164 25.9928 19.2164 24.2352H18.0517C18.0517 25.3536 17.139 26.26 16.0134 26.26C14.8878 26.2598 13.9753 25.3532 13.9756 24.2345C13.9756 23.2035 14.7554 22.3371 15.7866 22.2223L15.6585 21.0722C14.0359 21.2497 12.8085 22.6131 12.8109 24.2352Z" fill="#404B4D"/>
<path fill-rule="evenodd" clip-rule="evenodd" d="M5.53195 14.688C4.40634 14.688 3.49387 13.7815 3.49387 12.6629C3.49387 11.5444 4.40634 10.6378 5.53195 10.6378C6.65756 10.6378 7.57002 11.5444 7.57002 12.6629C7.5689 13.7809 6.65711 14.6868 5.53195 14.688ZM8.73467 12.6629C8.73467 10.9053 7.30079 9.48076 5.53195 9.48076C3.7631 9.48076 2.32922 10.9053 2.32922 12.6629C2.32922 14.4204 3.7631 15.8452 5.53195 15.8452C7.2999 15.8434 8.73288 14.4198 8.73467 12.6629Z" fill="#404B4D"/>
<path fill-rule="evenodd" clip-rule="evenodd" d="M23.2927 19.0773L21.2046 17.0025L31.445 6.8271L33.5331 8.9019L23.2927 19.0773ZM21.5456 20.8131L21.3756 20.6438L19.6285 18.9081L19.4577 18.7382L20.381 17.8207L22.4691 19.8955L21.5456 20.8131ZM19.2165 21.9705L19.0463 21.8013L18.4638 21.2226L18.2929 21.0527L19.2165 20.1351L20.1398 21.0527L19.2165 21.9705ZM31.8569 5.59987C31.6294 5.37382 31.2608 5.37382 31.0333 5.59987L19.9693 16.5932L18.2224 18.3292C17.9949 18.555 17.9949 18.9215 18.2222 19.1473H18.2224L18.3929 19.317L17.0578 20.6434C16.8303 20.8695 16.8303 21.2359 17.0575 21.4618H17.0578L17.2283 21.6314L16.4753 22.3796C16.2481 22.6054 16.2481 22.9717 16.4753 23.1975V23.1977L17.0578 23.7762C17.285 24.0023 17.6539 24.0023 17.8812 23.7762L18.6341 23.0283L18.8046 23.1977C19.0321 23.4236 19.4007 23.4236 19.6282 23.1977L20.9634 21.8711L21.1339 22.0405C21.3614 22.2666 21.73 22.2666 21.9575 22.0405L23.7044 20.3048L34.7684 9.31098C34.9959 9.08515 34.9959 8.71888 34.7684 8.49283L31.8569 5.59987Z" fill="#404B4D"/>
</svg>
