<?xml version="1.0" encoding="UTF-8"?>
<svg width="70px" height="70px" viewBox="0 0 70 70" version="1.1" xmlns="http://www.w3.org/2000/svg" xmlns:xlink="http://www.w3.org/1999/xlink">
    <title>Group 14</title>
    <defs>
        <polygon id="path-1" points="0 69.99 69.9878947 69.99 69.9878947 0 0 0"></polygon>
    </defs>
    <g id="Page-1" stroke="none" stroke-width="1" fill="none" fill-rule="evenodd">
        <g id="Nosotros" transform="translate(-141.000000, -1498.000000)">
            <g id="Group-14" transform="translate(141.000000, 1498.000000)">
                <path d="M24.4956316,18.0822632 C24.4956316,17.1159474 23.7124737,16.3327895 22.7461579,16.3327895 C21.7798421,16.3327895 20.9961579,17.1159474 20.9961579,18.0822632 C20.9961579,19.0485789 21.7798421,19.8317368 22.7461579,19.8317368 C23.7119474,19.8306842 24.4945789,19.0485789 24.4956316,18.0822632" id="Fill-1" fill="#0051FF"></path>
                <path d="M33.2441053,19.8318947 C34.2104211,19.8318947 34.9941053,19.0487368 34.9941053,18.0824211 C34.9941053,17.1161053 34.2104211,16.3329474 33.2441053,16.3329474 C32.2777895,16.3329474 31.4946316,17.1161053 31.4946316,18.0824211 C31.4956842,19.0487368 32.2783158,19.8308421 33.2441053,19.8318947" id="Fill-3" fill="#0051FF"></path>
                <path d="M27.9950526,26.8307368 C29.9266316,26.8286316 31.4924211,25.2628421 31.4945263,23.3317895 L29.1613684,23.3317895 C29.1613684,23.9754737 28.6392632,24.4975789 27.9950526,24.4975789 C27.3508421,24.4975789 26.8287368,23.9754737 26.8287368,23.3317895 L24.4955789,23.3317895 C24.4976842,25.2628421 26.0634737,26.8286316 27.9950526,26.8307368" id="Fill-5" fill="#0051FF"></path>
                <path d="M18.4283684,59.1904211 C18.2399474,59.3893684 17.9762632,59.4988421 17.7020526,59.4914737 C16.9920526,59.4688421 16.4057368,58.9293684 16.3252105,58.2230526 C16.2936316,57.9467368 16.3804737,57.6693684 16.5641579,57.4604211 C16.7525789,57.262 17.0167895,57.1525263 17.2904737,57.1593684 C18.0004737,57.182 18.5867895,57.722 18.6673158,58.4277895 C18.6994211,58.7041053 18.6125789,58.982 18.4288947,59.1904211 L18.4283684,59.1904211 Z M17.291,54.8262105 C15.4862632,54.8046316 14.0062632,56.2504211 13.9852105,58.0556842 C13.9836316,58.1793684 13.9894211,58.3035789 14.0020526,58.4277895 C14.1804737,60.342 15.7799474,61.8109474 17.7031053,61.8246316 C19.5073158,61.8456842 20.9873158,60.3998947 21.0083684,58.5951579 C21.0099474,58.4714737 21.0046842,58.3467368 20.9920526,58.2230526 C20.8136316,56.3083158 19.2141579,54.8398947 17.291,54.8262105 L17.291,54.8262105 Z" id="Fill-7" fill="#0051FF"></path>
                <path d="M55.9903158,67.6546316 L55.9903158,58.3251579 L53.6571579,58.3251579 L53.6571579,67.6551579 L50.2013684,67.6556842 C50.2992632,67.0846316 50.5724211,66.5583158 50.9824211,66.1493684 C51.2013684,65.9304211 51.3245263,65.6335789 51.3245263,65.3241053 L51.3245263,58.3251579 L48.9913684,58.3251579 L48.9913684,64.8756842 C48.3392632,65.6672632 47.9408421,66.6356842 47.8476842,67.6572632 L45.5345263,67.6572632 C45.6350526,67.0862105 45.9082105,66.5598947 46.3171579,66.1493684 C46.5355789,65.9304211 46.6587368,65.6335789 46.6587368,65.3241053 L46.6587368,51.0814737 C47.2924211,51.2446316 47.944,51.3272632 48.5987368,51.3267368 L51.7182105,51.3267368 C52.6976842,51.3272632 53.6682105,51.1409474 54.5782105,50.7788421 L56.0513684,55.1946316 C56.1597895,55.5204211 56.4061053,55.7814737 56.7245263,55.9093684 C58.2303158,56.5093684 59.5208421,57.5483158 60.4282105,58.8909474 C60.6676842,59.2451579 60.8787368,59.6177895 61.0603158,60.0056842 C61.5645263,61.0804211 61.8245263,62.2530526 61.8224337,63.4404211 L61.8224337,67.6530526 L55.9903158,67.6546316 Z M7.88136842,67.6572636 C7.21242105,67.6577895 6.62873684,67.202 6.46715789,66.5525263 L2.36031579,50.1241053 C2.34189474,50.0525263 2.33294737,49.9788421 2.33294737,49.9041053 C2.33347368,49.4014737 2.74084211,48.9941053 3.24347368,48.9935633 L29.3892632,48.9935633 C30.0734737,48.9904211 30.6671579,49.4662105 30.8124211,50.1356842 L34.4597895,66.5488421 C34.5687368,67.0398947 34.2592632,67.5262105 33.7682105,67.6356842 C33.7034737,67.6498947 33.6371579,67.6572636 33.5703158,67.6572636 L7.88136842,67.6572636 Z M11.0813684,43.812 C11.3413684,41.4483158 13.3397895,39.6598947 15.7182105,39.6614726 L16.3303158,39.6614726 L16.3303158,46.6604211 L10.7650526,46.6604211 L11.0813684,43.812 Z M20.1166316,39.6614737 L20.9261053,42.4946316 C21.4208421,44.2156842 22.5266316,45.6967368 24.0361053,46.6604211 L18.6634737,46.6604211 L18.6634737,39.6614737 L20.1166316,39.6614737 Z M18.6634737,22.1646316 L18.6634737,16.9514737 C24.2603158,15.3709474 30.8124211,10.7430526 33.4171579,8.78884211 L37.3271579,16.6083158 L37.3271579,22.1646316 C37.3271579,27.3188421 33.1487368,31.4967368 27.9950526,31.4967368 C22.8413684,31.4967368 18.6634737,27.3188421 18.6634737,22.1646316 L18.6634737,22.1646316 Z M13.9976842,19.832 C13.9992632,18.5441053 15.0429474,17.5009474 16.3303158,17.4993684 L16.3303158,22.1646316 C15.0429474,22.1630526 13.9992632,21.1198947 13.9976842,19.832 L13.9976842,19.832 Z M16.3303158,12.8335789 C16.3371579,7.03778947 21.0334737,2.34147368 26.8287368,2.33515789 L29.1613684,2.33515789 C34.9571579,2.34147368 39.6529474,7.03778947 39.6597895,12.8335789 L39.6597895,15.1662105 L39.214,15.1662105 L34.8708421,6.47936842 C34.5824211,5.90305263 33.8818947,5.66989474 33.3055789,5.95726316 C33.2318947,5.99463158 33.1624211,6.03884211 33.0982105,6.08989474 C33.0071579,6.16305263 23.8813684,13.4188421 17.2403158,14.9088421 C16.9261053,14.9798947 16.6229474,15.0356842 16.3303158,15.0777895 L16.3303158,12.8335789 Z M39.6597895,2.33513376 C42.2366316,2.33568421 44.3255789,4.42410526 44.3255789,7.00147368 C44.3250526,8.71621053 43.3850526,10.2925263 41.8761053,11.1072632 C41.4403158,7.91515789 39.8203158,5.00410526 37.3376842,2.95147368 C38.0434737,2.54515789 38.8450526,2.33252632 39.6597895,2.33513376 L39.6597895,2.33513376 Z M39.6597895,22.1646316 L39.6597895,17.4993684 C40.9482105,17.4993684 41.9924211,18.5435789 41.9924211,19.832 C41.9924211,21.1204211 40.9482105,22.1646316 39.6597895,22.1646316 L39.6597895,22.1646316 Z M24.4955789,37.3293684 L24.4955789,33.2956842 C26.7745263,34.0072632 29.2155789,34.0072632 31.4945263,33.2956842 L31.4945263,37.3293684 C31.4966316,38.4730526 32.3271579,39.4467368 33.4566316,39.6293684 L32.8208421,41.8541053 C32.2050526,44.0083158 30.2355789,45.4941053 27.9950526,45.4946316 C25.7566316,45.4872632 23.7903158,44.0041053 23.1687368,41.8541053 L22.5334737,39.6293684 C23.6629474,39.4472632 24.4934737,38.4735789 24.4955789,37.3293684 L24.4955789,37.3293684 Z M37.3271579,39.6614737 L37.3271579,51.3267368 C37.3271579,51.6014737 37.424,51.8683158 37.6013684,52.0783158 C40.0787368,55.0130526 40.0782105,59.3072632 37.6003158,62.2414737 C37.4234737,62.4509474 37.3271579,62.7167368 37.3271579,62.9914737 L36.0592632,62.9914737 L33.0897895,49.6293684 C32.854,48.5477895 32.154,47.6246316 31.1766316,47.1051579 C31.6161053,46.8930526 32.0329474,46.6383158 32.4224211,46.3446316 C33.7013684,45.3856842 34.6297895,44.0330526 35.064,42.4946316 L35.8734737,39.6614737 L37.3271579,39.6614737 Z M41.6345263,40.1030526 C39.8897895,43.6198947 41.0450526,47.8856842 44.3255789,50.042 L44.3255789,62.9914737 L39.9592632,62.9914737 C42.5103158,59.3330526 42.3887368,54.442 39.6597895,50.9146316 L39.6597895,39.6614737 C40.3429474,39.6614737 41.0171579,39.8125263 41.6355789,40.1030526 L41.6345263,40.1030526 Z M36.6850526,67.6572632 C36.8387368,67.132 36.8566316,66.5762105 36.7366316,66.0425263 L36.5776842,65.3241053 L44.0008421,65.3241053 C43.5450526,66.0246316 43.264,66.8251579 43.1829474,67.6572632 L36.6850526,67.6572632 Z M44.3255789,39.6614737 L44.3255789,36.3509474 C45.4276842,36.7177895 46.2924211,37.5825263 46.6587368,38.6851579 L46.7182105,38.8646316 C46.8771579,39.3409474 47.3229474,39.662 47.8250526,39.6614737 L52.4908421,39.6614737 C52.9929474,39.6614737 53.4387368,39.3404211 53.5976842,38.8641053 L53.6571579,38.6851579 C54.0234737,37.5825263 54.8882105,36.7183158 55.9903158,36.3509474 L55.9903158,39.6614737 C55.9903158,39.8430526 56.0324211,40.0214737 56.1134737,40.1835789 L56.5824211,41.122 C57.9261053,43.8083158 56.8376842,47.0751579 54.1513684,48.4188421 C53.3961053,48.7972632 52.5629474,48.9935789 51.7182105,48.9935789 L48.5992632,48.9935789 C45.5950526,48.9935789 43.1597895,46.5583158 43.1597895,43.5541053 C43.1597895,42.7098947 43.3566316,41.8767368 43.734,41.122 L44.2029474,40.1835789 C44.284,40.0214737 44.3255789,39.8430526 44.3255789,39.6614737 L44.3255789,39.6614737 Z M58.6782105,47.0062105 C59.3124211,46.7767368 59.9818947,46.6598947 60.6561053,46.6604193 L64.1555789,46.6604193 C64.7997895,46.6604193 65.3218947,47.1830526 65.3218947,47.8272632 C65.3218947,48.4714737 64.7997895,48.9935789 64.1555789,48.9935789 L60.6561053,48.9935789 C59.0913684,48.992 57.7161053,50.0309474 57.2892632,51.5362105 L56.6334737,49.5693684 C57.4887368,48.8688421 58.1855789,47.9951579 58.6782105,47.0062105 L58.6782105,47.0062105 Z M65.9466316,57.7014737 C68.2250526,59.9809474 68.224,63.6751579 65.9445263,65.9535789 C65.4297895,66.4683158 64.8229474,66.882 64.1555789,67.1735789 L64.1555789,64.432 C64.204,64.3883158 64.2524211,64.3446316 64.2992632,64.2983158 C65.6650526,62.9293684 65.6624211,60.7135789 64.2934737,59.3477895 C63.9055789,58.9598947 63.4313684,58.6698947 62.9103158,58.4988421 C62.4166316,57.5725263 61.784,56.7272632 61.034,55.9924992 L61.8224211,55.9924992 C63.3703158,55.9877895 64.8555789,56.6030526 65.9466316,57.7014737 L65.9466316,57.7014737 Z M69.9877293,61.8246316 C69.9877293,57.3151579 66.3318947,53.6593684 61.8224211,53.6593684 L60.7034737,53.6593684 C60.0587368,53.6688421 59.5218947,53.1662105 59.4892632,52.522 C59.4718947,51.8798947 59.9782105,51.3451579 60.6203158,51.3272632 C60.6324211,51.3267368 60.644,51.3267368 60.6561053,51.3267368 L64.0755789,51.3267368 C66.0334737,51.3267368 67.6871579,49.7246316 67.6545263,47.7672632 C67.6192632,45.8593684 66.064,44.3304211 64.1555789,44.3277895 L60.6561053,44.3277895 C60.2492632,44.3283158 59.8429474,44.3583158 59.4403158,44.4188421 C59.6092632,42.9277895 59.3413684,41.4198947 58.6687368,40.0783158 L58.3229474,39.3867368 L58.3229474,34.9962105 C58.3266316,34.3588421 57.8161053,33.8383158 57.1792632,33.8293684 C54.8213684,33.8188421 52.6745263,35.1872632 51.6887368,37.3293684 L48.6271579,37.3293684 C47.6408421,35.1872632 45.494,33.8188421 43.1361053,33.8293684 C42.4992632,33.8388421 41.9892632,34.3593684 41.9924211,34.9962105 L41.9924211,37.7277895 C41.2434737,37.4630526 40.4545263,37.3283158 39.6597895,37.3293684 L33.8276842,37.3293684 L33.8276842,32.2672632 C36.7276842,30.6067368 38.7687368,27.7746316 39.4266316,24.4977895 L39.5650526,24.4977895 C42.1308421,24.4977895 44.2871579,22.4667368 44.3245263,19.9014737 C44.3482105,18.2109474 43.4561053,16.6393684 41.9913684,15.7941053 L41.9913684,13.5998947 C45.6366316,12.3146316 47.5497895,8.31831579 46.2645263,4.67305263 C44.9797895,1.02831579 40.9829474,-0.884842105 37.3382105,0.400421053 C36.5887368,0.664631579 35.8897895,1.05410526 35.2713684,1.55305263 C33.3966316,0.533052632 31.2961053,0.000260590307 29.1613684,0.002 L26.8287368,0.002 C19.7418947,0.002 13.9976842,5.74673684 13.9976842,12.8335789 L13.9976842,15.7941053 C12.5334737,16.6393684 11.6408421,18.2109474 11.6645263,19.9014737 C11.7024211,22.4667368 13.8592632,24.4977895 16.4245263,24.4977895 L16.5629474,24.4977895 C17.2208421,27.7746316 19.2624211,30.6072632 22.1629474,32.2677895 L22.1629474,37.3293684 L15.7182105,37.3293684 C12.1508421,37.3256842 9.15347368,40.0093684 8.76294737,43.5551579 L8.41768421,46.6604211 L3.24347368,46.6604211 C1.45242105,46.6604211 0.000309523283,48.1125263 0.000309523283,49.9035789 C0.000309523283,50.1688421 0.0324210526,50.4335789 0.0971578947,50.6914737 L4.24084211,68.1941053 C4.48978947,69.2467368 5.42978947,69.9898947 6.51084211,69.9898947 L61.8224211,69.9898947 C62.2776842,69.9898947 62.7324211,69.952 63.1813684,69.8767368 C63.1855789,69.8767368 63.1897895,69.8746316 63.194,69.8741053 L63.204,69.872 C67.1297895,69.2114737 70.0008421,65.8056842 69.9877293,61.8246316 L69.9877293,61.8246316 Z" id="Fill-9" fill="#0051FF"></path>
                <mask id="mask-2" fill="white">
                    <use xlink:href="#path-1"></use>
                </mask>
                <g id="Clip-12"></g>
                <polygon id="Fill-11" fill="#0051FF" mask="url(#mask-2)" points="45.4921053 44.3278947 47.8252632 44.3278947 47.8252632 41.9947368 45.4921053 41.9947368"></polygon>
                <polygon id="Fill-13" fill="#0051FF" mask="url(#mask-2)" points="52.4910526 44.3278947 54.8242105 44.3278947 54.8242105 41.9947368 52.4910526 41.9947368"></polygon>
            </g>
        </g>
    </g>
</svg>