<svg width="97" height="98" viewBox="0 0 97 98" fill="none" xmlns="http://www.w3.org/2000/svg">
<path fill-rule="evenodd" clip-rule="evenodd" d="M94.5944 53.8595H91.3886V7.36412C91.3839 3.82457 88.5148 0.955464 84.9752 0.95166H27.2564C23.7169 0.955464 20.8478 3.82457 20.843 7.36412V47.446H24.0497V7.36412C24.0516 5.59435 25.4867 4.16027 27.2564 4.15741H84.9752C86.745 4.16027 88.18 5.59435 88.1819 7.36412V53.8595H66.3997C64.5235 53.8652 62.7252 54.6098 61.3957 55.9326L63.6628 58.1997C64.3894 57.477 65.3727 57.069 66.3997 57.0662H92.9911V60.2729C92.9901 62.0426 91.5551 63.4777 89.7843 63.4796H67.3393V66.6863H89.7843C93.3248 66.6815 96.1949 63.8134 96.1987 60.2729V55.4628C96.1987 54.5774 95.4807 53.8595 94.5944 53.8595Z" fill="#0051FF"/>
<path fill-rule="evenodd" clip-rule="evenodd" d="M30.4635 10.5711H33.6702V7.36441H30.4635V10.5711Z" fill="#0051FF"/>
<path fill-rule="evenodd" clip-rule="evenodd" d="M36.876 10.5711H40.0827V7.36441H36.876V10.5711Z" fill="#0051FF"/>
<path fill-rule="evenodd" clip-rule="evenodd" d="M43.2894 10.5711H46.4961V7.36441H43.2894V10.5711Z" fill="#0051FF"/>
<path fill-rule="evenodd" clip-rule="evenodd" d="M33.6703 18.5873H49.702C52.3571 18.5902 54.5092 20.7422 54.513 23.3974V42.6405C53.1274 41.5953 51.4384 41.0314 49.702 41.0333H33.6703V18.5873ZM62.5297 18.5873H78.5614V41.0333H62.5297C60.7932 41.0314 59.1052 41.5953 57.7187 42.6405V23.3974C57.7225 20.7422 59.8746 18.5902 62.5297 18.5873ZM78.5614 47.4467H57.9945C58.6764 45.5267 60.4918 44.2429 62.5297 44.24H78.5614V47.4467ZM30.4636 42.6367C30.4636 43.522 31.1816 44.24 32.066 44.24H49.702C51.7399 44.2429 53.5553 45.5267 54.2372 47.4467H44.8928V50.6534H80.1657C81.0501 50.6534 81.7681 49.9354 81.7681 49.0501V16.984C81.7681 16.0986 81.0501 15.3806 80.1657 15.3806H62.5297C60.0039 15.3806 57.6274 16.5712 56.1163 18.593C54.6043 16.5712 52.2278 15.3806 49.702 15.3806H32.066C31.1816 15.3806 30.4636 16.0986 30.4636 16.984V42.6367Z" fill="#0051FF"/>
<path fill-rule="evenodd" clip-rule="evenodd" d="M36.876 25.0003H51.3062V21.7936H36.876V25.0003Z" fill="#0051FF"/>
<path fill-rule="evenodd" clip-rule="evenodd" d="M36.876 31.4137H51.3062V28.207H36.876V31.4137Z" fill="#0051FF"/>
<path fill-rule="evenodd" clip-rule="evenodd" d="M60.9253 25.0003H75.3555V21.7936H60.9253V25.0003Z" fill="#0051FF"/>
<path fill-rule="evenodd" clip-rule="evenodd" d="M60.9253 31.4137H75.3555V28.207H60.9253V31.4137Z" fill="#0051FF"/>
<path fill-rule="evenodd" clip-rule="evenodd" d="M36.876 37.8272H51.3062V34.6205H36.876V37.8272Z" fill="#0051FF"/>
<path fill-rule="evenodd" clip-rule="evenodd" d="M60.9253 37.8272H75.3555V34.6205H60.9253V37.8272Z" fill="#0051FF"/>
<path fill-rule="evenodd" clip-rule="evenodd" d="M49.7019 10.5711H81.768V7.36441H49.7019V10.5711Z" fill="#0051FF"/>
<path fill-rule="evenodd" clip-rule="evenodd" d="M33.6703 61.8759C33.6703 62.7613 32.9523 63.4793 32.066 63.4793C31.1816 63.4793 30.4636 62.7613 30.4636 61.8759C30.4636 60.9906 31.1816 60.2726 32.066 60.2726C32.9514 60.2735 33.6684 60.9906 33.6703 61.8759ZM32.066 50.7894L42.7931 55.3056L35.4439 58.4553C33.5505 56.5875 30.5026 56.6085 28.6358 58.5019C26.7681 60.3943 26.789 63.4422 28.6815 65.3099C30.5739 67.1767 33.6228 67.1567 35.4895 65.2633C36.5109 64.2287 37.0102 62.7879 36.8466 61.3424L46.8994 57.0345L58.3977 61.8759L32.066 72.9625L5.73527 61.8759L32.066 50.7894ZM0.983226 63.3538L9.62098 66.9913V95.5454C9.62098 96.4308 10.339 97.1488 11.2234 97.1488H38.4804V93.942H12.8267V68.3407L31.445 76.1806C31.8435 76.347 32.2914 76.347 32.6899 76.1806L51.3063 68.3407V77.9085H54.513V66.9913L57.7187 65.6409V77.9085H60.9254V64.2914L63.1507 63.3538C63.9657 63.0105 64.3499 62.0699 64.0056 61.254C63.844 60.8679 63.5359 60.5607 63.1507 60.3981L32.688 47.5722C32.2905 47.4049 31.8416 47.4049 31.4431 47.5722L0.981324 60.3981C0.165383 60.7424 -0.217862 61.6819 0.126393 62.4979C0.288059 62.884 0.595226 63.1911 0.981324 63.3538H0.983226Z" fill="#0051FF"/>
<path fill-rule="evenodd" clip-rule="evenodd" d="M16.0333 77.9091H19.2401V74.7024H16.0333V77.9091Z" fill="#0051FF"/>
<path fill-rule="evenodd" clip-rule="evenodd" d="M16.0333 90.735H19.2401V81.1158H16.0333V90.735Z" fill="#0051FF"/>
<path fill-rule="evenodd" clip-rule="evenodd" d="M88.1818 93.9418H76.9583V84.3216H88.1818C90.8378 84.3216 92.9918 86.4756 92.9918 89.1317C92.9918 91.7878 90.8378 93.9418 88.1818 93.9418ZM70.5458 93.9418H73.7516V84.3216H70.5458V93.9418ZM43.2898 89.1317C43.2898 86.4756 45.4437 84.3216 48.0998 84.3216C50.7559 84.3216 52.9089 86.4756 52.9089 89.1317C52.9089 91.7878 50.7559 93.9418 48.0998 93.9418C45.4447 93.9389 43.2926 91.7868 43.2898 89.1317ZM65.9079 73.956C66.2027 74.0273 66.5108 74.014 66.798 73.916L68.2055 73.4386L70.3024 77.1075L68.8379 79.6694L65.6759 73.9008L65.9079 73.956ZM67.3391 93.9418H54.5085C56.652 91.0936 56.652 87.1698 54.5085 84.3216H67.3391V93.9418ZM76.0919 73.4386L77.5003 73.916C77.7856 74.013 78.0957 74.0273 78.3886 73.956L78.6216 73.9008L74.6664 81.1159H71.7051L76.0919 73.4386ZM88.1818 81.1159H78.3229L83.1739 72.267C83.5999 71.4901 83.3156 70.5153 82.5386 70.0902C82.1896 69.8981 81.7817 69.8439 81.3937 69.9371L78.0909 70.7302L75.8704 69.9771C75.1438 69.7317 74.344 70.0341 73.9636 70.7007L72.1492 73.8751L70.3338 70.7007C69.9534 70.0341 69.1536 69.7317 68.428 69.9771L66.2075 70.7302L62.9037 69.9371C62.0431 69.7307 61.1777 70.2604 60.9704 71.1211C60.8772 71.5091 60.9314 71.9171 61.1235 72.267L65.9735 81.1159H48.0998C43.6721 81.1159 40.0831 84.7049 40.0831 89.1317C40.0831 93.5595 43.6721 97.1485 48.0998 97.1485H88.1818C92.6086 97.1485 96.1985 93.5595 96.1985 89.1317C96.1985 84.7049 92.6086 81.1159 88.1818 81.1159Z" fill="#0051FF"/>
</svg>
