<svg width="100" height="101" viewBox="0 0 100 101" fill="none" xmlns="http://www.w3.org/2000/svg">
<path fill-rule="evenodd" clip-rule="evenodd" d="M47.9019 5.905C49.1152 6.92167 50.8852 6.92167 52.0986 5.905L70.7719 23.335H29.2286L47.9019 5.905ZM93.3336 90.9783V32.3583L96.6669 29.025V94.3117L93.3336 90.9783ZM9.02358 93.335H90.9769L94.3102 96.6683H5.69024L9.02358 93.335ZM6.66691 32.3583V90.9783L3.33358 94.3117V29.025L6.66691 32.3583ZM10.0002 90.0017H90.0002V33.335H10.0002V90.0017ZM90.9769 30.0017H9.02358L5.69024 26.6683H94.3102L90.9769 30.0017ZM98.3336 23.335H75.6569L53.1669 2.34334C52.6319 0.593339 50.7802 -0.388328 49.0302 0.146672C47.9786 0.466672 47.1552 1.29001 46.8336 2.34334L24.3436 23.335H1.66691C0.746911 23.335 0.000244141 24.08 0.000244141 25.0017V98.335C0.000244141 99.2567 0.746911 100.002 1.66691 100.002H98.3336C99.2536 100.002 100 99.2567 100 98.335V25.0017C100 24.08 99.2536 23.335 98.3336 23.335Z" fill="#404B4D"/>
<path fill-rule="evenodd" clip-rule="evenodd" d="M16.6666 83.335H83.3332V40.0017H16.6666V83.335ZM14.9999 86.6683H84.9999C85.9199 86.6683 86.6666 85.9233 86.6666 85.0017V38.335C86.6666 37.4133 85.9199 36.6683 84.9999 36.6683H14.9999C14.0799 36.6683 13.3332 37.4133 13.3332 38.335V85.0017C13.3332 85.9233 14.0799 86.6683 14.9999 86.6683Z" fill="#404B4D"/>
<path fill-rule="evenodd" clip-rule="evenodd" d="M45.3416 51.5447C44.9149 50.9413 44.8866 50.1397 45.2699 49.5063C45.5799 48.963 46.1766 48.6513 46.7999 48.708C47.5349 48.798 48.2416 48.3847 48.5232 47.6997C48.8782 46.8847 49.8249 46.5097 50.6416 46.8647C51.0149 47.028 51.3132 47.3263 51.4766 47.6997C51.7649 48.3813 52.4649 48.7913 53.1999 48.708C53.8232 48.6497 54.4216 48.9613 54.7299 49.5063C55.1132 50.1397 55.0849 50.9413 54.6582 51.5447C54.2566 52.1197 54.2566 52.8847 54.6582 53.458C55.0849 54.063 55.1132 54.863 54.7299 55.4963C54.4249 56.0447 53.8232 56.358 53.1999 56.2963C52.4666 56.2113 51.7666 56.618 51.4766 57.2947C51.1216 58.1097 50.1732 58.4847 49.3582 58.1297C48.9849 57.968 48.6849 57.6697 48.5232 57.2947C48.2616 56.678 47.6582 56.2763 46.9882 56.2763C46.9249 56.2763 46.8632 56.2797 46.7999 56.2863C46.1766 56.3497 45.5749 56.0347 45.2699 55.488C44.8866 54.8547 44.9149 54.0547 45.3416 53.4513C45.7649 52.8663 45.7999 52.103 45.3416 51.5447ZM42.4049 57.2013C43.1682 58.518 44.4999 59.4047 46.0082 59.6013C47.5666 61.8063 50.6182 62.3297 52.8216 60.7713C53.2749 60.4513 53.6716 60.0547 53.9916 59.6013C55.4999 59.4047 56.8316 58.518 57.5949 57.2013C58.4582 55.7797 58.5816 54.0297 57.9282 52.5013C58.5816 50.973 58.4582 49.223 57.5949 47.803C56.8332 46.4897 55.5066 45.603 53.9999 45.4013C52.4416 43.1963 49.3916 42.673 47.1866 44.2313C46.7332 44.553 46.3366 44.948 46.0166 45.4013C44.5082 45.5997 43.1766 46.4863 42.4132 47.803C41.5516 49.223 41.4266 50.973 42.0799 52.5013C41.4232 54.028 41.5449 55.778 42.4049 57.2013Z" fill="#404B4D"/>
<path fill-rule="evenodd" clip-rule="evenodd" d="M38.3332 70.0017H61.6666V66.6683H38.3332V70.0017Z" fill="#404B4D"/>
<path fill-rule="evenodd" clip-rule="evenodd" d="M24.9999 78.335H74.9999V75.0017H24.9999V78.335Z" fill="#404B4D"/>
<path fill-rule="evenodd" clip-rule="evenodd" d="M24.9999 53.335H34.9999V50.0017H24.9999V53.335Z" fill="#404B4D"/>
<path fill-rule="evenodd" clip-rule="evenodd" d="M64.9999 53.335H74.9999V50.0017H64.9999V53.335Z" fill="#404B4D"/>
</svg>
