<?xml version="1.0" encoding="UTF-8"?>
<svg width="35px" height="35px" viewBox="0 0 35 35" version="1.1" xmlns="http://www.w3.org/2000/svg" xmlns:xlink="http://www.w3.org/1999/xlink">
    <title>tiempo-pictograma</title>
    <defs>
        <polygon id="path-1" points="0.000116666667 5.83333333e-05 35 5.83333333e-05 35 35 0.000116666667 35"></polygon>
        <polygon id="path-3" points="0 35 35 35 35 0 0 0"></polygon>
    </defs>
    <g id="Page-1" stroke="none" stroke-width="1" fill="none" fill-rule="evenodd">
        <g id="Course-Detailed-Page" transform="translate(-278.000000, -721.000000)">
            <g id="Group-20" transform="translate(278.000000, 721.000000)">
                <g id="Group-3">
                    <mask id="mask-2" fill="white">
                        <use xlink:href="#path-1"></use>
                    </mask>
                    <g id="Clip-2"></g>
                    <path d="M17.5001167,33.8333917 C8.47945,33.8333917 1.16678333,26.520725 1.16678333,17.5000583 C1.16678333,8.47939167 8.47945,1.166725 17.5001167,1.166725 C26.5207833,1.166725 33.83345,8.47939167 33.83345,17.5000583 C33.82295,26.5166417 26.5167,33.8228917 17.5001167,33.8333917 M17.5001167,5.83333333e-05 C7.83486667,5.83333333e-05 0.000116666667,7.83539167 0.000116666667,17.5000583 C0.000116666667,27.164725 7.83486667,35.0000583 17.5001167,35.0000583 C27.1647833,35.0000583 35.0001167,27.164725 35.0001167,17.5000583 C34.9890333,7.839475 27.1607,0.0111416667 17.5001167,5.83333333e-05" id="Fill-1" fill="#404B4D" mask="url(#mask-2)"></path>
                </g>
                <path d="M17.5001167,30.916725 C10.0900333,30.916725 4.08345,24.9095583 4.08345,17.5000583 C4.08345,10.089975 10.0900333,4.08339167 17.5001167,4.08339167 C24.9102,4.08339167 30.9167833,10.089975 30.9167833,17.5000583 C30.9080333,24.9060583 24.9061167,30.907975 17.5001167,30.916725 M17.5001167,2.916725 C9.44603333,2.916725 2.91678333,9.44539167 2.91678333,17.5000583 C2.91678333,25.5541417 9.44603333,32.0833917 17.5001167,32.0833917 C25.5542,32.0833917 32.08345,25.5541417 32.08345,17.5000583 C32.0741167,9.449475 25.5507,2.92605833 17.5001167,2.916725" id="Fill-4" fill="#404B4D"></path>
                <mask id="mask-4" fill="white">
                    <use xlink:href="#path-3"></use>
                </mask>
                <g id="Clip-7"></g>
                <polygon id="Fill-6" fill="#404B4D" mask="url(#mask-4)" points="16.9166667 7 18.0833333 7 18.0833333 5.83333333 16.9166667 5.83333333"></polygon>
                <polygon id="Fill-8" fill="#404B4D" mask="url(#mask-4)" points="16.9166667 29.1666667 18.0833333 29.1666667 18.0833333 28 16.9166667 28"></polygon>
                <polygon id="Fill-9" fill="#404B4D" mask="url(#mask-4)" points="11.1614417 7.68821667 12.1711917 7.10546667 12.7539417 8.11463333 11.744775 8.69796667"></polygon>
                <polygon id="Fill-10" fill="#404B4D" mask="url(#mask-4)" points="22.244775 26.88525 23.254525 26.3019167 23.837275 27.3116667 22.8281083 27.895"></polygon>
                <polygon id="Fill-11" fill="#404B4D" mask="url(#mask-4)" points="7.10465 12.1720083 7.68798333 11.1622583 8.69831667 11.7455917 8.11498333 12.7553417"></polygon>
                <polygon id="Fill-12" fill="#404B4D" mask="url(#mask-4)" points="26.3011 23.2553417 26.8844333 22.2455917 27.8947667 22.828925 27.3114333 23.838675"></polygon>
                <polygon id="Fill-13" fill="#404B4D" mask="url(#mask-4)" points="5.83333333 18.0833333 7 18.0833333 7 16.9166667 5.83333333 16.9166667"></polygon>
                <polygon id="Fill-14" fill="#404B4D" mask="url(#mask-4)" points="28 18.0833333 29.1666667 18.0833333 29.1666667 16.9166667 28 16.9166667"></polygon>
                <polygon id="Fill-15" fill="#404B4D" mask="url(#mask-4)" points="7.10488333 22.8281083 8.11521667 22.244775 8.69855 23.2551083 7.68821667 23.8384417"></polygon>
                <polygon id="Fill-16" fill="#404B4D" mask="url(#mask-4)" points="26.3013333 11.744775 27.3116667 11.1614417 27.895 12.1711917 26.8846667 12.754525"></polygon>
                <polygon id="Fill-17" fill="#404B4D" mask="url(#mask-4)" points="11.1617333 27.3124833 11.7450667 26.3027333 12.7548167 26.8860667 12.1714833 27.8952333"></polygon>
                <polygon id="Fill-18" fill="#404B4D" mask="url(#mask-4)" points="22.2450667 8.11545 22.8284 7.1057 23.83815 7.68903333 23.2548167 8.69878333"></polygon>
                <path d="M16.9167833,17.1696583 L11.3663667,20.4999083 L11.9672,21.4997417 L17.8005333,17.9997417 C17.9761167,17.8941583 18.08345,17.704575 18.08345,17.499825 L18.08345,8.16649167 L16.9167833,8.16649167 L16.9167833,17.1696583 Z" id="Fill-19" fill="#404B4D" mask="url(#mask-4)"></path>
            </g>
        </g>
    </g>
</svg>