<svg width="68" height="69" viewBox="0 0 68 69" fill="none" xmlns="http://www.w3.org/2000/svg">
<path fill-rule="evenodd" clip-rule="evenodd" d="M32.5732 4.01545C33.3982 4.70678 34.6018 4.70678 35.4269 4.01545L48.1248 15.8678H19.8753L32.5732 4.01545ZM63.4667 61.8653V22.0037L65.7333 19.7371V64.132L63.4667 61.8653ZM6.13588 63.4678H61.8641L64.1308 65.7345H3.86921L6.13588 63.4678ZM4.53333 22.0037V61.8653L2.26667 64.132V19.7371L4.53333 22.0037ZM6.8 61.2012H61.2V22.6679H6.8V61.2012ZM61.8641 20.4012H6.13588L3.86921 18.1345H64.1308L61.8641 20.4012ZM66.8667 15.8678H51.4465L36.1533 1.59346C35.7895 0.403461 34.5304 -0.264073 33.3404 0.0997272C32.6253 0.317327 32.0654 0.877194 31.8467 1.59346L16.5535 15.8678H1.13333C0.507733 15.8678 0 16.3744 0 17.0011V66.8678C0 67.4945 0.507733 68.0011 1.13333 68.0011H66.8667C67.4923 68.0011 68 67.4945 68 66.8678V17.0011C68 16.3744 67.4923 15.8678 66.8667 15.8678Z" fill="#0051FF"/>
<path fill-rule="evenodd" clip-rule="evenodd" d="M11.3331 56.6678H56.6665V27.2012H11.3331V56.6678ZM10.1998 58.9345H57.7998C58.4254 58.9345 58.9331 58.4279 58.9331 57.8012V26.0678C58.9331 25.4411 58.4254 24.9345 57.7998 24.9345H10.1998C9.5742 24.9345 9.06647 25.4411 9.06647 26.0678V57.8012C9.06647 58.4279 9.5742 58.9345 10.1998 58.9345Z" fill="#0051FF"/>
<path fill-rule="evenodd" clip-rule="evenodd" d="M30.8321 35.0504C30.5419 34.6402 30.5227 34.095 30.7833 33.6644C30.9941 33.2949 31.3999 33.083 31.8237 33.1215C32.3235 33.1827 32.8041 32.9016 32.9956 32.4358C33.237 31.8816 33.8807 31.6266 34.4361 31.868C34.6899 31.9791 34.8928 32.182 35.0039 32.4358C35.1999 32.8994 35.6759 33.1782 36.1757 33.1215C36.5996 33.0818 37.0065 33.2938 37.2161 33.6644C37.4768 34.095 37.4575 34.6402 37.1674 35.0504C36.8943 35.4414 36.8943 35.9616 37.1674 36.3515C37.4575 36.7629 37.4768 37.3069 37.2161 37.7376C37.0087 38.1104 36.5996 38.3235 36.1757 38.2816C35.6771 38.2238 35.2011 38.5003 35.0039 38.9604C34.7625 39.5146 34.1176 39.7696 33.5634 39.5282C33.3095 39.4183 33.1055 39.2154 32.9956 38.9604C32.8177 38.5411 32.4074 38.268 31.9518 38.268C31.9087 38.268 31.8668 38.2702 31.8237 38.2748C31.3999 38.3178 30.9907 38.1036 30.7833 37.7319C30.5227 37.3012 30.5419 36.7572 30.8321 36.347C31.1199 35.9492 31.1437 35.4301 30.8321 35.0504ZM28.8351 38.897C29.3542 39.7923 30.2597 40.3952 31.2854 40.529C32.345 42.0284 34.4202 42.3842 35.9184 41.3246C36.2267 41.107 36.4964 40.8372 36.714 40.529C37.7397 40.3952 38.6452 39.7923 39.1643 38.897C39.7514 37.9302 39.8352 36.7402 39.391 35.701C39.8352 34.6617 39.7514 33.4717 39.1643 32.5061C38.6464 31.613 37.7442 31.0101 36.7197 30.873C35.66 29.3736 33.586 29.0177 32.0866 30.0774C31.7784 30.2961 31.5086 30.5647 31.291 30.873C30.2654 31.0078 29.3598 31.6108 28.8408 32.5061C28.2548 33.4717 28.1698 34.6617 28.6141 35.701C28.1676 36.7391 28.2503 37.9291 28.8351 38.897Z" fill="#0051FF"/>
<path fill-rule="evenodd" clip-rule="evenodd" d="M26.0665 47.6012H41.9331V45.3345H26.0665V47.6012Z" fill="#0051FF"/>
<path fill-rule="evenodd" clip-rule="evenodd" d="M16.9998 53.2679H50.9998V51.0012H16.9998V53.2679Z" fill="#0051FF"/>
<path fill-rule="evenodd" clip-rule="evenodd" d="M16.9998 36.2679H23.7998V34.0012H16.9998V36.2679Z" fill="#0051FF"/>
<path fill-rule="evenodd" clip-rule="evenodd" d="M44.1998 36.2679H50.9998V34.0012H44.1998V36.2679Z" fill="#0051FF"/>
</svg>
