<svg width="68" height="68" viewBox="0 0 68 68" fill="none" xmlns="http://www.w3.org/2000/svg">
<path fill-rule="evenodd" clip-rule="evenodd" d="M6.7553 25.8968C6.75639 24.6538 7.76388 23.6463 9.00692 23.6446H11.2591V55.1711H13.5107V20.2669C13.5123 19.0239 14.5198 18.017 15.7629 18.0153H20.2666V15.7632H15.7629C13.2768 15.7659 11.2618 17.7809 11.2591 20.2669V21.393H9.00692C6.52084 21.3963 4.5064 23.4107 4.50314 25.8968V30.4006H6.7553V25.8968Z" fill="#0051FF"/>
<path fill-rule="evenodd" clip-rule="evenodd" d="M65.3046 63.053C65.303 64.296 64.2961 65.3035 63.0525 65.3046H4.50393C3.26089 65.3035 2.2534 64.296 2.25177 63.053V59.6747H24.9643C25.263 59.6742 25.5497 59.7928 25.7602 60.0044L26.6926 60.9374C27.3253 61.5727 28.1848 61.9296 29.0813 61.9269H38.4751C39.3716 61.9296 40.2317 61.5727 40.8638 60.9374L41.7962 60.0044C42.0073 59.7928 42.294 59.6742 42.5926 59.6747H65.3046V63.053ZM66.4306 57.4231H63.0523V27.0228H60.8007V57.4231H42.5925C41.696 57.4204 40.8359 57.7773 40.2038 58.4127L39.2714 59.3456C39.0608 59.5567 38.7736 59.6758 38.4749 59.6747H29.0812C28.7825 59.6758 28.4958 59.5567 28.2847 59.3456L27.3523 58.4127C26.7202 57.7773 25.8601 57.4204 24.9642 57.4231H6.75594V32.6521H4.50378V57.4231H1.12608C0.504288 57.4231 0 57.9269 0 58.5492V63.053C0.00272 65.5391 2.0177 67.5535 4.50378 67.5562H63.0523C65.5389 67.5535 67.5534 65.5391 67.5566 63.053V58.5492C67.5566 57.9269 67.0524 57.4231 66.4306 57.4231Z" fill="#0051FF"/>
<path fill-rule="evenodd" clip-rule="evenodd" d="M54.0455 55.1713H56.2971V28.1487H54.0455V55.1713Z" fill="#0051FF"/>
<path fill-rule="evenodd" clip-rule="evenodd" d="M63.0527 0H42.786C40.2999 0.003264 38.2849 2.0177 38.2822 4.50378V7.88147H40.5338V4.50378C40.5354 3.26074 41.5429 2.25379 42.786 2.25216H63.0527C64.2957 2.25379 65.3032 3.26074 65.3048 4.50378V20.2673C65.3032 21.5103 64.2957 22.5178 63.0527 22.5194H56.2973C56.034 22.5194 55.7783 22.6108 55.5759 22.78L50.6674 26.8709V23.645C50.6674 23.0232 50.1631 22.5194 49.5413 22.5194H45.0376V24.771H48.4158V29.2743C48.4153 29.8966 48.9196 30.4009 49.5413 30.4009C49.8046 30.4009 50.0598 30.3084 50.2621 30.1392L56.7053 24.771H63.0527C65.5387 24.7678 67.5537 22.7533 67.5564 20.2673V4.50378C67.5537 2.0177 65.5387 0.003264 63.0527 0Z" fill="#0051FF"/>
<path fill-rule="evenodd" clip-rule="evenodd" d="M43.9114 9.00804H55.1705V6.75588H43.9114V9.00804Z" fill="#0051FF"/>
<path fill-rule="evenodd" clip-rule="evenodd" d="M57.4232 9.00804H61.9269V6.75588H57.4232V9.00804Z" fill="#0051FF"/>
<path fill-rule="evenodd" clip-rule="evenodd" d="M45.0382 13.5113H61.9272V11.2597H45.0382V13.5113Z" fill="#0051FF"/>
<path fill-rule="evenodd" clip-rule="evenodd" d="M45.0382 18.0156H61.9272V15.7634H45.0382V18.0156Z" fill="#0051FF"/>
<path fill-rule="evenodd" clip-rule="evenodd" d="M29.8989 27.2117L28.6499 29.0852C31.0718 30.7063 34.2324 30.7063 36.6543 29.0852L35.4053 27.2117C33.739 28.3269 31.5652 28.3269 29.8989 27.2117Z" fill="#0051FF"/>
<path fill-rule="evenodd" clip-rule="evenodd" d="M30.4003 23.0818C30.4003 22.1493 29.6442 21.3932 28.7118 21.3932C27.7788 21.3932 27.0226 22.1493 27.0226 23.0818C27.0226 24.0147 27.7788 24.7709 28.7118 24.7709C29.6436 24.7703 30.3992 24.0142 30.4003 23.0818Z" fill="#0051FF"/>
<path fill-rule="evenodd" clip-rule="evenodd" d="M36.5935 21.3929C35.6605 21.3929 34.9049 22.1496 34.9049 23.0815C34.9049 24.0144 35.6605 24.7711 36.5935 24.7711C37.5259 24.7711 38.282 24.0144 38.282 23.0815C38.2815 22.1496 37.5259 21.394 36.5935 21.3929Z" fill="#0051FF"/>
<path fill-rule="evenodd" clip-rule="evenodd" d="M24.5755 12.4275C25.1005 11.6909 25.9513 11.2546 26.8565 11.26H34.9044C37.5782 11.2628 39.8826 13.1434 40.4212 15.7633H24.4564L24.1893 14.9609C23.8982 14.1041 24.0424 13.1591 24.5755 12.4275ZM40.5331 19.3091L39.4984 18.0149H40.5331V19.3091ZM32.6517 33.7784C28.3008 33.7735 24.7752 30.2478 24.7703 25.8969V22.9136L28.6892 18.0149H36.6142L40.5332 22.9136V25.8969C40.5283 30.2478 37.0027 33.7735 32.6517 33.7784ZM32.6559 38.3757L33.7385 51.3659L32.6521 52.4528L31.5657 51.3659L32.6483 38.3757C32.6608 38.2239 32.6428 38.0711 32.5944 37.9258L31.9628 36.0305H33.3419L32.7103 37.9258C32.6619 38.0711 32.6434 38.2239 32.6559 38.3757ZM24.7703 18.0149H25.8055L24.7703 19.3091V18.0149ZM22.5184 17.0721V25.8969C22.5184 28.9602 23.9067 31.8581 26.2927 33.7784H25.8966C20.3027 33.7849 15.7695 38.3181 15.763 43.912V55.1712H18.0146V43.912C18.02 39.5611 21.5457 36.0349 25.8966 36.0305H29.5887L30.3846 38.4187L29.2781 51.6994C29.2504 52.0301 29.3695 52.3549 29.604 52.5893L31.8556 54.8415C32.2957 55.2811 33.0083 55.2811 33.4484 54.8415L35.7 52.5893C35.9345 52.3549 36.0536 52.0301 36.0259 51.6994L34.9194 38.4187L35.7158 36.0305H39.408C43.7583 36.0349 47.2845 39.5611 47.2894 43.912V55.1712H49.541V43.912C49.5351 38.3181 45.0014 33.7849 39.408 33.7784H39.0114C41.3979 31.8581 42.7856 28.9602 42.7856 25.8969V16.8893C42.7807 12.5384 39.2545 9.01277 34.9042 9.00788H26.8562C24.0595 9.00788 21.7921 11.2753 21.7927 14.0714C21.7927 14.6154 21.8803 15.1567 22.0522 15.673L22.5184 17.0721Z" fill="#0051FF"/>
<path fill-rule="evenodd" clip-rule="evenodd" d="M22.5191 55.1713H24.7713V42.7855H22.5191V55.1713Z" fill="#0051FF"/>
<path fill-rule="evenodd" clip-rule="evenodd" d="M40.5337 55.1713H42.7853V42.7855H40.5337V55.1713Z" fill="#0051FF"/>
<path fill-rule="evenodd" clip-rule="evenodd" d="M15.7626 23.6448H20.2664V21.3927H15.7626V23.6448Z" fill="#0051FF"/>
<path fill-rule="evenodd" clip-rule="evenodd" d="M15.7626 28.1492H20.2664V25.897H15.7626V28.1492Z" fill="#0051FF"/>
</svg>
