<?xml version="1.0" encoding="UTF-8"?>
<svg width="35px" height="35px" viewBox="0 0 35 35" version="1.1" xmlns="http://www.w3.org/2000/svg" xmlns:xlink="http://www.w3.org/1999/xlink">
    <title>calendario-pictograma</title>
    <defs>
        <polygon id="path-1" points="4.48717949e-05 0.0606369427 26.7867115 0.0606369427 26.7867115 34.7770701 4.48717949e-05 34.7770701"></polygon>
        <polygon id="path-3" points="0.151049679 0.14066879 18.7851282 0.14066879 18.7851282 18.6561146 0.151049679 18.6561146"></polygon>
    </defs>
    <g id="Page-1" stroke="none" stroke-width="1" fill="none" fill-rule="evenodd">
        <g id="Course-Detailed-Page" transform="translate(-278.000000, -660.000000)">
            <g id="Group-33" transform="translate(278.000000, 660.000000)">
                <g id="Group-3" transform="translate(0.000000, 0.162293)">
                    <mask id="mask-2" fill="white">
                        <use xlink:href="#path-1"></use>
                    </mask>
                    <g id="Clip-2"></g>
                    <path d="M2.91155128,30.1481975 L23.8749808,30.1481975 C24.5054295,30.1488662 25.1186026,29.9451083 25.6220641,29.5679108 L25.6220641,29.5694713 C25.6207179,30.5278471 24.8392756,31.3043121 23.8749808,31.3054268 L2.91155128,31.3054268 C1.94725641,31.3043121 1.1658141,30.5278471 1.16469231,29.5694713 L1.16469231,29.5679108 C1.66792949,29.9451083 2.28110256,30.1488662 2.91155128,30.1481975 M23.8749808,33.6198854 L2.91155128,33.6198854 C1.94725641,33.6185478 1.1658141,32.8423057 1.16469231,31.8839299 L1.16469231,31.8823694 C1.66792949,32.2595669 2.28110256,32.4633248 2.91155128,32.4626561 L23.8749808,32.4626561 C24.5054295,32.4633248 25.1186026,32.2595669 25.6220641,31.8823694 L25.6220641,31.8839299 C25.6207179,32.8423057 24.8392756,33.6185478 23.8749808,33.6198854 M2.91155128,2.95364331 L4.07619872,2.95364331 L4.07619872,4.68959873 L5.24084615,4.68959873 L5.24084615,2.95364331 L7.57014103,2.95364331 L7.57014103,4.68959873 L8.73478846,4.68959873 L8.73478846,2.95364331 L11.0640833,2.95364331 L11.0640833,4.68959873 L12.2287308,4.68959873 L12.2287308,2.95364331 L14.5580256,2.95364331 L14.5580256,4.68959873 L15.7226731,4.68959873 L15.7226731,2.95364331 L18.0517436,2.95364331 L18.0517436,4.68959873 L19.216391,4.68959873 L19.216391,2.95364331 L21.5456859,2.95364331 L21.5456859,4.68959873 L22.7103333,4.68959873 L22.7103333,2.95364331 L23.8749808,2.95364331 C24.8392756,2.95475796 25.6209423,3.73122293 25.6220641,4.68959873 L25.6220641,7.00405732 L1.16469231,7.00405732 L1.16469231,4.68959873 C1.1658141,3.73122293 1.94725641,2.95475796 2.91155128,2.95364331 M2.91155128,34.7771146 L23.8749808,34.7771146 C25.4822885,34.7753312 26.7846923,33.481 26.7867115,31.8839299 L26.7867115,19.7331338 L25.6220641,19.7331338 L25.6220641,27.2550127 C25.6209423,28.2133885 24.8392756,28.9900764 23.8749808,28.9911911 L2.91155128,28.9911911 C1.94725641,28.9900764 1.1658141,28.2133885 1.16469231,27.2550127 L1.16469231,8.16106369 L25.6220641,8.16106369 L25.6220641,8.73978981 L26.7867115,8.73978981 L26.7867115,4.68959873 C26.7846923,3.09252866 25.4822885,1.79819745 23.8749808,1.79641401 L22.7103333,1.79641401 L22.7103333,0.0604585987 L21.5456859,0.0604585987 L21.5456859,1.79641401 L19.216391,1.79641401 L19.216391,0.0604585987 L18.0517436,0.0604585987 L18.0517436,1.79641401 L15.7226731,1.79641401 L15.7226731,0.0604585987 L14.5580256,0.0604585987 L14.5580256,1.79641401 L12.2287308,1.79641401 L12.2287308,0.0604585987 L11.0640833,0.0604585987 L11.0640833,1.79641401 L8.73478846,1.79641401 L8.73478846,0.0604585987 L7.57014103,0.0604585987 L7.57014103,1.79641401 L5.24084615,1.79641401 L5.24084615,0.0604585987 L4.07619872,0.0604585987 L4.07619872,1.79641401 L2.91155128,1.79641401 C1.30424359,1.79819745 0.00183974359,3.09252866 4.48717949e-05,4.68959873 L4.48717949e-05,31.8839299 C0.00183974359,33.481 1.30424359,34.7753312 2.91155128,34.7771146" id="Fill-1" fill="#404B4D" mask="url(#mask-2)"></path>
                </g>
                <path d="M5.24082372,11.7951115 L5.82325962,11.7951115 C6.14476603,11.7951115 6.40547115,12.0541561 6.40547115,12.3736146 L6.40547115,12.9521178 C6.40547115,13.2717994 6.14476603,13.5308439 5.82325962,13.5308439 L5.24082372,13.5308439 C4.91931731,13.5308439 4.65861218,13.2717994 4.65861218,12.9521178 L4.65861218,12.3736146 C4.65861218,12.0541561 4.91931731,11.7951115 5.24082372,11.7951115" id="Fill-4" fill="#404B4D"></path>
                <path d="M10.4816923,11.7951115 L11.0641282,11.7951115 C11.3856346,11.7951115 11.6463397,12.0541561 11.6463397,12.3736146 L11.6463397,12.9521178 C11.6463397,13.2717994 11.3856346,13.5308439 11.0641282,13.5308439 L10.4816923,13.5308439 C10.1599615,13.5308439 9.89948077,13.2717994 9.89948077,12.9521178 L9.89948077,12.3736146 C9.89948077,12.0541561 10.1599615,11.7951115 10.4816923,11.7951115" id="Fill-6" fill="#404B4D"></path>
                <path d="M15.7225833,11.7951115 L16.3047949,11.7951115 C16.6265256,11.7951115 16.8872308,12.0541561 16.8872308,12.3736146 L16.8872308,12.9521178 C16.8872308,13.2717994 16.6265256,13.5308439 16.3047949,13.5308439 L15.7225833,13.5308439 C15.4008526,13.5308439 15.1401474,13.2717994 15.1401474,12.9521178 L15.1401474,12.3736146 C15.1401474,12.0541561 15.4008526,11.7951115 15.7225833,11.7951115" id="Fill-8" fill="#404B4D"></path>
                <path d="M20.9633622,11.7951115 L21.5457981,11.7951115 C21.8673045,11.7951115 22.1280096,12.0541561 22.1280096,12.3736146 L22.1280096,12.9521178 C22.1280096,13.2717994 21.8673045,13.5308439 21.5457981,13.5308439 L20.9633622,13.5308439 C20.6418558,13.5308439 20.3811506,13.2717994 20.3811506,12.9521178 L20.3811506,12.3736146 C20.3811506,12.0541561 20.6418558,11.7951115 20.9633622,11.7951115" id="Fill-10" fill="#404B4D"></path>
                <path d="M5.24082372,17.5810573 L5.82325962,17.5810573 C6.14476603,17.5810573 6.40547115,17.8401019 6.40547115,18.1597834 L6.40547115,18.7382866 C6.40547115,19.0579682 6.14476603,19.3170127 5.82325962,19.3170127 L5.24082372,19.3170127 C4.91931731,19.3170127 4.65861218,19.0579682 4.65861218,18.7382866 L4.65861218,18.1597834 C4.65861218,17.8401019 4.91931731,17.5810573 5.24082372,17.5810573" id="Fill-12" fill="#404B4D"></path>
                <path d="M10.4816923,17.5810573 L11.0641282,17.5810573 C11.3856346,17.5810573 11.6463397,17.8401019 11.6463397,18.1597834 L11.6463397,18.7382866 C11.6463397,19.0579682 11.3856346,19.3170127 11.0641282,19.3170127 L10.4816923,19.3170127 C10.1599615,19.3170127 9.89948077,19.0579682 9.89948077,18.7382866 L9.89948077,18.1597834 C9.89948077,17.8401019 10.1599615,17.5810573 10.4816923,17.5810573" id="Fill-14" fill="#404B4D"></path>
                <path d="M15.7225833,17.5810573 L16.3047949,17.5810573 C16.6265256,17.5810573 16.8872308,17.8401019 16.8872308,18.1597834 L16.8872308,18.7382866 C16.8872308,19.0579682 16.6265256,19.3170127 16.3047949,19.3170127 L15.7225833,19.3170127 C15.4008526,19.3170127 15.1401474,19.0579682 15.1401474,18.7382866 L15.1401474,18.1597834 C15.1401474,17.8401019 15.4008526,17.5810573 15.7225833,17.5810573" id="Fill-16" fill="#404B4D"></path>
                <path d="M5.24082372,23.3672261 L5.82325962,23.3672261 C6.14476603,23.3672261 6.40547115,23.6262707 6.40547115,23.9459522 L6.40547115,24.5242325 C6.40547115,24.843914 6.14476603,25.1029586 5.82325962,25.1029586 L5.24082372,25.1029586 C4.91931731,25.1029586 4.65861218,24.843914 4.65861218,24.5242325 L4.65861218,23.9459522 C4.65861218,23.6262707 4.91931731,23.3672261 5.24082372,23.3672261" id="Fill-18" fill="#404B4D"></path>
                <path d="M10.4816923,23.3672261 L11.0641282,23.3672261 C11.3856346,23.3672261 11.6463397,23.6262707 11.6463397,23.9459522 L11.6463397,24.5242325 C11.6463397,24.843914 11.3856346,25.1029586 11.0641282,25.1029586 L10.4816923,25.1029586 C10.1599615,25.1029586 9.89948077,24.843914 9.89948077,24.5242325 L9.89948077,23.9459522 C9.89948077,23.6262707 10.1599615,23.3672261 10.4816923,23.3672261" id="Fill-20" fill="#404B4D"></path>
                <path d="M15.7225833,23.3672261 L16.3047949,23.3672261 C16.6265256,23.3672261 16.8872308,23.6262707 16.8872308,23.9459522 L16.8872308,24.5242325 C16.8872308,24.843914 16.6265256,25.1029586 16.3047949,25.1029586 L15.7225833,25.1029586 C15.4008526,25.1029586 15.1401474,24.843914 15.1401474,24.5242325 L15.1401474,23.9459522 C15.1401474,23.6262707 15.4008526,23.3672261 15.7225833,23.3672261" id="Fill-22" fill="#404B4D"></path>
                <path d="M20.9633622,23.3672261 L21.5457981,23.3672261 C21.8673045,23.3672261 22.1280096,23.6262707 22.1280096,23.9459522 L22.1280096,24.5242325 C22.1280096,24.843914 21.8673045,25.1029586 21.5457981,25.1029586 L20.9633622,25.1029586 C20.6418558,25.1029586 20.3811506,24.843914 20.3811506,24.5242325 L20.3811506,23.9459522 C20.3811506,23.6262707 20.6418558,23.3672261 20.9633622,23.3672261" id="Fill-24" fill="#404B4D"></path>
                <path d="M12.810961,24.2352038 C12.810961,25.9927834 14.2448429,27.4173057 16.0136891,27.4173057 C17.7825353,27.4173057 19.2164135,25.9927834 19.2164135,24.2352038 L18.051766,24.2352038 C18.051766,25.3536433 17.1390737,26.2600764 16.0134647,26.2600764 C14.8878558,26.2598535 13.9753878,25.3531975 13.9756122,24.234535 C13.9756122,23.2034841 14.755484,22.3371783 15.7866378,22.2223694 L15.6585288,21.0722739 C14.0359647,21.2497261 12.8084968,22.6131656 12.810961,24.2352038" id="Fill-26" fill="#404B4D"></path>
                <path d="M5.53199679,14.6879841 C4.40638782,14.6879841 3.49391987,13.781551 3.49391987,12.6628885 C3.49391987,11.544449 4.40638782,10.637793 5.53199679,10.637793 C6.65760577,10.637793 7.57007372,11.544449 7.57007372,12.6628885 C7.56895192,13.7808822 6.65715705,14.6868694 5.53199679,14.6879841 M8.73472115,12.6628885 C8.73472115,10.9053089 7.30084295,9.48078662 5.53199679,9.48078662 C3.76315064,9.48078662 2.32927244,10.9053089 2.32927244,12.6628885 C2.32927244,14.4204682 3.76315064,15.8452134 5.53199679,15.8452134 C7.29994551,15.8434299 8.73292628,14.4197994 8.73472115,12.6628885" id="Fill-28" fill="#404B4D"></path>
                <g id="Group-32" transform="translate(16.153846, 5.289682)">
                    <mask id="mask-4" fill="white">
                        <use xlink:href="#path-3"></use>
                    </mask>
                    <g id="Clip-31"></g>
                    <path d="M7.13887821,13.7876592 L5.05076923,11.7128503 L15.2911859,1.53743631 L17.3792949,3.61224522 L7.13887821,13.7876592 Z M5.39179487,15.5233917 L5.22173077,15.3541879 L3.47464744,13.6184554 L3.30391026,13.4485828 L4.22714744,12.5310032 L6.31525641,14.6058121 L5.39179487,15.5233917 Z M3.06272436,16.6808439 L2.8924359,16.5116401 L2.31,15.932914 L2.13903846,15.7630414 L3.06272436,14.8454618 L3.98596154,15.7630414 L3.06272436,16.6808439 Z M15.703109,0.310207006 C15.475609,0.084156051 15.1069872,0.084156051 14.8794872,0.310207006 L3.81544872,11.303551 L2.06858974,13.0395064 C1.84108974,13.2653344 1.84108974,13.6318312 2.06836538,13.8576592 L2.06858974,13.8576592 L2.23910256,14.0273089 L0.903942308,15.353742 C0.676442308,15.579793 0.676442308,15.9462898 0.903717949,16.1721178 L0.903942308,16.1721178 L1.07445513,16.3417675 L0.32150641,17.0899204 C0.0942307692,17.3157484 0.0942307692,17.6820223 0.32150641,17.9078503 L0.32150641,17.9080732 L0.903942308,18.4865764 C1.13121795,18.7126274 1.5000641,18.7126274 1.72733974,18.4865764 L2.48028846,17.7386465 L2.65080128,17.9080732 C2.87830128,18.1339013 3.24692308,18.1339013 3.47442308,17.9080732 L3.47442308,17.9080732 L4.80958333,16.5814172 L4.98009615,16.7508439 C5.20759615,16.9768949 5.57621795,16.9768949 5.80371795,16.7508439 L7.55057692,15.0151115 L18.6146154,4.02132166 C18.8421154,3.79549363 18.8421154,3.42921975 18.6146154,3.20316879 L15.703109,0.310207006 Z" id="Fill-30" fill="#404B4D" mask="url(#mask-4)"></path>
                </g>
            </g>
        </g>
    </g>
</svg>