<?xml version="1.0" encoding="UTF-8"?>
<svg width="70px" height="70px" viewBox="0 0 70 70" version="1.1" xmlns="http://www.w3.org/2000/svg" xmlns:xlink="http://www.w3.org/1999/xlink">
    <title>Group 19</title>
    <defs>
        <polygon id="path-1" points="0 0.276531532 57.8367557 0.276531532 57.8367557 46.2847252 0 46.2847252"></polygon>
        <polygon id="path-3" points="0.217665158 0.177774775 58.3195023 0.177774775 58.3195023 46.449982 0.217665158 46.449982"></polygon>
        <polygon id="path-5" points="0 69.7234685 69.7222172 69.7234685 69.7222172 0.315315315 0 0.315315315"></polygon>
    </defs>
    <g id="Page-1" stroke="none" stroke-width="1" fill="none" fill-rule="evenodd">
        <g id="Nosotros" transform="translate(-141.000000, -1606.000000)">
            <g id="Group-19" transform="translate(141.000000, 1606.000000)">
                <g id="Group-3" transform="translate(0.000000, 0.038784)">
                    <mask id="mask-2" fill="white">
                        <use xlink:href="#path-1"></use>
                    </mask>
                    <g id="Clip-2"></g>
                    <path d="M3.09865611,46.2847252 L3.87340724,44.1036892 C2.94566968,43.7754459 2.32517195,42.9017072 2.32422172,41.9213919 L2.32422172,4.9040045 C2.32548869,3.62666216 3.36535294,2.5917973 4.64815837,2.59022072 L53.4536787,2.59022072 C54.4384299,2.59116667 55.3161222,3.20886937 55.6455339,4.13274324 L57.8367557,3.36116667 C57.1779321,1.51404955 55.4228643,0.278959459 53.4536787,0.276436937 L4.64815837,0.276436937 C2.08223077,0.27959009 0.00281900452,2.34931982 -3.16742081e-05,4.9040045 L-3.16742081e-05,41.9213919 C0.00218552036,43.8817072 1.24286425,45.6288694 3.09865611,46.2847252" id="Fill-1" fill="#0051FF" mask="url(#mask-2)"></path>
                </g>
                <path d="M63.9120588,11.8833198 L63.9120588,10.7264279 C63.9092081,8.17205856 61.8297964,6.10232883 59.2638688,6.09917568 L10.4583484,6.09917568 C7.89242081,6.10232883 5.81300905,8.17205856 5.81015837,10.7264279 L5.81015837,47.7441306 C5.81237557,49.7044459 7.0530543,51.4516081 8.90884615,52.107464 L9.68359729,49.9264279 C8.75554299,49.5981847 8.13536199,48.7247613 8.13409502,47.7441306 L8.13409502,10.7264279 C8.13567873,9.4494009 9.17522624,8.41453604 10.4583484,8.41295946 L59.2638688,8.41295946 C60.5466742,8.41453604 61.5865385,9.4494009 61.5881222,10.7264279 L61.5881222,11.8833198 L63.9120588,11.8833198 Z" id="Fill-4" fill="#0051FF"></path>
                <g id="Group-8" transform="translate(11.402715, 11.705450)">
                    <mask id="mask-4" fill="white">
                        <use xlink:href="#path-3"></use>
                    </mask>
                    <g id="Clip-7"></g>
                    <path d="M49.0231855,7.11881081 L49.0231855,4.12772973 L54.3520543,9.43227928 L51.3471222,9.43227928 C50.0643167,9.4307027 49.0247692,8.39583784 49.0231855,7.11881081 L49.0231855,7.11881081 Z M48.6830045,0.516738739 C48.4647692,0.299801802 48.1692489,0.177774775 47.8613756,0.177774775 L4.8658552,0.177774775 C2.2999276,0.180612613 0.220515837,2.25097297 0.217665158,4.80502703 L0.217665158,41.823045 C0.220515837,44.3770991 2.2999276,46.4471441 4.8658552,46.449982 L28.1064887,46.449982 L28.1064887,44.1361982 L4.8658552,44.1361982 C3.58304977,44.1349369 2.54318552,43.0997568 2.54160181,41.823045 L2.54160181,4.80502703 C2.54318552,3.528 3.58304977,2.49313514 4.8658552,2.49155856 L46.6992489,2.49155856 L46.6992489,7.11881081 C46.7020995,9.67318018 48.7811946,11.7429099 51.3471222,11.7460631 L55.9953122,11.7460631 L55.9953122,40.6661532 L58.3195656,40.6661532 L58.3195656,10.5891712 C58.3195656,10.2823694 58.1969864,9.98818018 57.9790679,9.77124324 L48.6830045,0.516738739 Z" id="Fill-6" fill="#0051FF" mask="url(#mask-4)"></path>
                </g>
                <mask id="mask-6" fill="white">
                    <use xlink:href="#path-5"></use>
                </mask>
                <g id="Clip-10"></g>
                <polygon id="Fill-9" fill="#0051FF" mask="url(#mask-6)" points="16.2685068 18.8243243 18.5924434 18.8243243 18.5924434 16.5105405 16.2685068 16.5105405"></polygon>
                <polygon id="Fill-11" fill="#0051FF" mask="url(#mask-6)" points="20.9166968 18.8243243 23.2406335 18.8243243 23.2406335 16.5105405 20.9166968 16.5105405"></polygon>
                <polygon id="Fill-12" fill="#0051FF" mask="url(#mask-6)" points="25.5648869 18.8243243 27.8888235 18.8243243 27.8888235 16.5105405 25.5648869 16.5105405"></polygon>
                <polygon id="Fill-13" fill="#0051FF" mask="url(#mask-6)" points="16.2685068 23.4515766 55.7776471 23.4515766 55.7776471 21.1377928 16.2685068 21.1377928"></polygon>
                <path d="M48.8055837,36.1761577 C48.8055837,40.6485901 45.1636833,44.2740856 40.6713303,44.2740856 C36.1789774,44.2740856 32.5370769,40.6485901 32.5370769,36.1761577 C32.5370769,31.7040405 36.1789774,28.078545 40.6713303,28.078545 C45.1617828,28.0835901 48.8005158,31.7059324 48.8055837,36.1761577 M30.2128235,36.1761577 C30.2128235,41.9259324 34.8952217,46.5875541 40.6713303,46.5875541 C46.4474389,46.5875541 51.1295204,41.9259324 51.1295204,36.1761577 C51.1295204,30.4263829 46.4474389,25.7647613 40.6713303,25.7647613 C34.8980724,25.7713829 30.2194751,30.4289054 30.2128235,36.1761577" id="Fill-14" fill="#0051FF" mask="url(#mask-6)"></path>
                <path d="M38.3472036,33.542455 L42.9773394,36.1762838 L38.3472036,38.8101126 L38.3472036,33.542455 Z M36.6019548,30.548536 C36.2434027,30.7553829 36.023267,31.1365991 36.023267,31.5490315 L36.023267,40.8032207 C36.023267,41.4423649 36.5433575,41.9601126 37.1850769,41.9601126 C37.3874751,41.9601126 37.5860724,41.907455 37.7615475,41.8078153 L45.8961176,37.1805631 C46.453267,36.8636712 46.6467964,36.1570495 46.3284706,35.6020946 C46.2255294,35.4229955 46.0760271,35.2741667 45.8961176,35.1716892 L37.7615475,30.5444369 C37.4020452,30.3401126 36.96019,30.3416892 36.6019548,30.548536 L36.6019548,30.548536 Z" id="Fill-15" fill="#0051FF" mask="url(#mask-6)"></path>
                <path d="M67.3980905,67.4099054 L50.5021176,67.4099054 L44.4710317,60.405491 C44.2689502,60.1702658 44.1574569,59.8710315 44.1574569,59.5613919 L44.1574569,59.4526081 C44.1571403,58.7362117 44.7405792,58.1554009 45.4602172,58.1550856 C45.8057828,58.1550856 46.1374118,58.2919324 46.3816199,58.5353559 L49.1458281,61.2871126 C49.5997195,61.7389595 50.3355113,61.7389595 50.789086,61.2871126 C51.0070045,61.0701757 51.1295837,60.7759865 51.1295837,60.4688694 L51.1295837,47.7443198 C51.1295837,47.1051757 51.649991,46.5874279 52.2917104,46.5874279 C52.9334299,46.5874279 53.4538371,47.1051757 53.4538371,47.7443198 L53.4538371,56.998509 C53.4538371,57.6376532 53.9739276,58.1554009 54.6156471,58.1554009 C55.2573665,58.1554009 55.7777738,57.6376532 55.7777738,56.998509 C55.7777738,56.3596802 56.298181,55.8416171 56.9395837,55.8416171 C57.5816199,55.8416171 58.1017104,56.3596802 58.1017104,56.998509 C58.1017104,57.6376532 58.6221176,58.1554009 59.2638371,58.1554009 C59.9055566,58.1554009 60.4259638,57.6376532 60.4259638,56.998509 C60.4259638,56.3596802 60.9460543,55.8416171 61.5880905,55.8416171 C62.22981,55.8416171 62.7499005,56.3596802 62.7499005,56.998509 C62.7499005,57.6376532 63.2703077,58.1554009 63.9120271,58.1554009 C64.5537466,58.1554009 65.0741538,57.6376532 65.0741538,56.998509 C65.0741538,56.3596802 65.5942443,55.8416171 66.2362805,55.8416171 C66.8776833,55.8416171 67.3980905,56.3596802 67.3980905,56.998509 L67.3980905,67.4099054 Z M66.2362805,53.528464 C65.3782262,53.527518 64.5502624,53.8431486 63.9120271,54.4138694 C62.589629,53.2330135 60.5862353,53.2330135 59.2638371,54.4138694 C58.3155113,53.5675631 56.978543,53.3039595 55.7777738,53.726482 L55.7777738,47.7443198 C55.7777738,45.827518 54.2168688,44.2739595 52.2917104,44.2739595 C50.366552,44.2739595 48.8056471,45.827518 48.8056471,47.7443198 L48.8056471,57.6764369 L48.0251946,56.8991847 C46.6084072,55.4890946 44.3120271,55.4894099 42.8955566,56.8995 C42.2155113,57.576482 41.8335204,58.4953108 41.8335204,59.4526081 L41.8335204,59.5613919 C41.8335204,60.4231486 42.1432941,61.256527 42.7064615,61.9114369 L49.0853303,69.319455 C49.3060995,69.5758063 49.6282262,69.7233739 49.967457,69.7233739 L68.5602172,69.7233739 C69.2019367,69.7233739 69.7220271,69.2053108 69.7220271,68.5667973 L69.7220271,56.998509 C69.7201267,55.0829685 68.1604887,53.5303559 66.2362805,53.528464 L66.2362805,53.528464 Z" id="Fill-16" fill="#0051FF" mask="url(#mask-6)"></path>
                <polygon id="Fill-17" fill="#0051FF" mask="url(#mask-6)" points="58.1019005 51.2147748 62.7500905 51.2147748 62.7500905 48.9013063 58.1019005 48.9013063"></polygon>
                <path d="M26.7268869,48.9011486 C27.3686063,48.9011486 27.8886968,49.4192117 27.8886968,50.0577252 C27.8886968,50.6965541 27.3686063,51.2146171 26.7268869,51.2146171 C26.0851674,51.2146171 25.5647602,50.6965541 25.5647602,50.0577252 C25.5653937,49.419527 26.0854842,48.9017793 26.7268869,48.9011486 M26.7268869,53.5284009 C28.2035385,53.526509 29.5192851,52.5997973 30.013086,51.2146171 L46.481457,51.2146171 L46.481457,48.9011486 L30.013086,48.9011486 C29.3704163,47.0943919 27.3784253,46.1481306 25.5634932,46.7879054 C24.5717738,47.1372748 23.791638,47.9138964 23.4406878,48.9011486 L18.5926335,48.9011486 L18.5926335,51.2146171 L23.4406878,51.2146171 C23.9344887,52.5997973 25.2502353,53.526509 26.7268869,53.5284009" id="Fill-18" fill="#0051FF" mask="url(#mask-6)"></path>
            </g>
        </g>
    </g>
</svg>