<svg width="100" height="100" viewBox="0 0 100 100" fill="none" xmlns="http://www.w3.org/2000/svg">
<g clip-path="url(#clip0)">
<path fill-rule="evenodd" clip-rule="evenodd" d="M47.9019 5.90476C49.1152 6.92143 50.8852 6.92143 52.0986 5.90476L70.7719 23.3348H29.2286L47.9019 5.90476ZM93.3336 90.9781V32.3581L96.6669 29.0248V94.3114L93.3336 90.9781ZM9.02358 93.3348H90.9769L94.3102 96.6681H5.69024L9.02358 93.3348ZM6.66691 32.3581V90.9781L3.33358 94.3114V29.0248L6.66691 32.3581ZM10.0002 90.0014H90.0002V33.3348H10.0002V90.0014ZM90.9769 30.0014H9.02358L5.69024 26.6681H94.3102L90.9769 30.0014ZM98.3336 23.3348H75.6569L53.1669 2.34309C52.6319 0.593094 50.7802 -0.388572 49.0302 0.146428C47.9786 0.466428 47.1552 1.28976 46.8336 2.34309L24.3436 23.3348H1.66691C0.746911 23.3348 0.000244141 24.0798 0.000244141 25.0014V98.3348C0.000244141 99.2564 0.746911 100.001 1.66691 100.001H98.3336C99.2536 100.001 100 99.2564 100 98.3348V25.0014C100 24.0798 99.2536 23.3348 98.3336 23.3348Z" fill="#404B4D"/>
<path fill-rule="evenodd" clip-rule="evenodd" d="M16.6666 83.3348H83.3332V40.0014H16.6666V83.3348ZM14.9999 86.6681H84.9999C85.9199 86.6681 86.6666 85.9231 86.6666 85.0014V38.3348C86.6666 37.4131 85.9199 36.6681 84.9999 36.6681H14.9999C14.0799 36.6681 13.3332 37.4131 13.3332 38.3348V85.0014C13.3332 85.9231 14.0799 86.6681 14.9999 86.6681Z" fill="#404B4D"/>
<path fill-rule="evenodd" clip-rule="evenodd" d="M45.3416 51.5444C44.9149 50.9411 44.8866 50.1394 45.2699 49.5061C45.5799 48.9628 46.1766 48.6511 46.7999 48.7078C47.5349 48.7978 48.2416 48.3844 48.5232 47.6994C48.8782 46.8844 49.8249 46.5094 50.6416 46.8644C51.0149 47.0278 51.3132 47.3261 51.4766 47.6994C51.7649 48.3811 52.4649 48.7911 53.1999 48.7078C53.8232 48.6494 54.4216 48.9611 54.7299 49.5061C55.1132 50.1394 55.0849 50.9411 54.6582 51.5444C54.2566 52.1194 54.2566 52.8844 54.6582 53.4578C55.0849 54.0628 55.1132 54.8628 54.7299 55.4961C54.4249 56.0444 53.8232 56.3578 53.1999 56.2961C52.4666 56.2111 51.7666 56.6178 51.4766 57.2944C51.1216 58.1094 50.1732 58.4844 49.3582 58.1294C48.9849 57.9678 48.6849 57.6694 48.5232 57.2944C48.2616 56.6778 47.6582 56.2761 46.9882 56.2761C46.9249 56.2761 46.8632 56.2794 46.7999 56.2861C46.1766 56.3494 45.5749 56.0344 45.2699 55.4878C44.8866 54.8544 44.9149 54.0544 45.3416 53.4511C45.7649 52.8661 45.7999 52.1028 45.3416 51.5444ZM42.4049 57.2011C43.1682 58.5178 44.4999 59.4044 46.0082 59.6011C47.5666 61.8061 50.6182 62.3294 52.8216 60.7711C53.2749 60.4511 53.6716 60.0544 53.9916 59.6011C55.4999 59.4044 56.8316 58.5178 57.5949 57.2011C58.4582 55.7794 58.5816 54.0294 57.9282 52.5011C58.5816 50.9728 58.4582 49.2228 57.5949 47.8028C56.8332 46.4894 55.5066 45.6028 53.9999 45.4011C52.4416 43.1961 49.3916 42.6728 47.1866 44.2311C46.7332 44.5528 46.3366 44.9478 46.0166 45.4011C44.5082 45.5994 43.1766 46.4861 42.4132 47.8028C41.5516 49.2228 41.4266 50.9728 42.0799 52.5011C41.4232 54.0278 41.5449 55.7778 42.4049 57.2011Z" fill="#404B4D"/>
<path fill-rule="evenodd" clip-rule="evenodd" d="M38.3332 70.0014H61.6666V66.6681H38.3332V70.0014Z" fill="#404B4D"/>
<path fill-rule="evenodd" clip-rule="evenodd" d="M24.9999 78.3348H74.9999V75.0014H24.9999V78.3348Z" fill="#404B4D"/>
<path fill-rule="evenodd" clip-rule="evenodd" d="M24.9999 53.3348H34.9999V50.0014H24.9999V53.3348Z" fill="#404B4D"/>
<path fill-rule="evenodd" clip-rule="evenodd" d="M64.9999 53.3348H74.9999V50.0014H64.9999V53.3348Z" fill="#404B4D"/>
</g>
<defs>
<clipPath id="clip0">
<rect width="100" height="100" fill="white"/>
</clipPath>
</defs>
</svg>
