<?xml version="1.0" encoding="UTF-8"?>
<svg width="68px" height="69px" viewBox="0 0 68 69" version="1.1" xmlns="http://www.w3.org/2000/svg" xmlns:xlink="http://www.w3.org/1999/xlink">
    <title>pictograma-talleres-gratuitos copy</title>
    <defs>
        <polygon id="path-1" points="0 0.107736842 26.025285 0.107736842 26.025285 31.9752658 0 31.9752658"></polygon>
        <polygon id="path-3" points="0.0830442478 0.107736842 8.00414159 0.107736842 8.00414159 11.4889237 0.0830442478 11.4889237"></polygon>
        <polygon id="path-5" points="0.391571681 0.449407895 36.6008496 0.449407895 36.6008496 55.0789474 0.391571681 55.0789474"></polygon>
        <polygon id="path-7" points="0 0.422907989 44.1301345 0.422907989 44.1301345 64.1578947 0 64.1578947"></polygon>
        <polygon id="path-9" points="0.00571681416 0.107736842 26.0316637 0.107736842 26.0316637 25.1462741 0.00571681416 25.1462741"></polygon>
        <polygon id="path-11" points="0 68.8922632 67.892885 68.8922632 67.892885 0.605263158 0 0.605263158"></polygon>
    </defs>
    <g id="Page-1" stroke="none" stroke-width="1" fill="none" fill-rule="evenodd">
        <g id="Cursos" transform="translate(-930.000000, -2963.000000)">
            <g id="Group-25" transform="translate(930.000000, 2963.000000)">
                <g id="Group-3" transform="translate(0.000000, 0.497526)">
                    <mask id="mask-2" fill="white">
                        <use xlink:href="#path-1"></use>
                    </mask>
                    <g id="Clip-2"></g>
                    <path d="M2.26319646,2.38395 L26.025285,2.38395 L26.025285,0.107555263 L1.13126726,0.107555263 C0.506630088,0.107555263 -6.01769912e-05,0.617186842 -6.01769912e-05,1.24605526 L-6.01769912e-05,31.9752658 L2.26319646,31.9752658 L2.26319646,2.38395 Z" id="Fill-1" fill="#0051FF" mask="url(#mask-2)"></path>
                </g>
                <g id="Group-6" transform="translate(55.362832, 0.497526)">
                    <mask id="mask-4" fill="white">
                        <use xlink:href="#path-3"></use>
                    </mask>
                    <g id="Clip-5"></g>
                    <path d="M8.00414159,11.4889237 L8.00414159,1.24605526 C8.00414159,0.617186842 7.49745133,0.107555263 6.87221239,0.107555263 L0.0830442478,0.107555263 L0.0830442478,2.38395 L5.74088496,2.38395 L5.74088496,11.4889237 L8.00414159,11.4889237 Z" id="Fill-4" fill="#0051FF" mask="url(#mask-4)"></path>
                </g>
                <path d="M15.8418336,25.64385 C16.9779752,25.64385 18.0497274,25.1215079 18.9421522,24.1325079 L17.2668248,22.6024026 C16.9520991,22.9516395 16.4490195,23.3674553 15.8418336,23.3674553 C15.2346478,23.3674553 14.7315681,22.9516395 14.4162407,22.6024026 L12.7409133,24.1325079 C13.6339398,25.1215079 14.705692,25.64385 15.8418336,25.64385" id="Fill-7" fill="#0051FF"></path>
                <path d="M19.8020814,21.0913632 C20.7396389,21.0913632 21.4990726,20.3269158 21.4990726,19.3839158 C21.4990726,18.4415211 20.7396389,17.6770737 19.8020814,17.6770737 C18.8645239,17.6770737 18.1050903,18.4415211 18.1050903,19.3839158 C18.1062938,20.3263105 18.8651257,21.0901526 19.8020814,21.0913632" id="Fill-9" fill="#0051FF"></path>
                <g id="Group-13" transform="translate(31.292035, 13.813316)">
                    <mask id="mask-6" fill="white">
                        <use xlink:href="#path-5"></use>
                    </mask>
                    <g id="Clip-12"></g>
                    <path d="M34.3380142,52.8028553 L18.7004212,52.8028553 L20.2704389,43.3238289 C20.4497664,42.2240658 21.3957487,41.4178553 22.5036071,41.4214746 L32.0747575,41.4214746 C33.3240319,41.4233026 34.3362088,42.4413553 34.3380142,43.6978816 L34.3380142,52.8028553 Z M12.8379788,41.4214868 C12.8409876,38.9084342 14.8665451,36.8717237 17.364492,36.8693026 L28.6801735,36.8693026 C29.3054124,36.8693026 29.8121027,36.3596711 29.8121027,35.7308026 L29.8121027,34.4766974 C31.2611646,32.9871447 32.0729522,30.9861447 32.0747575,28.9022237 L32.0747575,20.93575 C32.0723504,18.6738816 30.7400319,16.6274868 28.6801735,15.7214079 L28.6801735,14.1065658 L34.3380142,14.1065658 L34.3380142,39.7576184 C33.6501912,39.3557237 32.8696956,39.1444868 32.0747575,39.1456974 L22.5036071,39.1456974 C20.288492,39.1396447 18.3971292,40.7508553 18.0390761,42.9491711 L16.4058726,52.8028553 L12.8379788,52.8028553 L12.8379788,41.4214868 Z M2.65482832,52.8028553 L10.5753239,52.8028553 L10.5753239,50.5264605 L2.65482832,50.5264605 L2.65482832,52.8028553 Z M20.1946159,33.8296711 C18.5999257,32.8981711 17.5534478,31.2458026 17.3891646,29.3985395 L18.8279965,30.8451184 C19.0398195,31.0587763 19.3280673,31.1786184 19.6277487,31.1786184 L27.548846,31.1786184 C27.8485274,31.1786184 28.1361735,31.0587763 28.3485982,30.8451184 L29.7880319,29.3973289 C29.6622619,30.8384605 28.9967044,32.1773026 27.925554,33.1433026 C27.6854478,33.3587763 27.548846,33.6674605 27.548846,33.9906711 L27.548846,34.5929079 L20.7374124,34.5929079 C20.6742265,34.2715132 20.4762442,33.9936974 20.1946159,33.8296711 L20.1946159,33.8296711 Z M17.364492,20.93575 C17.3668991,19.0503553 18.8851646,17.5232763 20.7596779,17.5208553 L26.4169168,17.5208553 C28.2908283,17.5232763 29.8096956,19.0503553 29.8121027,20.93575 L29.8121027,26.1549342 L27.0794655,28.9022237 L20.0965274,28.9022237 L17.364492,26.1549342 L17.364492,20.93575 Z M26.4169168,7.27798684 L27.548846,7.27798684 C28.1734832,7.27798684 28.6801735,6.76835526 28.6801735,6.14009211 L28.6801735,2.72580263 L34.3380142,2.72580263 L34.3380142,11.8307763 L29.1489522,11.8307763 L26.4169168,9.08288158 L26.4169168,7.27798684 Z M34.3380142,0.449407895 L28.6801735,0.449407895 C27.4302973,0.450618421 26.4187221,1.46867105 26.4169168,2.72580263 L26.4169168,5.00159211 L25.2855894,5.00159211 C24.6603504,5.00159211 24.1536602,5.51122368 24.1536602,6.14009211 L24.1536602,9.55438158 C24.1536602,9.85580263 24.2728106,10.1457237 24.4852354,10.3587763 L26.5493062,12.4348289 C26.4620496,12.5994605 26.4169168,12.78225 26.4169168,12.9686711 L26.4169168,15.2450658 L20.7596779,15.2450658 C17.6358903,15.2486974 15.104846,17.7938289 15.1012354,20.93575 L15.1012354,28.9022237 C15.1066513,31.04425 15.9665805,33.0942763 17.4878549,34.5929079 L17.364492,34.5929079 C13.616669,34.5971447 10.5801381,37.6519079 10.5753239,41.4214868 L10.5753239,48.2506711 L1.52289912,48.2506711 C0.898261947,48.2506711 0.391571681,48.7596974 0.391571681,49.3885658 L0.391571681,53.94075 C0.391571681,54.5690132 0.898261947,55.07925 1.52289912,55.07925 L35.4693416,55.07925 C36.0945805,55.07925 36.6012708,54.5690132 36.6012708,53.94075 L36.6012708,2.72580263 C36.5994655,1.46867105 35.5872885,0.450618421 34.3380142,0.449407895 L34.3380142,0.449407895 Z" id="Fill-11" fill="#0051FF" mask="url(#mask-6)"></path>
                </g>
                <g id="Group-16" transform="translate(0.000000, 4.734368)">
                    <mask id="mask-8" fill="white">
                        <use xlink:href="#path-7"></use>
                    </mask>
                    <g id="Clip-15"></g>
                    <path d="M2.26319646,47.0862658 L11.3156212,47.0862658 C11.4913381,47.0862658 11.6646478,47.0451079 11.8217097,46.9658184 L13.8454619,45.9483711 L18.1047894,45.9483711 L18.1047894,51.63845 L4.5264531,51.63845 C3.27717876,51.6372395 2.2644,50.6185816 2.26319646,49.3626605 L2.26319646,47.0862658 Z M2.26319646,34.5670026 C2.26319646,34.2607395 2.29388673,33.9556868 2.35346195,33.6554763 C2.78854159,31.5388711 4.64018761,30.01845 6.78910796,30.0141974 L9.14744425,30.0141974 C9.37972743,31.4129763 10.0422761,32.7040026 11.0418159,33.7045026 C11.2686832,33.9326868 11.5117982,34.1445289 11.7681522,34.3388184 C14.1836566,36.1612658 17.504223,36.1600553 19.9185239,34.3376079 C20.1736743,34.1433184 20.4155858,33.9320816 20.6418513,33.7045026 C21.6413912,32.7040026 22.3039398,31.4129763 22.5356212,30.0141974 L25.2231257,30.0141974 C26.6132142,30.0099763 27.863692,30.8615816 28.3764,32.1610816 L31.1433381,39.1191868 L26.4212496,39.1191868 C26.0583823,37.9564763 25.4205062,36.8990816 24.5629841,36.0383974 L22.9622761,37.6477921 C25.0197274,39.7177921 25.0197274,43.0733711 22.9622761,45.1433711 C22.7504531,45.3570289 22.6313027,45.6463447 22.6313027,45.9483711 L22.6313027,49.3626605 C22.6313027,49.5073184 22.6589841,49.6507658 22.7113381,49.7851342 L23.7144885,52.30545 C24.3535681,53.9100026 24.7387009,55.6047395 24.8554442,57.3291342 L20.368046,57.3291342 L20.368046,39.1191868 C20.368046,38.4909237 19.8613558,37.9812921 19.2361168,37.9812921 L8.41870088,37.9812921 C8.51498407,37.8675026 8.61487788,37.7549237 8.72078938,37.6477921 L7.12068319,36.0383974 C6.55381593,36.6067395 6.08142655,37.2628447 5.72096637,37.9812921 L5.65778053,37.9812921 C5.03314336,37.9812921 4.5264531,38.4909237 4.5264531,39.1191868 L2.26319646,39.1191868 L2.26319646,34.5670026 Z M7.9204354,16.3570553 L7.9204354,14.0806605 L8.25080708,14.0806605 C8.95427611,14.0806605 9.65593982,14.0255816 10.3503823,13.9166342 C9.94659469,14.7670289 10.304046,15.7862921 11.1501345,16.1930289 C11.9956212,16.5997658 13.0090018,16.2402395 13.4133912,15.3892395 C13.7684354,14.64295 13.5397628,13.7477658 12.8711965,13.2659763 C15.3083646,12.3726079 17.4320106,10.7825816 18.9815681,8.69139737 C20.0250372,10.8007395 21.6961522,12.5305816 23.7626301,13.6394237 L23.7626301,16.3570553 C23.7626301,20.7567132 20.2164,24.3241342 15.8415327,24.3241342 C11.4672673,24.3241342 7.9204354,20.7567132 7.9204354,16.3570553 L7.9204354,16.3570553 Z M7.9204354,10.6663711 C7.9204354,6.26671316 11.4672673,2.69989737 15.8415327,2.69989737 C20.2164,2.69989737 23.7626301,6.26671316 23.7626301,10.6663711 L23.7626301,10.9605289 C22.0584177,9.71005526 20.8446478,7.89668684 20.3337451,5.83818684 C20.1820991,5.22808158 19.5682938,4.85705526 18.9617097,5.00958158 C18.6415681,5.09068684 18.372577,5.30797632 18.2239398,5.60455526 C16.3464177,9.41468684 12.4788425,11.8187921 8.25080708,11.8043313 L7.9204354,11.8043313 L7.9204354,10.6663711 Z M13.5788779,28.8763184 L13.5788779,26.3438974 C15.0682584,26.6858711 16.6154088,26.6858711 18.1047894,26.3438974 L18.1047894,28.8763184 C18.1047894,29.5045816 18.6114796,30.0142132 19.2361168,30.0142132 L20.2266301,30.0142132 C20.0250372,30.8022658 19.6158336,31.5207132 19.0423469,32.0945026 C18.8907009,32.2470289 18.728223,32.3886605 18.5573204,32.5181868 C16.9487894,33.7311342 14.7378867,33.7323447 13.1293558,32.5206079 C12.9572496,32.3898711 12.7941699,32.2476342 12.6419221,32.0945026 C12.0684354,31.5207132 11.6586301,30.8022658 11.4564354,30.0142132 L12.4469487,30.0142132 C13.0721876,30.0142132 13.5788779,29.5045816 13.5788779,28.8763184 L13.5788779,28.8763184 Z M33.9463823,25.4620289 C33.9463823,26.0902921 34.4530726,26.5999237 35.0777097,26.5999237 C35.3779929,26.5999237 35.6662407,26.4800816 35.8780637,26.2670289 L37.7134619,24.4209763 L41.2025239,25.1224763 L38.6335681,29.4289237 C38.5288602,29.6056605 38.4728956,29.8084237 38.4728956,30.0142132 L38.4728956,43.0316079 C38.477108,44.4097921 37.9319044,45.7316868 36.9612496,46.7037395 C34.5102407,49.1683711 30.2406832,48.4705026 28.6923292,45.3533974 L26.7654619,41.4766868 C26.7654619,41.44945 26.767869,41.4228184 26.767869,41.3955816 L31.6837274,41.3955816 L31.6837274,43.6719763 L33.9463823,43.6719763 L33.9463823,25.4620289 Z M6.78910796,61.8819237 L24.8939575,61.8819237 L24.8939575,59.6055289 L6.78910796,59.6055289 L6.78910796,61.8819237 Z M6.78910796,40.2576868 L18.1047894,40.2576868 L18.1047894,43.6719763 L13.5788779,43.6719763 C13.4031611,43.6719763 13.2298513,43.7131342 13.0727894,43.7918184 L11.0484354,44.8098711 L6.78910796,44.8098711 L6.78910796,40.2576868 Z M2.26319646,44.8098711 L4.5264531,44.8098711 L4.5264531,41.3955816 L2.26319646,41.3955816 L2.26319646,44.8098711 Z M6.78910796,57.3291342 L18.1047894,57.3291342 L18.1047894,53.9148447 L6.78910796,53.9148447 L6.78910796,57.3291342 Z M4.5264531,53.9148447 L4.5264531,63.0198184 C4.5264531,63.6480816 5.03314336,64.1583184 5.65778053,64.1583184 L26.025285,64.1583184 C26.6505239,64.1583184 27.1572142,63.6480816 27.1572142,63.0198184 L27.1572142,58.4676342 C27.1584177,56.0671605 26.7034796,53.6884763 25.8164708,51.4605026 L24.8939575,49.14295 L24.8939575,46.3974763 C25.2977451,45.9350553 25.6443646,45.4248184 25.9259929,44.8782658 L26.668577,46.3720553 C28.504577,50.0623447 32.9679044,51.5561342 36.6368956,49.7088711 C37.3487894,49.3505553 37.9987009,48.8790553 38.5613558,48.3137395 C39.9586655,46.9155816 40.7409664,45.0138447 40.7361522,43.0316079 L40.7361522,34.5670026 L44.1301345,34.5670026 L44.1301345,32.2906079 L40.7361522,32.2906079 L40.7361522,30.3295553 L40.9239044,30.0142132 L44.1301345,30.0142132 L44.1301345,27.7384237 L42.2814973,27.7384237 L43.1432319,26.2942658 C43.7865239,25.2168974 43.4393027,23.8187395 42.3681522,23.1711079 C42.1448956,23.0367395 41.9011788,22.9417132 41.6460283,22.8902658 L38.1557628,22.1887658 C37.4137805,22.0398711 36.6471257,22.2741079 36.1121522,22.8121868 L35.2955504,23.6335289 C34.2924,22.8842132 32.8746301,23.0948447 32.1296389,24.1044237 C31.8395858,24.4966342 31.6831257,24.9729763 31.6837274,25.4620289 L31.6837274,34.3472921 L30.4783823,31.3161342 C29.6250726,29.1498974 27.5399398,27.7305553 25.2237274,27.7384237 L20.368046,27.7384237 L20.368046,25.5352658 C22.504931,24.4772658 24.2025239,22.6953711 25.1629487,20.5031079 C26.4453204,22.1930026 28.4377805,23.1850289 30.5517982,23.1856342 C31.1770372,23.1856342 31.6837274,22.6760026 31.6837274,22.0477395 L31.6837274,17.49495 L29.4204708,17.49495 L29.4204708,20.7651868 C27.4237982,20.2440553 26.0282938,18.4318974 26.025285,16.3570553 L26.025285,10.6663711 C26.027692,8.63934474 25.4283292,6.65831842 24.3048248,4.97568684 L24.8939575,4.97568684 C25.1984531,4.97568684 25.5017451,5.00655526 25.800223,5.06708158 L26.2509487,2.83608158 C25.8044354,2.74529211 25.3494973,2.69929211 24.8939575,2.69989737 L22.232931,2.69989737 C17.8622761,-0.854813158 11.4546301,-0.172681579 7.9204354,4.22334474 C6.45512566,6.04700263 5.65597522,8.32158158 5.65778053,10.6663711 L5.65778053,16.3570553 C5.64514336,20.2525289 7.84100177,23.8145026 11.3156212,25.5352658 L11.3156212,27.7384237 L6.78910796,27.7384237 C3.56422301,27.7450816 0.786453097,30.0275289 0.135338053,33.2045553 C0.0456743363,33.6530553 -6.01769912e-05,34.1094237 -6.01769912e-05,34.5670026 L-6.01769912e-05,49.3626605 C0.00294867257,51.8757132 2.02730265,53.9118184 4.5264531,53.9148447 L4.5264531,53.9148447 Z" id="Fill-14" fill="#0051FF" mask="url(#mask-8)"></path>
                </g>
                <g id="Group-19" transform="translate(28.283186, 0.497526)">
                    <mask id="mask-10" fill="white">
                        <use xlink:href="#path-9"></use>
                    </mask>
                    <g id="Clip-18"></g>
                    <path d="M4.53162832,18.3176237 C3.28235398,18.3164132 2.27017699,17.2977553 2.26837168,16.0412289 L2.26837168,4.66046579 C2.27017699,3.40333421 3.28235398,2.38528158 4.53162832,2.38407105 L21.5051504,2.38407105 C22.7544248,2.38528158 23.7666018,3.40333421 23.7684071,4.66046579 L23.7684071,16.0412289 C23.7666018,17.2977553 22.7544248,18.3164132 21.5051504,18.3176237 L14.7159823,18.3176237 C14.4156991,18.3176237 14.1274513,18.4374658 13.9156283,18.6511237 L11.3207965,21.2604132 L11.3207965,19.4555184 C11.3207965,18.8272553 10.8141062,18.3176237 10.189469,18.3176237 L4.53162832,18.3176237 Z M9.75679646,25.05965 C10.1792389,25.2357816 10.6660708,25.1383342 10.9892212,24.8127026 L15.1841593,20.5940184 L21.5051504,20.5940184 C24.0030973,20.5909921 26.0286549,18.5542816 26.0316637,16.0412289 L26.0316637,4.66046579 C26.0286549,2.14680789 24.0030973,0.110097368 21.5051504,0.107676316 L4.53162832,0.107676316 C2.03368142,0.110097368 0.00812389381,2.14680789 0.00571681416,4.66046579 L0.00571681416,16.0412289 C0.00812389381,18.5542816 2.03368142,20.5909921 4.53162832,20.5940184 L9.05753982,20.5940184 L9.05753982,24.0083079 C9.05753982,24.4683079 9.33315044,24.8835184 9.75679646,25.05965 L9.75679646,25.05965 Z" id="Fill-17" fill="#0051FF" mask="url(#mask-10)"></path>
                </g>
                <mask id="mask-12" fill="white">
                    <use xlink:href="#path-11"></use>
                </mask>
                <g id="Clip-21"></g>
                <polygon id="Fill-20" fill="#0051FF" mask="url(#mask-12)" points="32.8145133 7.43384211 42.9988673 7.43384211 42.9988673 5.15744737 32.8145133 5.15744737"></polygon>
                <polygon id="Fill-22" fill="#0051FF" mask="url(#mask-12)" points="45.2621239 7.43384211 49.7880354 7.43384211 49.7880354 5.15744737 45.2621239 5.15744737"></polygon>
                <polygon id="Fill-23" fill="#0051FF" mask="url(#mask-12)" points="32.8145133 11.9866316 49.7880354 11.9866316 49.7880354 9.71023684 32.8145133 9.71023684"></polygon>
                <polygon id="Fill-24" fill="#0051FF" mask="url(#mask-12)" points="32.8145133 16.5388158 49.7880354 16.5388158 49.7880354 14.2624211 32.8145133 14.2624211"></polygon>
            </g>
        </g>
    </g>
</svg>