<svg width="97" height="97" viewBox="0 0 97 97" fill="none" xmlns="http://www.w3.org/2000/svg">
<path fill-rule="evenodd" clip-rule="evenodd" d="M9.70004 50.1167V50.925C9.70004 54.9428 12.957 58.2 16.975 58.2C20.9929 58.2 24.25 54.9428 24.25 50.925V50.1167H21.0167V50.925C21.0167 53.1572 19.2071 54.9667 16.975 54.9667C14.7428 54.9667 12.9334 53.1572 12.9334 50.925V50.1167H9.70004Z" fill="#0051FF"/>
<path fill-rule="evenodd" clip-rule="evenodd" d="M21.1783 75.9833H29.1V82.45C25.2602 82.4454 21.9517 79.7443 21.1783 75.9833ZM1.61667 97H21.0167C27.2637 96.9929 32.3263 91.9304 32.3333 85.6833V69.5167H40.4167C41.3095 69.5167 42.0333 68.7928 42.0333 67.9C42.0333 67.7264 42.0054 67.5536 41.9505 67.3889L34.9455 46.3723L31.8776 47.3944L38.1735 66.2833H30.7167C29.8237 66.2833 29.1 67.0072 29.1 67.9V72.75H19.4C18.507 72.75 17.7833 73.4739 17.7833 74.3667C17.7902 80.6137 22.8528 85.6763 29.1 85.6833C29.0949 90.1456 25.4789 93.7616 21.0167 93.7667H3.23333V49.0545L10.976 39.0995L8.42405 37.1146L3.23333 43.7882V37.1833H0V95.3833C0 96.2762 0.72366 97 1.61667 97Z" fill="#0051FF"/>
<path fill-rule="evenodd" clip-rule="evenodd" d="M8.08337 35.5667H25.8667V45.2667C25.8665 46.1595 26.5904 46.8835 27.4832 46.8835C27.8748 46.8835 28.2531 46.7413 28.5477 46.4836L41.0244 35.5667H50.1167C54.5789 35.5616 58.195 31.9455 58.2 27.4833V16.1667H54.9667V27.4833C54.9635 30.1607 52.7939 32.3301 50.1167 32.3333H40.4167C40.0251 32.3333 39.6466 32.4756 39.3517 32.7335L29.1 41.7052V33.95C29.1 33.0572 28.3762 32.3333 27.4834 32.3333H8.08337C5.40597 32.3301 3.23641 30.1607 3.23337 27.4833V8.08335C3.23641 5.40595 5.40597 3.23638 8.08337 3.23335H50.1167C52.3287 3.23133 54.2614 4.72755 54.8137 6.86964L57.9448 6.06373C57.0251 2.49271 53.8041 -0.00220775 50.1167 1.36835e-05H8.08337C3.62097 0.00506725 0.00489042 3.62115 4.04167e-05 8.08335V27.4833C0.00489042 31.9455 3.62097 35.5616 8.08337 35.5667Z" fill="#0051FF"/>
<path fill-rule="evenodd" clip-rule="evenodd" d="M8.08327 11.3167H22.6333V8.08333H8.08327V11.3167Z" fill="#0051FF"/>
<path fill-rule="evenodd" clip-rule="evenodd" d="M25.8666 11.3167H50.1166V8.08333H25.8666V11.3167Z" fill="#0051FF"/>
<path fill-rule="evenodd" clip-rule="evenodd" d="M8.08327 19.4H50.1166V16.1667H8.08327V19.4Z" fill="#0051FF"/>
<path fill-rule="evenodd" clip-rule="evenodd" d="M30.7166 27.4833H50.1166V24.25H30.7166V27.4833Z" fill="#0051FF"/>
<path fill-rule="evenodd" clip-rule="evenodd" d="M8.08327 27.4833H27.4833V24.25H8.08327V27.4833Z" fill="#0051FF"/>
<path fill-rule="evenodd" clip-rule="evenodd" d="M51.7334 93.7667H38.8V78.4083C38.8 77.0689 39.8856 75.9833 41.225 75.9833C42.5642 75.9833 43.65 77.0689 43.65 78.4083V84.0667C43.65 84.9595 44.3737 85.6833 45.2667 85.6833H48.5C50.2848 85.6856 51.7311 87.1319 51.7334 88.9167V93.7667ZM48.5 82.45H46.8834V78.4083C46.8834 75.2833 44.3501 72.75 41.225 72.75C38.0998 72.75 35.5667 75.2833 35.5667 78.4083V95.3833C35.5667 96.2762 36.2904 97 37.1834 97H53.35C54.2428 97 54.9667 96.2762 54.9667 95.3833V88.9167C54.9625 85.3469 52.0696 82.4541 48.5 82.45Z" fill="#0051FF"/>
<path fill-rule="evenodd" clip-rule="evenodd" d="M93.7667 19.1237L88.8896 20.9202L60.4363 11.4355L88.8935 3.30485L93.7667 4.84371V19.1237ZM93.7667 93.7666H75.9834C71.521 93.7616 67.9049 90.1455 67.9 85.6833V79.2166H68.651C72.7415 79.2278 76.6668 77.602 79.5514 74.7015L77.2652 72.4151C74.9855 74.7074 71.8837 75.992 68.651 75.9833H67.9V67.9C67.9 67.0072 67.1762 66.2833 66.2834 66.2833H58.8617L69.0469 37.1833H93.7667V93.7666ZM88.4054 24.1671C88.7538 24.2833 89.1315 24.2773 89.4765 24.1503L93.7667 22.5694V33.95H69.5167V17.8708L88.4054 24.1671ZM95.87 2.1172L89.4033 0.0749477C89.101 -0.0204357 88.7775 -0.0248815 88.4725 0.0622164L54.5225 9.76222C53.6639 10.0075 53.1667 10.9022 53.4121 11.7606C53.5586 12.2739 53.949 12.6817 54.4554 12.8505L66.2834 16.7931V35.292L55.0572 67.3659C54.7624 68.2088 55.2066 69.1309 56.0491 69.4259C56.2208 69.4859 56.4015 69.5166 56.5834 69.5166H64.6667V85.6833C64.6736 91.9303 69.7362 96.9929 75.9834 97H95.3834C96.2762 97 97 96.2761 97 95.3833V3.65768C96.9994 2.95282 96.5421 2.32959 95.87 2.1172Z" fill="#0051FF"/>
<path fill-rule="evenodd" clip-rule="evenodd" d="M88.9167 12.9333C88.0237 12.9333 87.3 12.2095 87.3 11.3167C87.3 10.4239 88.0237 9.70002 88.9167 9.70002C89.8095 9.70002 90.5334 10.4239 90.5334 11.3167C90.5322 12.2091 89.8091 12.9323 88.9167 12.9333ZM88.9167 6.46668C86.2381 6.46668 84.0667 8.63807 84.0667 11.3167C84.0667 13.9953 86.2381 16.1667 88.9167 16.1667C91.5951 16.1667 93.7667 13.9953 93.7667 11.3167C93.7635 8.63928 91.5939 6.46971 88.9167 6.46668Z" fill="#0051FF"/>
<path fill-rule="evenodd" clip-rule="evenodd" d="M80.8334 50.1167C82.619 50.1167 84.0667 51.5642 84.0667 53.35C84.0667 55.1356 82.619 56.5834 80.8334 56.5834C79.0476 56.5834 77.6 55.1356 77.6 53.35C77.6021 51.5652 79.0484 50.1187 80.8334 50.1167ZM80.8334 59.8167C84.4048 59.8167 87.3 56.9214 87.3 53.35C87.3 49.7786 84.4048 46.8834 80.8334 46.8834C77.2618 46.8834 74.3667 49.7786 74.3667 53.35C74.3707 56.9198 77.2636 59.8126 80.8334 59.8167Z" fill="#0051FF"/>
</svg>