<?xml version="1.0" encoding="UTF-8"?>
<svg width="97px" height="97px" viewBox="0 0 97 97" version="1.1" xmlns="http://www.w3.org/2000/svg" xmlns:xlink="http://www.w3.org/1999/xlink">
    <title>Group 18 Copy</title>
    <defs>
        <polygon id="path-1" points="0 96.7809417 96.779325 96.7809417 96.779325 0 0 0"></polygon>
    </defs>
    <g id="Page-1" stroke="none" stroke-width="1" fill="none" fill-rule="evenodd">
        <g id="Educación-Continua" transform="translate(-126.000000, -861.000000)">
            <g id="Group-18" transform="translate(126.000000, 861.000000)">
                <path d="M56.454485,45.163685 L56.454485,50.3855183 L51.2415433,44.130635 C50.935185,43.7628433 50.4809017,43.5502517 50.0023683,43.55106 L45.163685,43.55106 C43.6181517,43.5478267 42.2916767,42.4509183 41.9982517,40.9336767 L45.8313683,37.098135 L54.8410517,37.098135 C58.4033767,37.0949017 61.2891267,34.2083433 61.2931683,30.6468267 L61.2931683,6.45179333 C61.2891267,2.89027667 58.4033767,0.00452666667 54.8410517,0.000485 L12.90391,0.000485 C9.34239333,0.00452666667 6.455835,2.89027667 6.45179333,6.45179333 L6.45179333,16.1299683 L9.67785167,16.1299683 L9.67785167,6.45179333 C9.68027667,4.671035 11.1231517,3.22816 12.90391,3.225735 L54.8410517,3.225735 C56.6226183,3.22816 58.0654933,4.671035 58.06711,6.45179333 L58.06711,30.6468267 C58.0654933,32.427585 56.6226183,33.87046 54.8410517,33.872885 L45.163685,33.872885 C44.7352683,33.872885 44.3254433,34.042635 44.0231267,34.3449517 L37.0989433,41.2699433 L37.0989433,35.48551 C37.0989433,34.595535 36.3762933,33.872885 35.48551,33.872885 L30.6468267,33.872885 L30.6468267,37.098135 L33.8720767,37.098135 L33.8720767,45.163685 C33.8720767,46.0552767 34.5947267,46.77631 35.48551,46.77631 C35.9131183,46.77631 36.3237517,46.60656 36.6260683,46.3042433 L39.5069683,43.4241517 C40.6394433,45.4894433 42.8073933,46.7746933 45.163685,46.77631 L49.2465767,46.77631 L56.827935,55.8741017 C57.39781,56.55876 58.4155017,56.6517183 59.0993517,56.0818433 C59.4679517,55.7746767 59.6805433,55.3203933 59.6805433,54.84186 L59.6805433,46.77631 L62.9057933,46.77631 L62.9057933,43.55106 L58.06711,43.55106 C57.1763267,43.55106 56.454485,44.2729017 56.454485,45.163685" id="Fill-1" fill="#0051FF"></path>
                <path d="M83.6919233,11.8285842 L86.7328733,10.7535008 C85.8186483,8.1773425 83.3823317,6.4555925 80.6493567,6.45235917 L64.519065,6.45235917 L64.519065,9.6784175 L80.6493567,9.6784175 C82.0162483,9.68003417 83.2344067,10.5401008 83.6919233,11.8285842" id="Fill-3" fill="#0051FF"></path>
                <mask id="mask-2" fill="white">
                    <use xlink:href="#path-1"></use>
                </mask>
                <g id="Clip-6"></g>
                <polygon id="Fill-5" fill="#0051FF" mask="url(#mask-2)" points="64.51955 16.1294833 72.5842917 16.1294833 72.5842917 12.903425 64.51955 12.903425"></polygon>
                <polygon id="Fill-7" fill="#0051FF" mask="url(#mask-2)" points="64.51955 22.5816 67.7456083 22.5816 67.7456083 19.35635 64.51955 19.35635"></polygon>
                <polygon id="Fill-8" fill="#0051FF" mask="url(#mask-2)" points="14.5168583 9.678175 53.22875 9.678175 53.22875 6.45211667 14.5168583 6.45211667"></polygon>
                <polygon id="Fill-9" fill="#0051FF" mask="url(#mask-2)" points="35.4858333 22.5816 53.22875 22.5816 53.22875 19.35635 35.4858333 19.35635"></polygon>
                <polygon id="Fill-10" fill="#0051FF" mask="url(#mask-2)" points="14.5168583 16.1294833 24.1950333 16.1294833 24.1950333 12.903425 14.5168583 12.903425"></polygon>
                <polygon id="Fill-11" fill="#0051FF" mask="url(#mask-2)" points="27.4210917 16.1294833 53.22875 16.1294833 53.22875 12.903425 27.4210917 12.903425"></polygon>
                <polygon id="Fill-12" fill="#0051FF" mask="url(#mask-2)" points="35.4858333 29.0337167 46.7766333 29.0337167 46.7766333 25.8076583 35.4858333 25.8076583"></polygon>
                <polygon id="Fill-13" fill="#0051FF" mask="url(#mask-2)" points="50.0026917 29.0337167 53.22875 29.0337167 53.22875 25.8076583 50.0026917 25.8076583"></polygon>
                <path d="M16.1297258,35.4857525 C17.9112925,35.4857525 19.3557842,36.9302442 19.3557842,38.7118108 C19.3557842,40.4933775 17.9112925,41.9370608 16.1297258,41.9370608 C14.3481592,41.9370608 12.9036675,40.4933775 12.9036675,38.7118108 C12.9036675,36.9302442 14.3481592,35.4857525 16.1297258,35.4857525" id="Fill-14" fill="#0051FF" mask="url(#mask-2)"></path>
                <path d="M55.7499417,65.5480733 L52.411525,72.2249067 L44.9489917,69.737665 L43.7413417,63.7026483 C43.7082,63.53694 43.7599333,63.3655733 43.8795667,63.2451317 C44.0776083,63.0478983 44.3977083,63.0478983 44.5949417,63.2451317 C44.6507167,63.3009067 44.69275,63.3688067 44.7178083,63.4431733 L45.2464583,65.0291233 C45.5277583,65.87464 46.441175,66.3321567 47.2866917,66.0500483 C47.692475,65.9142483 48.0279333,65.6240567 48.2195083,65.2409067 L50.1069667,61.46599 C50.3058167,61.0674817 50.7900083,60.9066233 51.1885167,61.1054733 C51.2394417,61.1305317 51.2871333,61.1612483 51.3324,61.196815 L55.5325,64.5570567 C55.82835,64.795515 55.918075,65.207765 55.7499417,65.5480733 L55.7499417,65.5480733 Z M43.8052,90.7656483 C42.6953583,93.1720567 39.8443667,94.22289 37.4379583,93.1130483 C36.44775,92.6555317 35.64265,91.87549 35.155225,90.90064 L30.6463417,81.8812567 L30.6463417,75.809865 L27.4210917,75.809865 L27.4210917,93.55359 L3.22605833,93.55359 L3.22605833,61.2930044 L22.5816,61.2930044 C25.8513083,61.2905817 28.806575,63.2402817 30.0926333,66.245665 L37.2286,82.89814 C37.5794167,83.7169817 38.5275917,84.09609 39.3464333,83.7452733 C39.7279667,83.5827983 40.0310917,83.278865 40.194375,82.89814 L44.4486333,72.9709983 L51.0090667,75.1583483 L43.8052,90.7656483 Z M3.22605833,29.03404 C3.2301,25.4725233 6.11665833,22.585965 9.67736667,22.5819233 L29.0337167,22.5819233 C29.029675,26.14344 26.143925,29.0299983 22.5816,29.03404 L9.67736667,29.03404 C9.19964167,29.03404 8.74535833,29.2466317 8.439,29.6144233 L3.22605833,35.8684983 L3.22605833,29.03404 Z M22.5816,45.1635233 C21.6908167,45.1635233 20.968975,45.8861733 20.968975,46.7761483 L20.968975,49.983615 C19.5099333,49.857515 18.2230667,48.979665 17.5723583,47.6685483 L14.6874167,49.1114233 C15.881325,51.5178317 18.2853083,53.0884233 20.968975,53.2153317 L20.968975,58.0677567 L3.22605833,58.0677567 L3.22605833,40.9100733 L10.4331583,32.25929 L22.1354,32.25929 L26.745325,45.1635233 L22.5816,45.1635233 Z M57.547675,62.03829 L53.3467667,58.6780483 C51.6080417,57.2860983 49.069875,57.5682067 47.6795417,59.30774 C47.5017083,59.5292233 47.348125,59.7692983 47.2212167,60.023115 L46.7936083,60.87914 C45.2884917,59.4685983 42.9257333,59.54539 41.5151917,61.0505067 C40.6915,61.929165 40.3423,63.1529817 40.5783333,64.334765 L41.8708583,70.7965817 L38.7110833,78.166965 L33.0576,64.9757733 C31.493475,61.318065 28.1332333,58.742715 24.194225,58.1833483 L24.194225,48.3895817 L29.0337167,48.3895817 C29.9245,48.3895817 30.6463417,47.66774 30.6463417,46.7761483 C30.6463417,46.5918483 30.6148167,46.4083567 30.552575,46.2337567 L25.4099583,31.8381483 C29.4766833,30.5900817 32.254925,26.8361817 32.259775,22.5819233 L32.259775,20.9692983 C32.259775,20.078515 31.537125,19.355865 30.6463417,19.355865 L9.67736667,19.355865 C4.3359,19.3615233 0.00646666667,23.691765 0,29.03404 L0,95.166215 C0,96.0569983 0.721841667,96.7796483 1.612625,96.7796483 L29.0337167,96.7796483 C29.9245,96.7796483 30.6463417,96.0569983 30.6463417,95.166215 L30.6463417,89.0948233 L32.2710917,92.343515 C34.253125,96.3075817 39.0732167,97.91374 43.0372833,95.9317067 C44.6668833,95.1169067 45.970725,93.77184 46.7346,92.1171817 L54.6829417,74.8948317 L58.6348833,66.9917567 C59.477975,65.290215 59.0261167,63.2305817 57.547675,62.03829 L57.547675,62.03829 Z" id="Fill-15" fill="#0051FF" mask="url(#mask-2)"></path>
                <path d="M75.8102692,32.2595325 C77.5918358,32.2595325 79.0363275,33.7040242 79.0363275,35.4855908 C79.0363275,37.2671575 77.5918358,38.7116492 75.8102692,38.7116492 C74.0287025,38.7116492 72.5842108,37.2671575 72.5842108,35.4855908 C72.5842108,33.7040242 74.0287025,32.2595325 75.8102692,32.2595325" id="Fill-16" fill="#0051FF" mask="url(#mask-2)"></path>
                <path d="M85.488525,93.5532667 L93.5532667,93.5532667 L93.5532667,80.6490333 L85.488525,80.6490333 L85.488525,93.5532667 Z M76.777925,89.0371083 L74.0336333,86.977475 C70.6507583,84.4401167 69.9652917,79.64185 72.50265,76.258975 C72.602075,76.1256 72.70635,75.9962667 72.8146667,75.8701667 L79.7784583,67.7456083 L82.67795,67.7456083 C82.4023083,68.5224167 82.2616583,69.34045 82.2616583,70.16495 L82.2616583,93.5532667 L77.422975,93.5532667 L77.422975,90.3272083 C77.422975,89.819575 77.1845167,89.34185 76.777925,89.0371083 L76.777925,89.0371083 Z M70.9716667,50.0026917 L70.9716667,48.3900667 L71.6345,48.3900667 C74.0506083,48.3900667 76.2775667,46.7249 77.3073833,44.1503583 L74.3125083,42.9516 C73.7749667,44.29505 72.7241333,45.1640083 71.6345,45.1640083 L70.9716667,45.1640083 L70.9716667,43.550575 C70.9716667,42.9402833 70.6257,42.3809167 70.080075,42.1077 L65.6293917,39.8823583 L68.8853583,36.6263917 C69.1238167,36.3887417 69.2814417,36.0823833 69.3364083,35.7509667 L70.6531833,27.8495083 C71.6838083,28.6238917 72.7629333,29.3311833 73.8840917,29.9665333 C77.626675,32.0835583 81.7790833,33.375275 86.0624417,33.756 L85.3446417,35.07035 C82.7563583,39.8152667 80.7710917,44.8657333 79.4349167,50.1037333 C79.1714,51.1384 78.93375,52.1819583 78.7211583,53.22875 L74.1969167,53.22875 C72.4161583,53.226325 70.9732833,51.78345 70.9716667,50.0026917 L70.9716667,50.0026917 Z M74.6431167,20.464575 C79.4826083,16.3647083 86.730125,16.9636833 90.8308,21.803175 C92.588925,23.8781667 93.5532667,26.5092917 93.5532667,29.2293333 L93.5532667,64.1323583 C90.9148667,62.3645333 87.433375,62.52135 84.9655333,64.51955 L80.6708583,64.51955 C80.7395667,61.90055 80.9756,59.288825 81.3765333,56.6997333 C81.6731917,54.7702417 82.0717,52.818925 82.5607417,50.90075 C83.829825,45.9230333 85.716475,41.1247667 88.1762333,36.6142667 L90.129975,33.0325417 C90.556775,32.250075 90.2682,31.270375 89.4857333,30.843575 C89.2488917,30.71505 88.9837583,30.64715 88.713775,30.64715 C82.4685917,30.6463417 76.4174083,28.4703083 71.6013583,24.4941167 C72.3029917,22.9413083 73.3425083,21.5647167 74.6431167,20.464575 L74.6431167,20.464575 Z M85.488525,70.16495 C85.488525,67.9371833 87.2935333,66.132175 89.5204917,66.132175 C91.74745,66.132175 93.5532667,67.9371833 93.5532667,70.16495 L93.5532667,77.4237833 L85.488525,77.4237833 L85.488525,70.16495 Z M82.06685,14.5168583 C75.7852917,14.5168583 70.1972833,18.5067917 68.154625,24.4472333 L68.154625,24.4504667 C67.8903,25.2191917 67.6898333,26.0089333 67.5564583,26.8108 L66.2404917,34.7106417 L61.7663667,39.1839583 C61.136675,39.81365 61.136675,40.8353833 61.7663667,41.465075 C61.8892333,41.5879417 62.0306917,41.6897917 62.1858917,41.7673917 L67.7448,44.54725 L67.7448,50.0026917 C67.74965,53.5642083 70.6354,56.4499583 74.1969167,56.454 L78.1520917,56.454 C77.6986167,59.458575 77.4577333,62.4906333 77.4286333,65.5291583 L70.366225,73.7701167 C66.4547,78.33235 66.980925,85.2007583 71.54235,89.1122833 C71.7234167,89.2674833 71.908525,89.4162167 72.0992917,89.5584833 L74.1969167,91.133925 L74.1969167,95.1658917 C74.1969167,96.0574833 74.9195667,96.779325 75.81035,96.779325 L95.1658917,96.779325 C96.056675,96.779325 96.7785167,96.0574833 96.7785167,95.1658917 L96.7785167,29.2293333 C96.769625,21.1080083 90.188175,14.52575 82.06685,14.5168583 L82.06685,14.5168583 Z" id="Fill-17" fill="#0051FF" mask="url(#mask-2)"></path>
            </g>
        </g>
    </g>
</svg>