<?xml version="1.0" encoding="UTF-8"?>
<svg width="35px" height="35px" viewBox="0 0 35 35" version="1.1" xmlns="http://www.w3.org/2000/svg" xmlns:xlink="http://www.w3.org/1999/xlink">
    <title>modalidad-pictograma</title>
    <defs>
        <polygon id="path-1" points="0 34.8705814 34.8705814 34.8705814 34.8705814 0 0 0"></polygon>
    </defs>
    <g id="Page-1" stroke="none" stroke-width="1" fill="none" fill-rule="evenodd">
        <g id="Course-Detailed-Page" transform="translate(-279.000000, -779.000000)">
            <g id="Group-11" transform="translate(279.000000, 779.000000)">
                <path d="M1.1623797,12.1547674 C1.1623797,6.09352713 6.0935814,1.16232558 12.1548217,1.16232558 C17.0795116,1.16232558 21.4035039,4.43794574 22.7367597,9.17868217 L25.3856357,18.5974806 L22.6659457,18.5974806 C22.3449767,18.5974806 22.0847829,18.8579457 22.0847829,19.1789147 L22.0847829,21.5035659 L18.5975349,21.5035659 C18.2768372,21.5035659 18.0163721,21.7637597 18.0163721,22.0847287 C18.018814,24.3304264 19.838814,26.1504264 22.0847829,26.1528682 L22.0847829,29.0589535 C22.083155,30.3420155 21.0431938,31.3819767 19.7598605,31.3836047 L15.6917209,31.3836047 C15.3707519,31.3836047 15.1105581,31.6437984 15.1105581,31.9647674 L15.1105581,33.7079845 L3.48703101,33.7079845 L3.48703101,28.3616667 C3.48730233,25.6834884 3.08710853,23.0205039 2.29893023,20.4606202 C1.5452093,18.0119767 1.16210853,15.464031 1.1623797,12.9017054 L1.1623797,12.1547674 Z M5.3712849e-05,12.1547674 L5.3712849e-05,12.9017054 C-0.000488372093,15.5798837 0.399976744,18.2428682 1.18815504,20.8027519 C1.94187597,23.2513953 2.32497674,25.7996124 2.32470543,28.3616667 L2.32470543,34.2894186 C2.32470543,34.6103876 2.58489922,34.8705814 2.90586822,34.8705814 L15.6917209,34.8705814 C16.0126899,34.8705814 16.2728837,34.6103876 16.2728837,34.2894186 L16.2728837,32.5459302 L19.7598605,32.5459302 C21.6851318,32.5437597 23.244938,30.9836822 23.2471085,29.0589535 L23.2471085,25.5717054 C23.2471085,25.2510078 22.9869147,24.990814 22.6659457,24.990814 L22.0847829,24.990814 C20.7043178,24.9889147 19.5151318,24.0181395 19.237031,22.6658915 L22.6659457,22.6658915 C22.9869147,22.6658915 23.2471085,22.4056977 23.2471085,22.0847287 L23.2471085,19.7598062 L26.1529225,19.7598062 C26.2061008,19.7598062 26.2590078,19.7527519 26.3102868,19.7381008 C26.6193178,19.6515504 26.7992016,19.3303101 26.7123798,19.0215504 L23.8556744,8.86395349 C22.3813333,3.62182171 17.6001705,0 12.1548217,0 C5.45272868,0 5.3712849e-05,5.45267442 5.3712849e-05,12.1547674 L5.3712849e-05,12.1547674 Z" id="Fill-1" fill="#404B4D"></path>
                <mask id="mask-2" fill="white">
                    <use xlink:href="#path-1"></use>
                </mask>
                <g id="Clip-4"></g>
                <polygon id="Fill-3" fill="#404B4D" mask="url(#mask-2)" points="31.3836047 26.1528682 32.5459302 26.1528682 32.5459302 21.5035659 31.3836047 21.5035659"></polygon>
                <polygon id="Fill-5" fill="#404B4D" mask="url(#mask-2)" points="26.734031 26.1528682 27.8963566 26.1528682 27.8963566 21.5035659 26.734031 21.5035659"></polygon>
                <polygon id="Fill-6" fill="#404B4D" mask="url(#mask-2)" points="24.4093798 24.9905426 25.5717054 24.9905426 25.5717054 22.6658915 24.4093798 22.6658915"></polygon>
                <polygon id="Fill-7" fill="#404B4D" mask="url(#mask-2)" points="33.7082558 24.9905426 34.8705814 24.9905426 34.8705814 22.6658915 33.7082558 22.6658915"></polygon>
                <polygon id="Fill-8" fill="#404B4D" mask="url(#mask-2)" points="29.0589535 29.0589535 30.2212791 29.0589535 30.2212791 18.5974806 29.0589535 18.5974806"></polygon>
                <path d="M13.9482326,15.1106395 C13.9482326,14.1474612 14.728814,13.3668798 15.6917209,13.3668798 C16.6546279,13.3668798 17.4354806,14.1474612 17.4354806,15.1106395 C17.4354806,16.0735465 16.6546279,16.8541279 15.6917209,16.8541279 C14.7293566,16.8530426 13.9493178,16.0730039 13.9482326,15.1106395 M12.785907,15.1106395 C12.785907,16.7154845 14.086876,18.0164535 15.6917209,18.0164535 C17.2965659,18.0164535 18.5975349,16.7154845 18.5975349,15.1106395 C18.5975349,13.5057946 17.2965659,12.2045543 15.6917209,12.2045543 C14.0876899,12.2064535 12.7878062,13.5063372 12.785907,15.1106395" id="Fill-9" fill="#404B4D" mask="url(#mask-2)"></path>
                <path d="M7.5553062,12.2045814 L8.13646899,12.2045814 L8.13646899,13.366907 L7.5553062,13.366907 C6.27143023,13.366907 5.23065504,14.4079535 5.23065504,15.6918295 C5.23065504,16.9757054 6.27143023,18.0164806 7.5553062,18.0164806 L8.13646899,18.0164806 L8.13646899,19.1788062 L7.5553062,19.1788062 C5.62949225,19.1788062 4.06805814,17.6176434 4.06805814,15.6918295 C4.06805814,13.7660155 5.62949225,12.2045814 7.5553062,12.2045814" id="Fill-10" fill="#404B4D" mask="url(#mask-2)"></path>
            </g>
        </g>
    </g>
</svg>