<svg width="68" height="81" viewBox="0 0 68 81" fill="none" xmlns="http://www.w3.org/2000/svg">
<path fill-rule="evenodd" clip-rule="evenodd" d="M2.60883 6.14035C2.60883 4.69057 3.77631 3.51457 5.21756 3.51457H62.6078C64.049 3.51457 65.2174 4.69057 65.2174 6.14035V37.6488H2.60883V6.14035ZM65.2174 42.9003C65.2174 44.3501 64.049 45.5261 62.6078 45.5261H5.21756C3.77631 45.5261 2.60883 44.3501 2.60883 42.9003V40.2746H65.2174V42.9003ZM42.4656 56.0292H25.3605L28.2951 48.1519H39.531L42.4656 56.0292ZM5.21745 48.1519H25.5097L22.5742 56.0292H19.5655V58.655H48.2606V56.0292H45.2509L42.3163 48.1519H62.6077C65.4893 48.1519 67.826 45.8008 67.826 42.9003V6.14035C67.826 3.2399 65.4893 0.888794 62.6077 0.888794H5.21745C2.33584 0.888794 0 3.2399 0 6.14035V42.9003C0 45.8008 2.33584 48.1519 5.21745 48.1519Z" fill="#0051FF"/>
<path fill-rule="evenodd" clip-rule="evenodd" d="M7.82656 77.0345H41.7383V63.9056H7.82656V77.0345ZM6.52121 61.2798C5.80147 61.2798 5.21773 61.8683 5.21773 62.5927V78.3474C5.21773 79.0727 5.80147 79.6603 6.52121 79.6603H43.0434C43.7631 79.6603 44.3469 79.0727 44.3469 78.3474V62.5927C44.3469 61.8683 43.7631 61.2798 43.0434 61.2798H6.52121Z" fill="#0051FF"/>
<path fill-rule="evenodd" clip-rule="evenodd" d="M10.4352 74.4087H13.043V71.7829H10.4352V74.4087Z" fill="#0051FF"/>
<path fill-rule="evenodd" clip-rule="evenodd" d="M36.5215 74.4087H39.1303V71.7829H36.5215V74.4087Z" fill="#0051FF"/>
<path fill-rule="evenodd" clip-rule="evenodd" d="M10.4352 69.158H13.043V66.5323H10.4352V69.158Z" fill="#0051FF"/>
<path fill-rule="evenodd" clip-rule="evenodd" d="M15.6518 69.158H18.2605V66.5323H15.6518V69.158Z" fill="#0051FF"/>
<path fill-rule="evenodd" clip-rule="evenodd" d="M20.8693 69.158H23.478V66.5323H20.8693V69.158Z" fill="#0051FF"/>
<path fill-rule="evenodd" clip-rule="evenodd" d="M26.0877 69.158H28.6955V66.5323H26.0877V69.158Z" fill="#0051FF"/>
<path fill-rule="evenodd" clip-rule="evenodd" d="M31.3041 69.158H33.9128V66.5323H31.3041V69.158Z" fill="#0051FF"/>
<path fill-rule="evenodd" clip-rule="evenodd" d="M36.5215 69.158H39.1303V66.5323H36.5215V69.158Z" fill="#0051FF"/>
<path fill-rule="evenodd" clip-rule="evenodd" d="M15.6518 74.4087H33.9129V71.7829H15.6518V74.4087Z" fill="#0051FF"/>
<path fill-rule="evenodd" clip-rule="evenodd" d="M59.9994 67.8443V73.0959C59.9994 75.271 58.2481 77.0346 56.0863 77.0346C53.9253 77.0346 52.1741 75.271 52.1741 73.0959V67.8443C52.1802 66.1812 53.2241 64.7021 54.7828 64.1475V67.8443H57.3906V64.1475C58.9493 64.7021 59.9923 66.1812 59.9994 67.8443ZM49.5652 67.8444V73.0959C49.5652 76.7208 52.4848 79.6603 56.0862 79.6603C59.6875 79.6603 62.608 76.7208 62.608 73.0959V67.8444C62.608 64.2195 59.6875 61.2799 56.0862 61.2799C52.4848 61.2799 49.5652 64.2195 49.5652 67.8444Z" fill="#0051FF"/>
<path fill-rule="evenodd" clip-rule="evenodd" d="M26.4693 27.5297L39.5129 14.4017L41.3569 16.2577L28.3141 29.3866L26.4693 27.5297Z" fill="#0051FF"/>
<path fill-rule="evenodd" clip-rule="evenodd" d="M25.1635 20.966L32.9888 13.0895L34.8336 14.9464L27.0083 22.8228L25.1635 20.966Z" fill="#0051FF"/>
<path fill-rule="evenodd" clip-rule="evenodd" d="M32.9901 28.8431L40.8154 20.9667L42.6602 22.8235L34.8349 30.7L32.9901 28.8431Z" fill="#0051FF"/>
</svg>
