<?xml version="1.0" encoding="UTF-8"?>
<svg width="100px" height="100px" viewBox="0 0 100 100" version="1.1" xmlns="http://www.w3.org/2000/svg" xmlns:xlink="http://www.w3.org/1999/xlink">
    <title>Group 11</title>
    <g id="Page-1" stroke="none" stroke-width="1" fill="none" fill-rule="evenodd">
        <g id="Nosotros" transform="translate(-245.000000, -4311.000000)" fill="#404B4D">
            <g id="Group-11" transform="translate(245.000000, 4311.000000)">
                <path d="M47.902,5.905 C49.1153333,6.92166667 50.8853333,6.92166667 52.0986667,5.905 L70.772,23.335 L29.2286667,23.335 L47.902,5.905 Z M93.3336667,90.9783333 L93.3336667,32.3583333 L96.667,29.025 L96.667,94.3116667 L93.3336667,90.9783333 Z M9.02366667,93.335 L90.977,93.335 L94.3103333,96.6683333 L5.69033333,96.6683333 L9.02366667,93.335 Z M6.667,32.3583333 L6.667,90.9783333 L3.33366667,94.3116667 L3.33366667,29.025 L6.667,32.3583333 Z M10.0003333,90.0016667 L90.0003333,90.0016667 L90.0003333,33.335 L10.0003333,33.335 L10.0003333,90.0016667 Z M90.977,30.0016667 L9.02366667,30.0016667 L5.69033333,26.6683333 L94.3103333,26.6683333 L90.977,30.0016667 Z M98.3336667,23.335 L75.657,23.335 L53.167,2.34333333 C52.632,0.593333333 50.7803333,-0.388333333 49.0303333,0.146666667 C47.9786667,0.466666667 47.1553333,1.29 46.8336667,2.34333333 L24.3436667,23.335 L1.667,23.335 C0.747,23.335 0.000333333333,24.08 0.000333333333,25.0016667 L0.000333333333,98.335 C0.000333333333,99.2566667 0.747,100.001667 1.667,100.001667 L98.3336667,100.001667 C99.2536667,100.001667 100.000333,99.2566667 100.000333,98.335 L100.000333,25.0016667 C100.000333,24.08 99.2536667,23.335 98.3336667,23.335 L98.3336667,23.335 Z" id="Fill-1"></path>
                <path d="M16.6666667,83.335 L83.3333333,83.335 L83.3333333,40.0016667 L16.6666667,40.0016667 L16.6666667,83.335 Z M15,86.6683333 L85,86.6683333 C85.92,86.6683333 86.6666667,85.9233333 86.6666667,85.0016667 L86.6666667,38.335 C86.6666667,37.4133333 85.92,36.6683333 85,36.6683333 L15,36.6683333 C14.08,36.6683333 13.3333333,37.4133333 13.3333333,38.335 L13.3333333,85.0016667 C13.3333333,85.9233333 14.08,86.6683333 15,86.6683333 L15,86.6683333 Z" id="Fill-4"></path>
                <path d="M45.3416667,51.5446667 C44.915,50.9413333 44.8866667,50.1396667 45.27,49.5063333 C45.58,48.963 46.1766667,48.6513333 46.8,48.708 C47.535,48.798 48.2416667,48.3846667 48.5233333,47.6996667 C48.8783333,46.8846667 49.825,46.5096667 50.6416667,46.8646667 C51.015,47.028 51.3133333,47.3263333 51.4766667,47.6996667 C51.765,48.3813333 52.465,48.7913333 53.2,48.708 C53.8233333,48.6496667 54.4216667,48.9613333 54.73,49.5063333 C55.1133333,50.1396667 55.085,50.9413333 54.6583333,51.5446667 C54.2566667,52.1196667 54.2566667,52.8846667 54.6583333,53.458 C55.085,54.063 55.1133333,54.863 54.73,55.4963333 C54.425,56.0446667 53.8233333,56.358 53.2,56.2963333 C52.4666667,56.2113333 51.7666667,56.618 51.4766667,57.2946667 C51.1216667,58.1096667 50.1733333,58.4846667 49.3583333,58.1296667 C48.985,57.968 48.685,57.6696667 48.5233333,57.2946667 C48.2616667,56.678 47.6583333,56.2763333 46.9883333,56.2763333 C46.925,56.2763333 46.8633333,56.2796667 46.8,56.2863333 C46.1766667,56.3496667 45.575,56.0346667 45.27,55.488 C44.8866667,54.8546667 44.915,54.0546667 45.3416667,53.4513333 C45.765,52.8663333 45.8,52.103 45.3416667,51.5446667 M42.405,57.2013333 C43.1683333,58.518 44.5,59.4046667 46.0083333,59.6013333 C47.5666667,61.8063333 50.6183333,62.3296667 52.8216667,60.7713333 C53.275,60.4513333 53.6716667,60.0546667 53.9916667,59.6013333 C55.5,59.4046667 56.8316667,58.518 57.595,57.2013333 C58.4583333,55.7796667 58.5816667,54.0296667 57.9283333,52.5013333 C58.5816667,50.973 58.4583333,49.223 57.595,47.803 C56.8333333,46.4896667 55.5066667,45.603 54,45.4013333 C52.4416667,43.1963333 49.3916667,42.673 47.1866667,44.2313333 C46.7333333,44.553 46.3366667,44.948 46.0166667,45.4013333 C44.5083333,45.5996667 43.1766667,46.4863333 42.4133333,47.803 C41.5516667,49.223 41.4266667,50.973 42.08,52.5013333 C41.4233333,54.028 41.545,55.778 42.405,57.2013333" id="Fill-6"></path>
                <polygon id="Fill-7" points="38.3333333 70.0016667 61.6666667 70.0016667 61.6666667 66.6683333 38.3333333 66.6683333"></polygon>
                <polygon id="Fill-8" points="25 78.335 75 78.335 75 75.0016667 25 75.0016667"></polygon>
                <polygon id="Fill-9" points="25 53.335 35 53.335 35 50.0016667 25 50.0016667"></polygon>
                <polygon id="Fill-10" points="65 53.335 75 53.335 75 50.0016667 65 50.0016667"></polygon>
            </g>
        </g>
    </g>
</svg>