<?xml version="1.0" encoding="UTF-8"?>
<svg width="70px" height="79px" viewBox="0 0 70 79" version="1.1" xmlns="http://www.w3.org/2000/svg" xmlns:xlink="http://www.w3.org/1999/xlink">
    <title>Group 3</title>
    <defs>
        <polygon id="path-1" points="4.05092593e-05 4.87853445e-05 69.9873611 4.87853445e-05 69.9873611 78.9764802 4.05092593e-05 78.9764802"></polygon>
    </defs>
    <g id="Page-1" stroke="none" stroke-width="1" fill="none" fill-rule="evenodd">
        <g id="Nosotros" transform="translate(-141.000000, -1372.000000)">
            <g id="Group-3" transform="translate(141.000000, 1372.000000)">
                <mask id="mask-2" fill="white">
                    <use xlink:href="#path-1"></use>
                </mask>
                <g id="Clip-2"></g>
                <path d="M38.6948495,65.9671037 C38.2022569,65.1710895 37.8660301,64.2879122 37.7046412,63.3652187 L60.5803819,63.3652187 C60.6946181,64.2601045 60.9289236,65.1353136 61.2771412,65.9671037 L38.6948495,65.9671037 Z M65.7655671,71.1708738 L42.8898264,71.1708738 C43.0512153,70.2480177 43.3874421,69.3648404 43.8800347,68.5689888 L66.4628125,68.5689888 C66.1144329,69.4006163 65.8799653,70.275988 65.7655671,71.1708738 L65.7655671,71.1708738 Z M43.8800347,76.3746439 C43.3874421,75.5786297 43.0512153,74.6954523 42.8898264,73.7727589 L65.7655671,73.7727589 C65.8798032,74.6676447 66.1141088,75.5428538 66.4623264,76.3746439 L43.8800347,76.3746439 Z M8.88003472,68.5689888 L13.7479514,68.5689888 C12.7028125,71.0651722 12.7028125,73.8782978 13.7479514,76.3746439 L8.87938657,76.3746439 C7.40614583,73.9826985 7.40614583,70.9607716 8.87938657,68.5689888 L8.88003472,68.5689888 Z M3.69484954,58.1614486 L8.56211806,58.1614486 C7.51697917,60.6576321 7.51697917,63.4707577 8.56211806,65.9671037 L3.69420139,65.9671037 C2.22096065,63.5751583 2.22096065,60.5532314 3.69420139,58.1614486 L3.69484954,58.1614486 Z M29.6207755,58.1614486 L35.7843403,58.1614486 C34.7392014,60.6576321 34.7392014,63.4707577 35.7843403,65.9671037 L29.6207755,65.9671037 C28.1473727,63.5753209 28.1473727,60.5532314 29.6207755,58.1614486 L29.6207755,58.1614486 Z M27.2095023,52.9576785 L42.7650579,52.9576785 C44.4124884,52.95963 45.880706,54.0013597 46.431794,55.5595636 L23.5427662,55.5595636 C24.0938542,54.0013597 25.5620718,52.95963 27.2095023,52.9576785 L27.2095023,52.9576785 Z M33.6909838,47.7417121 C34.5564236,47.7417121 35.4205671,47.6982932 36.2835764,47.6116179 L36.2835764,50.3557935 L33.6909838,50.3557935 L33.6909838,47.7417121 Z M16.3010069,6.1224469 L18.1448264,7.97287502 C10.5648958,16.5830005 11.375081,29.7298377 19.9546181,37.3367739 C27.7938079,44.2877097 39.5648264,44.2877097 47.4040162,37.3367739 L49.2476736,39.187202 C40.0974421,47.4119232 25.9819097,47.1146578 17.1918866,38.292804 C8.40186343,29.4709502 8.10533565,15.3054749 16.3010069,6.1224469 L16.3010069,6.1224469 Z M24.6169097,5.96665903 L24.6169097,10.0265754 C24.6169097,10.7450209 25.1973264,11.3275179 25.913206,11.3275179 L30.2972801,11.3275179 L31.5935764,13.929403 L28.5057986,13.929403 C28.0723495,13.929403 27.6677431,14.1466604 27.4272801,14.5086476 L24.8346875,18.4114752 C24.692581,18.625155 24.6169097,18.8762369 24.6169097,19.133173 L24.6169097,21.7350581 L21.7401042,21.7350581 L20.689294,17.516752 C20.545081,16.9375073 20.0265625,16.531288 19.4317245,16.531288 L16.2989005,16.531288 C17.6327894,12.0766982 20.6069792,8.29924897 24.6169097,5.96665903 L24.6169097,5.96665903 Z M34.9872801,30.8416557 L36.1790625,30.8416557 L33.0679514,34.7444833 L29.8020949,34.7444833 L29.8020949,32.1425982 C29.8020949,31.8856621 29.7262616,31.6345802 29.5843171,31.4209004 L27.2095023,27.8459103 L27.2095023,24.3369431 L33.6909838,24.3369431 L33.6909838,29.5407132 C33.6909838,30.2591587 34.2714005,30.8416557 34.9872801,30.8416557 L34.9872801,30.8416557 Z M38.876169,4.28063753 L38.876169,11.3275179 C38.876169,11.5631511 38.9400116,11.7945563 39.0608912,11.9966902 L42.7650579,18.1925916 L42.7650579,23.0360006 C42.7650579,23.4708406 42.9817014,23.8770599 43.3422338,24.1182222 L47.2311227,26.7201072 C47.4440394,26.862723 47.6942245,26.9388282 47.9502431,26.9388282 L51.0830671,26.9388282 C48.221331,36.5789748 38.1144329,42.0656999 28.5088773,39.1937067 C19.8802431,36.6139377 14.4408218,28.0756893 15.7288542,19.133173 L18.4196412,19.133173 L19.4704514,23.3513165 C19.6146644,23.9305612 20.1331829,24.3369431 20.7280208,24.3369431 L24.6169097,24.3369431 L24.6169097,28.2397707 C24.6169097,28.4965442 24.692581,28.7476261 24.8346875,28.9614685 L27.2095023,32.5364586 L27.2095023,36.0454258 C27.2095023,36.7638713 27.789919,37.3463683 28.5057986,37.3463683 L33.6909838,37.3463683 C34.0847338,37.3463683 34.4570949,37.1668382 34.7032292,36.8585149 L39.8884144,30.3538023 C40.3357986,29.7929334 40.245544,28.9741527 39.6866782,28.5251649 C39.4565856,28.3402685 39.1707523,28.2396081 38.876169,28.2397707 L36.2835764,28.2397707 L36.2835764,23.0360006 C36.2835764,22.3173925 35.7031597,21.7350581 34.9872801,21.7350581 L27.2095023,21.7350581 L27.2095023,19.5270334 L29.1994792,16.531288 L33.6909838,16.531288 C34.4068634,16.5311254 34.9872801,15.948791 34.9872801,15.2301829 C34.9872801,15.0283742 34.9402894,14.8290047 34.8503588,14.6484989 L32.2577662,9.44472886 C32.038044,9.00403458 31.5893634,8.72563288 31.0983912,8.72563288 L27.2095023,8.72563288 L27.2095023,4.72360846 C30.9436458,3.29029504 35.0448032,3.13450717 38.876169,4.28063753 L38.876169,4.28063753 Z M51.8391319,21.7350581 C51.8389699,22.6057139 51.7767477,23.4750687 51.6531134,24.3369431 L48.3426968,24.3369431 L45.3576505,22.3398337 L45.3576505,17.8322305 C45.3574884,17.5964347 45.2938079,17.3650295 45.1729282,17.1628956 L41.4687616,10.9669942 L41.4687616,5.28138756 C47.7976042,8.30054991 51.8326505,14.7024881 51.8391319,21.7350581 L51.8391319,21.7350581 Z M16.6578125,68.5689888 L31.8954514,68.5689888 C30.8503125,71.0651722 30.8503125,73.8782978 31.8954514,76.3746439 L16.6578125,76.3746439 C15.1844097,73.9828611 15.1844097,70.9607716 16.6578125,68.5689888 L16.6578125,68.5689888 Z M40.9695255,76.3746439 L34.8059606,76.3746439 C33.3325579,73.9828611 33.3325579,70.9607716 34.8059606,68.5689888 L40.9695255,68.5689888 C39.9243866,71.0651722 39.9243866,73.8782978 40.9695255,76.3746439 L40.9695255,76.3746439 Z M61.2776273,58.1614486 C60.9294097,58.9930761 60.6951042,59.8684478 60.5808681,60.7633337 L37.7046412,60.7633337 C37.8660301,59.8404776 38.2022569,58.9573002 38.6948495,58.1614486 L61.2776273,58.1614486 Z M64.5428356,57.6410716 C64.9723958,57.0662176 64.8563773,56.2508519 64.2835764,55.8197521 C64.0591551,55.6509548 63.7862847,55.5595636 63.5057986,55.5595636 L49.1169097,55.5595636 C48.496794,52.5329208 45.8439236,50.3593711 42.7650579,50.3557935 L38.876169,50.3557935 L38.876169,47.2185706 C43.4266551,46.2971781 47.6444792,44.1590791 51.0838773,41.0299871 L53.5144329,43.4692543 L55.3477199,41.6295589 L52.915706,39.1889908 C53.6009606,38.4303787 54.241169,37.6322504 54.8332523,36.7985089 L52.7210995,35.2899034 C52.2126273,36.0054218 51.6647801,36.6919942 51.0799884,37.3460431 L49.2364931,35.4959402 C56.8117245,26.8814241 55.9942477,13.7352373 47.4106597,6.13285444 C39.5740625,-0.807999137 27.8143866,-0.807836519 19.9779514,6.13317968 L18.134456,4.28291418 C18.786169,3.69586387 19.4702894,3.14605303 20.1834144,2.63608357 L18.6800347,0.51619773 C17.8494329,1.11040323 17.0544792,1.75306883 16.2989005,2.44077957 L13.8668866,4.87853445e-05 L12.0335995,1.83974413 L14.4641551,4.27901135 C5.25996528,14.4798643 5.55746528,30.2967234 15.3584375,40.1331498 C19.5830671,44.3808898 25.1467708,47.0242423 31.0983912,47.6112926 L31.0983912,50.3557935 L27.2095023,50.3557935 C23.6315625,50.3596963 20.7320718,53.2697421 20.7280208,56.8605061 C20.7280208,57.5789516 21.3084375,58.1614486 22.0243171,58.1614486 L26.7102662,58.1614486 C25.6651273,60.6576321 25.6651273,63.4707577 26.7102662,65.9671037 L11.4726273,65.9671037 C9.99922454,63.5753209 9.99922454,60.5532314 11.4726273,58.1614486 L18.1354282,58.1614486 L18.1354282,55.5595636 L3.01202546,55.5595636 C2.6040162,55.5595636 2.21966435,55.7524283 1.97498843,56.079778 C-0.658275463,59.6318389 -0.658275463,64.4967135 1.97498843,68.0486118 C2.21966435,68.3761241 2.6040162,68.5689888 3.01202546,68.5689888 L5.96952546,68.5689888 C4.59399306,71.8437863 5.04688657,75.6044859 7.16017361,78.4561519 C7.40484954,78.7836642 7.78920139,78.9765289 8.19721065,78.9765289 L68.6909838,78.9765289 C69.4068634,78.9765289 69.9873767,78.3940319 69.9873767,77.6755864 C69.9873767,77.394095 69.8963773,77.120084 69.7280208,76.8948583 C67.781794,74.2697189 67.781794,70.6739138 69.7280208,68.0486118 C70.157581,67.4737578 70.0415625,66.6583921 69.4687616,66.2272922 C69.2443403,66.058495 68.9714699,65.9671037 68.6909838,65.9671037 L64.1886227,65.9671037 C62.5946644,63.3813179 62.7349884,60.0809893 64.5428356,57.6410716 L64.5428356,57.6410716 Z" id="Fill-1" fill="#0051FF" mask="url(#mask-2)"></path>
            </g>
        </g>
    </g>
</svg>