<?xml version="1.0" encoding="UTF-8"?>
<svg width="97px" height="98px" viewBox="0 0 97 98" version="1.1" xmlns="http://www.w3.org/2000/svg" xmlns:xlink="http://www.w3.org/1999/xlink">
    <title>pictograma-colegios</title>
    <defs>
        <polygon id="path-1" points="0.872619608 0.803293137 76.2277353 0.803293137 76.2277353 66.5379108 0.872619608 66.5379108"></polygon>
        <polygon id="path-3" points="0 97.1483529 96.1983235 97.1483529 96.1983235 0.950980392 0 0.950980392"></polygon>
    </defs>
    <g id="Page-1" stroke="none" stroke-width="1" fill="none" fill-rule="evenodd">
        <g id="Educación-Continua" transform="translate(-126.000000, -2669.000000)">
            <g id="Group-20" transform="translate(126.000000, 2669.000000)">
                <g id="Group-3" transform="translate(19.970588, 0.148353)">
                    <mask id="mask-2" fill="white">
                        <use xlink:href="#path-1"></use>
                    </mask>
                    <g id="Clip-2"></g>
                    <path d="M74.624002,53.7110873 L71.4182471,53.7110873 L71.4182471,7.21575392 C71.4134922,3.6762049 68.5443843,0.807097059 65.0048353,0.803293137 L7.28603137,0.803293137 C3.74648235,0.807097059 0.87737451,3.6762049 0.872619608,7.21575392 L0.872619608,47.2976755 L4.07932549,47.2976755 L4.07932549,7.21575392 C4.08122745,5.44597941 5.51625686,4.01190098 7.28603137,4.00904804 L65.0048353,4.00904804 C66.7746098,4.01190098 68.2096392,5.44597941 68.2115412,7.21575392 L68.2115412,53.7110873 L46.4293353,53.7110873 C44.553051,53.7167931 42.7547471,54.4614108 41.4252765,55.7842245 L43.6924137,58.0513618 C44.4189627,57.3286167 45.4022765,56.9206461 46.4293353,56.9177931 L73.020649,56.9177931 L73.020649,60.124499 C73.019698,61.8942735 71.5846686,63.3293029 69.8139431,63.3312049 L47.3689039,63.3312049 L47.3689039,66.5379108 L69.8139431,66.5379108 C73.3544431,66.5331559 76.224502,63.664999 76.2283059,60.124499 L76.2283059,55.3144402 C76.2283059,54.4290775 75.5103157,53.7110873 74.624002,53.7110873" id="Fill-1" fill="#0051FF" mask="url(#mask-2)"></path>
                </g>
                <mask id="mask-4" fill="white">
                    <use xlink:href="#path-3"></use>
                </mask>
                <g id="Clip-5"></g>
                <polygon id="Fill-4" fill="#0051FF" mask="url(#mask-4)" points="30.4637059 10.571098 33.6704118 10.571098 33.6704118 7.36439216 30.4637059 7.36439216"></polygon>
                <polygon id="Fill-6" fill="#0051FF" mask="url(#mask-4)" points="36.8761667 10.571098 40.0828725 10.571098 40.0828725 7.36439216 36.8761667 7.36439216"></polygon>
                <polygon id="Fill-7" fill="#0051FF" mask="url(#mask-4)" points="43.2895784 10.571098 46.4962843 10.571098 46.4962843 7.36439216 43.2895784 7.36439216"></polygon>
                <path d="M33.6705069,18.5872922 L49.7021343,18.5872922 C52.3572716,18.5901451 54.5093402,20.7422137 54.5131441,23.397351 L54.5131441,42.6404392 C53.1275657,41.5953118 51.4386245,41.0313804 49.7021343,41.0332824 L33.6705069,41.0332824 L33.6705069,18.5872922 Z M62.5299088,18.5872922 L78.5615363,18.5872922 L78.5615363,41.0332824 L62.5299088,41.0332824 C60.7934186,41.0313804 59.1054284,41.5953118 57.718899,42.6404392 L57.718899,23.397351 C57.7227029,20.7422137 59.8747716,18.5901451 62.5299088,18.5872922 L62.5299088,18.5872922 Z M78.5615363,47.4466941 L57.9946833,47.4466941 C58.6765363,45.5266647 60.4919578,44.2428412 62.5299088,44.2399882 L78.5615363,44.2399882 L78.5615363,47.4466941 Z M30.463801,42.6366353 C30.463801,43.521998 31.1817912,44.2399882 32.0662029,44.2399882 L49.7021343,44.2399882 C51.7400853,44.2428412 53.5555069,45.5266647 54.2373598,47.4466941 L44.8930265,47.4466941 L44.8930265,50.6534 L80.1658402,50.6534 C81.050252,50.6534 81.7682422,49.9354098 81.7682422,49.0500471 L81.7682422,16.9839392 C81.7682422,16.0985765 81.050252,15.3805863 80.1658402,15.3805863 L62.5299088,15.3805863 C60.0041049,15.3805863 57.6276049,16.5712137 56.1164971,18.592998 C54.6044382,16.5712137 52.2279382,15.3805863 49.7021343,15.3805863 L32.0662029,15.3805863 C31.1817912,15.3805863 30.463801,16.0985765 30.463801,16.9839392 L30.463801,42.6366353 Z" id="Fill-8" fill="#0051FF" mask="url(#mask-4)"></path>
                <polygon id="Fill-9" fill="#0051FF" mask="url(#mask-4)" points="36.8761667 25.0003235 51.3063431 25.0003235 51.3063431 21.7936176 36.8761667 21.7936176"></polygon>
                <polygon id="Fill-10" fill="#0051FF" mask="url(#mask-4)" points="36.8761667 31.4137353 51.3063431 31.4137353 51.3063431 28.2070294 36.8761667 28.2070294"></polygon>
                <polygon id="Fill-11" fill="#0051FF" mask="url(#mask-4)" points="60.9255098 25.0003235 75.3556863 25.0003235 75.3556863 21.7936176 60.9255098 21.7936176"></polygon>
                <polygon id="Fill-12" fill="#0051FF" mask="url(#mask-4)" points="60.9255098 31.4137353 75.3556863 31.4137353 75.3556863 28.2070294 60.9255098 28.2070294"></polygon>
                <polygon id="Fill-13" fill="#0051FF" mask="url(#mask-4)" points="36.8761667 37.8271471 51.3063431 37.8271471 51.3063431 34.6204412 36.8761667 34.6204412"></polygon>
                <polygon id="Fill-14" fill="#0051FF" mask="url(#mask-4)" points="60.9255098 37.8271471 75.3556863 37.8271471 75.3556863 34.6204412 60.9255098 34.6204412"></polygon>
                <polygon id="Fill-15" fill="#0051FF" mask="url(#mask-4)" points="49.7020392 10.571098 81.7681471 10.571098 81.7681471 7.36439216 49.7020392 7.36439216"></polygon>
                <path d="M33.6705069,61.8759196 C33.6705069,62.7612824 32.9525167,63.4792725 32.0662029,63.4792725 C31.1817912,63.4792725 30.463801,62.7612824 30.463801,61.8759196 C30.463801,60.9905569 31.1817912,60.2725667 32.0662029,60.2725667 C32.9515657,60.2735176 33.6686049,60.9905569 33.6705069,61.8759196 L33.6705069,61.8759196 Z M32.0662029,50.7893902 L42.7932618,55.3055961 L35.4440853,58.4552431 C33.5506833,56.5875176 30.5027912,56.6084392 28.6360167,58.5018412 C26.7682912,60.3942922 26.7892127,63.4421843 28.6816637,65.3099098 C30.5741147,67.1766843 33.6229578,67.1567137 35.4897324,65.2633118 C36.5110853,64.2286451 37.01035,62.7879098 36.8467814,61.3424196 L46.8995951,57.0344784 L58.397899,61.8759196 L32.0662029,72.962449 L5.73545784,61.8759196 L32.0662029,50.7893902 Z M0.983408824,63.3537431 L9.62116373,66.9912431 L9.62116373,95.5453804 C9.62116373,96.4307431 10.3391539,97.1487333 11.2235657,97.1487333 L38.4805657,97.1487333 L38.4805657,93.9420275 L12.8269186,93.9420275 L12.8269186,68.3406843 L31.4452127,76.1805667 C31.8436735,76.3469882 32.2915853,76.3469882 32.6900461,76.1805667 L51.3064382,68.3406843 L51.3064382,77.908498 L54.5131441,77.908498 L54.5131441,66.9912431 L57.718899,65.640851 L57.718899,77.908498 L60.9256049,77.908498 L60.9256049,64.2914098 L63.150899,63.3537431 C63.9658892,63.0104392 64.3500853,62.0699196 64.0058304,61.2539784 C63.8441637,60.8678804 63.5360461,60.5607137 63.150899,60.3980961 L32.6881441,47.5722235 C32.2906343,47.404851 31.8417716,47.404851 31.4433108,47.5722235 L0.981506863,60.3980961 C0.165565686,60.742351 -0.217679412,61.6819196 0.12657549,62.4978608 C0.288242157,62.8839588 0.595408824,63.1911255 0.981506863,63.3537431 L0.983408824,63.3537431 Z" id="Fill-16" fill="#0051FF" mask="url(#mask-4)"></path>
                <polygon id="Fill-17" fill="#0051FF" mask="url(#mask-4)" points="16.0335294 77.9090686 19.2402353 77.9090686 19.2402353 74.7023627 16.0335294 74.7023627"></polygon>
                <polygon id="Fill-18" fill="#0051FF" mask="url(#mask-4)" points="16.0335294 90.7349412 19.2402353 90.7349412 19.2402353 81.1157745 16.0335294 81.1157745"></polygon>
                <path d="M88.1819392,93.9417422 L76.9584686,93.9417422 L76.9584686,84.3216245 L88.1819392,84.3216245 C90.8380275,84.3216245 92.991998,86.4755951 92.991998,89.1316833 C92.991998,91.7877716 90.8380275,93.9417422 88.1819392,93.9417422 L88.1819392,93.9417422 Z M70.5460078,93.9417422 L73.7517627,93.9417422 L73.7517627,84.3216245 L70.5460078,84.3216245 L70.5460078,93.9417422 Z M43.2899588,89.1316833 C43.2899588,86.4755951 45.4439294,84.3216245 48.1000176,84.3216245 C50.7561059,84.3216245 52.9091255,86.4755951 52.9091255,89.1316833 C52.9091255,91.7877716 50.7561059,93.9417422 48.1000176,93.9417422 C45.4448804,93.9388892 43.2928118,91.7868206 43.2899588,89.1316833 L43.2899588,89.1316833 Z M65.9080765,73.9559382 C66.2028804,74.0272618 66.510998,74.013948 66.7981941,73.9159971 L68.2056451,73.4386049 L70.3025569,77.1074873 L68.8380471,79.6694284 L65.6760373,73.9007814 L65.9080765,73.9559382 Z M67.339302,93.9417422 L54.5086745,93.9417422 C56.6521843,91.0935559 56.6521843,87.1698108 54.5086745,84.3216245 L67.339302,84.3216245 L67.339302,93.9417422 Z M76.0921255,73.4386049 L77.5005275,73.9159971 C77.7858216,74.0129971 78.0958412,74.0272618 78.3887431,73.9559382 L78.6217333,73.9007814 L74.6666059,81.1158696 L71.7052529,81.1158696 L76.0921255,73.4386049 Z M88.1819392,81.1158696 L78.3231255,81.1158696 L83.1740765,72.2669971 C83.6001157,71.4900461 83.3157725,70.5152912 82.5388216,70.0902029 C82.1898118,69.8981049 81.7818412,69.843899 81.3938412,69.9370951 L78.0910863,70.7302127 L75.8705471,69.9770363 C75.143998,69.7316833 74.3442235,70.0340951 73.9638314,70.7007324 L72.1493608,73.8751049 L70.3339392,70.7007324 C69.9535471,70.0340951 69.1537725,69.7316833 68.4281745,69.9770363 L66.2076353,70.7302127 L62.9039294,69.9370951 C62.0432922,69.7307324 61.1779,70.2604284 60.9705863,71.1210657 C60.8773902,71.5090657 60.9315961,71.9170363 61.1236941,72.2669971 L65.9736941,81.1158696 L48.1000176,81.1158696 C43.6722529,81.1158696 40.0832529,84.7048696 40.0832529,89.1316833 C40.0832529,93.559448 43.6722529,97.148448 48.1000176,97.148448 L88.1819392,97.148448 C92.6087529,97.148448 96.1987039,93.559448 96.1987039,89.1316833 C96.1987039,84.7048696 92.6087529,81.1158696 88.1819392,81.1158696 L88.1819392,81.1158696 Z" id="Fill-19" fill="#0051FF" mask="url(#mask-4)"></path>
            </g>
        </g>
    </g>
</svg>