<?xml version="1.0" encoding="UTF-8"?>
<svg width="35px" height="35px" viewBox="0 0 35 35" version="1.1" xmlns="http://www.w3.org/2000/svg" xmlns:xlink="http://www.w3.org/1999/xlink">
    <title>duracion-pictograma</title>
    <defs>
        <polygon id="path-1" points="7.14484265e-05 -0.00116666667 35.000001 -0.00116666667 35.000001 35 7.14484265e-05 35"></polygon>
    </defs>
    <g id="Page-1" stroke="none" stroke-width="1" fill="none" fill-rule="evenodd">
        <g id="Course-Detailed-Page" transform="translate(-278.000000, -605.000000)">
            <g id="Group-10" transform="translate(278.000000, 605.000000)">
                <g id="Group-3" transform="translate(0.000000, 0.001400)">
                    <mask id="mask-2" fill="white">
                        <use xlink:href="#path-1"></use>
                    </mask>
                    <g id="Clip-2"></g>
                    <path d="M24.26375,33.8333917 L22.3545,30.3333917 L24.79225,30.3333917 L26.36725,32.4333917 L27.3005833,31.7333917 L25.5505833,29.4000583 C25.4403333,29.2530583 25.2676667,29.166725 25.0839167,29.166725 L21.7180833,29.166725 L20.9294167,27.7206417 C20.82675,27.5328083 20.63075,27.416725 20.41725,27.416725 L17.2555833,27.416725 L15.09025,23.6250583 C14.9858333,23.4436417 14.79275,23.3328083 14.5839167,23.3333917 L11.66725,23.3333917 L14.29225,19.8333917 L21.5839167,19.8333917 C21.83475,19.8333917 22.0575833,19.6723917 22.1369167,19.4338083 L22.5878333,18.0833917 L23.0183333,18.0833917 L33.3375,33.8333917 L24.26375,33.8333917 Z M1.72491667,33.8333917 L5.51658333,28.5833917 L9.02183333,28.5833917 L11.1801667,31.8238083 L12.1508333,31.1763083 L9.8175,27.6763083 C9.70958333,27.514725 9.52816667,27.4173083 9.33391667,27.416725 L6.35891667,27.416725 L8.46533333,24.5000583 L14.2455833,24.5000583 L16.4109167,28.291725 C16.5153333,28.4725583 16.7084167,28.583975 16.91725,28.5833917 L20.07075,28.5833917 L22.9343333,33.8333917 L1.72491667,33.8333917 Z M16.91725,12.8333917 L16.91725,18.0833917 C16.91725,18.237975 16.9785,18.386725 17.0881667,18.4958083 L17.2590833,18.666725 L15.7505833,18.666725 L15.7505833,11.666725 L19.2505833,11.666725 L19.2505833,18.0833917 C19.2505833,18.237975 19.3118333,18.386725 19.4215,18.4958083 L19.5924167,18.666725 L18.90875,18.666725 L18.0839167,17.8418917 L18.0839167,12.8333917 L16.91725,12.8333917 Z M23.91725,11.666725 L23.91725,17.3250583 L23.8215833,17.179225 C23.7136667,17.0153083 23.5305,16.916725 23.3339167,16.916725 L22.16725,16.916725 C21.9158333,16.916725 21.693,17.0771417 21.6136667,17.315725 L21.1831667,18.6083917 L20.41725,17.8418917 L20.41725,11.349975 C20.7713333,11.5570583 21.1738333,11.6661417 21.5839167,11.666725 L23.91725,11.666725 Z M12.2505833,7.00005833 C11.606,7.00005833 11.0839167,6.47739167 11.0839167,5.83339167 L11.0839167,1.75005833 C11.0839167,1.427475 11.3446667,1.166725 11.6666667,1.16614167 C11.7010833,1.16614167 11.7355,1.16964167 11.7693333,1.175475 C12.0604167,1.24664167 12.2616667,1.51264167 12.2505833,1.81189167 L12.2505833,5.25005833 C12.2505833,5.57205833 12.5119167,5.83339167 12.8339167,5.83339167 L21.0005833,5.83339167 C21.3225833,5.83339167 21.5839167,6.09414167 21.5839167,6.416725 L21.5839167,8.75005833 C21.5839167,9.07205833 21.84525,9.33339167 22.16725,9.33339167 L23.91725,9.33339167 L23.91725,10.5000583 L21.5839167,10.5000583 C20.9393333,10.5000583 20.41725,9.97739167 20.41725,9.33339167 L20.41725,7.00005833 L19.2505833,7.00005833 L19.2505833,10.5000583 L15.7505833,10.5000583 L15.7505833,7.58339167 C15.7505833,7.26080833 15.48925,7.00005833 15.16725,7.00005833 L12.2505833,7.00005833 Z M18.0839167,1.166725 C18.4059167,1.166725 18.66725,1.427475 18.66725,1.75005833 L18.66725,3.50005833 C18.66725,4.14405833 18.1445833,4.666725 17.5005833,4.666725 C16.856,4.666725 16.3339167,4.14405833 16.3339167,3.50005833 L16.3339167,1.75005833 C16.3339167,1.65964167 16.3129167,1.56980833 16.2726667,1.48930833 L16.1110833,1.166725 L18.0839167,1.166725 Z M25.0839167,9.33339167 L25.66725,9.33339167 C25.98925,9.33339167 26.2505833,9.59414167 26.2505833,9.916725 C26.2505833,10.238725 25.98925,10.5000583 25.66725,10.5000583 L25.0839167,10.5000583 L25.0839167,9.33339167 Z M25.0839167,1.39305833 L28.1394167,2.41155833 L25.0839167,3.768975 L25.0839167,1.39305833 Z M25.0839167,19.1065583 L25.0839167,11.666725 L25.66725,11.666725 C26.63325,11.666725 27.41725,10.8833083 27.41725,9.916725 C27.41725,8.95014167 26.63325,8.166725 25.66725,8.166725 L25.0839167,8.166725 L25.0839167,5.044725 L29.9874167,2.86655833 C30.2814167,2.73530833 30.4138333,2.39055833 30.2825833,2.09655833 C30.2166667,1.94664167 30.0900833,1.83230833 29.9349167,1.78039167 L24.6849167,0.0303916667 C24.507,-0.030275 24.3115833,-0.000525 24.1599167,0.109141667 C24.0076667,0.219391667 23.91725,0.395558333 23.91725,0.583391667 L23.91725,8.166725 L22.7505833,8.166725 L22.7505833,6.416725 C22.7505833,5.45014167 21.9665833,4.666725 21.0005833,4.666725 L19.5095833,4.666725 C19.7195833,4.31380833 19.8315833,3.910725 19.8339167,3.50005833 L19.8339167,1.75005833 C19.8339167,0.783475 19.0499167,5.83333333e-05 18.0839167,5.83333333e-05 L15.16725,5.83333333e-05 C14.84525,5.83333333e-05 14.5839167,0.260808333 14.5833333,0.582808333 C14.5833333,0.673225 14.6043333,0.763058333 14.6451667,0.844141667 L15.16725,1.887725 L15.16725,3.50005833 C15.1695833,3.910725 15.2815833,4.31380833 15.4915833,4.666725 L13.41725,4.666725 L13.41725,1.81189167 C13.4283333,0.941558333 12.8140833,0.187891667 11.9589167,0.0233916667 C11.00575,-0.137608333 10.10275,0.504058333 9.94175,1.457225 C9.92541667,1.55405833 9.91725,1.65205833 9.91725,1.75005833 L9.91725,5.83339167 C9.91725,7.121975 10.962,8.166725 12.2505833,8.166725 L14.5839167,8.166725 L14.5839167,18.666725 L14.0005833,18.666725 C13.8168333,18.666725 13.6435833,18.7530583 13.5339167,18.9000583 L10.2089167,23.3333917 L8.16725,23.3333917 C7.97941667,23.3333917 7.80383333,23.4226417 7.69416667,23.5748917 L0.110833333,34.0748917 C-0.0781666667,34.3356417 -0.01925,34.700225 0.2415,34.8898083 C0.34125,34.9615583 0.460833333,35.0000583 0.583916667,35.0000583 L34.41725,35.0000583 C34.73925,35.0000583 35.0005833,34.738725 35.000001,34.4161417 C35.000001,34.302975 34.9673333,34.1915583 34.9049167,34.0970583 L25.0839167,19.1065583 Z" id="Fill-1" fill="#404B4D" mask="url(#mask-2)"></path>
                </g>
                <path d="M1.240575,10.5014583 C1.55674167,9.25779167 2.820825,8.50645833 4.06449167,8.822625 C4.444825,8.91945833 4.79424167,9.11079167 5.08065833,9.37970833 L5.361825,9.639875 L5.711825,9.485875 C5.93349167,9.38670833 6.17440833,9.33479167 6.417075,9.33479167 C7.15849167,9.335375 7.81940833,9.802625 8.067325,10.5014583 L1.240575,10.5014583 Z M9.33374167,11.0847917 C9.33199167,9.47479167 8.027075,8.169875 6.417075,8.168125 C6.13824167,8.168125 5.85999167,8.208375 5.592825,8.288875 C4.054575,7.12804167 1.86590833,7.43370833 0.705075,8.97254167 C0.245408333,9.58095833 -0.001925,10.322375 0.000391974382,11.0847917 L0.000391974382,11.668125 L9.33374167,11.668125 L9.33374167,11.0847917 Z" id="Fill-4" fill="#404B4D"></path>
                <path d="M27.490575,15.168125 C27.7577417,14.1385417 28.6869917,13.4192917 29.7504083,13.418125 C30.2777417,13.4204583 30.7887417,13.603625 31.197075,13.937875 L31.4169917,14.1122917 L31.692325,14.049875 C31.8206583,14.018375 31.9519083,14.002625 32.0837417,14.0014583 C32.8251583,14.0020417 33.486075,14.4692917 33.7339917,15.168125 L27.490575,15.168125 Z M32.0837417,12.8347917 C31.9571583,12.8347917 31.8299917,12.8447083 31.704575,12.8622083 C31.130575,12.464375 30.4486583,12.2514583 29.7504083,12.2514583 C27.8184083,12.2532083 26.2521583,13.818875 26.2504083,15.7514583 L26.2504083,16.3347917 L35.0004083,16.3347917 L35.0004083,15.7514583 C34.9986583,14.1414583 33.6937417,12.8365417 32.0837417,12.8347917 L32.0837417,12.8347917 Z" id="Fill-6" fill="#404B4D"></path>
                <path d="M9.81738333,16.918125 L6.51688333,16.918125 C6.83888333,16.0069583 7.83813333,15.528625 8.7493,15.8500417 C9.24863333,16.0267917 9.64121667,16.419375 9.81738333,16.918125 M5.25046667,17.5014583 L5.25046667,18.0847917 L11.0838,18.0847917 L11.0838,17.5014583 C11.0838,15.8902917 9.77771667,14.5847917 8.16713333,14.5847917 C6.55655,14.5847917 5.25046667,15.8902917 5.25046667,17.5014583" id="Fill-8" fill="#404B4D"></path>
            </g>
        </g>
    </g>
</svg>