<?xml version="1.0" encoding="UTF-8"?>
<svg width="97px" height="97px" viewBox="0 0 97 97" version="1.1" xmlns="http://www.w3.org/2000/svg" xmlns:xlink="http://www.w3.org/1999/xlink">
    <title>pictograma-tkt</title>
    <defs>
        <polygon id="path-1" points="0 96.8815168 96.8815168 96.8815168 96.8815168 0 0 0"></polygon>
    </defs>
    <g id="Page-1" stroke="none" stroke-width="1" fill="none" fill-rule="evenodd">
        <g id="Educación-Continua" transform="translate(-943.000000, -2670.000000)">
            <g id="Group-17" transform="translate(943.000000, 2670.000000)">
                <path d="M3.2296443,87.193483 L28.3956107,87.193483 C29.4300604,87.1908913 30.4228456,87.6016765 31.1519732,88.3353611 C32.4852349,89.6757839 34.3008926,90.4276966 36.1920671,90.4224886 L42.9273826,90.4224886 C44.8192081,90.4276966 46.6342148,89.6757839 47.9681275,88.3353611 C48.697255,87.6016765 49.6893893,87.1908913 50.7238389,87.193483 L77.505604,87.193483 L77.505604,90.4224886 C77.503,92.205596 76.0584161,93.6501799 74.2759597,93.6521329 L6.45863758,93.6521329 C4.67618121,93.6501799 3.23159732,92.205596 3.2296443,90.4224886 L3.2296443,87.193483 Z M6.45863758,96.8811262 L74.2759597,96.8811262 C77.8408725,96.8772201 80.7306913,93.9880523 80.7345973,90.4224886 L80.7345973,85.5789987 C80.7345973,84.6871195 80.0113289,83.963851 79.1194497,83.963851 L75.8904564,83.963851 L75.8904564,54.8996564 L72.6608121,54.8996564 L72.6608121,83.963851 L50.7238389,83.963851 C48.8326644,83.958643 47.0183087,84.7105557 45.684396,86.0516295 C44.9552685,86.7853141 43.9618322,87.1960993 42.9273826,87.1934953 L36.1920671,87.1934953 C35.1576174,87.1960993 34.1654832,86.7853141 33.4350537,86.0516295 C32.1017919,84.7105557 30.2874362,83.958643 28.3956107,83.963851 L8.07313423,83.963851 L8.07313423,33.908596 C8.07508725,32.1261396 9.52032215,30.6809047 11.3027785,30.6789517 L38.7524765,30.6789517 L38.7524765,27.4499584 L11.3027785,27.4499584 C7.73786577,27.4538644 4.84804698,30.3430322 4.84348993,33.908596 L4.84348993,83.963851 L1.61514765,83.963851 C0.72261745,83.963851 0,84.6871195 0,85.5789987 L0,90.4224886 C0.00390604027,93.9880523 2.89307383,96.8772201 6.45863758,96.8811262 L6.45863758,96.8811262 Z" id="Fill-1" fill="#0051FF"></path>
                <mask id="mask-2" fill="white">
                    <use xlink:href="#path-1"></use>
                </mask>
                <g id="Clip-4"></g>
                <polygon id="Fill-3" fill="#0051FF" mask="url(#mask-2)" points="12.9179262 37.1373289 16.1469195 37.1373289 16.1469195 33.9083356 12.9179262 33.9083356"></polygon>
                <polygon id="Fill-5" fill="#0051FF" mask="url(#mask-2)" points="19.3765638 37.1373289 22.6062081 37.1373289 22.6062081 33.9083356 19.3765638 33.9083356"></polygon>
                <polygon id="Fill-6" fill="#0051FF" mask="url(#mask-2)" points="25.8352013 37.1373289 29.0648456 37.1373289 29.0648456 33.9083356 25.8352013 33.9083356"></polygon>
                <path d="M40.3675591,54.8997215 C40.3675591,55.7916007 39.6442906,56.5142181 38.7530624,56.5142181 C37.8605322,56.5142181 37.1379148,55.7916007 37.1379148,54.8997215 C37.1379148,54.0078423 37.8605322,53.2852248 38.7530624,53.2852248 C39.6442906,53.2858758 40.366257,54.0078423 40.3675591,54.8997215 L40.3675591,54.8997215 Z M38.7530624,64.4402248 L16.9456396,54.8997215 L38.7530624,45.3592181 L46.3190624,48.6695872 L41.8316732,51.1622919 C39.7692839,49.4696745 36.7251765,49.7684866 35.0332101,51.8308758 C33.3399416,53.8926141 33.6387537,56.9360705 35.701143,58.6293389 C37.7628812,60.3219564 40.8069886,60.0231443 42.498955,57.961406 C43.4227336,56.8364664 43.7899013,55.3560772 43.4995523,53.9303725 L50.0382638,50.297104 L60.5591832,54.8997215 L38.7530624,64.4402248 Z M53.2848342,77.5052785 L24.2199886,77.5052785 L24.2199886,61.6070436 L38.1053107,67.6822383 C38.518049,67.8632181 38.9874248,67.8632181 39.4001631,67.6822383 L53.2848342,61.6070436 L53.2848342,77.5052785 Z M62.1287604,77.5052785 L62.9731161,75.3940638 L63.8174718,77.5052785 L62.1287604,77.5052785 Z M65.2347134,56.3788087 C66.0517268,56.021406 66.4241027,55.0689832 66.067351,54.2519698 C65.9045993,53.880245 65.6070893,53.5833859 65.2347134,53.4206342 L39.4001631,42.1172047 C38.9874248,41.9368758 38.518049,41.9368758 38.1053107,42.1172047 L12.2701094,53.4206342 C11.453096,53.7780369 11.0807201,54.7298087 11.4381228,55.5468221 C11.6008745,55.918547 11.8983846,56.216057 12.2701094,56.3788087 L20.9909953,60.1943591 L20.9909953,79.1197752 C20.9909953,80.0116544 21.7142638,80.7349228 22.606143,80.7349228 L54.8993309,80.7349228 C55.7912101,80.7349228 56.5144785,80.0116544 56.5144785,79.1197752 L56.5144785,60.1943591 L61.3579685,58.0746812 L61.3579685,70.7354597 L58.2442034,78.520198 C57.9128409,79.3482785 58.3158141,80.2883322 59.1438946,80.6190436 C59.3346396,80.6958624 59.5377537,80.7349228 59.7441228,80.7349228 L66.2027604,80.7349228 C67.0946396,80.7349228 67.817257,80.0116544 67.817257,79.1197752 C67.817257,78.9147081 67.7775456,78.710943 67.7013779,78.520198 L64.5876128,70.7354597 L64.5876128,56.6619966 L65.2347134,56.3788087 Z" id="Fill-7" fill="#0051FF" mask="url(#mask-2)"></path>
                <path d="M93.652198,35.523353 C93.648943,38.1970376 91.4817416,40.3642389 88.808057,40.367494 L79.1197752,40.367494 C78.6920638,40.367494 78.2812785,40.5374067 77.9779094,40.8401248 L71.0459899,47.7720443 L71.0459899,41.9819906 C71.0459899,41.0901114 70.3233725,40.367494 69.4314933,40.367494 L50.0555805,40.367494 C47.381245,40.3642389 45.2146946,38.1970376 45.2114396,35.523353 L45.2114396,8.07365503 C45.2146946,5.39931946 47.381245,3.23276913 50.0555805,3.22951409 L88.808057,3.22951409 C91.4817416,3.23276913 93.648943,5.39931946 93.652198,8.07365503 L93.652198,35.523353 Z M88.808057,-0.000130201342 L50.0555805,-0.000130201342 C45.5987886,0.00507785235 41.9870034,3.61686309 41.9817953,8.07365503 L41.9817953,35.523353 C41.9870034,39.980145 45.5987886,43.5919302 50.0555805,43.5964872 L67.8169966,43.5964872 L67.8169966,51.6702725 C67.8169966,52.5621517 68.5402651,53.2847691 69.4314933,53.2847691 C69.8598557,53.2847691 70.2706409,53.1148564 70.5733591,52.8121383 L79.7883591,43.5964872 L88.808057,43.5964872 C93.264849,43.5919302 96.8766342,39.980145 96.8811913,35.523353 L96.8811913,8.07365503 C96.8766342,3.61686309 93.264849,0.00507785235 88.808057,-0.000130201342 L88.808057,-0.000130201342 Z" id="Fill-8" fill="#0051FF" mask="url(#mask-2)"></path>
                <path d="M70.153655,27.6203268 C69.6992523,27.3931255 69.1641248,27.3931255 68.7097221,27.6203268 L62.5088832,30.7210718 L64.5048698,24.7311591 C64.6988698,24.1504611 64.5478362,23.5111725 64.1155678,23.078253 L60.4119906,19.3759779 L65.394796,19.3759779 C66.0464537,19.3759779 66.6349638,18.9840718 66.8849503,18.3825416 L69.4316886,12.2715416 L71.9777758,18.3818906 C72.2284134,18.9840718 72.8162725,19.3766289 73.4685812,19.3759779 L78.4513866,19.3759779 L74.7491114,23.078253 C74.316843,23.5111725 74.1658094,24.1504611 74.3591584,24.7311591 L76.355796,30.7210718 L70.153655,27.6203268 Z M77.7378832,24.6562933 L83.4901785,18.903998 C84.121004,18.2744745 84.122306,17.251743 83.4914805,16.6209174 C83.1887624,16.3175483 82.7779772,16.1469846 82.3489638,16.1469846 L74.5440443,16.1469846 L70.922494,7.45278993 C70.5794134,6.62926644 69.6341517,6.23996443 68.8106282,6.58304497 C68.4174201,6.74709866 68.1055879,7.05958188 67.9415342,7.45278993 L64.3186819,16.1469846 L56.5144134,16.1469846 C55.6225342,16.1469846 54.8992658,16.869602 54.8992658,17.7614812 C54.8992658,18.1898436 55.0698295,18.6006289 55.3725477,18.903347 L61.124843,24.6556423 L58.2115879,33.3980114 C57.930353,34.2436691 58.3873597,35.1583336 59.2336685,35.4402195 C59.6398966,35.5756289 60.0825812,35.5443805 60.4653732,35.3523336 L69.4316886,30.8695013 L78.397353,35.3523336 C79.1954872,35.7514007 80.1654872,35.4285013 80.5639034,34.6303671 C80.7552993,34.2475752 80.7871987,33.8042396 80.6517893,33.3980114 L77.7378832,24.6562933 Z" id="Fill-9" fill="#0051FF" mask="url(#mask-2)"></path>
                <polygon id="Fill-10" fill="#0051FF" mask="url(#mask-2)" points="55.3724826 9.2153906 57.6562141 6.93165906 62.499704 11.7758 60.2159725 14.0588805"></polygon>
                <polygon id="Fill-11" fill="#0051FF" mask="url(#mask-2)" points="52.7741846 25.9178141 57.6183255 24.3033174 58.639755 27.366955 53.7956141 28.9821027"></polygon>
                <polygon id="Fill-12" fill="#0051FF" mask="url(#mask-2)" points="76.3630221 11.7752792 81.2065121 6.93113826 83.4902436 9.2148698 78.6467537 14.0590107"></polygon>
                <polygon id="Fill-13" fill="#0051FF" mask="url(#mask-2)" points="80.2238826 27.3670201 81.2453121 24.3033826 86.089453 25.9178792 85.0673725 28.9815168"></polygon>
                <polygon id="Fill-14" fill="#0051FF" mask="url(#mask-2)" points="67.8173221 38.7524765 71.0463154 38.7524765 71.0463154 33.9083356 67.8173221 33.9083356"></polygon>
                <polygon id="Fill-15" fill="#0051FF" mask="url(#mask-2)" points="27.449698 74.2759597 30.6793423 74.2759597 30.6793423 67.8173221 27.449698 67.8173221"></polygon>
                <polygon id="Fill-16" fill="#0051FF" mask="url(#mask-2)" points="12.9179262 43.5966174 29.0648456 43.5966174 29.0648456 40.3676242 12.9179262 40.3676242"></polygon>
            </g>
        </g>
    </g>
</svg>