<?xml version="1.0" encoding="UTF-8"?>
<svg width="97px" height="98px" viewBox="0 0 97 98" version="1.1" xmlns="http://www.w3.org/2000/svg" xmlns:xlink="http://www.w3.org/1999/xlink">
    <title>pictograma-flex-english</title>
    <defs>
        <polygon id="path-1" points="0 0.443721111 57.94974 0.443721111 57.94974 63.05 0 63.05"></polygon>
        <polygon id="path-3" points="0.427926272 0.417638889 71.2545833 0.417638889 71.2545833 76.0738667 0.427926272 76.0738667"></polygon>
    </defs>
    <g id="Page-1" stroke="none" stroke-width="1" fill="none" fill-rule="evenodd">
        <g id="Educación-Continua" transform="translate(-524.000000, -860.000000)">
            <g id="Group-9" transform="translate(524.000000, 860.000000)">
                <g id="Group-3" transform="translate(0.000000, 34.071250)">
                    <mask id="mask-2" fill="white">
                        <use xlink:href="#path-1"></use>
                    </mask>
                    <g id="Clip-2"></g>
                    <path d="M0.32204,39.8704489 C0.625434444,40.2756933 1.10289,40.5138822 1.60998444,40.5138822 L8.04862889,40.5138822 L8.04862889,51.7820489 C8.05563444,58.0019044 13.0964011,63.0426711 19.3162567,63.0502156 L56.33954,63.0502156 C57.2287067,63.0502156 57.94974,62.3291822 57.94974,61.4400156 L57.94974,40.5138822 L54.7298789,40.5138822 L54.7298789,59.8303544 L19.3162567,59.8303544 C14.8736567,59.8249656 11.27334,56.2251878 11.2679511,51.7820489 L11.2679511,48.4517156 L11.4786567,48.4517156 C14.7222289,48.4603378 17.8343122,47.1718544 20.1213567,44.8713378 L17.8456289,42.59561 C16.1610622,44.2887989 13.8691678,45.2383211 11.4802733,45.2318544 L11.2679511,45.2318544 L11.2679511,38.9042211 C11.2679511,38.0155933 10.5474567,37.2950989 9.65829,37.2950989 L3.75530111,37.2950989 L9.20724,18.6042767 C11.2512456,11.6736267 16.3868567,6.07780444 23.11704,3.44748778 L21.9551956,0.443721111 C14.2911178,3.43940444 8.44417333,9.81122667 6.11671222,17.7027156 L0.0639122222,38.45371 C-0.0772766667,38.9397878 0.0181066667,39.4646656 0.32204,39.8704489" id="Fill-1" fill="#0051FF" mask="url(#mask-2)"></path>
                </g>
                <path d="M24.5478439,58.4886828 C26.2113939,58.4886828 27.5596939,59.8369828 27.5596939,61.4999939 C27.5596939,63.1635439 26.2113939,64.5118439 24.5478439,64.5118439 C22.8848328,64.5118439 21.5359939,63.1635439 21.5359939,61.4999939 C21.5381494,59.8375217 22.8853717,58.4902994 24.5478439,58.4886828 M18.3166717,61.4999939 C18.3166717,64.9418772 21.1064994,67.7311661 24.5478439,67.7311661 C27.9897272,67.7311661 30.7790161,64.9418772 30.7790161,61.4999939 C30.7790161,58.0586494 27.9897272,55.2688217 24.5478439,55.2688217 C21.1075772,55.2715161 18.3193661,58.0597272 18.3166717,61.4999939" id="Fill-4" fill="#0051FF"></path>
                <g id="Group-8" transform="translate(25.327778, 0.121250)">
                    <mask id="mask-4" fill="white">
                        <use xlink:href="#path-3"></use>
                    </mask>
                    <g id="Clip-7"></g>
                    <path d="M57.1648483,34.2216 C57.0737761,29.3548944 56.5429706,24.5059722 55.5778206,19.7341111 L63.6789372,19.7341111 C66.2424317,24.1519222 67.7076706,29.1199389 67.952865,34.2216 L57.1648483,34.2216 Z M63.6789372,51.9278722 L55.5821317,51.9278722 C56.5467428,47.1570889 57.0764706,42.3081667 57.166465,37.4414611 L67.9512483,37.4414611 C67.7065928,42.5420444 66.2418928,47.5106 63.6789372,51.9278722 L63.6789372,51.9278722 Z M52.321315,63.4363833 C53.3117928,60.7209222 54.1535372,57.9542667 54.843315,55.1477333 L61.5346983,55.1477333 C59.0261706,58.4780667 55.8973817,61.2921444 52.321315,63.4363833 L52.321315,63.4363833 Z M37.4506761,51.9278722 L37.4506761,37.4414611 L53.9482206,37.4414611 C53.8517594,42.3119389 53.2940094,47.1624778 52.2835928,51.9278722 L37.4506761,51.9278722 Z M47.9940372,65.62535 C44.6362206,66.9898167 41.0714706,67.7739 37.4506761,67.9431111 L37.4506761,55.1477333 L51.5399261,55.1477333 C50.6135761,58.7216444 49.4285594,62.2233444 47.9940372,65.62535 L47.9940372,65.62535 Z M37.4506761,19.7341111 L52.2792817,19.7341111 C53.291315,24.5000444 53.8496039,29.3505833 53.9466039,34.2216 L37.4506761,34.2216 L37.4506761,19.7341111 Z M37.4506761,3.71941111 C41.0747039,3.88862222 44.643765,4.67324444 48.0037372,6.04040556 C49.4312539,9.44241111 50.6103428,12.9430333 51.530765,16.5153278 L37.4506761,16.5153278 L37.4506761,3.71941111 Z M61.5346983,16.5153278 L54.8513983,16.5153278 C54.1600039,13.7082556 53.315565,10.9416 52.3229317,8.22667778 C55.8979206,10.3703778 59.0261706,13.1849944 61.5346983,16.5153278 L61.5346983,16.5153278 Z M34.230815,16.5153278 L20.1798261,16.5153278 C21.0856983,12.9419556 22.2545483,9.44133333 23.6761372,6.04040556 C27.0377261,4.67324444 30.6067872,3.88808333 34.230815,3.71941111 L34.230815,16.5153278 Z M34.230815,34.2216 L17.8124872,34.2216 C17.8992483,29.3522 18.4435261,24.5016611 19.4393928,19.7341111 L34.230815,19.7341111 L34.230815,34.2216 Z M34.230815,51.9278722 L19.4830428,51.9278722 C18.4855594,47.1603222 17.9261928,42.3114 17.8124872,37.4414611 L34.230815,37.4414611 L34.230815,51.9278722 Z M34.230815,67.9722111 C32.116215,67.8525778 30.0172428,67.5297833 27.964615,67.0065222 C27.649365,66.9278444 27.3179483,66.9461667 27.0134761,67.0582556 L14.3592872,71.7519778 C17.6432761,62.3995611 17.4293372,62.2384333 16.4183817,61.4705167 C14.0300261,59.6636222 11.9030317,57.5360889 10.0950594,55.1477333 L16.9044594,55.1477333 C17.2008483,56.3742444 17.5193317,57.5975222 17.8701483,58.8164889 L20.9606761,57.9181611 C20.6933872,56.9993556 20.451965,56.0735444 20.2202428,55.1477333 L34.230815,55.1477333 L34.230815,67.9722111 Z M3.69359833,37.4414611 L14.5926261,37.4414611 C14.6971706,42.3076278 15.2295928,47.1554722 16.1828872,51.9278722 L7.95135944,51.9278722 C5.39217611,47.5100611 3.93178722,42.5409667 3.69359833,37.4414611 L3.69359833,37.4414611 Z M8.00255389,19.7341111 L16.1478594,19.7341111 C15.1918706,24.5065111 14.6691483,29.3554333 14.5845428,34.2216 L3.729165,34.2216 C3.97382056,29.1199389 5.43959833,24.1519222 8.00255389,19.7341111 L8.00255389,19.7341111 Z M19.3687983,8.22182778 C18.3799372,10.9372889 17.5435817,13.7061 16.8624261,16.5153278 L10.1467928,16.5153278 C12.6574761,13.1823 15.7894983,10.3660667 19.3687983,8.22182778 L19.3687983,8.22182778 Z M35.841015,0.417633927 C16.2933594,0.4074 0.438170556,16.2458833 0.427926272,35.793 C0.422003889,46.5422167 5.30164278,56.71105 13.6894483,63.4326111 C13.1812761,65.2551333 11.6341261,69.8313778 10.1791261,73.9247778 C9.88112056,74.7622111 10.3186983,75.6826333 11.1566706,75.9806389 C11.329115,76.0420722 11.5117983,76.0738667 11.6955594,76.0738667 C11.886865,76.0738667 12.076015,76.0399167 12.255465,75.9741722 L27.6703817,70.2544056 C46.6047817,74.8387333 65.6706706,63.2046611 70.2544594,44.2697222 C70.7965817,42.0301 71.1182983,39.7430556 71.2136817,37.4414611 L71.2546372,37.4414611 L71.2546372,34.2216 L71.2136817,34.2216 C70.3331372,15.3200722 54.7635594,0.440811111 35.841015,0.417633927 L35.841015,0.417633927 Z" id="Fill-6" fill="#0051FF" mask="url(#mask-4)"></path>
                </g>
            </g>
        </g>
    </g>
</svg>