<svg width="97" height="97" viewBox="0 0 97 97" fill="none" xmlns="http://www.w3.org/2000/svg">
<path fill-rule="evenodd" clip-rule="evenodd" d="M24.4473 25.7859C25.8166 25.7847 26.9258 24.6729 26.9246 23.3036C26.9227 21.9343 25.8109 20.8257 24.4416 20.827C23.0735 20.8282 21.9656 21.938 21.9656 23.3061C21.9668 24.6761 23.0779 25.7853 24.4473 25.7859Z" fill="#0051FF"/>
<path fill-rule="evenodd" clip-rule="evenodd" d="M40.1214 25.7859C41.4907 25.7847 42.5999 24.6729 42.5987 23.3036C42.5968 21.9343 41.4851 20.8257 40.1157 20.827C38.7477 20.8282 37.6397 21.938 37.6397 23.3061C37.641 24.6761 38.7521 25.7853 40.1214 25.7859Z" fill="#0051FF"/>
<path fill-rule="evenodd" clip-rule="evenodd" d="M93.4734 91.862C93.4727 92.752 92.7515 93.4726 91.8615 93.4738H87.0273V82.1922H91.8615C92.7515 82.1935 93.4727 82.9141 93.4734 83.8041V91.862ZM82.3694 77.3618L84.7812 64.5798C85.7064 59.6706 84.6445 54.5951 81.8296 50.4682C81.3282 49.7331 80.3255 49.5429 79.5904 50.0443C79.5898 50.0449 79.5898 50.0449 79.5891 50.0449C76.0379 52.4806 71.8109 53.7366 67.5063 53.6352L64.4143 53.5684C63.627 53.5539 62.9436 54.1082 62.7962 54.8811L59.078 74.5897C58.0835 74.14 57.213 73.4566 56.539 72.5987C56.5283 72.5829 56.517 72.5678 56.5056 72.5527C55.8008 71.6419 55.3398 70.5667 55.1659 69.4286C55.1628 69.4084 55.1596 69.3882 55.1552 69.3681C55.0494 68.628 55.0664 67.8753 55.2062 67.1402L56.7658 58.877C57.3906 55.5254 59.0226 52.4435 61.4438 50.0424C61.4596 50.0273 61.4741 50.0115 61.4892 49.9958C65.4303 46.0925 71.0399 44.3799 76.4889 45.4154C85.6529 47.1444 91.6801 55.9745 89.9524 65.1385L88.3935 73.4011C88.0212 75.4079 86.7615 77.1388 84.9651 78.1088C84.1746 77.6496 83.2827 77.3933 82.3694 77.3618ZM61.7059 77.4928C61.8054 77.329 61.8747 77.1495 61.9106 76.9612L62.097 75.9742C62.5965 76.4724 63.13 76.9347 63.695 77.358H63.0261C62.5826 77.3586 62.1405 77.404 61.7059 77.4928ZM59.1549 78.6026L58.8765 77.9545C59.1769 78.049 59.4818 78.1296 59.7917 78.1963C59.5719 78.3198 59.3596 78.4552 59.1549 78.6026ZM81.6142 63.9827L79.5331 75.0054C74.1848 78.762 66.804 77.4714 63.0475 72.1231C62.9876 72.0381 62.9291 71.9518 62.8711 71.8649L65.7099 56.8204L67.437 56.8576C71.8373 56.9609 76.1803 55.8372 79.9778 53.6113C81.703 56.7764 82.2799 60.4403 81.6129 63.9827H81.6142ZM51.5719 48.3487H52.6937C54.4189 48.3493 56.1271 48.6964 57.7156 49.3697C55.6245 51.9515 54.2091 55.014 53.5975 58.2805L52.6338 63.39L51.5719 60.9108V48.3487ZM41.9021 60.0762L34.6863 55.9525L40.9075 48.3487H41.9021V60.0762ZM32.2317 62.8779L30.213 59.4168L32.2317 58.2628L34.2517 59.4168L32.2317 62.8779ZM22.5626 48.3487H23.5571L29.7784 55.9525L22.5626 60.0762V48.3487ZM32.2846 48.3487C34.0338 48.3499 35.7716 48.0665 37.4288 47.5097L32.2317 53.8613L26.9943 47.4587C28.6956 48.0476 30.4838 48.3487 32.2846 48.3487ZM18.6838 30.7797C18.4155 29.1257 18.2203 25.3024 18.2203 25.0649V21.331C18.3853 21.1477 18.5642 20.967 18.7273 20.7553C20.7486 18.1307 24.4383 11.9573 24.4705 11.8918L40.1045 11.8994C41.6999 15.8487 46.1796 21.1459 46.3452 21.3304V25.0649C46.3452 25.308 46.1455 29.1943 45.8684 30.8566C45.5635 32.7197 45.1082 34.5564 44.5085 36.3471C44.3044 36.9587 44.0537 37.554 43.7602 38.1284C42.7562 33.235 38.7332 29.5653 33.9343 29.5653H30.5519C25.7919 29.5653 21.7954 33.1764 20.7511 38.0106C20.4821 37.4721 20.251 36.9159 20.0595 36.3459C19.4579 34.5508 18.6838 30.7797 18.6838 30.7797ZM12.8928 25.9108C12.8966 24.505 13.7192 23.2307 14.9978 22.6475V25.0649C14.9991 26.4689 15.0766 27.8722 15.2296 29.268C14.7522 29.0873 14.3169 28.807 13.9554 28.4467C13.2764 27.7771 12.8934 26.8644 12.8928 25.9108ZM21.2858 5.84568L22.7011 8.66687L19.713 8.66561C20.0292 7.62381 20.5659 6.66199 21.2858 5.84568ZM18.2209 14.456C18.2209 13.5849 18.3557 12.7182 18.6215 11.888H20.8707C20.3757 12.8335 19.8397 13.76 19.2633 14.6544C18.9307 15.1734 18.5805 15.6805 18.2209 16.1812V14.456ZM27.1902 3.22353V8.66876H26.3078L23.9149 3.90001C24.9051 3.45344 25.9784 3.2229 27.0643 3.22353H27.1902ZM30.4133 8.67065V3.22353H34.156V8.67254L30.4133 8.67065ZM40.6569 3.89309L38.2583 8.6738H37.379V3.22353H37.5245C38.6047 3.2229 39.6717 3.45155 40.6569 3.89309ZM41.8637 8.67569L43.2903 5.83183C44.0191 6.65444 44.5614 7.62507 44.8801 8.67758L41.8637 8.67569ZM45.9515 11.9019C46.2136 12.7283 46.3465 13.5893 46.3458 14.456V16.1888C45.3658 14.8226 44.4827 13.3896 43.7029 11.9L45.9515 11.9019ZM51.5719 25.7219V26.1004C51.5687 27.5277 50.6762 28.8026 49.3358 29.2932C49.4902 27.8892 49.5683 26.4777 49.5689 25.0649V22.6216C50.7871 23.1728 51.57 24.3847 51.5719 25.7219ZM23.8563 38.9006C24.5152 35.4118 27.2671 32.7871 30.5519 32.7871H33.9355C37.2203 32.7871 39.9728 35.4118 40.631 38.9006H40.4112C37.7865 38.9006 35.3099 37.7625 33.4379 35.6952C32.8402 35.0358 31.821 34.9854 31.1616 35.5831C31.1225 35.619 31.0847 35.6562 31.0494 35.6952C29.1768 37.7625 26.7002 38.9006 24.0762 38.9006H23.8563ZM23.9993 42.1237H24.0762C27.0819 42.0991 29.9787 40.9994 32.2437 39.0235C34.5087 41 37.4055 42.0991 40.4112 42.1237H40.5636C40.3237 42.3234 40.0767 42.5155 39.821 42.6994C35.0321 46.1353 28.5262 45.8985 23.9993 42.1237ZM91.8615 78.9692H89.0347C90.3278 77.5841 91.2033 75.8614 91.5598 74.0002L93.1194 65.7363C95.1778 54.8231 87.9998 44.3068 77.0854 42.2484H77.0841C70.9971 41.092 64.7173 42.8153 60.072 46.9157C57.7906 45.7398 55.2604 45.1256 52.6937 45.125H41.9601C44.5784 43.1749 46.5354 40.4678 47.5659 37.3694C48.078 35.8395 48.4931 34.278 48.8093 32.6958C52.2024 32.3613 54.7899 29.5099 54.7949 26.1004V25.7219C54.7905 22.6027 52.6162 19.9075 49.5695 19.243V14.456C49.5714 12.6105 49.1324 10.7914 48.2871 9.14998C47.4198 3.8786 42.8664 0.00804672 37.5245 0.000488281H27.0643C21.7425 0.00552724 17.2005 3.84648 16.3105 9.09266C15.4457 10.748 14.9953 12.5891 14.9978 14.456V19.2613C11.3257 20.0908 9.02163 23.7403 9.85117 27.4124C10.493 30.2506 12.8638 32.3683 15.7562 32.6857C16.073 34.2717 16.4894 35.8357 17.0027 37.3694C18.0357 40.464 19.9889 43.1699 22.6004 45.125H14.5046C6.49774 45.1345 0.00881818 51.6228 0 59.6297V95.0857H3.22305V59.6297C3.2306 54.0251 7.34681 49.2727 12.8928 48.4658V95.0857H16.1165V48.3487H19.3395V62.8533C19.3395 63.7433 20.0607 64.4645 20.9507 64.4645C21.2317 64.4645 21.5069 64.3915 21.7507 64.2523L27.4145 61.0154L30.8397 66.8883C31.2875 67.6574 32.2745 67.9169 33.0436 67.4684C33.283 67.3279 33.4833 67.1283 33.6231 66.8883L37.0477 61.0154L42.7121 64.2523C43.4843 64.6951 44.4688 64.428 44.9116 63.6558C45.0515 63.4114 45.1252 63.1349 45.1252 62.8533V48.3487H48.3482V95.0857H51.5719V69.0947L52.0197 70.1397C52.288 71.6577 52.9034 73.0931 53.8174 74.3346L56.8867 81.4918C56.8817 81.5025 56.876 81.5132 56.8722 81.5239L51.6865 94.4867L54.6797 95.6841L59.8647 82.7213C60.3781 81.4257 61.6322 80.5766 63.0261 80.581H63.9098L59.6978 94.6221L62.7848 95.5486L67.2752 80.581H77.1263C76.7875 81.3111 76.6117 82.1066 76.6117 82.9116C76.6117 83.2807 76.6489 83.6491 76.7213 84.0113L78.9996 95.4012L82.1603 94.7695L79.8827 83.3808C79.8518 83.2265 79.836 83.0697 79.8354 82.9122C79.843 82.0436 80.3273 81.25 81.0951 80.8449C81.4283 80.6692 81.8 80.5785 82.176 80.581C82.7511 80.581 83.3047 80.7927 83.733 81.1756C83.7582 81.197 83.7797 81.2222 83.8036 81.2455V95.0857C83.8036 95.9757 84.5254 96.6969 85.4154 96.6969H91.8615C94.5309 96.6937 96.6939 94.5314 96.6964 91.862V83.8041C96.6939 81.1353 94.5309 78.9723 91.8615 78.9692Z" fill="#0051FF"/>
<path fill-rule="evenodd" clip-rule="evenodd" d="M69.8287 62.1985C70.0787 60.8682 69.2032 59.587 67.8729 59.337C66.542 59.0869 65.2608 59.9624 65.0108 61.2933C64.7607 62.6236 65.6362 63.9048 66.9672 64.1548C67.1158 64.1826 67.2682 64.197 67.42 64.197C68.5985 64.1952 69.6095 63.3568 69.8287 62.1985Z" fill="#0051FF"/>
<path fill-rule="evenodd" clip-rule="evenodd" d="M76.5758 63.4721C76.3282 64.8036 77.2075 66.0835 78.5391 66.3317C79.8656 66.578 81.1417 65.7062 81.3955 64.3816C81.6506 63.0513 80.7789 61.7664 79.4486 61.5113C78.1177 61.2562 76.8328 62.1285 76.5783 63.4588C76.5777 63.4632 76.5764 63.4677 76.5758 63.4721Z" fill="#0051FF"/>
<path fill-rule="evenodd" clip-rule="evenodd" d="M72.0984 68.6873C71.1473 68.5084 70.5225 67.5925 70.7013 66.6414L67.5344 66.0437C67.0242 68.7433 68.8004 71.3453 71.5 71.8549C74.1996 72.3644 76.8016 70.5895 77.3112 67.8892L74.1442 67.2921C73.9641 68.2413 73.0482 68.8661 72.0984 68.6873Z" fill="#0051FF"/>
</svg>
