<?xml version="1.0" encoding="UTF-8"?>
<svg width="70px" height="71px" viewBox="0 0 70 71" version="1.1" xmlns="http://www.w3.org/2000/svg" xmlns:xlink="http://www.w3.org/1999/xlink">
    <title>Group 21</title>
    <defs>
        <polygon id="path-1" points="0 0.339020363 65.0184526 0.339020363 65.0184526 70.3724087 0 70.3724087"></polygon>
        <polygon id="path-3" points="0 70.5470556 69.6632847 70.5470556 69.6632847 0.513667217 0 0.513667217"></polygon>
    </defs>
    <g id="Page-1" stroke="none" stroke-width="1" fill="none" fill-rule="evenodd">
        <g id="Nosotros" transform="translate(-723.000000, -1497.000000)">
            <g id="Group-21" transform="translate(723.000000, 1497.000000)">
                <g id="Group-3" transform="translate(0.000000, 0.174647)">
                    <mask id="mask-2" fill="white">
                        <use xlink:href="#path-1"></use>
                    </mask>
                    <g id="Clip-2"></g>
                    <path d="M62.6967007,54.0314218 C62.6951679,55.3202128 61.6564088,56.3639846 60.374438,56.3655256 L4.64421898,56.3655256 C3.36224818,56.3639846 2.32348905,55.3202128 2.3219562,54.0314218 L2.3219562,49.3621868 L62.6967007,49.3621868 L62.6967007,54.0314218 Z M41.3983066,68.0380994 L23.6198394,68.0380994 L26.4065547,58.7001431 L38.6115912,58.7001431 L41.3983066,68.0380994 Z M62.6967007,47.0275693 L2.3219562,47.0275693 L2.3219562,14.3454926 C2.32348905,13.0567015 3.36224818,12.0124161 4.64421898,12.0108751 L6.96648175,12.0108751 L6.96648175,44.6934654 L9.28823358,44.6934654 L9.28823358,5.0080499 C9.28976642,3.71925885 10.3285255,2.6749734 11.6104964,2.6734324 L53.4081606,2.6734324 C53.9794015,2.67291873 54.5307153,2.88454962 54.9558248,3.26774537 L56.5050219,1.52846817 C55.653781,0.762076683 54.5511533,0.33881443 53.4081606,0.33881443 L11.6104964,0.33881443 C9.04706569,0.3418969 6.9690365,2.4304678 6.96648175,5.0080499 L6.96648175,9.67625757 L4.64421898,9.67625757 C2.08027737,9.67933957 0.00275912409,11.7684241 -0.000306569343,14.3454926 L-0.000306569343,54.0314218 C0.00275912409,56.6090039 2.08027737,58.6970611 4.64421898,58.7001431 L23.9826131,58.7001431 L21.1958978,68.0380994 L18.5767737,68.0380994 L18.5767737,70.3727169 L46.4418832,70.3727169 L46.4418832,68.0380994 L43.8227591,68.0380994 L41.0360438,58.7001431 L60.374438,58.7001431 C62.9383796,58.6970611 65.0158978,56.6090039 65.0184526,54.0314218 L65.0184526,19.0142139 L62.6967007,19.0142139 L62.6967007,47.0275693 Z" id="Fill-1" fill="#0051FF" mask="url(#mask-2)"></path>
                </g>
                <mask id="mask-4" fill="white">
                    <use xlink:href="#path-3"></use>
                </mask>
                <g id="Clip-5"></g>
                <polygon id="Fill-4" fill="#0051FF" mask="url(#mask-4)" points="55.730219 44.8683177 58.0524818 44.8683177 58.0524818 26.1929187 55.730219 26.1929187"></polygon>
                <polygon id="Fill-6" fill="#0051FF" mask="url(#mask-4)" points="11.6108029 7.51649239 13.9325547 7.51649239 13.9325547 5.18238855 11.6108029 5.18238855"></polygon>
                <polygon id="Fill-7" fill="#0051FF" mask="url(#mask-4)" points="16.2548175 7.51649239 18.5765693 7.51649239 18.5765693 5.18238855 16.2548175 5.18238855"></polygon>
                <polygon id="Fill-8" fill="#0051FF" mask="url(#mask-4)" points="20.8988321 7.51649239 23.2205839 7.51649239 23.2205839 5.18238855 20.8988321 5.18238855"></polygon>
                <polygon id="Fill-9" fill="#0051FF" mask="url(#mask-4)" points="11.6108029 12.1857274 46.4421898 12.1857274 46.4421898 9.85110989 11.6108029 9.85110989"></polygon>
                <path d="M66.2379343,9.30888277 L65.0188102,10.5350064 L59.6942117,5.18259402 L60.9133358,3.95698404 C62.3838467,2.47864979 64.7674234,2.47864979 66.2379343,3.95647037 C67.7079343,5.43429096 67.7079343,7.83106219 66.2379343,9.30888277 L66.2379343,9.30888277 Z M33.0977883,39.1395927 L31.241,37.2729261 L31.9772774,34.3116346 L36.0434088,38.3993983 L33.0977883,39.1395927 Z M34.831438,33.8796404 L32.9904891,32.0283838 L58.0525328,6.83352045 L59.8934818,8.68374977 L34.831438,33.8796404 Z M38.3145766,37.3807962 L36.4736277,35.5305669 L61.5356715,10.3346762 L63.3766204,12.1859329 L38.3145766,37.3807962 Z M63.5764015,0.513334361 C61.960781,0.508736012 60.410562,1.1544157 59.2716569,2.30554394 L30.5272044,31.2034342 C30.3785182,31.3523977 30.2727518,31.5398863 30.2216569,31.7448395 L28.8282993,37.3474078 L27.8993942,41.0822822 C27.7440657,41.7079288 28.1221679,42.3417942 28.7445036,42.497949 C28.9289562,42.544179 29.1220949,42.544179 29.3070584,42.497949 L33.0226788,41.564102 L38.5955985,40.1633315 C38.7994672,40.1119648 38.9859635,40.0061493 39.1346496,39.8561585 L67.8801241,10.9603229 C70.2575693,8.57074298 70.2575693,4.69615116 67.8801241,2.30554394 C66.7386642,1.15852504 65.1904891,0.513334361 63.5764015,0.513334361 L63.5764015,0.513334361 Z" id="Fill-10" fill="#0051FF" mask="url(#mask-4)"></path>
                <path d="M13.9325547,23.8583012 L23.2210949,23.8583012 L23.2210949,16.8544487 L13.9325547,16.8544487 L13.9325547,23.8583012 Z M25.5433577,15.6873968 C25.5433577,15.0427445 25.0232117,14.5203449 24.3819708,14.5203449 L12.7716788,14.5203449 C12.130438,14.5203449 11.6108029,15.0427445 11.6108029,15.6873968 L11.6108029,25.0253531 C11.6108029,25.6700055 12.130438,26.1929187 12.7716788,26.1929187 L24.3819708,26.1929187 C25.0232117,26.1929187 25.5433577,25.6700055 25.5433577,25.0253531 L25.5433577,15.6873968 Z" id="Fill-11" fill="#0051FF" mask="url(#mask-4)"></path>
                <path d="M13.9325547,37.8644652 L23.2210949,37.8644652 L23.2210949,30.8611264 L13.9325547,30.8611264 L13.9325547,37.8644652 Z M25.5433577,29.6940745 C25.5433577,29.0494221 25.0232117,28.5265089 24.3819708,28.5265089 L12.7716788,28.5265089 C12.130438,28.5265089 11.6108029,29.0494221 11.6108029,29.6940745 L11.6108029,39.0320308 C11.6108029,39.6766832 12.130438,40.1990827 12.7716788,40.1990827 L24.3819708,40.1990827 C25.0232117,40.1990827 25.5433577,39.6766832 25.5433577,39.0320308 L25.5433577,29.6940745 Z" id="Fill-12" fill="#0051FF" mask="url(#mask-4)"></path>
                <polygon id="Fill-13" fill="#0051FF" mask="url(#mask-4)" points="34.8313869 16.8544487 41.7976642 16.8544487 41.7976642 14.5203449 34.8313869 14.5203449"></polygon>
                <polygon id="Fill-14" fill="#0051FF" mask="url(#mask-4)" points="27.8651095 21.5236837 37.1536496 21.5236837 37.1536496 19.1890662 27.8651095 19.1890662"></polygon>
                <polygon id="Fill-15" fill="#0051FF" mask="url(#mask-4)" points="27.8651095 26.1929187 32.5091241 26.1929187 32.5091241 23.8583012 27.8651095 23.8583012"></polygon>
                <polygon id="Fill-16" fill="#0051FF" mask="url(#mask-4)" points="27.8651095 16.8544487 32.5091241 16.8544487 32.5091241 14.5203449 27.8651095 14.5203449"></polygon>
                <polygon id="Fill-17" fill="#0051FF" mask="url(#mask-4)" points="11.6108029 44.8683177 25.5433577 44.8683177 25.5433577 42.5337002 11.6108029 42.5337002"></polygon>
                <polygon id="Fill-18" fill="#0051FF" mask="url(#mask-4)" points="35.9927737 44.8683177 53.4084672 44.8683177 53.4084672 42.5337002 35.9927737 42.5337002"></polygon>
                <polygon id="Fill-19" fill="#0051FF" mask="url(#mask-4)" points="44.119927 40.1990827 53.4084672 40.1990827 53.4084672 37.8644652 44.119927 37.8644652"></polygon>
                <polygon id="Fill-20" fill="#0051FF" mask="url(#mask-4)" points="48.7639416 35.5303614 53.4079562 35.5303614 53.4079562 33.1957439 48.7639416 33.1957439"></polygon>
            </g>
        </g>
    </g>
</svg>