<svg width="68" height="69" viewBox="0 0 68 69" fill="none" xmlns="http://www.w3.org/2000/svg">
<path d="M5.65332 28.7824H28.2697V26.5205H5.65332V28.7824Z" fill="#0051FF"/>
<path d="M28.2697 34.4362H5.65332V32.1748H28.2697V34.4362Z" fill="#0051FF"/>
<path d="M5.65332 40.0903H28.2697V37.8284H5.65332V40.0903Z" fill="#0051FF"/>
<path d="M28.2697 45.7441H5.65332V43.4827H28.2697V45.7441Z" fill="#0051FF"/>
<path d="M5.65332 51.3989H28.2697V49.137H5.65332V51.3989Z" fill="#0051FF"/>
<path d="M28.2697 57.0524H5.65332V54.791H28.2697V57.0524Z" fill="#0051FF"/>
<path d="M30.5322 28.7824H44.1021V26.5205H30.5322V28.7824Z" fill="#0051FF"/>
<path d="M44.1021 34.4362H30.5322V32.1748H44.1021V34.4362Z" fill="#0051FF"/>
<path d="M30.5322 40.0903H44.1021V37.8284H30.5322V40.0903Z" fill="#0051FF"/>
<path d="M44.1021 45.7441H30.5322V43.4827H44.1021V45.7441Z" fill="#0051FF"/>
<path d="M30.5322 51.3989H33.9251V49.137H30.5322V51.3989Z" fill="#0051FF"/>
<path d="M33.9251 57.0524H30.5322V54.791H33.9251V57.0524Z" fill="#0051FF"/>
<path fill-rule="evenodd" clip-rule="evenodd" d="M6.78524 23.1279H19.2246C19.8489 23.1279 20.3551 22.6218 20.3551 21.9975V7.29672C20.3551 6.67194 19.8489 6.16577 19.2246 6.16577H6.78524C6.16046 6.16577 5.6543 6.67194 5.6543 7.29672V21.9975C5.6543 22.6218 6.16046 23.1279 6.78524 23.1279ZM18.0938 8.42715V16.9461C17.6786 16.5728 17.2195 16.2523 16.7261 15.992C17.4705 13.9367 16.4076 11.6671 14.3522 10.9232C12.2969 10.1793 10.0273 11.2423 9.28343 13.2976C8.96797 14.1683 8.96797 15.1213 9.28343 15.992C8.79005 16.2523 8.33092 16.5728 7.91628 16.9461V8.42715H18.0938ZM11.7549 15.788C11.1214 15.0978 11.1679 14.0246 11.8587 13.3917C12.5489 12.7587 13.6221 12.8052 14.255 13.4955C14.8496 14.1443 14.8496 15.1397 14.255 15.788C13.8337 16.2492 13.8654 16.9645 14.3266 17.3858C14.4575 17.5054 14.6145 17.5928 14.7857 17.6409C16.338 18.0775 17.542 19.3056 17.948 20.8666H8.06191C8.46787 19.3056 9.67142 18.0775 11.2237 17.6409C11.8254 17.4732 12.1777 16.85 12.01 16.2482C11.9625 16.0769 11.8745 15.9194 11.7549 15.788Z" fill="#0051FF"/>
<path d="M29.4014 10.6889H22.6162V8.427H29.4014V10.6889Z" fill="#0051FF"/>
<path d="M22.6162 16.3424H44.1017V14.0811H22.6162V16.3424Z" fill="#0051FF"/>
<path d="M33.9247 21.9972H22.6162V19.7354H33.9247V21.9972Z" fill="#0051FF"/>
<path d="M36.1865 21.9972H44.1021V19.7354H36.1865V21.9972Z" fill="#0051FF"/>
<path d="M44.1024 8.42691H39.5791V6.16553H44.1024V8.42691Z" fill="#0051FF"/>
<path d="M35.0547 8.42691H37.3166V6.16553H35.0547V8.42691Z" fill="#0051FF"/>
<path fill-rule="evenodd" clip-rule="evenodd" d="M49.4253 52.1984L38.1173 63.5068C37.9051 63.7185 37.6173 63.8376 37.3172 63.8376H1.13095C0.506165 63.8376 0 63.3314 0 62.7072V1.64215C0 1.01788 0.506165 0.511719 1.13095 0.511719H48.6261C49.2499 0.511719 49.7566 1.01788 49.7566 1.64215V51.3987C49.7566 51.6983 49.6374 51.9862 49.4253 52.1984ZM47.4953 2.7731H2.26198V61.5762H36.1868V51.3987C36.1868 50.7739 36.693 50.2678 37.3173 50.2678H47.4953V2.7731ZM38.4485 52.5292V59.9769L45.8963 52.5292H38.4485Z" fill="#0051FF"/>
<path d="M5.65332 66.0994H52.0176V6.16528H54.2795V67.2298C54.2795 67.8546 53.7733 68.3607 53.1485 68.3607H5.65332V66.0994Z" fill="#0051FF"/>
<path fill-rule="evenodd" clip-rule="evenodd" d="M63.3262 14.0811H64.4566C66.3294 14.0837 67.8474 15.6012 67.8495 17.474V31.0438H65.5876V17.474C65.5871 16.8497 65.0814 16.3435 64.4566 16.343H63.3262V53.6602C63.3257 53.8356 63.2848 54.0089 63.206 54.1654L60.9452 58.6891C60.8352 58.9075 60.6578 59.0849 60.4395 59.1943C59.8807 59.474 59.2017 59.2475 58.922 58.6891L56.6607 54.1654C56.5819 54.0089 56.5415 53.8356 56.541 53.6602V12.9507C56.541 11.0769 58.0595 9.55786 59.9333 9.55786C61.8077 9.55786 63.3262 11.0769 63.3262 12.9507V14.0811ZM61.0639 31.0438H58.802V16.343H61.0639V31.0438ZM60.3654 54.7912H59.5018L59.9333 55.6547L60.3654 54.7912ZM61.0639 35.5671H58.802V33.3057H61.0639V35.5671ZM61.0639 52.5293H58.802V37.8285H61.0639V52.5293ZM61.0644 12.9507C61.0634 12.3264 60.5577 11.8203 59.9334 11.8198C59.3097 11.8203 58.804 12.3264 58.803 12.9507V14.0811H61.0644V12.9507Z" fill="#0051FF"/>
</svg>
