<svg width="68" height="68" viewBox="0 0 68 68" fill="none" xmlns="http://www.w3.org/2000/svg">
<path d="M36.2275 7.92498H62.2656V5.6607H36.2275V7.92498Z" fill="#0051FF"/>
<path d="M53.2091 12.4535H36.2275V10.1893H53.2091V12.4535Z" fill="#0051FF"/>
<path d="M36.2275 16.9821H62.2656V14.7178H36.2275V16.9821Z" fill="#0051FF"/>
<path d="M62.2655 12.4535H55.4727V10.1893H62.2655V12.4535Z" fill="#0051FF"/>
<path d="M52.6425 29.4348C51.7049 29.4348 50.9443 30.1947 50.9443 31.133C50.9443 32.0706 51.7049 32.8306 52.6425 32.8306C53.5802 32.8306 54.3408 32.0706 54.3408 31.133C54.3396 30.1953 53.5796 29.4359 52.6425 29.4348Z" fill="#0051FF"/>
<path fill-rule="evenodd" clip-rule="evenodd" d="M67.9258 5.66106V16.9819C67.9223 19.9088 65.6896 22.3515 62.7745 22.6181C63.1831 23.3112 63.3985 24.1016 63.3973 24.9063V43.0199C65.8972 43.0223 67.9229 45.0486 67.9258 47.5485V60.0014H65.6616V47.5485C65.6604 46.2982 64.6469 45.2854 63.3973 45.2842H49.8122C48.5619 45.2854 47.5497 46.2982 47.5479 47.5485V54.2602L48.6687 62.1052L46.4271 62.4261L45.4339 55.4728H42.1121L43.6266 63.8028C43.8216 64.8795 44.7593 65.6621 45.8539 65.6615H47.5479C48.7982 65.6603 49.8104 64.6475 49.8122 63.3972V52.0764H52.0765V65.6615H61.133V52.0764H63.3973V65.6615H65.6616V62.2657H67.9258V66.7942C67.9258 67.4194 67.4188 67.9258 66.7937 67.9258H50.9443C50.4988 67.9264 50.0943 67.6651 49.9112 67.2589C49.2008 67.6961 48.3824 67.927 47.5479 67.9258H45.8539C43.6654 67.927 41.7894 66.3612 41.3987 64.2079L39.8108 55.4728H39.6235C37.7488 55.4705 36.2289 53.9518 36.2271 52.0764V49.8121C36.2271 49.187 36.7335 48.6806 37.3592 48.6806H44.1515C44.5374 48.6806 44.9204 48.7462 45.2836 48.8751V47.5485C45.2866 45.2442 47.0164 43.3086 49.3058 43.0479C48.896 42.3536 48.6795 41.5621 48.68 40.7556V36.2277H46.4158C46.2625 36.2277 46.111 36.196 45.9696 36.1358C45.3952 35.8894 45.1291 35.2238 45.3749 34.6493L48.7713 26.7244C48.9497 26.3086 49.3589 26.0384 49.8122 26.0384H57.7366C58.1153 26.0384 58.4685 26.2275 58.6784 26.5424L61.133 30.224V24.9063C61.1318 23.656 60.119 22.6432 58.8687 22.642H47.5479V26.0384C47.5479 26.2955 47.4602 26.5454 47.2998 26.7464C46.9091 27.2338 46.1963 27.3131 45.7083 26.9224L40.3584 22.642H36.2271C33.1021 22.6384 30.57 20.1063 30.5664 16.9819V5.66106C30.57 2.53544 33.1021 0.00333862 36.2271 -0.000240326H62.2651C65.3902 0.00333862 67.9223 2.53544 67.9258 5.66106ZM62.2648 20.3777C64.1396 20.3753 65.6588 18.8566 65.6612 16.9819V5.66106C65.6588 3.78569 64.1396 2.26643 62.2648 2.26404H36.2268C34.352 2.26643 32.8327 3.78569 32.8303 5.66106V16.9819C32.8327 18.8566 34.352 20.3753 36.2268 20.3777H40.7553C41.0124 20.3777 41.2617 20.4654 41.4628 20.6258L45.2833 23.6828V21.5098C45.2833 20.8847 45.7903 20.3777 46.4154 20.3777H62.2648ZM58.8686 38.4919V43.0199H61.1329V34.3058L57.1311 28.3027H50.5583L48.1324 33.9634H54.3407C56.84 33.9664 58.8662 35.9914 58.8686 38.4919ZM50.9447 40.7556C50.9459 42.0053 51.9587 43.0181 53.209 43.0199H56.6048V38.4919C56.6036 37.2417 55.5908 36.2288 54.3411 36.2277H50.9447V38.3673C51.9128 38.1442 52.4025 37.6974 52.4085 37.6908L54.0095 39.2918C53.8824 39.4189 52.8636 40.3769 50.9447 40.6685V40.7556ZM39.6239 53.2086H45.284V52.0764C45.2834 51.4519 44.777 50.9449 44.1518 50.9449H38.4917V52.0764C38.4923 52.7015 38.9987 53.208 39.6239 53.2086Z" fill="#0051FF"/>
<path d="M5.6607 20.3779H15.85V23.7737C15.8494 24.3994 16.3564 24.9064 16.9815 24.9064C17.2386 24.9064 17.4885 24.8187 17.6895 24.6583L23.0395 20.3779H27.1708V18.1136H22.6422C22.3851 18.1136 22.1358 18.2013 21.9348 18.3617L18.1136 21.4182V19.2457C18.1136 18.6206 17.6066 18.1136 16.9815 18.1136H5.6607C3.78593 18.1112 2.26667 16.5919 2.26428 14.7178V7.92492C2.26667 6.04955 3.78593 4.53089 5.6607 4.5285H27.1708C27.4571 4.5285 27.7428 4.56369 28.0202 4.63527L28.5851 2.44317C28.1228 2.32387 27.6474 2.26422 27.1708 2.26422H5.6607C2.53568 2.2678 0.00357895 4.79991 0 7.92492V14.7178C0.00357895 17.8422 2.53568 20.3743 5.6607 20.3779Z" fill="#0051FF"/>
<path d="M21.5088 10.1893H28.3016V7.92498H21.5088V10.1893Z" fill="#0051FF"/>
<path d="M28.3018 14.7178H5.66016V12.4535H28.3018V14.7178Z" fill="#0051FF"/>
<path d="M5.66016 10.1893H19.2452V7.92498H5.66016V10.1893Z" fill="#0051FF"/>
<path d="M13.585 34.529C13.585 33.5907 14.3455 32.8308 15.2832 32.8308C16.2209 32.832 16.9802 33.5913 16.9814 34.529C16.9814 35.4673 16.2209 36.2272 15.2832 36.2272C14.3455 36.2272 13.585 35.4673 13.585 34.529Z" fill="#0051FF"/>
<path d="M37.3593 30.0008C37.3593 30.939 36.5988 31.699 35.6611 31.699C34.724 31.6978 33.9641 30.9384 33.9629 30.0008C33.9629 29.0631 34.7234 28.3026 35.6611 28.3026C36.5988 28.3026 37.3593 29.0631 37.3593 30.0008Z" fill="#0051FF"/>
<path fill-rule="evenodd" clip-rule="evenodd" d="M37.3594 56.6048H35.0952V65.6619H26.038V52.0762H23.7738V65.6619H21.5095V47.5488C21.5113 46.2986 22.5241 45.2857 23.7738 45.2845H37.3594C38.3186 45.2851 39.174 45.8894 39.4949 46.7937L41.6291 46.0385C40.9873 44.2305 39.2778 43.022 37.3594 43.0203H35.0952V40.756H36.2273C38.1021 40.7536 39.6213 39.2343 39.6231 37.359V35.0953H41.8874C42.5125 35.0953 43.0195 34.5883 43.0195 33.9631C43.0195 33.8098 42.9885 33.6577 42.9283 33.517L39.5319 25.5926C39.3535 25.1762 38.9443 24.9066 38.4916 24.9066H31.6987C31.4416 24.9066 31.1917 24.9937 30.9913 25.1548L27.1702 28.2112V24.9066C27.1714 23.6564 28.1848 22.6435 29.4345 22.6423V20.378C26.9346 20.381 24.9089 22.4061 24.9059 24.9066V43.0203H23.7738C21.4701 43.0232 19.5351 44.7531 19.2744 47.0424C18.5801 46.6314 17.788 46.4155 16.9815 46.4161H15.8494V44.1518H18.1136C19.9884 44.1494 21.5077 42.6302 21.5095 40.756V38.9605L23.4427 37.0279C23.8847 36.5859 23.8847 35.8683 23.4427 35.4263L21.5095 33.4943V32.831C21.5107 28.4557 17.9645 24.9072 13.5893 24.9066C11.5147 24.906 9.52298 25.719 8.0413 27.1703H6.79225C4.09133 27.1703 1.64691 28.7707 0.56607 31.2455L2.64067 32.1516C3.30754 30.6252 4.75881 29.5879 6.41884 29.4513C5.91958 30.5077 5.6607 31.6625 5.6607 32.831V40.756C5.65772 42.8198 4.26193 44.6218 2.26428 45.1402V33.9631H0V46.4161C0 47.0412 0.506421 47.5488 1.13214 47.5488C1.57414 47.5482 2.01495 47.5047 2.44919 47.4194C0.916211 48.474 0.000596491 50.2157 0 52.0762V66.794C0 67.4191 0.506421 67.9262 1.13214 67.9262H39.6231V65.6619H37.3594V56.6048ZM16.9816 62.8715L17.9694 62.2124C18.4365 61.9004 18.8653 61.5336 19.2453 61.119V65.6619H16.9816V62.8715ZM2.26393 65.6613H5.66035V60.0012H2.26393V65.6613ZM5.66035 48.6804H6.32305L7.72063 50.0779C8.75614 51.1212 10.1656 51.7082 11.6354 51.7088C12.0708 51.7082 12.5045 51.6575 12.928 51.5572C14.0566 51.2942 15.0742 50.6822 15.8371 49.8089L18.2141 53.9689C19.4274 56.1592 18.7772 58.9126 16.7121 60.3286L15.2203 61.3236C14.906 61.5342 14.7169 61.8873 14.7169 62.2655V65.6619H7.92403V55.4732H5.66035V57.7375H2.26393V52.0762C2.26631 50.202 3.78498 48.6828 5.66035 48.6804ZM5.66109 45.813V46.4161C5.36284 46.4161 5.06579 46.4399 4.77172 46.4865C5.08607 46.2866 5.38312 46.0612 5.66109 45.813ZM9.40064 29.0862C10.6759 27.6135 12.6312 26.9174 14.5501 27.2538C12.8179 30.6944 10.0896 32.9903 7.92432 34.3819V32.831C7.93685 31.4436 8.46295 30.1092 9.40064 29.0862ZM19.2451 32.831V33.9631C19.2451 34.2632 19.365 34.5513 19.5774 34.7636L21.0412 36.2274L19.5774 37.6906C19.3913 37.8773 19.2756 38.1225 19.2505 38.3843C18.6964 38.2161 18.2031 37.891 17.8303 37.4484L16.132 38.9462C17.1628 40.1147 18.3063 40.5585 19.2451 40.6975V40.756C19.2445 41.3805 18.7381 41.8869 18.1136 41.8875H14.7172C14.092 41.8875 13.585 42.3945 13.585 43.0203V47.5488C13.585 47.8966 13.7455 48.2246 14.0199 48.4388C12.7535 49.7463 10.6664 49.7803 9.35829 48.5133C9.35117 48.5059 9.34385 48.4988 9.33643 48.4917L9.32131 48.477L7.92432 47.0788V37.0231C10.4719 35.5927 14.3736 32.7761 16.6683 28.0811C18.2806 29.122 19.2517 30.9121 19.2451 32.831ZM19.2456 50.9446L17.9178 48.8856C18.7254 49.2524 19.2444 50.0577 19.2456 50.9446ZM27.1699 31.1107L32.0957 27.1703H37.7445L40.1704 32.831H38.4913C37.8655 32.831 37.3591 33.3374 37.3591 33.9631V34.9718C36.3946 34.7499 35.9085 34.3061 35.8822 34.2817L35.8953 34.2948L34.2938 35.8958C34.4214 36.0228 35.4402 36.9802 37.3591 37.2725V37.359C37.3579 37.9841 36.8521 38.4905 36.227 38.4917H33.9627C33.337 38.4917 32.8306 38.9987 32.8306 39.6232V43.0203H27.1699V31.1107Z" fill="#0051FF"/>
</svg>
