<svg width="68" height="68" viewBox="0 0 68 68" fill="none" xmlns="http://www.w3.org/2000/svg">
<path fill-rule="evenodd" clip-rule="evenodd" d="M61.065 7.91598C61.065 8.54025 60.5583 9.04692 59.9341 9.04692H52.018V62.1958C52.0144 65.3167 49.4851 67.846 46.3642 67.8495H5.65423C2.53287 67.846 0.00357895 65.3167 0 62.1958V59.9339C0 59.3097 0.506165 58.803 1.13095 58.803H41.8405C42.4652 58.803 42.9714 59.3097 42.9714 59.9339V62.1958C42.9714 64.0692 44.4904 65.5882 46.3642 65.5882C48.2376 65.5882 49.7561 64.0692 49.7561 62.1958V5.65408C49.7545 4.43008 50.1528 3.23931 50.8896 2.26175H14.7008C12.828 2.26379 11.3105 3.78178 11.3079 5.65408V56.5416H9.04656V5.65408C9.05014 2.53324 11.5794 0.00343388 14.7008 0.000366211H55.4103C58.5316 0.00343388 61.0614 2.53324 61.065 5.65408V7.91598ZM58.8035 5.65408C58.8009 3.78178 57.2835 2.26379 55.4107 2.26175C53.5384 2.26379 52.0204 3.78178 52.0183 5.65408V6.78503H58.8035V5.65408ZM2.26198 62.1958C2.26402 64.0681 3.7815 65.5856 5.65431 65.5882H41.8436C41.1063 64.6106 40.7086 63.4198 40.7096 62.1958V61.0649H2.26198V62.1958Z" fill="#0051FF"/>
<path fill-rule="evenodd" clip-rule="evenodd" d="M24.889 14.7764C24.1584 14.2226 23.7351 13.3555 23.7473 12.4393C23.7351 11.5231 24.1584 10.6555 24.889 10.1017C24.8588 9.8594 24.8588 9.6145 24.889 9.37215C25.0905 7.74782 26.5701 6.59489 28.1944 6.79633C28.3447 6.60358 28.5181 6.43026 28.7108 6.27994C30.0013 5.27426 31.8634 5.50535 32.8696 6.79633C33.1114 6.76617 33.3568 6.76617 33.5986 6.79633C35.223 6.99778 36.3764 8.47741 36.175 10.1017C36.3677 10.2521 36.541 10.4254 36.6909 10.6176C37.697 11.9086 37.466 13.7707 36.175 14.7764C36.2051 15.0187 36.2051 15.2641 36.175 15.506C35.9735 17.1303 34.4934 18.2837 32.8696 18.0823C32.7198 18.275 32.5459 18.4484 32.3537 18.5982C31.0622 19.6044 29.2006 19.3733 28.1944 18.0823C27.9521 18.1124 27.7077 18.1124 27.4653 18.0823C25.841 17.8808 24.6876 16.4012 24.889 14.7764ZM27.3867 10.4305C27.5237 11.0394 27.1418 11.6448 26.5328 11.7828C26.2798 11.8401 26.0819 12.038 26.0246 12.291C25.9428 12.6535 26.1704 13.014 26.5328 13.0958C26.6586 13.1244 26.7783 13.174 26.8872 13.2425C27.4153 13.5759 27.5728 14.2748 27.2394 14.8024C27.1009 15.0218 27.1009 15.302 27.2399 15.5213C27.4383 15.8357 27.854 15.9293 28.1679 15.7309C28.2768 15.6619 28.397 15.6123 28.5227 15.5842C29.1317 15.4461 29.737 15.8286 29.8746 16.4375C29.9318 16.6906 30.1297 16.8885 30.3828 16.9457C30.7453 17.0275 31.1057 16.8 31.1875 16.4375C31.2162 16.3117 31.2658 16.1921 31.3348 16.0832C31.6681 15.555 32.366 15.3971 32.8942 15.7309C33.114 15.8695 33.3937 15.8695 33.6135 15.7309C33.9275 15.532 34.021 15.1169 33.8232 14.8024C33.7541 14.6935 33.7046 14.5734 33.6764 14.4481C33.5384 13.8387 33.9203 13.2333 34.5298 13.0958C34.7828 13.0385 34.9807 12.8407 35.038 12.5876C35.1198 12.2251 34.8923 11.8646 34.5298 11.7828C34.4045 11.7542 34.2838 11.7046 34.1749 11.6356C33.6473 11.3027 33.4893 10.6038 33.8232 10.0762C33.9612 9.85633 33.9612 9.57717 33.8232 9.35732C33.6243 9.0434 33.2091 8.94932 32.8942 9.1477C32.7858 9.21621 32.6656 9.26632 32.5399 9.29444C31.9309 9.43197 31.3256 9.05005 31.1875 8.4406C31.1303 8.18752 30.9324 7.99017 30.6793 7.9329C30.3168 7.8511 29.9564 8.07811 29.8746 8.4406C29.8459 8.56638 29.7969 8.68653 29.7278 8.79543C29.3945 9.32358 28.6956 9.48105 28.1679 9.1477C27.9486 9.00914 27.6689 9.00914 27.4496 9.1477C27.1351 9.34608 27.0411 9.76175 27.2394 10.0762C27.3085 10.1851 27.3581 10.3047 27.3867 10.4305Z" fill="#0051FF"/>
<path d="M24.8779 28.2707H36.1864V26.0093H24.8779V28.2707Z" fill="#0051FF"/>
<path d="M39.5784 23.7473H28.2705V21.486H39.5784V23.7473Z" fill="#0051FF"/>
<path d="M21.4863 23.7473H26.0096V21.486H21.4863V23.7473Z" fill="#0051FF"/>
<path d="M46.3648 33.9248H19.2246V31.6635H46.3648V33.9248Z" fill="#0051FF"/>
<path d="M14.7002 33.9248H16.9621V31.6635H14.7002V33.9248Z" fill="#0051FF"/>
<path d="M37.3182 38.4482H19.2246V36.1868H37.3182V38.4482Z" fill="#0051FF"/>
<path d="M39.5791 38.4482H46.3643V36.1868H39.5791V38.4482Z" fill="#0051FF"/>
<path d="M46.3648 42.9713H19.2246V40.71H46.3648V42.9713Z" fill="#0051FF"/>
<path d="M14.7002 42.9713H16.9621V40.71H14.7002V42.9713Z" fill="#0051FF"/>
<path d="M26.0098 47.4952H19.2246V45.2333H26.0098V47.4952Z" fill="#0051FF"/>
<path d="M28.2705 47.4952H46.3641V45.2333H28.2705V47.4952Z" fill="#0051FF"/>
<path d="M37.3182 52.018H19.2246V49.7566H37.3182V52.018Z" fill="#0051FF"/>
<path d="M14.7002 52.018H16.9621V49.7566H14.7002V52.018Z" fill="#0051FF"/>
<path d="M46.3648 56.5412H19.2246V54.2798H46.3648V56.5412Z" fill="#0051FF"/>
<path d="M39.5791 52.018H46.3643V49.7566H39.5791V52.018Z" fill="#0051FF"/>
<path fill-rule="evenodd" clip-rule="evenodd" d="M63.3264 18.0936H64.4568C66.3301 18.0951 67.8471 19.6131 67.8496 21.4859V33.9248H65.5878V21.4859C65.5872 20.8617 65.0811 20.3555 64.4568 20.355H63.3264V54.2798C63.3264 54.4552 63.285 54.6285 63.2057 54.785H63.2067L59.8139 61.5702C59.705 61.7885 59.5276 61.9664 59.3087 62.0753C58.7499 62.355 58.0709 62.1285 57.7913 61.5702L54.3994 54.785C54.3202 54.6285 54.2798 54.4552 54.2793 54.2798V18.0936C54.2793 15.595 56.3045 13.5698 58.8031 13.5698C61.3012 13.5698 63.3264 15.595 63.3264 18.0936ZM61.0651 20.355V29.4016H56.5413V20.355H61.0651ZM57.2401 55.4108L58.8031 58.5362L60.366 55.4108H57.2401ZM61.0651 31.6634V33.9248H56.5413V31.6634H61.0651ZM61.0651 36.1867V53.1489H56.5413V36.1867H61.0651ZM61.0651 18.0936C61.0635 16.8451 60.0512 15.8332 58.8032 15.8317C57.5541 15.8332 56.5428 16.8451 56.5413 18.0936H61.0651Z" fill="#0051FF"/>
</svg>
