<svg width="68" height="68" viewBox="0 0 68 68" fill="none" xmlns="http://www.w3.org/2000/svg">
<path d="M51.9131 6.77103H54.1703V4.51381H51.9131V6.77103Z" fill="#0051FF"/>
<path d="M63.1978 6.77103H56.4268V4.51381H63.1978V6.77103Z" fill="#0051FF"/>
<path d="M51.9131 11.2855H63.1986V9.02826H51.9131V11.2855Z" fill="#0051FF"/>
<path fill-rule="evenodd" clip-rule="evenodd" d="M51.9119 -0.000320435H63.1974C65.6895 0.00282771 67.7087 2.02205 67.7118 4.51412V11.2852C67.7087 13.7772 65.6895 15.7965 63.1974 15.799H60.1538L53.6661 20.1239C53.4809 20.2473 53.2637 20.3134 53.0408 20.3134C52.4175 20.3134 51.9119 19.8085 51.9119 19.1851V15.799C49.4198 15.7965 47.4006 13.7772 47.3975 11.2852V4.51412C47.4006 2.02205 49.4198 0.00282771 51.9119 -0.000320435ZM63.1971 13.5424C64.4431 13.5411 65.4524 12.5312 65.4543 11.2852V4.51412C65.4524 3.26809 64.4431 2.25816 63.1971 2.2569H51.9116C50.6661 2.25816 49.6562 3.26809 49.6543 4.51412V11.2852C49.6562 12.5312 50.6661 13.5411 51.9116 13.5424H53.0399C53.6632 13.5424 54.1688 14.0473 54.1688 14.6707V17.0765L59.1857 13.7319C59.3708 13.6079 59.5886 13.5424 59.8115 13.5424H63.1971Z" fill="#0051FF"/>
<path d="M14.6716 9.02794C14.6735 7.78191 15.6828 6.77198 16.9289 6.77135H45.1432V4.51413H16.9289C14.4374 4.51665 12.4176 6.53587 12.415 9.02794V13.5424H14.6716V9.02794Z" fill="#0051FF"/>
<path d="M66.5829 47.3985H48.5264V49.6557H65.4546V65.455H55.2974V67.7122H66.5829C67.2062 67.7122 67.7118 67.2066 67.7118 66.5839V48.5267C67.7118 47.904 67.2062 47.3985 66.5829 47.3985Z" fill="#0051FF"/>
<path d="M19.185 11.2855H16.9277V9.02826H19.185V11.2855Z" fill="#0051FF"/>
<path d="M21.4424 11.2855H23.6996V9.02826H21.4424V11.2855Z" fill="#0051FF"/>
<path d="M28.2126 11.2855H25.9561V9.02826H28.2126V11.2855Z" fill="#0051FF"/>
<path d="M13.5418 29.3418C13.5418 28.0951 12.5312 27.0846 11.2846 27.0846C10.0385 27.0846 9.02734 28.0951 9.02734 29.3418C9.02734 30.5885 10.0385 31.599 11.2846 31.599C12.5312 31.599 13.5418 30.5885 13.5418 29.3418Z" fill="#0051FF"/>
<path d="M36.1137 20.3131H33.8564V18.0565H36.1137V20.3131Z" fill="#0051FF"/>
<path d="M38.3701 20.3131H40.6273V18.0565H38.3701V20.3131Z" fill="#0051FF"/>
<path fill-rule="evenodd" clip-rule="evenodd" d="M1.12893 67.7125H20.3144C20.9371 67.7125 21.4427 67.2069 21.4427 66.5835V60.9408L25.1669 65.9067C26.0213 67.0406 27.358 67.7087 28.7779 67.7125H46.2702C47.6743 67.7106 48.9317 66.8442 49.4328 65.5333L51.0781 67.3429L52.7479 65.8248L49.6557 62.4229V60.9408C49.6539 59.072 48.1396 57.5572 46.2702 57.5553H45.2307L42.1524 54.1698H46.2702C46.8942 54.1698 47.3985 53.6642 47.3985 53.0415C47.3985 52.9061 47.3746 52.7713 47.3267 52.6448L44.5129 45.1415H57.5557C60.0478 45.1383 62.067 43.1191 62.0701 40.627V19.185H59.8129V36.1132H48.5274V31.5988C48.5237 28.484 46.0001 25.9598 42.8847 25.956H42.7632C44.285 24.4733 45.1426 22.4383 45.1419 20.3133V13.5423C45.1388 11.0502 43.1196 9.03096 40.6275 9.02782H33.8564C31.3644 9.03096 29.3445 11.0502 29.3426 13.5423V20.3133C29.3414 22.4383 30.1996 24.4733 31.7207 25.956H31.5999C28.4844 25.9598 25.9603 28.484 25.9571 31.5988V36.1132H22.571V38.3705H59.8129V40.627C59.811 41.8731 58.8017 42.883 57.5557 42.8843H25.9571V45.1415H29.971L28.2855 49.6352L30.3985 50.4279L32.3819 45.1415H42.1027L44.6414 51.9125H31.5999V54.1698H40.6275L39.7926 54.9291L42.1801 57.5553H32.1904L23.7169 45.3153C22.6623 43.7928 20.9283 42.8843 19.0771 42.8843H18.0571V33.856H21.4427C22.066 33.856 22.571 33.351 22.571 32.7277C22.571 32.6062 22.5514 32.4859 22.513 32.3707L20.1223 25.1961C19.7087 23.9582 19.0671 22.8085 18.2309 21.8068C19.562 20.533 20.3144 18.7701 20.3144 16.9278C20.3144 16.3044 19.8088 15.7995 19.1854 15.7995H6.77167C3.03293 15.8033 0.00440741 18.8324 0 22.5705V66.5835C0 67.2069 0.505593 67.7125 1.12893 67.7125ZM2.25688 22.5705C2.26002 20.0784 4.27925 18.0592 6.77132 18.0567H17.9132C17.3963 20.0482 15.6 21.4397 13.5424 21.4422H6.77132C6.43636 21.4422 6.11839 21.5908 5.90432 21.8483L2.25688 26.2243V22.5705ZM17.9806 25.9094L19.8758 31.5988H16.9279C16.3052 31.5988 15.7996 32.1044 15.7996 32.7271V37.2283C14.779 37.1402 13.8779 36.5263 13.4227 35.6083L11.4041 36.6182C12.2397 38.3018 13.9214 39.4005 15.7996 39.4899V42.8843H2.25688V29.7508L7.29958 23.6988H13.5424C14.5114 23.6994 15.469 23.491 16.3505 23.0868C17.0771 23.9091 17.6318 24.8687 17.9806 25.9094ZM21.861 46.6003L30.6714 59.3264C30.8824 59.6305 31.2287 59.8125 31.5995 59.8125H39.4982V65.4552H28.7775C28.0673 65.4533 27.3992 65.1196 26.9717 64.5523L21.2163 56.8784C20.8429 56.3797 20.1352 56.2784 19.6365 56.6524C19.3519 56.8658 19.1851 57.2001 19.1851 57.5553V65.4552H2.25688V45.1415H19.0768C20.1881 45.1415 21.2282 45.6867 21.861 46.6003ZM47.3991 60.9408V64.3263C47.3985 64.9496 46.8941 65.4546 46.2708 65.4552H41.7564V59.8125H46.2708C46.8941 59.8131 47.3985 60.3181 47.3991 60.9408ZM42.8852 36.1132V31.5988H40.628V36.1132H33.857V31.5988H31.6004V36.1132H28.2142V31.5988C28.2167 29.73 29.731 28.2152 31.6004 28.2133H42.8852C44.754 28.2152 46.2689 29.73 46.2707 31.5988V36.1132H42.8852ZM31.6 20.3133V17.5316L34.1979 15.7995H40.2858L42.8849 17.5316V20.3133C42.8849 23.43 40.3588 25.956 37.2421 25.956C34.1255 25.956 31.6 23.43 31.6 20.3133ZM31.6 13.5423C31.6007 12.2962 32.6106 11.2869 33.8566 11.285H40.6277C41.8737 11.2869 42.883 12.2962 42.8849 13.5423V14.8191L41.2541 13.7318C41.0684 13.6084 40.8506 13.5423 40.6277 13.5423H33.8566C33.6337 13.5423 33.4159 13.6084 33.2301 13.7318L31.6 14.8191V13.5423Z" fill="#0051FF"/>
</svg>
