<?xml version="1.0" encoding="UTF-8"?>
<svg width="69px" height="69px" viewBox="0 0 69 69" version="1.1" xmlns="http://www.w3.org/2000/svg" xmlns:xlink="http://www.w3.org/1999/xlink">
    <title>Group 23</title>
    <defs>
        <polygon id="path-1" points="0.00700694721 1.13147541 13.779354 1.13147541 13.779354 17.2053115 0.00700694721 17.2053115"></polygon>
        <polygon id="path-3" points="0.00700694721 1.1397377 13.779354 1.1397377 13.779354 18.3606557 0.00700694721 18.3606557"></polygon>
    </defs>
    <g id="Page-1" stroke="none" stroke-width="1" fill="none" fill-rule="evenodd">
        <g id="Nosotros" transform="translate(-723.000000, -1606.000000)">
            <g id="Group-23" transform="translate(723.000000, 1605.000000)">
                <path d="M44.7620164,48.2050984 L27.5489016,48.2050984 C26.2820164,48.2050984 25.2538197,47.1769016 25.2538197,45.9100164 L25.2538197,44.708541 C27.2470984,44.7142787 29.1692295,43.9626393 30.6289016,42.6050984 L29.0590656,40.9308361 C28.020541,41.881 26.663,42.4100164 25.2538197,42.4111639 L25.2538197,40.1723115 C25.2538197,39.5377213 24.7397213,39.0247705 24.1062787,39.0247705 L21.0492295,39.0247705 L23.8607049,29.4691967 C25.5407049,23.8198525 31.4838197,20.6021475 37.1331639,22.2821475 C41.6487377,23.625918 44.7493934,27.7708361 44.7620164,32.4837869 L44.7620164,48.2050984 Z M34.0898852,19.5165738 C28.3475902,19.5406721 23.2972623,23.318377 21.6539836,28.8196885 L18.4110328,39.8487049 C18.2320164,40.4569016 18.5808689,41.0949344 19.187918,41.2728033 C19.2946393,41.3037869 19.4048033,41.3198525 19.5161148,41.3198525 L22.9587377,41.3198525 L22.9587377,45.9100164 C22.9587377,48.4449344 25.0139836,50.5001803 27.5489016,50.5001803 L45.9095574,50.5001803 C46.543,50.5001803 47.0570984,49.986082 47.0570984,49.3526393 L47.0570984,32.4837869 C47.0525082,25.3242787 41.2493934,19.5211639 34.0898852,19.5165738 L34.0898852,19.5165738 Z" id="Fill-1" fill="#0051FF"></path>
                <path d="M29.8439836,34.4346066 C29.210541,34.4346066 28.6964426,33.9205082 28.6964426,33.2870656 C28.6964426,32.6524754 29.210541,32.1395246 29.8439836,32.1395246 C30.4774262,32.1395246 30.9915246,32.6524754 30.9915246,33.2870656 C30.9915246,33.9205082 30.4774262,34.4346066 29.8439836,34.4346066 M29.8439836,29.8444426 C27.9425082,29.8444426 26.4013607,31.3855902 26.4013607,33.2870656 C26.4013607,35.1873934 27.9425082,36.7296885 29.8439836,36.7296885 C31.745459,36.7296885 33.2866066,35.1873934 33.2866066,33.2870656 C33.2866066,31.3855902 31.745459,29.8444426 29.8439836,29.8444426" id="Fill-3" fill="#0051FF"></path>
                <path d="M10.3357869,16.0739508 C7.80086885,16.0739508 5.74562295,14.0187049 5.74562295,11.4837869 C5.74562295,8.94886885 7.80086885,6.89362295 10.3357869,6.89362295 C12.8707049,6.89362295 14.9259508,8.94886885 14.9259508,11.4837869 C14.9259508,14.0187049 12.8707049,16.0739508 10.3357869,16.0739508 M10.3357869,4.59852528 C6.53398361,4.5905082 3.44480328,7.66591803 3.43560726,11.4688689 C3.42759016,15.2718197 6.50414754,18.361 10.3070984,18.3690328 C11.7449672,18.3713279 13.1484098,17.9237869 14.3189016,17.0895246 L20.9998852,23.7705082 L22.6225082,22.1478852 L15.9415246,15.4669016 C18.1482459,12.3765738 17.4321803,8.08362295 14.3418525,5.87804918 C13.1736557,5.04378689 11.7725082,4.5962459 10.3357869,4.59852528" id="Fill-5" fill="#0051FF"></path>
                <path d="M6.89316393,30.9919836 C9.42808197,30.9919836 11.4833279,33.0472295 11.4833279,35.5821475 C11.4833279,38.1170656 9.42808197,40.1723115 6.89316393,40.1723115 C4.3582459,40.1723115 2.303,38.1170656 2.303,35.5821475 C2.303,33.0472295 4.3582459,30.9919836 6.89316393,30.9919836 M6.89316393,42.4673971 C10.2497213,42.4605082 13.1128361,40.0380492 13.6751311,36.7296885 L17.2210328,36.7296885 L17.2210328,34.4346066 L13.6751311,34.4346066 C13.0416885,30.6844426 9.4877541,28.1587049 5.7387377,28.7932951 C1.98972131,29.4267377 -0.536016393,32.9795246 0.0974262295,36.7296885 C0.65742623,40.0449344 3.53086885,42.4708361 6.89316393,42.4673971" id="Fill-7" fill="#0051FF"></path>
                <path d="M58.5325082,6.89362295 C61.0674262,6.89362295 63.1226721,8.94886885 63.1226721,11.4837869 C63.1226721,14.0187049 61.0674262,16.0739508 58.5325082,16.0739508 C55.9975902,16.0739508 53.9423443,14.0187049 53.9423443,11.4837869 C53.9423443,8.94886885 55.9975902,6.89362295 58.5325082,6.89362295 L58.5325082,6.89362295 Z M47.8684098,23.7705082 L54.5493934,17.0895246 C57.6569344,19.3019836 61.970541,18.5744426 64.1818525,15.4669016 C66.3943115,12.3593607 65.6667705,8.0457541 62.5592295,5.83444262 C59.4516885,3.62198361 55.138082,4.34837705 52.9267705,7.45706557 C51.220377,9.85427869 51.220377,13.0696885 52.9267705,15.4669016 L46.2457869,22.1478852 L47.8684098,23.7705082 Z" id="Fill-9" fill="#0051FF"></path>
                <path d="M61.9751311,40.1723115 C59.4402131,40.1723115 57.3849672,38.1170656 57.3849672,35.5821475 C57.3849672,33.0472295 59.4402131,30.9919836 61.9751311,30.9919836 C64.5100492,30.9919836 66.5652951,33.0472295 66.5652951,35.5821475 C66.5652951,38.1170656 64.5100492,40.1723115 61.9751311,40.1723115 M61.9751311,28.696898 C58.6197213,28.7026393 55.755459,31.1250984 55.1931639,34.4346066 L49.3521803,34.4346066 L49.3521803,36.7296885 L55.1931639,36.7296885 C55.8277541,40.4798525 59.380541,43.0044426 63.1295574,42.371 C66.8785738,41.7364098 69.405459,38.1847705 68.7708689,34.4346066 C68.2108689,31.1182131 65.3374262,28.693459 61.9751311,28.696898" id="Fill-11" fill="#0051FF"></path>
                <g id="Group-15" transform="translate(27.540984, 0.016180)">
                    <mask id="mask-2" fill="white">
                        <use xlink:href="#path-1"></use>
                    </mask>
                    <g id="Clip-14"></g>
                    <path d="M2.303,8.02498361 C2.303,5.49006557 4.3582459,3.43481967 6.89316393,3.43481967 C9.42808197,3.43481967 11.4833279,5.49006557 11.4833279,8.02498361 C11.4833279,10.5599016 9.42808197,12.6151475 6.89316393,12.6151475 C4.3582459,12.6151475 2.303,10.5599016 2.303,8.02498361 L2.303,8.02498361 Z M8.04070492,17.2053115 L8.04070492,14.8069508 C11.7908689,14.1723607 14.315459,10.6195738 13.6820164,6.87055738 C13.0485738,3.12154098 9.49578689,0.594655738 5.74562295,1.22809836 C1.99660656,1.86268852 -0.529131148,5.41662295 0.104311475,9.16563934 C0.593163934,12.0551475 2.85611475,14.3180984 5.74562295,14.8069508 L5.74562295,17.2053115 L8.04070492,17.2053115 Z" id="Fill-13" fill="#0051FF" mask="url(#mask-2)"></path>
                </g>
                <path d="M58.5325082,64.2706721 C55.9975902,64.2706721 53.9423443,62.2154262 53.9423443,59.6805082 C53.9423443,57.1455902 55.9975902,55.0903443 58.5325082,55.0903443 C61.0674262,55.0903443 63.1226721,57.1455902 63.1226721,59.6805082 C63.1226721,62.2154262 61.0674262,64.2706721 58.5325082,64.2706721 M65.4177738,59.6805082 C65.4246393,55.8832951 62.3526721,52.801 58.5566066,52.7941148 C57.1198852,52.7918197 55.7187377,53.2405082 54.5493934,54.0747705 L50.1634918,49.6888689 L48.5408689,51.3114918 L52.9267705,55.6962459 C50.7189016,58.793459 51.4384098,63.0932951 54.535623,65.3000164 C57.630541,67.5078852 61.930377,66.788377 64.1382459,63.6923115 C64.9736557,62.5218197 65.4211967,61.118377 65.4177738,59.6805082" id="Fill-16" fill="#0051FF"></path>
                <path d="M10.3357869,64.2706721 C7.80086885,64.2706721 5.74562295,62.2154262 5.74562295,59.6805082 C5.74562295,57.1455902 7.80086885,55.0903443 10.3357869,55.0903443 C12.8707049,55.0903443 14.9259508,57.1455902 14.9259508,59.6805082 C14.9259508,62.2154262 12.8707049,64.2706721 10.3357869,64.2706721 L10.3357869,64.2706721 Z M19.8523443,48.5413279 L14.3189016,54.0747705 C11.2113607,51.8623115 6.89890164,52.5887049 4.68644262,55.6962459 C2.47513115,58.8049344 3.20152459,63.1173934 6.30906557,65.3298525 C9.4177541,67.5411639 13.7302131,66.8147705 15.9415246,63.7072295 C17.647918,61.3100164 17.647918,58.0946066 15.9415246,55.6962459 L21.4749672,50.1639508 L19.8523443,48.5413279 Z" id="Fill-18" fill="#0051FF"></path>
                <g id="Group-22" transform="translate(27.540984, 51.655525)">
                    <mask id="mask-4" fill="white">
                        <use xlink:href="#path-3"></use>
                    </mask>
                    <g id="Clip-21"></g>
                    <path d="M11.4833279,11.4676066 C11.4833279,14.0025246 9.42808197,16.0577705 6.89316393,16.0577705 C4.3582459,16.0577705 2.303,14.0025246 2.303,11.4676066 C2.303,8.93268852 4.3582459,6.87744262 6.89316393,6.87744262 C9.42808197,6.87744262 11.4833279,8.93268852 11.4833279,11.4676066 L11.4833279,11.4676066 Z M5.74562295,1.1397377 L5.74562295,4.68563934 C1.99660656,5.31908197 -0.529131148,8.87186885 0.104311475,12.6220328 C0.737754098,16.3710492 4.29168852,18.8979344 8.04070492,18.2633443 C11.7908689,17.6299016 14.315459,14.0759672 13.6820164,10.3269508 C13.1943115,7.43744262 10.9302131,5.1744918 8.04070492,4.68563934 L8.04070492,1.1397377 L5.74562295,1.1397377 Z" id="Fill-20" fill="#0051FF" mask="url(#mask-4)"></path>
                </g>
            </g>
        </g>
    </g>
</svg>