<?xml version="1.0" encoding="UTF-8"?>
<svg width="39px" height="37px" viewBox="0 0 39 37" version="1.1" xmlns="http://www.w3.org/2000/svg" xmlns:xlink="http://www.w3.org/1999/xlink">
    <title>Fill 1</title>
    <g id="Symbols" stroke="none" stroke-width="1" fill="none" fill-rule="evenodd">
        <g id="Levels" fill="#666E85">
            <path d="M19.33,-9.23705556e-14 L3.90798505e-14,9 L19.33,18.1 L38.66,9.03 L19.33,-9.23705556e-14 Z M4.72,9.03 L19.33,2.2 L33.941,9.03 L19.33,15.86 L4.72,9.03 Z M30.94,16.74 L33.941,18.16 L19.33,24.989 L4.75,18.19 L7.75,16.77 L6.91,14.96 L3.90798505e-14,18.19 L19.33,27.19 L38.66,18.169 L31.75,14.94 L30.94,16.74 Z M30.94,25.75 L33.941,27.17 L19.33,34 L4.75,27.2 L7.75,25.78 L6.91,23.97 L3.90798505e-14,27.2 L19.33,36.2 L38.66,27.17 L31.75,23.94 L30.94,25.75 Z" id="Fill-1"></path>
        </g>
    </g>
</svg>