<?xml version="1.0" encoding="UTF-8"?>
<svg width="336px" height="240px" viewBox="0 0 336 240" version="1.1" xmlns="http://www.w3.org/2000/svg" xmlns:xlink="http://www.w3.org/1999/xlink">
    <title>PET-Thumbnail</title>
    <g id="Page-1" stroke="none" stroke-width="1" fill="none" fill-rule="evenodd">
        <g id="Artboard-Copy" transform="translate(-831.000000, -2127.000000)">
            <g id="Group-13" transform="translate(831.000000, 2127.000000)">
                <polygon id="Fill-1" fill="#DA6D5D" points="0 239.583645 335.417401 239.583645 335.417401 0 0 0"></polygon>
                <g id="Group-12" transform="translate(83.441242, 83.876328)">
                    <path d="M36.2942581,23.8686652 C36.2942581,18.6379424 33.4103202,16.0236984 27.6446794,16.0236984 L20.1014421,16.0236984 L20.1014421,31.8142084 L27.6446794,31.8142084 C33.4103202,31.8142084 36.2942581,29.165694 36.2942581,23.8686652 L36.2942581,23.8686652 Z M20.1014421,47.4035654 L20.1014421,71.2401951 L0.287872284,71.2401951 L0.287872284,0.0320354767 L29.8573623,0.0320354767 C38.439145,0.0320354767 44.9937525,2.19405765 49.5196949,6.51959202 C54.0456373,10.8443814 56.3089809,16.6271574 56.3089809,23.8686652 C56.3089809,28.361082 55.303216,32.3848869 53.291686,35.9378448 C51.2801561,39.4930377 48.2785064,42.2920443 44.2897171,44.3363548 C40.2994377,46.3821552 35.4896461,47.4035654 29.8573623,47.4035654 L20.1014421,47.4035654 Z" id="Fill-2" fill="#FFFFFF"></path>
                    <polygon id="Fill-4" fill="#FFFFFF" points="83.8655255 15.8226945 83.8655255 27.5901446 106.897543 27.5901446 106.897543 42.5760426 83.8655255 42.5760426 83.8655255 55.4490891 109.914838 55.4490891 109.914838 71.2403441 64.0519557 71.2403441 64.0519557 0.0321844789 109.914838 0.0321844789 109.914838 15.8226945"></polygon>
                    <polygon id="Fill-6" fill="#FFFFFF" points="172.573102 0.0319609756 172.573102 15.822471 153.362991 15.822471 153.362991 71.2401206 133.649997 71.2401206 133.649997 15.822471 114.641039 15.822471 114.641039 0.0319609756"></polygon>
                    <path d="M55.4949073,114.392653 C55.4949073,114.392653 155.053719,150.620307 198.724779,49.3122093" id="Stroke-8" stroke="#00E4D2" stroke-width="2" stroke-linecap="round" stroke-linejoin="round"></path>
                    <path d="M212.033284,65.857043 C212.033284,65.857043 202.627519,54.4799787 203.748016,38.2171317 C203.748016,38.2171317 195.468708,47.1453446 177.099714,49.1293091" id="Stroke-10" stroke="#00E4D2" stroke-width="2" stroke-linecap="round" stroke-linejoin="round"></path>
                </g>
            </g>
        </g>
    </g>
</svg>